  0
SECTION
  2
BLOCKS
  0
ENDSEC
  0
SECTION
  2
ENTITIES
  0
LINE
  8
0
 10
4.36702
 20
-88.8928
 11
8.72351
 21
-88.5714
  0
LINE
  8
0
 10
8.72351
 20
-88.5714
 11
13.059
 21
-88.0367
  0
LINE
  8
0
 10
13.059
 20
-88.0367
 11
17.363
 21
-87.2899
  0
LINE
  8
0
 10
17.363
 20
-87.2899
 11
21.6252
 21
-86.3328
  0
LINE
  8
0
 10
21.6252
 20
-86.3328
 11
25.8353
 21
-85.1677
  0
LINE
  8
0
 10
25.8353
 20
-85.1677
 11
29.9832
 21
-83.7974
  0
LINE
  8
0
 10
29.9832
 20
-83.7974
 11
34.0588
 21
-82.2253
  0
LINE
  8
0
 10
34.0588
 20
-82.2253
 11
38.0524
 21
-80.455
  0
LINE
  8
0
 10
38.0524
 20
-80.455
 11
41.9543
 21
-78.491
  0
LINE
  8
0
 10
41.9543
 20
-78.491
 11
45.7551
 21
-76.3378
  0
LINE
  8
0
 10
45.7551
 20
-76.3378
 11
49.4457
 21
-74.0008
  0
LINE
  8
0
 10
49.4457
 20
-74.0008
 11
53.0172
 21
-71.4855
  0
LINE
  8
0
 10
53.0172
 20
-71.4855
 11
56.461
 21
-68.7979
  0
LINE
  8
0
 10
56.461
 20
-68.7979
 11
59.7687
 21
-65.9446
  0
LINE
  8
0
 10
59.7687
 20
-65.9446
 11
62.9325
 21
-62.9325
  0
LINE
  8
0
 10
62.9325
 20
-62.9325
 11
65.9446
 21
-59.7687
  0
LINE
  8
0
 10
65.9446
 20
-59.7687
 11
68.7979
 21
-56.461
  0
LINE
  8
0
 10
68.7979
 20
-56.461
 11
71.4855
 21
-53.0172
  0
LINE
  8
0
 10
71.4855
 20
-53.0172
 11
74.0008
 21
-49.4457
  0
LINE
  8
0
 10
74.0008
 20
-49.4457
 11
76.3378
 21
-45.7551
  0
LINE
  8
0
 10
76.3378
 20
-45.7551
 11
78.491
 21
-41.9543
  0
LINE
  8
0
 10
78.491
 20
-41.9543
 11
80.455
 21
-38.0524
  0
LINE
  8
0
 10
80.455
 20
-38.0524
 11
82.2253
 21
-34.0588
  0
LINE
  8
0
 10
82.2253
 20
-34.0588
 11
83.7974
 21
-29.9832
  0
LINE
  8
0
 10
83.7974
 20
-29.9832
 11
85.1677
 21
-25.8353
  0
LINE
  8
0
 10
85.1677
 20
-25.8353
 11
86.3328
 21
-21.6252
  0
LINE
  8
0
 10
86.3328
 20
-21.6252
 11
87.2899
 21
-17.363
  0
LINE
  8
0
 10
87.2899
 20
-17.363
 11
88.0367
 21
-13.059
  0
LINE
  8
0
 10
88.0367
 20
-13.059
 11
88.5714
 21
-8.72351
  0
LINE
  8
0
 10
88.5714
 20
-8.72351
 11
88.8928
 21
-4.36702
  0
LINE
  8
0
 10
88.8928
 20
-4.36702
 11
89
 21
0
  0
LINE
  8
0
 10
89
 20
0
 11
88.8928
 21
4.36702
  0
LINE
  8
0
 10
88.8928
 20
4.36702
 11
88.5714
 21
8.72351
  0
LINE
  8
0
 10
88.5714
 20
8.72351
 11
88.0367
 21
13.059
  0
LINE
  8
0
 10
88.0367
 20
13.059
 11
87.2899
 21
17.363
  0
LINE
  8
0
 10
87.2899
 20
17.363
 11
86.3328
 21
21.6252
  0
LINE
  8
0
 10
86.3328
 20
21.6252
 11
85.1677
 21
25.8353
  0
LINE
  8
0
 10
85.1677
 20
25.8353
 11
83.7974
 21
29.9832
  0
LINE
  8
0
 10
83.7974
 20
29.9832
 11
82.2253
 21
34.0588
  0
LINE
  8
0
 10
82.2253
 20
34.0588
 11
80.455
 21
38.0524
  0
LINE
  8
0
 10
80.455
 20
38.0524
 11
78.491
 21
41.9543
  0
LINE
  8
0
 10
78.491
 20
41.9543
 11
76.3378
 21
45.7551
  0
LINE
  8
0
 10
76.3378
 20
45.7551
 11
74.0008
 21
49.4457
  0
LINE
  8
0
 10
74.0008
 20
49.4457
 11
71.4855
 21
53.0172
  0
LINE
  8
0
 10
71.4855
 20
53.0172
 11
68.7979
 21
56.461
  0
LINE
  8
0
 10
68.7979
 20
56.461
 11
65.9446
 21
59.7687
  0
LINE
  8
0
 10
65.9446
 20
59.7687
 11
62.9325
 21
62.9325
  0
LINE
  8
0
 10
62.9325
 20
62.9325
 11
59.7687
 21
65.9446
  0
LINE
  8
0
 10
59.7687
 20
65.9446
 11
56.461
 21
68.7979
  0
LINE
  8
0
 10
56.461
 20
68.7979
 11
53.0172
 21
71.4855
  0
LINE
  8
0
 10
53.0172
 20
71.4855
 11
49.4457
 21
74.0008
  0
LINE
  8
0
 10
49.4457
 20
74.0008
 11
45.7551
 21
76.3378
  0
LINE
  8
0
 10
45.7551
 20
76.3378
 11
41.9543
 21
78.491
  0
LINE
  8
0
 10
41.9543
 20
78.491
 11
38.0524
 21
80.455
  0
LINE
  8
0
 10
38.0524
 20
80.455
 11
34.0588
 21
82.2253
  0
LINE
  8
0
 10
34.0588
 20
82.2253
 11
29.9832
 21
83.7974
  0
LINE
  8
0
 10
29.9832
 20
83.7974
 11
25.8353
 21
85.1677
  0
LINE
  8
0
 10
25.8353
 20
85.1677
 11
21.6252
 21
86.3328
  0
LINE
  8
0
 10
21.6252
 20
86.3328
 11
17.363
 21
87.2899
  0
LINE
  8
0
 10
17.363
 20
87.2899
 11
13.059
 21
88.0367
  0
LINE
  8
0
 10
13.059
 20
88.0367
 11
8.72351
 21
88.5714
  0
LINE
  8
0
 10
8.72351
 20
88.5714
 11
4.36702
 21
88.8928
  0
LINE
  8
0
 10
4.36702
 20
88.8928
 11
0
 21
89
  0
LINE
  8
0
 10
0
 20
89
 11
-4.36702
 21
88.8928
  0
LINE
  8
0
 10
-4.36702
 20
88.8928
 11
-8.72351
 21
88.5714
  0
LINE
  8
0
 10
-8.72351
 20
88.5714
 11
-13.059
 21
88.0367
  0
LINE
  8
0
 10
-13.059
 20
88.0367
 11
-17.363
 21
87.2899
  0
LINE
  8
0
 10
-17.363
 20
87.2899
 11
-21.6252
 21
86.3328
  0
LINE
  8
0
 10
-21.6252
 20
86.3328
 11
-25.8353
 21
85.1677
  0
LINE
  8
0
 10
-25.8353
 20
85.1677
 11
-29.9832
 21
83.7974
  0
LINE
  8
0
 10
-29.9832
 20
83.7974
 11
-34.0588
 21
82.2253
  0
LINE
  8
0
 10
-34.0588
 20
82.2253
 11
-38.0524
 21
80.455
  0
LINE
  8
0
 10
-38.0524
 20
80.455
 11
-41.9543
 21
78.491
  0
LINE
  8
0
 10
-41.9543
 20
78.491
 11
-45.7551
 21
76.3378
  0
LINE
  8
0
 10
-45.7551
 20
76.3378
 11
-49.4457
 21
74.0008
  0
LINE
  8
0
 10
-49.4457
 20
74.0008
 11
-53.0172
 21
71.4855
  0
LINE
  8
0
 10
-53.0172
 20
71.4855
 11
-56.461
 21
68.7979
  0
LINE
  8
0
 10
-56.461
 20
68.7979
 11
-59.7687
 21
65.9446
  0
LINE
  8
0
 10
-59.7687
 20
65.9446
 11
-62.9325
 21
62.9325
  0
LINE
  8
0
 10
-62.9325
 20
62.9325
 11
-65.9446
 21
59.7687
  0
LINE
  8
0
 10
-65.9446
 20
59.7687
 11
-68.7979
 21
56.461
  0
LINE
  8
0
 10
-68.7979
 20
56.461
 11
-71.4855
 21
53.0172
  0
LINE
  8
0
 10
-71.4855
 20
53.0172
 11
-74.0008
 21
49.4457
  0
LINE
  8
0
 10
-74.0008
 20
49.4457
 11
-76.3378
 21
45.7551
  0
LINE
  8
0
 10
-76.3378
 20
45.7551
 11
-78.491
 21
41.9543
  0
LINE
  8
0
 10
-78.491
 20
41.9543
 11
-80.455
 21
38.0524
  0
LINE
  8
0
 10
-80.455
 20
38.0524
 11
-82.2253
 21
34.0588
  0
LINE
  8
0
 10
-82.2253
 20
34.0588
 11
-83.7974
 21
29.9832
  0
LINE
  8
0
 10
-83.7974
 20
29.9832
 11
-85.1677
 21
25.8353
  0
LINE
  8
0
 10
-85.1677
 20
25.8353
 11
-86.3328
 21
21.6252
  0
LINE
  8
0
 10
-86.3328
 20
21.6252
 11
-87.2899
 21
17.363
  0
LINE
  8
0
 10
-87.2899
 20
17.363
 11
-88.0367
 21
13.059
  0
LINE
  8
0
 10
-88.0367
 20
13.059
 11
-88.5714
 21
8.72351
  0
LINE
  8
0
 10
-88.5714
 20
8.72351
 11
-88.8928
 21
4.36702
  0
LINE
  8
0
 10
-88.8928
 20
4.36702
 11
-89
 21
0
  0
LINE
  8
0
 10
-89
 20
0
 11
-88.8928
 21
-4.36702
  0
LINE
  8
0
 10
-88.8928
 20
-4.36702
 11
-88.5714
 21
-8.72351
  0
LINE
  8
0
 10
-88.5714
 20
-8.72351
 11
-88.0367
 21
-13.059
  0
LINE
  8
0
 10
-88.0367
 20
-13.059
 11
-87.2899
 21
-17.363
  0
LINE
  8
0
 10
-87.2899
 20
-17.363
 11
-86.3328
 21
-21.6252
  0
LINE
  8
0
 10
-86.3328
 20
-21.6252
 11
-85.1677
 21
-25.8353
  0
LINE
  8
0
 10
-85.1677
 20
-25.8353
 11
-83.7974
 21
-29.9832
  0
LINE
  8
0
 10
-83.7974
 20
-29.9832
 11
-82.2253
 21
-34.0588
  0
LINE
  8
0
 10
-82.2253
 20
-34.0588
 11
-80.455
 21
-38.0524
  0
LINE
  8
0
 10
-80.455
 20
-38.0524
 11
-78.491
 21
-41.9543
  0
LINE
  8
0
 10
-78.491
 20
-41.9543
 11
-76.3378
 21
-45.7551
  0
LINE
  8
0
 10
-76.3378
 20
-45.7551
 11
-74.0008
 21
-49.4457
  0
LINE
  8
0
 10
-74.0008
 20
-49.4457
 11
-71.4855
 21
-53.0172
  0
LINE
  8
0
 10
-71.4855
 20
-53.0172
 11
-68.7979
 21
-56.461
  0
LINE
  8
0
 10
-68.7979
 20
-56.461
 11
-65.9446
 21
-59.7687
  0
LINE
  8
0
 10
-65.9446
 20
-59.7687
 11
-62.9325
 21
-62.9325
  0
LINE
  8
0
 10
-62.9325
 20
-62.9325
 11
-59.7687
 21
-65.9446
  0
LINE
  8
0
 10
-59.7687
 20
-65.9446
 11
-56.461
 21
-68.7979
  0
LINE
  8
0
 10
-56.461
 20
-68.7979
 11
-53.0172
 21
-71.4855
  0
LINE
  8
0
 10
-53.0172
 20
-71.4855
 11
-49.4457
 21
-74.0008
  0
LINE
  8
0
 10
-49.4457
 20
-74.0008
 11
-45.7551
 21
-76.3378
  0
LINE
  8
0
 10
-45.7551
 20
-76.3378
 11
-41.9543
 21
-78.491
  0
LINE
  8
0
 10
-41.9543
 20
-78.491
 11
-38.0524
 21
-80.455
  0
LINE
  8
0
 10
-38.0524
 20
-80.455
 11
-34.0588
 21
-82.2253
  0
LINE
  8
0
 10
-34.0588
 20
-82.2253
 11
-29.9832
 21
-83.7974
  0
LINE
  8
0
 10
-29.9832
 20
-83.7974
 11
-25.8353
 21
-85.1677
  0
LINE
  8
0
 10
-25.8353
 20
-85.1677
 11
-21.6252
 21
-86.3328
  0
LINE
  8
0
 10
-21.6252
 20
-86.3328
 11
-17.363
 21
-87.2899
  0
LINE
  8
0
 10
-17.363
 20
-87.2899
 11
-13.059
 21
-88.0367
  0
LINE
  8
0
 10
-13.059
 20
-88.0367
 11
-8.72351
 21
-88.5714
  0
LINE
  8
0
 10
-8.72351
 20
-88.5714
 11
-4.36702
 21
-88.8928
  0
LINE
  8
0
 10
-4.36702
 20
-88.8928
 11
0
 21
-89
  0
LINE
  8
0
 10
0
 20
-89
 11
4.36702
 21
-88.8928
  0
LINE
  8
0
 10
17.3325
 20
55.6405
 11
16.7459
 21
55.6934
  0
LINE
  8
0
 10
16.7459
 20
55.6934
 11
16.1626
 21
55.7751
  0
LINE
  8
0
 10
16.1626
 20
55.7751
 11
15.584
 21
55.8853
  0
LINE
  8
0
 10
15.584
 20
55.8853
 11
15.0115
 21
56.0237
  0
LINE
  8
0
 10
15.0115
 20
56.0237
 11
14.4465
 21
56.19
  0
LINE
  8
0
 10
14.4465
 20
56.19
 11
13.8903
 21
56.3839
  0
LINE
  8
0
 10
13.8903
 20
56.3839
 11
13.3443
 21
56.6049
  0
LINE
  8
0
 10
13.3443
 20
56.6049
 11
12.8099
 21
56.8523
  0
LINE
  8
0
 10
12.8099
 20
56.8523
 11
12.2882
 21
57.1257
  0
LINE
  8
0
 10
12.2882
 20
57.1257
 11
11.7805
 21
57.4244
  0
LINE
  8
0
 10
11.7805
 20
57.4244
 11
11.2881
 21
57.7476
  0
LINE
  8
0
 10
11.2881
 20
57.7476
 11
10.8122
 21
58.0946
  0
LINE
  8
0
 10
10.8122
 20
58.0946
 11
10.3539
 21
58.4645
  0
LINE
  8
0
 10
10.3539
 20
58.4645
 11
9.91422
 21
58.8564
  0
LINE
  8
0
 10
9.91422
 20
58.8564
 11
9.49434
 21
59.2695
  0
LINE
  8
0
 10
9.49434
 20
59.2695
 11
9.09525
 21
59.7027
  0
LINE
  8
0
 10
9.09525
 20
59.7027
 11
8.71788
 21
60.1549
  0
LINE
  8
0
 10
8.71788
 20
60.1549
 11
8.36316
 21
60.6251
  0
LINE
  8
0
 10
8.36316
 20
60.6251
 11
8.03195
 21
61.1121
  0
LINE
  8
0
 10
8.03195
 20
61.1121
 11
7.72502
 21
61.6148
  0
LINE
  8
0
 10
7.72502
 20
61.6148
 11
7.44313
 21
62.132
  0
LINE
  8
0
 10
7.44313
 20
62.132
 11
7.18697
 21
62.6623
  0
LINE
  8
0
 10
7.18697
 20
62.6623
 11
6.95712
 21
63.2046
  0
LINE
  8
0
 10
6.95712
 20
63.2046
 11
6.75417
 21
63.7575
  0
LINE
  8
0
 10
6.75417
 20
63.7575
 11
6.57858
 21
64.3197
  0
LINE
  8
0
 10
6.57858
 20
64.3197
 11
6.4308
 21
64.8899
  0
LINE
  8
0
 10
6.4308
 20
64.8899
 11
6.31117
 21
65.4666
  0
LINE
  8
0
 10
6.31117
 20
65.4666
 11
6.21999
 21
66.0485
  0
LINE
  8
0
 10
6.21999
 20
66.0485
 11
6.15746
 21
66.6341
  0
LINE
  8
0
 10
6.15746
 20
66.6341
 11
6.12375
 21
67.2222
  0
LINE
  8
0
 10
6.12375
 20
67.2222
 11
6.11893
 21
67.8111
  0
LINE
  8
0
 10
6.11893
 20
67.8111
 11
6.14302
 21
68.3996
  0
LINE
  8
0
 10
6.14302
 20
68.3996
 11
6.19595
 21
68.9862
  0
LINE
  8
0
 10
6.19595
 20
68.9862
 11
6.2776
 21
69.5695
  0
LINE
  8
0
 10
6.2776
 20
69.5695
 11
6.38779
 21
70.1481
  0
LINE
  8
0
 10
6.38779
 20
70.1481
 11
6.52621
 21
70.7206
  0
LINE
  8
0
 10
6.52621
 20
70.7206
 11
6.69257
 21
71.2856
  0
LINE
  8
0
 10
6.69257
 20
71.2856
 11
6.88646
 21
71.8418
  0
LINE
  8
0
 10
6.88646
 20
71.8418
 11
7.10739
 21
72.3878
  0
LINE
  8
0
 10
7.10739
 20
72.3878
 11
7.35486
 21
72.9223
  0
LINE
  8
0
 10
7.35486
 20
72.9223
 11
7.62823
 21
73.444
  0
LINE
  8
0
 10
7.62823
 20
73.444
 11
7.9269
 21
73.9516
  0
LINE
  8
0
 10
7.9269
 20
73.9516
 11
8.25011
 21
74.444
  0
LINE
  8
0
 10
8.25011
 20
74.444
 11
8.59709
 21
74.9199
  0
LINE
  8
0
 10
8.59709
 20
74.9199
 11
8.967
 21
75.3783
  0
LINE
  8
0
 10
8.967
 20
75.3783
 11
9.35896
 21
75.8179
  0
LINE
  8
0
 10
9.35896
 20
75.8179
 11
9.77202
 21
76.2378
  0
LINE
  8
0
 10
9.77202
 20
76.2378
 11
10.2052
 21
76.6369
  0
LINE
  8
0
 10
10.2052
 20
76.6369
 11
10.6574
 21
77.0142
  0
LINE
  8
0
 10
10.6574
 20
77.0142
 11
11.1276
 21
77.369
  0
LINE
  8
0
 10
11.1276
 20
77.369
 11
11.6146
 21
77.7002
  0
LINE
  8
0
 10
11.6146
 20
77.7002
 11
12.1173
 21
78.0071
  0
LINE
  8
0
 10
12.1173
 20
78.0071
 11
12.6345
 21
78.289
  0
LINE
  8
0
 10
12.6345
 20
78.289
 11
13.1648
 21
78.5452
  0
LINE
  8
0
 10
13.1648
 20
78.5452
 11
13.7071
 21
78.775
  0
LINE
  8
0
 10
13.7071
 20
78.775
 11
14.2601
 21
78.978
  0
LINE
  8
0
 10
14.2601
 20
78.978
 11
14.8223
 21
79.1535
  0
LINE
  8
0
 10
14.8223
 20
79.1535
 11
15.3924
 21
79.3013
  0
LINE
  8
0
 10
15.3924
 20
79.3013
 11
15.9691
 21
79.421
  0
LINE
  8
0
 10
15.9691
 20
79.421
 11
16.551
 21
79.5121
  0
LINE
  8
0
 10
16.551
 20
79.5121
 11
17.1367
 21
79.5747
  0
LINE
  8
0
 10
17.1367
 20
79.5747
 11
17.7247
 21
79.6084
  0
LINE
  8
0
 10
17.7247
 20
79.6084
 11
18.3137
 21
79.6132
  0
LINE
  8
0
 10
18.3137
 20
79.6132
 11
18.9022
 21
79.5891
  0
LINE
  8
0
 10
18.9022
 20
79.5891
 11
19.4888
 21
79.5362
  0
LINE
  8
0
 10
19.4888
 20
79.5362
 11
20.0721
 21
79.4545
  0
LINE
  8
0
 10
20.0721
 20
79.4545
 11
20.6507
 21
79.3443
  0
LINE
  8
0
 10
20.6507
 20
79.3443
 11
21.2232
 21
79.2059
  0
LINE
  8
0
 10
21.2232
 20
79.2059
 11
21.7882
 21
79.0396
  0
LINE
  8
0
 10
21.7882
 20
79.0396
 11
22.3443
 21
78.8457
  0
LINE
  8
0
 10
22.3443
 20
78.8457
 11
22.8903
 21
78.6247
  0
LINE
  8
0
 10
22.8903
 20
78.6247
 11
23.4248
 21
78.3773
  0
LINE
  8
0
 10
23.4248
 20
78.3773
 11
23.9465
 21
78.1039
  0
LINE
  8
0
 10
23.9465
 20
78.1039
 11
24.4541
 21
77.8052
  0
LINE
  8
0
 10
24.4541
 20
77.8052
 11
24.9465
 21
77.482
  0
LINE
  8
0
 10
24.9465
 20
77.482
 11
25.4225
 21
77.135
  0
LINE
  8
0
 10
25.4225
 20
77.135
 11
25.8808
 21
76.7651
  0
LINE
  8
0
 10
25.8808
 20
76.7651
 11
26.3204
 21
76.3732
  0
LINE
  8
0
 10
26.3204
 20
76.3732
 11
26.7403
 21
75.9601
  0
LINE
  8
0
 10
26.7403
 20
75.9601
 11
27.1394
 21
75.5269
  0
LINE
  8
0
 10
27.1394
 20
75.5269
 11
27.5168
 21
75.0747
  0
LINE
  8
0
 10
27.5168
 20
75.0747
 11
27.8715
 21
74.6045
  0
LINE
  8
0
 10
27.8715
 20
74.6045
 11
28.2027
 21
74.1175
  0
LINE
  8
0
 10
28.2027
 20
74.1175
 11
28.5096
 21
73.6148
  0
LINE
  8
0
 10
28.5096
 20
73.6148
 11
28.7915
 21
73.0976
  0
LINE
  8
0
 10
28.7915
 20
73.0976
 11
29.0477
 21
72.5673
  0
LINE
  8
0
 10
29.0477
 20
72.5673
 11
29.2775
 21
72.025
  0
LINE
  8
0
 10
29.2775
 20
72.025
 11
29.4805
 21
71.4721
  0
LINE
  8
0
 10
29.4805
 20
71.4721
 11
29.6561
 21
70.9099
  0
LINE
  8
0
 10
29.6561
 20
70.9099
 11
29.8038
 21
70.3397
  0
LINE
  8
0
 10
29.8038
 20
70.3397
 11
29.9235
 21
69.763
  0
LINE
  8
0
 10
29.9235
 20
69.763
 11
30.0147
 21
69.1811
  0
LINE
  8
0
 10
30.0147
 20
69.1811
 11
30.0772
 21
68.5955
  0
LINE
  8
0
 10
30.0772
 20
68.5955
 11
30.1109
 21
68.0074
  0
LINE
  8
0
 10
30.1109
 20
68.0074
 11
30.1157
 21
67.4185
  0
LINE
  8
0
 10
30.1157
 20
67.4185
 11
30.0916
 21
66.83
  0
LINE
  8
0
 10
30.0916
 20
66.83
 11
30.0387
 21
66.2434
  0
LINE
  8
0
 10
30.0387
 20
66.2434
 11
29.957
 21
65.66
  0
LINE
  8
0
 10
29.957
 20
65.66
 11
29.8469
 21
65.0815
  0
LINE
  8
0
 10
29.8469
 20
65.0815
 11
29.7084
 21
64.509
  0
LINE
  8
0
 10
29.7084
 20
64.509
 11
29.5421
 21
63.944
  0
LINE
  8
0
 10
29.5421
 20
63.944
 11
29.3482
 21
63.3878
  0
LINE
  8
0
 10
29.3482
 20
63.3878
 11
29.1273
 21
62.8418
  0
LINE
  8
0
 10
29.1273
 20
62.8418
 11
28.8798
 21
62.3073
  0
LINE
  8
0
 10
28.8798
 20
62.3073
 11
28.6064
 21
61.7856
  0
LINE
  8
0
 10
28.6064
 20
61.7856
 11
28.3078
 21
61.278
  0
LINE
  8
0
 10
28.3078
 20
61.278
 11
27.9845
 21
60.7856
  0
LINE
  8
0
 10
27.9845
 20
60.7856
 11
27.6376
 21
60.3097
  0
LINE
  8
0
 10
27.6376
 20
60.3097
 11
27.2677
 21
59.8513
  0
LINE
  8
0
 10
27.2677
 20
59.8513
 11
26.8757
 21
59.4117
  0
LINE
  8
0
 10
26.8757
 20
59.4117
 11
26.4626
 21
58.9918
  0
LINE
  8
0
 10
26.4626
 20
58.9918
 11
26.0295
 21
58.5927
  0
LINE
  8
0
 10
26.0295
 20
58.5927
 11
25.5773
 21
58.2154
  0
LINE
  8
0
 10
25.5773
 20
58.2154
 11
25.1071
 21
57.8606
  0
LINE
  8
0
 10
25.1071
 20
57.8606
 11
24.62
 21
57.5294
  0
LINE
  8
0
 10
24.62
 20
57.5294
 11
24.1173
 21
57.2225
  0
LINE
  8
0
 10
24.1173
 20
57.2225
 11
23.6002
 21
56.9406
  0
LINE
  8
0
 10
23.6002
 20
56.9406
 11
23.0698
 21
56.6844
  0
LINE
  8
0
 10
23.0698
 20
56.6844
 11
22.5275
 21
56.4546
  0
LINE
  8
0
 10
22.5275
 20
56.4546
 11
21.9746
 21
56.2516
  0
LINE
  8
0
 10
21.9746
 20
56.2516
 11
21.4124
 21
56.0761
  0
LINE
  8
0
 10
21.4124
 20
56.0761
 11
20.8422
 21
55.9283
  0
LINE
  8
0
 10
20.8422
 20
55.9283
 11
20.2655
 21
55.8087
  0
LINE
  8
0
 10
20.2655
 20
55.8087
 11
19.6836
 21
55.7175
  0
LINE
  8
0
 10
19.6836
 20
55.7175
 11
19.098
 21
55.6549
  0
LINE
  8
0
 10
19.098
 20
55.6549
 11
18.5099
 21
55.6212
  0
LINE
  8
0
 10
18.5099
 20
55.6212
 11
17.921
 21
55.6164
  0
LINE
  8
0
 10
17.921
 20
55.6164
 11
17.3325
 21
55.6405
  0
LINE
  8
0
 10
-18.5099
 20
55.6212
 11
-19.098
 21
55.6549
  0
LINE
  8
0
 10
-19.098
 20
55.6549
 11
-19.6836
 21
55.7175
  0
LINE
  8
0
 10
-19.6836
 20
55.7175
 11
-20.2655
 21
55.8087
  0
LINE
  8
0
 10
-20.2655
 20
55.8087
 11
-20.8422
 21
55.9283
  0
LINE
  8
0
 10
-20.8422
 20
55.9283
 11
-21.4124
 21
56.0761
  0
LINE
  8
0
 10
-21.4124
 20
56.0761
 11
-21.9746
 21
56.2516
  0
LINE
  8
0
 10
-21.9746
 20
56.2516
 11
-22.5275
 21
56.4546
  0
LINE
  8
0
 10
-22.5275
 20
56.4546
 11
-23.0698
 21
56.6844
  0
LINE
  8
0
 10
-23.0698
 20
56.6844
 11
-23.6002
 21
56.9406
  0
LINE
  8
0
 10
-23.6002
 20
56.9406
 11
-24.1173
 21
57.2225
  0
LINE
  8
0
 10
-24.1173
 20
57.2225
 11
-24.62
 21
57.5294
  0
LINE
  8
0
 10
-24.62
 20
57.5294
 11
-25.1071
 21
57.8606
  0
LINE
  8
0
 10
-25.1071
 20
57.8606
 11
-25.5773
 21
58.2154
  0
LINE
  8
0
 10
-25.5773
 20
58.2154
 11
-26.0295
 21
58.5927
  0
LINE
  8
0
 10
-26.0295
 20
58.5927
 11
-26.4626
 21
58.9918
  0
LINE
  8
0
 10
-26.4626
 20
58.9918
 11
-26.8757
 21
59.4117
  0
LINE
  8
0
 10
-26.8757
 20
59.4117
 11
-27.2677
 21
59.8513
  0
LINE
  8
0
 10
-27.2677
 20
59.8513
 11
-27.6376
 21
60.3097
  0
LINE
  8
0
 10
-27.6376
 20
60.3097
 11
-27.9845
 21
60.7856
  0
LINE
  8
0
 10
-27.9845
 20
60.7856
 11
-28.3078
 21
61.278
  0
LINE
  8
0
 10
-28.3078
 20
61.278
 11
-28.6064
 21
61.7856
  0
LINE
  8
0
 10
-28.6064
 20
61.7856
 11
-28.8798
 21
62.3073
  0
LINE
  8
0
 10
-28.8798
 20
62.3073
 11
-29.1273
 21
62.8418
  0
LINE
  8
0
 10
-29.1273
 20
62.8418
 11
-29.3482
 21
63.3878
  0
LINE
  8
0
 10
-29.3482
 20
63.3878
 11
-29.5421
 21
63.944
  0
LINE
  8
0
 10
-29.5421
 20
63.944
 11
-29.7084
 21
64.509
  0
LINE
  8
0
 10
-29.7084
 20
64.509
 11
-29.8469
 21
65.0815
  0
LINE
  8
0
 10
-29.8469
 20
65.0815
 11
-29.957
 21
65.66
  0
LINE
  8
0
 10
-29.957
 20
65.66
 11
-30.0387
 21
66.2434
  0
LINE
  8
0
 10
-30.0387
 20
66.2434
 11
-30.0916
 21
66.83
  0
LINE
  8
0
 10
-30.0916
 20
66.83
 11
-30.1157
 21
67.4185
  0
LINE
  8
0
 10
-30.1157
 20
67.4185
 11
-30.1109
 21
68.0074
  0
LINE
  8
0
 10
-30.1109
 20
68.0074
 11
-30.0772
 21
68.5955
  0
LINE
  8
0
 10
-30.0772
 20
68.5955
 11
-30.0147
 21
69.1811
  0
LINE
  8
0
 10
-30.0147
 20
69.1811
 11
-29.9235
 21
69.763
  0
LINE
  8
0
 10
-29.9235
 20
69.763
 11
-29.8038
 21
70.3397
  0
LINE
  8
0
 10
-29.8038
 20
70.3397
 11
-29.6561
 21
70.9099
  0
LINE
  8
0
 10
-29.6561
 20
70.9099
 11
-29.4805
 21
71.4721
  0
LINE
  8
0
 10
-29.4805
 20
71.4721
 11
-29.2775
 21
72.025
  0
LINE
  8
0
 10
-29.2775
 20
72.025
 11
-29.0477
 21
72.5673
  0
LINE
  8
0
 10
-29.0477
 20
72.5673
 11
-28.7915
 21
73.0976
  0
LINE
  8
0
 10
-28.7915
 20
73.0976
 11
-28.5096
 21
73.6148
  0
LINE
  8
0
 10
-28.5096
 20
73.6148
 11
-28.2027
 21
74.1175
  0
LINE
  8
0
 10
-28.2027
 20
74.1175
 11
-27.8715
 21
74.6045
  0
LINE
  8
0
 10
-27.8715
 20
74.6045
 11
-27.5168
 21
75.0747
  0
LINE
  8
0
 10
-27.5168
 20
75.0747
 11
-27.1394
 21
75.5269
  0
LINE
  8
0
 10
-27.1394
 20
75.5269
 11
-26.7403
 21
75.9601
  0
LINE
  8
0
 10
-26.7403
 20
75.9601
 11
-26.3204
 21
76.3732
  0
LINE
  8
0
 10
-26.3204
 20
76.3732
 11
-25.8808
 21
76.7651
  0
LINE
  8
0
 10
-25.8808
 20
76.7651
 11
-25.4225
 21
77.135
  0
LINE
  8
0
 10
-25.4225
 20
77.135
 11
-24.9465
 21
77.482
  0
LINE
  8
0
 10
-24.9465
 20
77.482
 11
-24.4541
 21
77.8052
  0
LINE
  8
0
 10
-24.4541
 20
77.8052
 11
-23.9465
 21
78.1039
  0
LINE
  8
0
 10
-23.9465
 20
78.1039
 11
-23.4248
 21
78.3773
  0
LINE
  8
0
 10
-23.4248
 20
78.3773
 11
-22.8903
 21
78.6247
  0
LINE
  8
0
 10
-22.8903
 20
78.6247
 11
-22.3443
 21
78.8457
  0
LINE
  8
0
 10
-22.3443
 20
78.8457
 11
-21.7882
 21
79.0396
  0
LINE
  8
0
 10
-21.7882
 20
79.0396
 11
-21.2232
 21
79.2059
  0
LINE
  8
0
 10
-21.2232
 20
79.2059
 11
-20.6507
 21
79.3443
  0
LINE
  8
0
 10
-20.6507
 20
79.3443
 11
-20.0721
 21
79.4545
  0
LINE
  8
0
 10
-20.0721
 20
79.4545
 11
-19.4888
 21
79.5362
  0
LINE
  8
0
 10
-19.4888
 20
79.5362
 11
-18.9022
 21
79.5891
  0
LINE
  8
0
 10
-18.9022
 20
79.5891
 11
-18.3137
 21
79.6132
  0
LINE
  8
0
 10
-18.3137
 20
79.6132
 11
-17.7247
 21
79.6084
  0
LINE
  8
0
 10
-17.7247
 20
79.6084
 11
-17.1367
 21
79.5747
  0
LINE
  8
0
 10
-17.1367
 20
79.5747
 11
-16.551
 21
79.5121
  0
LINE
  8
0
 10
-16.551
 20
79.5121
 11
-15.9691
 21
79.421
  0
LINE
  8
0
 10
-15.9691
 20
79.421
 11
-15.3924
 21
79.3013
  0
LINE
  8
0
 10
-15.3924
 20
79.3013
 11
-14.8223
 21
79.1535
  0
LINE
  8
0
 10
-14.8223
 20
79.1535
 11
-14.2601
 21
78.978
  0
LINE
  8
0
 10
-14.2601
 20
78.978
 11
-13.7071
 21
78.775
  0
LINE
  8
0
 10
-13.7071
 20
78.775
 11
-13.1648
 21
78.5452
  0
LINE
  8
0
 10
-13.1648
 20
78.5452
 11
-12.6345
 21
78.289
  0
LINE
  8
0
 10
-12.6345
 20
78.289
 11
-12.1173
 21
78.0071
  0
LINE
  8
0
 10
-12.1173
 20
78.0071
 11
-11.6146
 21
77.7002
  0
LINE
  8
0
 10
-11.6146
 20
77.7002
 11
-11.1276
 21
77.369
  0
LINE
  8
0
 10
-11.1276
 20
77.369
 11
-10.6574
 21
77.0142
  0
LINE
  8
0
 10
-10.6574
 20
77.0142
 11
-10.2052
 21
76.6369
  0
LINE
  8
0
 10
-10.2052
 20
76.6369
 11
-9.77202
 21
76.2378
  0
LINE
  8
0
 10
-9.77202
 20
76.2378
 11
-9.35896
 21
75.8179
  0
LINE
  8
0
 10
-9.35896
 20
75.8179
 11
-8.967
 21
75.3783
  0
LINE
  8
0
 10
-8.967
 20
75.3783
 11
-8.59709
 21
74.9199
  0
LINE
  8
0
 10
-8.59709
 20
74.9199
 11
-8.25011
 21
74.444
  0
LINE
  8
0
 10
-8.25011
 20
74.444
 11
-7.9269
 21
73.9516
  0
LINE
  8
0
 10
-7.9269
 20
73.9516
 11
-7.62823
 21
73.444
  0
LINE
  8
0
 10
-7.62823
 20
73.444
 11
-7.35486
 21
72.9223
  0
LINE
  8
0
 10
-7.35486
 20
72.9223
 11
-7.10739
 21
72.3878
  0
LINE
  8
0
 10
-7.10739
 20
72.3878
 11
-6.88646
 21
71.8418
  0
LINE
  8
0
 10
-6.88646
 20
71.8418
 11
-6.69257
 21
71.2856
  0
LINE
  8
0
 10
-6.69257
 20
71.2856
 11
-6.52621
 21
70.7206
  0
LINE
  8
0
 10
-6.52621
 20
70.7206
 11
-6.38779
 21
70.1481
  0
LINE
  8
0
 10
-6.38779
 20
70.1481
 11
-6.2776
 21
69.5695
  0
LINE
  8
0
 10
-6.2776
 20
69.5695
 11
-6.19595
 21
68.9862
  0
LINE
  8
0
 10
-6.19595
 20
68.9862
 11
-6.14302
 21
68.3996
  0
LINE
  8
0
 10
-6.14302
 20
68.3996
 11
-6.11893
 21
67.8111
  0
LINE
  8
0
 10
-6.11893
 20
67.8111
 11
-6.12375
 21
67.2222
  0
LINE
  8
0
 10
-6.12375
 20
67.2222
 11
-6.15746
 21
66.6341
  0
LINE
  8
0
 10
-6.15746
 20
66.6341
 11
-6.21999
 21
66.0485
  0
LINE
  8
0
 10
-6.21999
 20
66.0485
 11
-6.31117
 21
65.4666
  0
LINE
  8
0
 10
-6.31117
 20
65.4666
 11
-6.4308
 21
64.8899
  0
LINE
  8
0
 10
-6.4308
 20
64.8899
 11
-6.57858
 21
64.3197
  0
LINE
  8
0
 10
-6.57858
 20
64.3197
 11
-6.75417
 21
63.7575
  0
LINE
  8
0
 10
-6.75417
 20
63.7575
 11
-6.95712
 21
63.2046
  0
LINE
  8
0
 10
-6.95712
 20
63.2046
 11
-7.18697
 21
62.6623
  0
LINE
  8
0
 10
-7.18697
 20
62.6623
 11
-7.44313
 21
62.132
  0
LINE
  8
0
 10
-7.44313
 20
62.132
 11
-7.72502
 21
61.6148
  0
LINE
  8
0
 10
-7.72502
 20
61.6148
 11
-8.03195
 21
61.1121
  0
LINE
  8
0
 10
-8.03195
 20
61.1121
 11
-8.36316
 21
60.6251
  0
LINE
  8
0
 10
-8.36316
 20
60.6251
 11
-8.71788
 21
60.1549
  0
LINE
  8
0
 10
-8.71788
 20
60.1549
 11
-9.09525
 21
59.7027
  0
LINE
  8
0
 10
-9.09525
 20
59.7027
 11
-9.49434
 21
59.2695
  0
LINE
  8
0
 10
-9.49434
 20
59.2695
 11
-9.91422
 21
58.8564
  0
LINE
  8
0
 10
-9.91422
 20
58.8564
 11
-10.3539
 21
58.4645
  0
LINE
  8
0
 10
-10.3539
 20
58.4645
 11
-10.8122
 21
58.0946
  0
LINE
  8
0
 10
-10.8122
 20
58.0946
 11
-11.2881
 21
57.7476
  0
LINE
  8
0
 10
-11.2881
 20
57.7476
 11
-11.7805
 21
57.4244
  0
LINE
  8
0
 10
-11.7805
 20
57.4244
 11
-12.2882
 21
57.1257
  0
LINE
  8
0
 10
-12.2882
 20
57.1257
 11
-12.8099
 21
56.8523
  0
LINE
  8
0
 10
-12.8099
 20
56.8523
 11
-13.3443
 21
56.6049
  0
LINE
  8
0
 10
-13.3443
 20
56.6049
 11
-13.8903
 21
56.3839
  0
LINE
  8
0
 10
-13.8903
 20
56.3839
 11
-14.4465
 21
56.19
  0
LINE
  8
0
 10
-14.4465
 20
56.19
 11
-15.0115
 21
56.0237
  0
LINE
  8
0
 10
-15.0115
 20
56.0237
 11
-15.584
 21
55.8853
  0
LINE
  8
0
 10
-15.584
 20
55.8853
 11
-16.1626
 21
55.7751
  0
LINE
  8
0
 10
-16.1626
 20
55.7751
 11
-16.7459
 21
55.6934
  0
LINE
  8
0
 10
-16.7459
 20
55.6934
 11
-17.3325
 21
55.6405
  0
LINE
  8
0
 10
-17.3325
 20
55.6405
 11
-17.921
 21
55.6164
  0
LINE
  8
0
 10
-17.921
 20
55.6164
 11
-18.5099
 21
55.6212
  0
LINE
  8
0
 10
48.9087
 20
37.5119
 11
48.3213
 21
37.5553
  0
LINE
  8
0
 10
48.3213
 20
37.5553
 11
47.7367
 21
37.6273
  0
LINE
  8
0
 10
47.7367
 20
37.6273
 11
47.1564
 21
37.728
  0
LINE
  8
0
 10
47.1564
 20
37.728
 11
46.5817
 21
37.8571
  0
LINE
  8
0
 10
46.5817
 20
37.8571
 11
46.0141
 21
38.0142
  0
LINE
  8
0
 10
46.0141
 20
38.0142
 11
45.4548
 21
38.1989
  0
LINE
  8
0
 10
45.4548
 20
38.1989
 11
44.9053
 21
38.4109
  0
LINE
  8
0
 10
44.9053
 20
38.4109
 11
44.3668
 21
38.6496
  0
LINE
  8
0
 10
44.3668
 20
38.6496
 11
43.8407
 21
38.9144
  0
LINE
  8
0
 10
43.8407
 20
38.9144
 11
43.3282
 21
39.2047
  0
LINE
  8
0
 10
43.3282
 20
39.2047
 11
42.8306
 21
39.5198
  0
LINE
  8
0
 10
42.8306
 20
39.5198
 11
42.3491
 21
39.859
  0
LINE
  8
0
 10
42.3491
 20
39.859
 11
41.8848
 21
40.2213
  0
LINE
  8
0
 10
41.8848
 20
40.2213
 11
41.4388
 21
40.606
  0
LINE
  8
0
 10
41.4388
 20
40.606
 11
41.0122
 21
41.0122
  0
LINE
  8
0
 10
41.0122
 20
41.0122
 11
40.606
 21
41.4388
  0
LINE
  8
0
 10
40.606
 20
41.4388
 11
40.2213
 21
41.8848
  0
LINE
  8
0
 10
40.2213
 20
41.8848
 11
39.859
 21
42.3491
  0
LINE
  8
0
 10
39.859
 20
42.3491
 11
39.5198
 21
42.8306
  0
LINE
  8
0
 10
39.5198
 20
42.8306
 11
39.2047
 21
43.3282
  0
LINE
  8
0
 10
39.2047
 20
43.3282
 11
38.9144
 21
43.8407
  0
LINE
  8
0
 10
38.9144
 20
43.8407
 11
38.6496
 21
44.3668
  0
LINE
  8
0
 10
38.6496
 20
44.3668
 11
38.4109
 21
44.9053
  0
LINE
  8
0
 10
38.4109
 20
44.9053
 11
38.1989
 21
45.4548
  0
LINE
  8
0
 10
38.1989
 20
45.4548
 11
38.0142
 21
46.0141
  0
LINE
  8
0
 10
38.0142
 20
46.0141
 11
37.8571
 21
46.5817
  0
LINE
  8
0
 10
37.8571
 20
46.5817
 11
37.728
 21
47.1564
  0
LINE
  8
0
 10
37.728
 20
47.1564
 11
37.6273
 21
47.7367
  0
LINE
  8
0
 10
37.6273
 20
47.7367
 11
37.5553
 21
48.3213
  0
LINE
  8
0
 10
37.5553
 20
48.3213
 11
37.5119
 21
48.9087
  0
LINE
  8
0
 10
37.5119
 20
48.9087
 11
37.4975
 21
49.4975
  0
LINE
  8
0
 10
37.4975
 20
49.4975
 11
37.5119
 21
50.0863
  0
LINE
  8
0
 10
37.5119
 20
50.0863
 11
37.5553
 21
50.6737
  0
LINE
  8
0
 10
37.5553
 20
50.6737
 11
37.6273
 21
51.2582
  0
LINE
  8
0
 10
37.6273
 20
51.2582
 11
37.728
 21
51.8385
  0
LINE
  8
0
 10
37.728
 20
51.8385
 11
37.8571
 21
52.4132
  0
LINE
  8
0
 10
37.8571
 20
52.4132
 11
38.0142
 21
52.9809
  0
LINE
  8
0
 10
38.0142
 20
52.9809
 11
38.1989
 21
53.5401
  0
LINE
  8
0
 10
38.1989
 20
53.5401
 11
38.4109
 21
54.0897
  0
LINE
  8
0
 10
38.4109
 20
54.0897
 11
38.6496
 21
54.6281
  0
LINE
  8
0
 10
38.6496
 20
54.6281
 11
38.9144
 21
55.1542
  0
LINE
  8
0
 10
38.9144
 20
55.1542
 11
39.2047
 21
55.6667
  0
LINE
  8
0
 10
39.2047
 20
55.6667
 11
39.5198
 21
56.1643
  0
LINE
  8
0
 10
39.5198
 20
56.1643
 11
39.859
 21
56.6459
  0
LINE
  8
0
 10
39.859
 20
56.6459
 11
40.2213
 21
57.1102
  0
LINE
  8
0
 10
40.2213
 20
57.1102
 11
40.606
 21
57.5562
  0
LINE
  8
0
 10
40.606
 20
57.5562
 11
41.0122
 21
57.9827
  0
LINE
  8
0
 10
41.0122
 20
57.9827
 11
41.4388
 21
58.3889
  0
LINE
  8
0
 10
41.4388
 20
58.3889
 11
41.8848
 21
58.7736
  0
LINE
  8
0
 10
41.8848
 20
58.7736
 11
42.3491
 21
59.136
  0
LINE
  8
0
 10
42.3491
 20
59.136
 11
42.8306
 21
59.4751
  0
LINE
  8
0
 10
42.8306
 20
59.4751
 11
43.3282
 21
59.7902
  0
LINE
  8
0
 10
43.3282
 20
59.7902
 11
43.8407
 21
60.0805
  0
LINE
  8
0
 10
43.8407
 20
60.0805
 11
44.3668
 21
60.3453
  0
LINE
  8
0
 10
44.3668
 20
60.3453
 11
44.9053
 21
60.584
  0
LINE
  8
0
 10
44.9053
 20
60.584
 11
45.4548
 21
60.796
  0
LINE
  8
0
 10
45.4548
 20
60.796
 11
46.0141
 21
60.9808
  0
LINE
  8
0
 10
46.0141
 20
60.9808
 11
46.5817
 21
61.1378
  0
LINE
  8
0
 10
46.5817
 20
61.1378
 11
47.1564
 21
61.2669
  0
LINE
  8
0
 10
47.1564
 20
61.2669
 11
47.7367
 21
61.3676
  0
LINE
  8
0
 10
47.7367
 20
61.3676
 11
48.3213
 21
61.4397
  0
LINE
  8
0
 10
48.3213
 20
61.4397
 11
48.9087
 21
61.483
  0
LINE
  8
0
 10
48.9087
 20
61.483
 11
49.4975
 21
61.4975
  0
LINE
  8
0
 10
49.4975
 20
61.4975
 11
50.0863
 21
61.483
  0
LINE
  8
0
 10
50.0863
 20
61.483
 11
50.6737
 21
61.4397
  0
LINE
  8
0
 10
50.6737
 20
61.4397
 11
51.2582
 21
61.3676
  0
LINE
  8
0
 10
51.2582
 20
61.3676
 11
51.8385
 21
61.2669
  0
LINE
  8
0
 10
51.8385
 20
61.2669
 11
52.4132
 21
61.1378
  0
LINE
  8
0
 10
52.4132
 20
61.1378
 11
52.9809
 21
60.9808
  0
LINE
  8
0
 10
52.9809
 20
60.9808
 11
53.5401
 21
60.796
  0
LINE
  8
0
 10
53.5401
 20
60.796
 11
54.0897
 21
60.584
  0
LINE
  8
0
 10
54.0897
 20
60.584
 11
54.6281
 21
60.3453
  0
LINE
  8
0
 10
54.6281
 20
60.3453
 11
55.1542
 21
60.0805
  0
LINE
  8
0
 10
55.1542
 20
60.0805
 11
55.6667
 21
59.7902
  0
LINE
  8
0
 10
55.6667
 20
59.7902
 11
56.1643
 21
59.4751
  0
LINE
  8
0
 10
56.1643
 20
59.4751
 11
56.6459
 21
59.136
  0
LINE
  8
0
 10
56.6459
 20
59.136
 11
57.1102
 21
58.7736
  0
LINE
  8
0
 10
57.1102
 20
58.7736
 11
57.5562
 21
58.3889
  0
LINE
  8
0
 10
57.5562
 20
58.3889
 11
57.9827
 21
57.9827
  0
LINE
  8
0
 10
57.9827
 20
57.9827
 11
58.3889
 21
57.5562
  0
LINE
  8
0
 10
58.3889
 20
57.5562
 11
58.7736
 21
57.1102
  0
LINE
  8
0
 10
58.7736
 20
57.1102
 11
59.136
 21
56.6459
  0
LINE
  8
0
 10
59.136
 20
56.6459
 11
59.4751
 21
56.1643
  0
LINE
  8
0
 10
59.4751
 20
56.1643
 11
59.7902
 21
55.6667
  0
LINE
  8
0
 10
59.7902
 20
55.6667
 11
60.0805
 21
55.1542
  0
LINE
  8
0
 10
60.0805
 20
55.1542
 11
60.3453
 21
54.6281
  0
LINE
  8
0
 10
60.3453
 20
54.6281
 11
60.584
 21
54.0897
  0
LINE
  8
0
 10
60.584
 20
54.0897
 11
60.796
 21
53.5401
  0
LINE
  8
0
 10
60.796
 20
53.5401
 11
60.9808
 21
52.9809
  0
LINE
  8
0
 10
60.9808
 20
52.9809
 11
61.1378
 21
52.4132
  0
LINE
  8
0
 10
61.1378
 20
52.4132
 11
61.2669
 21
51.8385
  0
LINE
  8
0
 10
61.2669
 20
51.8385
 11
61.3676
 21
51.2582
  0
LINE
  8
0
 10
61.3676
 20
51.2582
 11
61.4397
 21
50.6737
  0
LINE
  8
0
 10
61.4397
 20
50.6737
 11
61.483
 21
50.0863
  0
LINE
  8
0
 10
61.483
 20
50.0863
 11
61.4975
 21
49.4975
  0
LINE
  8
0
 10
61.4975
 20
49.4975
 11
61.483
 21
48.9087
  0
LINE
  8
0
 10
61.483
 20
48.9087
 11
61.4397
 21
48.3213
  0
LINE
  8
0
 10
61.4397
 20
48.3213
 11
61.3676
 21
47.7367
  0
LINE
  8
0
 10
61.3676
 20
47.7367
 11
61.2669
 21
47.1564
  0
LINE
  8
0
 10
61.2669
 20
47.1564
 11
61.1378
 21
46.5817
  0
LINE
  8
0
 10
61.1378
 20
46.5817
 11
60.9808
 21
46.0141
  0
LINE
  8
0
 10
60.9808
 20
46.0141
 11
60.796
 21
45.4548
  0
LINE
  8
0
 10
60.796
 20
45.4548
 11
60.584
 21
44.9053
  0
LINE
  8
0
 10
60.584
 20
44.9053
 11
60.3453
 21
44.3668
  0
LINE
  8
0
 10
60.3453
 20
44.3668
 11
60.0805
 21
43.8407
  0
LINE
  8
0
 10
60.0805
 20
43.8407
 11
59.7902
 21
43.3282
  0
LINE
  8
0
 10
59.7902
 20
43.3282
 11
59.4751
 21
42.8306
  0
LINE
  8
0
 10
59.4751
 20
42.8306
 11
59.136
 21
42.3491
  0
LINE
  8
0
 10
59.136
 20
42.3491
 11
58.7736
 21
41.8848
  0
LINE
  8
0
 10
58.7736
 20
41.8848
 11
58.3889
 21
41.4388
  0
LINE
  8
0
 10
58.3889
 20
41.4388
 11
57.9827
 21
41.0122
  0
LINE
  8
0
 10
57.9827
 20
41.0122
 11
57.5562
 21
40.606
  0
LINE
  8
0
 10
57.5562
 20
40.606
 11
57.1102
 21
40.2213
  0
LINE
  8
0
 10
57.1102
 20
40.2213
 11
56.6459
 21
39.859
  0
LINE
  8
0
 10
56.6459
 20
39.859
 11
56.1643
 21
39.5198
  0
LINE
  8
0
 10
56.1643
 20
39.5198
 11
55.6667
 21
39.2047
  0
LINE
  8
0
 10
55.6667
 20
39.2047
 11
55.1542
 21
38.9144
  0
LINE
  8
0
 10
55.1542
 20
38.9144
 11
54.6281
 21
38.6496
  0
LINE
  8
0
 10
54.6281
 20
38.6496
 11
54.0897
 21
38.4109
  0
LINE
  8
0
 10
54.0897
 20
38.4109
 11
53.5401
 21
38.1989
  0
LINE
  8
0
 10
53.5401
 20
38.1989
 11
52.9809
 21
38.0142
  0
LINE
  8
0
 10
52.9809
 20
38.0142
 11
52.4132
 21
37.8571
  0
LINE
  8
0
 10
52.4132
 20
37.8571
 11
51.8385
 21
37.728
  0
LINE
  8
0
 10
51.8385
 20
37.728
 11
51.2582
 21
37.6273
  0
LINE
  8
0
 10
51.2582
 20
37.6273
 11
50.6737
 21
37.5553
  0
LINE
  8
0
 10
50.6737
 20
37.5553
 11
50.0863
 21
37.5119
  0
LINE
  8
0
 10
50.0863
 20
37.5119
 11
49.4975
 21
37.4975
  0
LINE
  8
0
 10
49.4975
 20
37.4975
 11
48.9087
 21
37.5119
  0
LINE
  8
0
 10
-50.0863
 20
37.5119
 11
-50.6737
 21
37.5553
  0
LINE
  8
0
 10
-50.6737
 20
37.5553
 11
-51.2582
 21
37.6273
  0
LINE
  8
0
 10
-51.2582
 20
37.6273
 11
-51.8385
 21
37.728
  0
LINE
  8
0
 10
-51.8385
 20
37.728
 11
-52.4132
 21
37.8571
  0
LINE
  8
0
 10
-52.4132
 20
37.8571
 11
-52.9809
 21
38.0142
  0
LINE
  8
0
 10
-52.9809
 20
38.0142
 11
-53.5401
 21
38.1989
  0
LINE
  8
0
 10
-53.5401
 20
38.1989
 11
-54.0897
 21
38.4109
  0
LINE
  8
0
 10
-54.0897
 20
38.4109
 11
-54.6281
 21
38.6496
  0
LINE
  8
0
 10
-54.6281
 20
38.6496
 11
-55.1542
 21
38.9144
  0
LINE
  8
0
 10
-55.1542
 20
38.9144
 11
-55.6667
 21
39.2047
  0
LINE
  8
0
 10
-55.6667
 20
39.2047
 11
-56.1643
 21
39.5198
  0
LINE
  8
0
 10
-56.1643
 20
39.5198
 11
-56.6459
 21
39.859
  0
LINE
  8
0
 10
-56.6459
 20
39.859
 11
-57.1102
 21
40.2213
  0
LINE
  8
0
 10
-57.1102
 20
40.2213
 11
-57.5562
 21
40.606
  0
LINE
  8
0
 10
-57.5562
 20
40.606
 11
-57.9827
 21
41.0122
  0
LINE
  8
0
 10
-57.9827
 20
41.0122
 11
-58.3889
 21
41.4388
  0
LINE
  8
0
 10
-58.3889
 20
41.4388
 11
-58.7736
 21
41.8848
  0
LINE
  8
0
 10
-58.7736
 20
41.8848
 11
-59.136
 21
42.3491
  0
LINE
  8
0
 10
-59.136
 20
42.3491
 11
-59.4751
 21
42.8306
  0
LINE
  8
0
 10
-59.4751
 20
42.8306
 11
-59.7902
 21
43.3282
  0
LINE
  8
0
 10
-59.7902
 20
43.3282
 11
-60.0805
 21
43.8407
  0
LINE
  8
0
 10
-60.0805
 20
43.8407
 11
-60.3453
 21
44.3668
  0
LINE
  8
0
 10
-60.3453
 20
44.3668
 11
-60.584
 21
44.9053
  0
LINE
  8
0
 10
-60.584
 20
44.9053
 11
-60.796
 21
45.4548
  0
LINE
  8
0
 10
-60.796
 20
45.4548
 11
-60.9808
 21
46.0141
  0
LINE
  8
0
 10
-60.9808
 20
46.0141
 11
-61.1378
 21
46.5817
  0
LINE
  8
0
 10
-61.1378
 20
46.5817
 11
-61.2669
 21
47.1564
  0
LINE
  8
0
 10
-61.2669
 20
47.1564
 11
-61.3676
 21
47.7367
  0
LINE
  8
0
 10
-61.3676
 20
47.7367
 11
-61.4397
 21
48.3213
  0
LINE
  8
0
 10
-61.4397
 20
48.3213
 11
-61.483
 21
48.9087
  0
LINE
  8
0
 10
-61.483
 20
48.9087
 11
-61.4975
 21
49.4975
  0
LINE
  8
0
 10
-61.4975
 20
49.4975
 11
-61.483
 21
50.0863
  0
LINE
  8
0
 10
-61.483
 20
50.0863
 11
-61.4397
 21
50.6737
  0
LINE
  8
0
 10
-61.4397
 20
50.6737
 11
-61.3676
 21
51.2582
  0
LINE
  8
0
 10
-61.3676
 20
51.2582
 11
-61.2669
 21
51.8385
  0
LINE
  8
0
 10
-61.2669
 20
51.8385
 11
-61.1378
 21
52.4132
  0
LINE
  8
0
 10
-61.1378
 20
52.4132
 11
-60.9808
 21
52.9809
  0
LINE
  8
0
 10
-60.9808
 20
52.9809
 11
-60.796
 21
53.5401
  0
LINE
  8
0
 10
-60.796
 20
53.5401
 11
-60.584
 21
54.0897
  0
LINE
  8
0
 10
-60.584
 20
54.0897
 11
-60.3453
 21
54.6281
  0
LINE
  8
0
 10
-60.3453
 20
54.6281
 11
-60.0805
 21
55.1542
  0
LINE
  8
0
 10
-60.0805
 20
55.1542
 11
-59.7902
 21
55.6667
  0
LINE
  8
0
 10
-59.7902
 20
55.6667
 11
-59.4751
 21
56.1643
  0
LINE
  8
0
 10
-59.4751
 20
56.1643
 11
-59.136
 21
56.6459
  0
LINE
  8
0
 10
-59.136
 20
56.6459
 11
-58.7736
 21
57.1102
  0
LINE
  8
0
 10
-58.7736
 20
57.1102
 11
-58.3889
 21
57.5562
  0
LINE
  8
0
 10
-58.3889
 20
57.5562
 11
-57.9827
 21
57.9827
  0
LINE
  8
0
 10
-57.9827
 20
57.9827
 11
-57.5562
 21
58.3889
  0
LINE
  8
0
 10
-57.5562
 20
58.3889
 11
-57.1102
 21
58.7736
  0
LINE
  8
0
 10
-57.1102
 20
58.7736
 11
-56.6459
 21
59.136
  0
LINE
  8
0
 10
-56.6459
 20
59.136
 11
-56.1643
 21
59.4751
  0
LINE
  8
0
 10
-56.1643
 20
59.4751
 11
-55.6667
 21
59.7902
  0
LINE
  8
0
 10
-55.6667
 20
59.7902
 11
-55.1542
 21
60.0805
  0
LINE
  8
0
 10
-55.1542
 20
60.0805
 11
-54.6281
 21
60.3453
  0
LINE
  8
0
 10
-54.6281
 20
60.3453
 11
-54.0897
 21
60.584
  0
LINE
  8
0
 10
-54.0897
 20
60.584
 11
-53.5401
 21
60.796
  0
LINE
  8
0
 10
-53.5401
 20
60.796
 11
-52.9809
 21
60.9808
  0
LINE
  8
0
 10
-52.9809
 20
60.9808
 11
-52.4132
 21
61.1378
  0
LINE
  8
0
 10
-52.4132
 20
61.1378
 11
-51.8385
 21
61.2669
  0
LINE
  8
0
 10
-51.8385
 20
61.2669
 11
-51.2582
 21
61.3676
  0
LINE
  8
0
 10
-51.2582
 20
61.3676
 11
-50.6737
 21
61.4397
  0
LINE
  8
0
 10
-50.6737
 20
61.4397
 11
-50.0863
 21
61.483
  0
LINE
  8
0
 10
-50.0863
 20
61.483
 11
-49.4975
 21
61.4975
  0
LINE
  8
0
 10
-49.4975
 20
61.4975
 11
-48.9087
 21
61.483
  0
LINE
  8
0
 10
-48.9087
 20
61.483
 11
-48.3213
 21
61.4397
  0
LINE
  8
0
 10
-48.3213
 20
61.4397
 11
-47.7367
 21
61.3676
  0
LINE
  8
0
 10
-47.7367
 20
61.3676
 11
-47.1564
 21
61.2669
  0
LINE
  8
0
 10
-47.1564
 20
61.2669
 11
-46.5817
 21
61.1378
  0
LINE
  8
0
 10
-46.5817
 20
61.1378
 11
-46.0141
 21
60.9808
  0
LINE
  8
0
 10
-46.0141
 20
60.9808
 11
-45.4548
 21
60.796
  0
LINE
  8
0
 10
-45.4548
 20
60.796
 11
-44.9053
 21
60.584
  0
LINE
  8
0
 10
-44.9053
 20
60.584
 11
-44.3668
 21
60.3453
  0
LINE
  8
0
 10
-44.3668
 20
60.3453
 11
-43.8407
 21
60.0805
  0
LINE
  8
0
 10
-43.8407
 20
60.0805
 11
-43.3282
 21
59.7902
  0
LINE
  8
0
 10
-43.3282
 20
59.7902
 11
-42.8306
 21
59.4751
  0
LINE
  8
0
 10
-42.8306
 20
59.4751
 11
-42.3491
 21
59.136
  0
LINE
  8
0
 10
-42.3491
 20
59.136
 11
-41.8848
 21
58.7736
  0
LINE
  8
0
 10
-41.8848
 20
58.7736
 11
-41.4388
 21
58.3889
  0
LINE
  8
0
 10
-41.4388
 20
58.3889
 11
-41.0122
 21
57.9827
  0
LINE
  8
0
 10
-41.0122
 20
57.9827
 11
-40.606
 21
57.5562
  0
LINE
  8
0
 10
-40.606
 20
57.5562
 11
-40.2213
 21
57.1102
  0
LINE
  8
0
 10
-40.2213
 20
57.1102
 11
-39.859
 21
56.6459
  0
LINE
  8
0
 10
-39.859
 20
56.6459
 11
-39.5198
 21
56.1643
  0
LINE
  8
0
 10
-39.5198
 20
56.1643
 11
-39.2047
 21
55.6667
  0
LINE
  8
0
 10
-39.2047
 20
55.6667
 11
-38.9144
 21
55.1542
  0
LINE
  8
0
 10
-38.9144
 20
55.1542
 11
-38.6496
 21
54.6281
  0
LINE
  8
0
 10
-38.6496
 20
54.6281
 11
-38.4109
 21
54.0897
  0
LINE
  8
0
 10
-38.4109
 20
54.0897
 11
-38.1989
 21
53.5401
  0
LINE
  8
0
 10
-38.1989
 20
53.5401
 11
-38.0142
 21
52.9809
  0
LINE
  8
0
 10
-38.0142
 20
52.9809
 11
-37.8571
 21
52.4132
  0
LINE
  8
0
 10
-37.8571
 20
52.4132
 11
-37.728
 21
51.8385
  0
LINE
  8
0
 10
-37.728
 20
51.8385
 11
-37.6273
 21
51.2582
  0
LINE
  8
0
 10
-37.6273
 20
51.2582
 11
-37.5553
 21
50.6737
  0
LINE
  8
0
 10
-37.5553
 20
50.6737
 11
-37.5119
 21
50.0863
  0
LINE
  8
0
 10
-37.5119
 20
50.0863
 11
-37.4975
 21
49.4975
  0
LINE
  8
0
 10
-37.4975
 20
49.4975
 11
-37.5119
 21
48.9087
  0
LINE
  8
0
 10
-37.5119
 20
48.9087
 11
-37.5553
 21
48.3213
  0
LINE
  8
0
 10
-37.5553
 20
48.3213
 11
-37.6273
 21
47.7367
  0
LINE
  8
0
 10
-37.6273
 20
47.7367
 11
-37.728
 21
47.1564
  0
LINE
  8
0
 10
-37.728
 20
47.1564
 11
-37.8571
 21
46.5817
  0
LINE
  8
0
 10
-37.8571
 20
46.5817
 11
-38.0142
 21
46.0141
  0
LINE
  8
0
 10
-38.0142
 20
46.0141
 11
-38.1989
 21
45.4548
  0
LINE
  8
0
 10
-38.1989
 20
45.4548
 11
-38.4109
 21
44.9053
  0
LINE
  8
0
 10
-38.4109
 20
44.9053
 11
-38.6496
 21
44.3668
  0
LINE
  8
0
 10
-38.6496
 20
44.3668
 11
-38.9144
 21
43.8407
  0
LINE
  8
0
 10
-38.9144
 20
43.8407
 11
-39.2047
 21
43.3282
  0
LINE
  8
0
 10
-39.2047
 20
43.3282
 11
-39.5198
 21
42.8306
  0
LINE
  8
0
 10
-39.5198
 20
42.8306
 11
-39.859
 21
42.3491
  0
LINE
  8
0
 10
-39.859
 20
42.3491
 11
-40.2213
 21
41.8848
  0
LINE
  8
0
 10
-40.2213
 20
41.8848
 11
-40.606
 21
41.4388
  0
LINE
  8
0
 10
-40.606
 20
41.4388
 11
-41.0122
 21
41.0122
  0
LINE
  8
0
 10
-41.0122
 20
41.0122
 11
-41.4388
 21
40.606
  0
LINE
  8
0
 10
-41.4388
 20
40.606
 11
-41.8848
 21
40.2213
  0
LINE
  8
0
 10
-41.8848
 20
40.2213
 11
-42.3491
 21
39.859
  0
LINE
  8
0
 10
-42.3491
 20
39.859
 11
-42.8306
 21
39.5198
  0
LINE
  8
0
 10
-42.8306
 20
39.5198
 11
-43.3282
 21
39.2047
  0
LINE
  8
0
 10
-43.3282
 20
39.2047
 11
-43.8407
 21
38.9144
  0
LINE
  8
0
 10
-43.8407
 20
38.9144
 11
-44.3668
 21
38.6496
  0
LINE
  8
0
 10
-44.3668
 20
38.6496
 11
-44.9053
 21
38.4109
  0
LINE
  8
0
 10
-44.9053
 20
38.4109
 11
-45.4548
 21
38.1989
  0
LINE
  8
0
 10
-45.4548
 20
38.1989
 11
-46.0141
 21
38.0142
  0
LINE
  8
0
 10
-46.0141
 20
38.0142
 11
-46.5817
 21
37.8571
  0
LINE
  8
0
 10
-46.5817
 20
37.8571
 11
-47.1564
 21
37.728
  0
LINE
  8
0
 10
-47.1564
 20
37.728
 11
-47.7367
 21
37.6273
  0
LINE
  8
0
 10
-47.7367
 20
37.6273
 11
-48.3213
 21
37.5553
  0
LINE
  8
0
 10
-48.3213
 20
37.5553
 11
-48.9087
 21
37.5119
  0
LINE
  8
0
 10
-48.9087
 20
37.5119
 11
-49.4975
 21
37.4975
  0
LINE
  8
0
 10
-49.4975
 20
37.4975
 11
-50.0863
 21
37.5119
  0
LINE
  8
0
 10
67.2222
 20
6.12375
 11
66.6341
 21
6.15746
  0
LINE
  8
0
 10
66.6341
 20
6.15746
 11
66.0485
 21
6.21999
  0
LINE
  8
0
 10
66.0485
 20
6.21999
 11
65.4666
 21
6.31117
  0
LINE
  8
0
 10
65.4666
 20
6.31117
 11
64.8899
 21
6.4308
  0
LINE
  8
0
 10
64.8899
 20
6.4308
 11
64.3197
 21
6.57858
  0
LINE
  8
0
 10
64.3197
 20
6.57858
 11
63.7575
 21
6.75417
  0
LINE
  8
0
 10
63.7575
 20
6.75417
 11
63.2046
 21
6.95712
  0
LINE
  8
0
 10
63.2046
 20
6.95712
 11
62.6623
 21
7.18697
  0
LINE
  8
0
 10
62.6623
 20
7.18697
 11
62.132
 21
7.44313
  0
LINE
  8
0
 10
62.132
 20
7.44313
 11
61.6148
 21
7.72502
  0
LINE
  8
0
 10
61.6148
 20
7.72502
 11
61.1121
 21
8.03195
  0
LINE
  8
0
 10
61.1121
 20
8.03195
 11
60.6251
 21
8.36316
  0
LINE
  8
0
 10
60.6251
 20
8.36316
 11
60.1549
 21
8.71788
  0
LINE
  8
0
 10
60.1549
 20
8.71788
 11
59.7027
 21
9.09525
  0
LINE
  8
0
 10
59.7027
 20
9.09525
 11
59.2695
 21
9.49434
  0
LINE
  8
0
 10
59.2695
 20
9.49434
 11
58.8564
 21
9.91422
  0
LINE
  8
0
 10
58.8564
 20
9.91422
 11
58.4645
 21
10.3539
  0
LINE
  8
0
 10
58.4645
 20
10.3539
 11
58.0946
 21
10.8122
  0
LINE
  8
0
 10
58.0946
 20
10.8122
 11
57.7476
 21
11.2881
  0
LINE
  8
0
 10
57.7476
 20
11.2881
 11
57.4244
 21
11.7805
  0
LINE
  8
0
 10
57.4244
 20
11.7805
 11
57.1257
 21
12.2882
  0
LINE
  8
0
 10
57.1257
 20
12.2882
 11
56.8523
 21
12.8099
  0
LINE
  8
0
 10
56.8523
 20
12.8099
 11
56.6049
 21
13.3443
  0
LINE
  8
0
 10
56.6049
 20
13.3443
 11
56.3839
 21
13.8903
  0
LINE
  8
0
 10
56.3839
 20
13.8903
 11
56.19
 21
14.4465
  0
LINE
  8
0
 10
56.19
 20
14.4465
 11
56.0237
 21
15.0115
  0
LINE
  8
0
 10
56.0237
 20
15.0115
 11
55.8853
 21
15.584
  0
LINE
  8
0
 10
55.8853
 20
15.584
 11
55.7751
 21
16.1626
  0
LINE
  8
0
 10
55.7751
 20
16.1626
 11
55.6934
 21
16.7459
  0
LINE
  8
0
 10
55.6934
 20
16.7459
 11
55.6405
 21
17.3325
  0
LINE
  8
0
 10
55.6405
 20
17.3325
 11
55.6164
 21
17.921
  0
LINE
  8
0
 10
55.6164
 20
17.921
 11
55.6212
 21
18.5099
  0
LINE
  8
0
 10
55.6212
 20
18.5099
 11
55.6549
 21
19.098
  0
LINE
  8
0
 10
55.6549
 20
19.098
 11
55.7175
 21
19.6836
  0
LINE
  8
0
 10
55.7175
 20
19.6836
 11
55.8087
 21
20.2655
  0
LINE
  8
0
 10
55.8087
 20
20.2655
 11
55.9283
 21
20.8422
  0
LINE
  8
0
 10
55.9283
 20
20.8422
 11
56.0761
 21
21.4124
  0
LINE
  8
0
 10
56.0761
 20
21.4124
 11
56.2516
 21
21.9746
  0
LINE
  8
0
 10
56.2516
 20
21.9746
 11
56.4546
 21
22.5275
  0
LINE
  8
0
 10
56.4546
 20
22.5275
 11
56.6844
 21
23.0698
  0
LINE
  8
0
 10
56.6844
 20
23.0698
 11
56.9406
 21
23.6002
  0
LINE
  8
0
 10
56.9406
 20
23.6002
 11
57.2225
 21
24.1173
  0
LINE
  8
0
 10
57.2225
 20
24.1173
 11
57.5294
 21
24.62
  0
LINE
  8
0
 10
57.5294
 20
24.62
 11
57.8606
 21
25.1071
  0
LINE
  8
0
 10
57.8606
 20
25.1071
 11
58.2154
 21
25.5773
  0
LINE
  8
0
 10
58.2154
 20
25.5773
 11
58.5927
 21
26.0295
  0
LINE
  8
0
 10
58.5927
 20
26.0295
 11
58.9918
 21
26.4626
  0
LINE
  8
0
 10
58.9918
 20
26.4626
 11
59.4117
 21
26.8757
  0
LINE
  8
0
 10
59.4117
 20
26.8757
 11
59.8513
 21
27.2677
  0
LINE
  8
0
 10
59.8513
 20
27.2677
 11
60.3097
 21
27.6376
  0
LINE
  8
0
 10
60.3097
 20
27.6376
 11
60.7856
 21
27.9845
  0
LINE
  8
0
 10
60.7856
 20
27.9845
 11
61.278
 21
28.3078
  0
LINE
  8
0
 10
61.278
 20
28.3078
 11
61.7856
 21
28.6064
  0
LINE
  8
0
 10
61.7856
 20
28.6064
 11
62.3073
 21
28.8798
  0
LINE
  8
0
 10
62.3073
 20
28.8798
 11
62.8418
 21
29.1273
  0
LINE
  8
0
 10
62.8418
 20
29.1273
 11
63.3878
 21
29.3482
  0
LINE
  8
0
 10
63.3878
 20
29.3482
 11
63.944
 21
29.5421
  0
LINE
  8
0
 10
63.944
 20
29.5421
 11
64.509
 21
29.7084
  0
LINE
  8
0
 10
64.509
 20
29.7084
 11
65.0815
 21
29.8469
  0
LINE
  8
0
 10
65.0815
 20
29.8469
 11
65.66
 21
29.957
  0
LINE
  8
0
 10
65.66
 20
29.957
 11
66.2434
 21
30.0387
  0
LINE
  8
0
 10
66.2434
 20
30.0387
 11
66.83
 21
30.0916
  0
LINE
  8
0
 10
66.83
 20
30.0916
 11
67.4185
 21
30.1157
  0
LINE
  8
0
 10
67.4185
 20
30.1157
 11
68.0074
 21
30.1109
  0
LINE
  8
0
 10
68.0074
 20
30.1109
 11
68.5955
 21
30.0772
  0
LINE
  8
0
 10
68.5955
 20
30.0772
 11
69.1811
 21
30.0147
  0
LINE
  8
0
 10
69.1811
 20
30.0147
 11
69.763
 21
29.9235
  0
LINE
  8
0
 10
69.763
 20
29.9235
 11
70.3397
 21
29.8038
  0
LINE
  8
0
 10
70.3397
 20
29.8038
 11
70.9099
 21
29.6561
  0
LINE
  8
0
 10
70.9099
 20
29.6561
 11
71.4721
 21
29.4805
  0
LINE
  8
0
 10
71.4721
 20
29.4805
 11
72.025
 21
29.2775
  0
LINE
  8
0
 10
72.025
 20
29.2775
 11
72.5673
 21
29.0477
  0
LINE
  8
0
 10
72.5673
 20
29.0477
 11
73.0976
 21
28.7915
  0
LINE
  8
0
 10
73.0976
 20
28.7915
 11
73.6148
 21
28.5096
  0
LINE
  8
0
 10
73.6148
 20
28.5096
 11
74.1175
 21
28.2027
  0
LINE
  8
0
 10
74.1175
 20
28.2027
 11
74.6045
 21
27.8715
  0
LINE
  8
0
 10
74.6045
 20
27.8715
 11
75.0747
 21
27.5168
  0
LINE
  8
0
 10
75.0747
 20
27.5168
 11
75.5269
 21
27.1394
  0
LINE
  8
0
 10
75.5269
 20
27.1394
 11
75.9601
 21
26.7403
  0
LINE
  8
0
 10
75.9601
 20
26.7403
 11
76.3732
 21
26.3204
  0
LINE
  8
0
 10
76.3732
 20
26.3204
 11
76.7651
 21
25.8808
  0
LINE
  8
0
 10
76.7651
 20
25.8808
 11
77.135
 21
25.4225
  0
LINE
  8
0
 10
77.135
 20
25.4225
 11
77.482
 21
24.9465
  0
LINE
  8
0
 10
77.482
 20
24.9465
 11
77.8052
 21
24.4541
  0
LINE
  8
0
 10
77.8052
 20
24.4541
 11
78.1039
 21
23.9465
  0
LINE
  8
0
 10
78.1039
 20
23.9465
 11
78.3773
 21
23.4248
  0
LINE
  8
0
 10
78.3773
 20
23.4248
 11
78.6247
 21
22.8903
  0
LINE
  8
0
 10
78.6247
 20
22.8903
 11
78.8457
 21
22.3443
  0
LINE
  8
0
 10
78.8457
 20
22.3443
 11
79.0396
 21
21.7882
  0
LINE
  8
0
 10
79.0396
 20
21.7882
 11
79.2059
 21
21.2232
  0
LINE
  8
0
 10
79.2059
 20
21.2232
 11
79.3443
 21
20.6507
  0
LINE
  8
0
 10
79.3443
 20
20.6507
 11
79.4545
 21
20.0721
  0
LINE
  8
0
 10
79.4545
 20
20.0721
 11
79.5362
 21
19.4888
  0
LINE
  8
0
 10
79.5362
 20
19.4888
 11
79.5891
 21
18.9022
  0
LINE
  8
0
 10
79.5891
 20
18.9022
 11
79.6132
 21
18.3137
  0
LINE
  8
0
 10
79.6132
 20
18.3137
 11
79.6084
 21
17.7247
  0
LINE
  8
0
 10
79.6084
 20
17.7247
 11
79.5747
 21
17.1367
  0
LINE
  8
0
 10
79.5747
 20
17.1367
 11
79.5121
 21
16.551
  0
LINE
  8
0
 10
79.5121
 20
16.551
 11
79.421
 21
15.9691
  0
LINE
  8
0
 10
79.421
 20
15.9691
 11
79.3013
 21
15.3924
  0
LINE
  8
0
 10
79.3013
 20
15.3924
 11
79.1535
 21
14.8223
  0
LINE
  8
0
 10
79.1535
 20
14.8223
 11
78.978
 21
14.2601
  0
LINE
  8
0
 10
78.978
 20
14.2601
 11
78.775
 21
13.7071
  0
LINE
  8
0
 10
78.775
 20
13.7071
 11
78.5452
 21
13.1648
  0
LINE
  8
0
 10
78.5452
 20
13.1648
 11
78.289
 21
12.6345
  0
LINE
  8
0
 10
78.289
 20
12.6345
 11
78.0071
 21
12.1173
  0
LINE
  8
0
 10
78.0071
 20
12.1173
 11
77.7002
 21
11.6146
  0
LINE
  8
0
 10
77.7002
 20
11.6146
 11
77.369
 21
11.1276
  0
LINE
  8
0
 10
77.369
 20
11.1276
 11
77.0142
 21
10.6574
  0
LINE
  8
0
 10
77.0142
 20
10.6574
 11
76.6369
 21
10.2052
  0
LINE
  8
0
 10
76.6369
 20
10.2052
 11
76.2378
 21
9.77202
  0
LINE
  8
0
 10
76.2378
 20
9.77202
 11
75.8179
 21
9.35896
  0
LINE
  8
0
 10
75.8179
 20
9.35896
 11
75.3783
 21
8.967
  0
LINE
  8
0
 10
75.3783
 20
8.967
 11
74.9199
 21
8.59709
  0
LINE
  8
0
 10
74.9199
 20
8.59709
 11
74.444
 21
8.25011
  0
LINE
  8
0
 10
74.444
 20
8.25011
 11
73.9516
 21
7.9269
  0
LINE
  8
0
 10
73.9516
 20
7.9269
 11
73.444
 21
7.62823
  0
LINE
  8
0
 10
73.444
 20
7.62823
 11
72.9223
 21
7.35486
  0
LINE
  8
0
 10
72.9223
 20
7.35486
 11
72.3878
 21
7.10739
  0
LINE
  8
0
 10
72.3878
 20
7.10739
 11
71.8418
 21
6.88646
  0
LINE
  8
0
 10
71.8418
 20
6.88646
 11
71.2856
 21
6.69257
  0
LINE
  8
0
 10
71.2856
 20
6.69257
 11
70.7206
 21
6.52621
  0
LINE
  8
0
 10
70.7206
 20
6.52621
 11
70.1481
 21
6.38779
  0
LINE
  8
0
 10
70.1481
 20
6.38779
 11
69.5695
 21
6.2776
  0
LINE
  8
0
 10
69.5695
 20
6.2776
 11
68.9862
 21
6.19595
  0
LINE
  8
0
 10
68.9862
 20
6.19595
 11
68.3996
 21
6.14302
  0
LINE
  8
0
 10
68.3996
 20
6.14302
 11
67.8111
 21
6.11893
  0
LINE
  8
0
 10
67.8111
 20
6.11893
 11
67.2222
 21
6.12375
  0
LINE
  8
0
 10
-68.3996
 20
6.14302
 11
-68.9862
 21
6.19595
  0
LINE
  8
0
 10
-68.9862
 20
6.19595
 11
-69.5695
 21
6.2776
  0
LINE
  8
0
 10
-69.5695
 20
6.2776
 11
-70.1481
 21
6.38779
  0
LINE
  8
0
 10
-70.1481
 20
6.38779
 11
-70.7206
 21
6.52621
  0
LINE
  8
0
 10
-70.7206
 20
6.52621
 11
-71.2856
 21
6.69257
  0
LINE
  8
0
 10
-71.2856
 20
6.69257
 11
-71.8418
 21
6.88646
  0
LINE
  8
0
 10
-71.8418
 20
6.88646
 11
-72.3878
 21
7.10739
  0
LINE
  8
0
 10
-72.3878
 20
7.10739
 11
-72.9223
 21
7.35486
  0
LINE
  8
0
 10
-72.9223
 20
7.35486
 11
-73.444
 21
7.62823
  0
LINE
  8
0
 10
-73.444
 20
7.62823
 11
-73.9516
 21
7.9269
  0
LINE
  8
0
 10
-73.9516
 20
7.9269
 11
-74.444
 21
8.25011
  0
LINE
  8
0
 10
-74.444
 20
8.25011
 11
-74.9199
 21
8.59709
  0
LINE
  8
0
 10
-74.9199
 20
8.59709
 11
-75.3783
 21
8.967
  0
LINE
  8
0
 10
-75.3783
 20
8.967
 11
-75.8179
 21
9.35896
  0
LINE
  8
0
 10
-75.8179
 20
9.35896
 11
-76.2378
 21
9.77202
  0
LINE
  8
0
 10
-76.2378
 20
9.77202
 11
-76.6369
 21
10.2052
  0
LINE
  8
0
 10
-76.6369
 20
10.2052
 11
-77.0142
 21
10.6574
  0
LINE
  8
0
 10
-77.0142
 20
10.6574
 11
-77.369
 21
11.1276
  0
LINE
  8
0
 10
-77.369
 20
11.1276
 11
-77.7002
 21
11.6146
  0
LINE
  8
0
 10
-77.7002
 20
11.6146
 11
-78.0071
 21
12.1173
  0
LINE
  8
0
 10
-78.0071
 20
12.1173
 11
-78.289
 21
12.6345
  0
LINE
  8
0
 10
-78.289
 20
12.6345
 11
-78.5452
 21
13.1648
  0
LINE
  8
0
 10
-78.5452
 20
13.1648
 11
-78.775
 21
13.7071
  0
LINE
  8
0
 10
-78.775
 20
13.7071
 11
-78.978
 21
14.2601
  0
LINE
  8
0
 10
-78.978
 20
14.2601
 11
-79.1535
 21
14.8223
  0
LINE
  8
0
 10
-79.1535
 20
14.8223
 11
-79.3013
 21
15.3924
  0
LINE
  8
0
 10
-79.3013
 20
15.3924
 11
-79.421
 21
15.9691
  0
LINE
  8
0
 10
-79.421
 20
15.9691
 11
-79.5121
 21
16.551
  0
LINE
  8
0
 10
-79.5121
 20
16.551
 11
-79.5747
 21
17.1367
  0
LINE
  8
0
 10
-79.5747
 20
17.1367
 11
-79.6084
 21
17.7247
  0
LINE
  8
0
 10
-79.6084
 20
17.7247
 11
-79.6132
 21
18.3137
  0
LINE
  8
0
 10
-79.6132
 20
18.3137
 11
-79.5891
 21
18.9022
  0
LINE
  8
0
 10
-79.5891
 20
18.9022
 11
-79.5362
 21
19.4888
  0
LINE
  8
0
 10
-79.5362
 20
19.4888
 11
-79.4545
 21
20.0721
  0
LINE
  8
0
 10
-79.4545
 20
20.0721
 11
-79.3443
 21
20.6507
  0
LINE
  8
0
 10
-79.3443
 20
20.6507
 11
-79.2059
 21
21.2232
  0
LINE
  8
0
 10
-79.2059
 20
21.2232
 11
-79.0396
 21
21.7882
  0
LINE
  8
0
 10
-79.0396
 20
21.7882
 11
-78.8457
 21
22.3443
  0
LINE
  8
0
 10
-78.8457
 20
22.3443
 11
-78.6247
 21
22.8903
  0
LINE
  8
0
 10
-78.6247
 20
22.8903
 11
-78.3773
 21
23.4248
  0
LINE
  8
0
 10
-78.3773
 20
23.4248
 11
-78.1039
 21
23.9465
  0
LINE
  8
0
 10
-78.1039
 20
23.9465
 11
-77.8052
 21
24.4541
  0
LINE
  8
0
 10
-77.8052
 20
24.4541
 11
-77.482
 21
24.9465
  0
LINE
  8
0
 10
-77.482
 20
24.9465
 11
-77.135
 21
25.4225
  0
LINE
  8
0
 10
-77.135
 20
25.4225
 11
-76.7651
 21
25.8808
  0
LINE
  8
0
 10
-76.7651
 20
25.8808
 11
-76.3732
 21
26.3204
  0
LINE
  8
0
 10
-76.3732
 20
26.3204
 11
-75.9601
 21
26.7403
  0
LINE
  8
0
 10
-75.9601
 20
26.7403
 11
-75.5269
 21
27.1394
  0
LINE
  8
0
 10
-75.5269
 20
27.1394
 11
-75.0747
 21
27.5168
  0
LINE
  8
0
 10
-75.0747
 20
27.5168
 11
-74.6045
 21
27.8715
  0
LINE
  8
0
 10
-74.6045
 20
27.8715
 11
-74.1175
 21
28.2027
  0
LINE
  8
0
 10
-74.1175
 20
28.2027
 11
-73.6148
 21
28.5096
  0
LINE
  8
0
 10
-73.6148
 20
28.5096
 11
-73.0976
 21
28.7915
  0
LINE
  8
0
 10
-73.0976
 20
28.7915
 11
-72.5673
 21
29.0477
  0
LINE
  8
0
 10
-72.5673
 20
29.0477
 11
-72.025
 21
29.2775
  0
LINE
  8
0
 10
-72.025
 20
29.2775
 11
-71.4721
 21
29.4805
  0
LINE
  8
0
 10
-71.4721
 20
29.4805
 11
-70.9099
 21
29.6561
  0
LINE
  8
0
 10
-70.9099
 20
29.6561
 11
-70.3397
 21
29.8038
  0
LINE
  8
0
 10
-70.3397
 20
29.8038
 11
-69.763
 21
29.9235
  0
LINE
  8
0
 10
-69.763
 20
29.9235
 11
-69.1811
 21
30.0147
  0
LINE
  8
0
 10
-69.1811
 20
30.0147
 11
-68.5955
 21
30.0772
  0
LINE
  8
0
 10
-68.5955
 20
30.0772
 11
-68.0074
 21
30.1109
  0
LINE
  8
0
 10
-68.0074
 20
30.1109
 11
-67.4185
 21
30.1157
  0
LINE
  8
0
 10
-67.4185
 20
30.1157
 11
-66.83
 21
30.0916
  0
LINE
  8
0
 10
-66.83
 20
30.0916
 11
-66.2434
 21
30.0387
  0
LINE
  8
0
 10
-66.2434
 20
30.0387
 11
-65.66
 21
29.957
  0
LINE
  8
0
 10
-65.66
 20
29.957
 11
-65.0815
 21
29.8469
  0
LINE
  8
0
 10
-65.0815
 20
29.8469
 11
-64.509
 21
29.7084
  0
LINE
  8
0
 10
-64.509
 20
29.7084
 11
-63.944
 21
29.5421
  0
LINE
  8
0
 10
-63.944
 20
29.5421
 11
-63.3878
 21
29.3482
  0
LINE
  8
0
 10
-63.3878
 20
29.3482
 11
-62.8418
 21
29.1273
  0
LINE
  8
0
 10
-62.8418
 20
29.1273
 11
-62.3073
 21
28.8798
  0
LINE
  8
0
 10
-62.3073
 20
28.8798
 11
-61.7856
 21
28.6064
  0
LINE
  8
0
 10
-61.7856
 20
28.6064
 11
-61.278
 21
28.3078
  0
LINE
  8
0
 10
-61.278
 20
28.3078
 11
-60.7856
 21
27.9845
  0
LINE
  8
0
 10
-60.7856
 20
27.9845
 11
-60.3097
 21
27.6376
  0
LINE
  8
0
 10
-60.3097
 20
27.6376
 11
-59.8513
 21
27.2677
  0
LINE
  8
0
 10
-59.8513
 20
27.2677
 11
-59.4117
 21
26.8757
  0
LINE
  8
0
 10
-59.4117
 20
26.8757
 11
-58.9918
 21
26.4626
  0
LINE
  8
0
 10
-58.9918
 20
26.4626
 11
-58.5927
 21
26.0295
  0
LINE
  8
0
 10
-58.5927
 20
26.0295
 11
-58.2154
 21
25.5773
  0
LINE
  8
0
 10
-58.2154
 20
25.5773
 11
-57.8606
 21
25.1071
  0
LINE
  8
0
 10
-57.8606
 20
25.1071
 11
-57.5294
 21
24.62
  0
LINE
  8
0
 10
-57.5294
 20
24.62
 11
-57.2225
 21
24.1173
  0
LINE
  8
0
 10
-57.2225
 20
24.1173
 11
-56.9406
 21
23.6002
  0
LINE
  8
0
 10
-56.9406
 20
23.6002
 11
-56.6844
 21
23.0698
  0
LINE
  8
0
 10
-56.6844
 20
23.0698
 11
-56.4546
 21
22.5275
  0
LINE
  8
0
 10
-56.4546
 20
22.5275
 11
-56.2516
 21
21.9746
  0
LINE
  8
0
 10
-56.2516
 20
21.9746
 11
-56.0761
 21
21.4124
  0
LINE
  8
0
 10
-56.0761
 20
21.4124
 11
-55.9283
 21
20.8422
  0
LINE
  8
0
 10
-55.9283
 20
20.8422
 11
-55.8087
 21
20.2655
  0
LINE
  8
0
 10
-55.8087
 20
20.2655
 11
-55.7175
 21
19.6836
  0
LINE
  8
0
 10
-55.7175
 20
19.6836
 11
-55.6549
 21
19.098
  0
LINE
  8
0
 10
-55.6549
 20
19.098
 11
-55.6212
 21
18.5099
  0
LINE
  8
0
 10
-55.6212
 20
18.5099
 11
-55.6164
 21
17.921
  0
LINE
  8
0
 10
-55.6164
 20
17.921
 11
-55.6405
 21
17.3325
  0
LINE
  8
0
 10
-55.6405
 20
17.3325
 11
-55.6934
 21
16.7459
  0
LINE
  8
0
 10
-55.6934
 20
16.7459
 11
-55.7751
 21
16.1626
  0
LINE
  8
0
 10
-55.7751
 20
16.1626
 11
-55.8853
 21
15.584
  0
LINE
  8
0
 10
-55.8853
 20
15.584
 11
-56.0237
 21
15.0115
  0
LINE
  8
0
 10
-56.0237
 20
15.0115
 11
-56.19
 21
14.4465
  0
LINE
  8
0
 10
-56.19
 20
14.4465
 11
-56.3839
 21
13.8903
  0
LINE
  8
0
 10
-56.3839
 20
13.8903
 11
-56.6049
 21
13.3443
  0
LINE
  8
0
 10
-56.6049
 20
13.3443
 11
-56.8523
 21
12.8099
  0
LINE
  8
0
 10
-56.8523
 20
12.8099
 11
-57.1257
 21
12.2882
  0
LINE
  8
0
 10
-57.1257
 20
12.2882
 11
-57.4244
 21
11.7805
  0
LINE
  8
0
 10
-57.4244
 20
11.7805
 11
-57.7476
 21
11.2881
  0
LINE
  8
0
 10
-57.7476
 20
11.2881
 11
-58.0946
 21
10.8122
  0
LINE
  8
0
 10
-58.0946
 20
10.8122
 11
-58.4645
 21
10.3539
  0
LINE
  8
0
 10
-58.4645
 20
10.3539
 11
-58.8564
 21
9.91422
  0
LINE
  8
0
 10
-58.8564
 20
9.91422
 11
-59.2695
 21
9.49434
  0
LINE
  8
0
 10
-59.2695
 20
9.49434
 11
-59.7027
 21
9.09525
  0
LINE
  8
0
 10
-59.7027
 20
9.09525
 11
-60.1549
 21
8.71788
  0
LINE
  8
0
 10
-60.1549
 20
8.71788
 11
-60.6251
 21
8.36316
  0
LINE
  8
0
 10
-60.6251
 20
8.36316
 11
-61.1121
 21
8.03195
  0
LINE
  8
0
 10
-61.1121
 20
8.03195
 11
-61.6148
 21
7.72502
  0
LINE
  8
0
 10
-61.6148
 20
7.72502
 11
-62.132
 21
7.44313
  0
LINE
  8
0
 10
-62.132
 20
7.44313
 11
-62.6623
 21
7.18697
  0
LINE
  8
0
 10
-62.6623
 20
7.18697
 11
-63.2046
 21
6.95712
  0
LINE
  8
0
 10
-63.2046
 20
6.95712
 11
-63.7575
 21
6.75417
  0
LINE
  8
0
 10
-63.7575
 20
6.75417
 11
-64.3197
 21
6.57858
  0
LINE
  8
0
 10
-64.3197
 20
6.57858
 11
-64.8899
 21
6.4308
  0
LINE
  8
0
 10
-64.8899
 20
6.4308
 11
-65.4666
 21
6.31117
  0
LINE
  8
0
 10
-65.4666
 20
6.31117
 11
-66.0485
 21
6.21999
  0
LINE
  8
0
 10
-66.0485
 20
6.21999
 11
-66.6341
 21
6.15746
  0
LINE
  8
0
 10
-66.6341
 20
6.15746
 11
-67.2222
 21
6.12375
  0
LINE
  8
0
 10
-67.2222
 20
6.12375
 11
-67.8111
 21
6.11893
  0
LINE
  8
0
 10
-67.8111
 20
6.11893
 11
-68.3996
 21
6.14302
  0
LINE
  8
0
 10
-40.736
 20
-14.9819
 11
-41.4702
 21
-14.9278
  0
LINE
  8
0
 10
-41.4702
 20
-14.9278
 11
-42.2009
 21
-14.8376
  0
LINE
  8
0
 10
-42.2009
 20
-14.8376
 11
-42.9263
 21
-14.7118
  0
LINE
  8
0
 10
-42.9263
 20
-14.7118
 11
-43.6447
 21
-14.5505
  0
LINE
  8
0
 10
-43.6447
 20
-14.5505
 11
-44.3543
 21
-14.3541
  0
LINE
  8
0
 10
-44.3543
 20
-14.3541
 11
-45.0533
 21
-14.1232
  0
LINE
  8
0
 10
-45.0533
 20
-14.1232
 11
-45.7402
 21
-13.8582
  0
LINE
  8
0
 10
-45.7402
 20
-13.8582
 11
-46.4133
 21
-13.5598
  0
LINE
  8
0
 10
-46.4133
 20
-13.5598
 11
-47.0709
 21
-13.2288
  0
LINE
  8
0
 10
-47.0709
 20
-13.2288
 11
-47.7115
 21
-12.8659
  0
LINE
  8
0
 10
-47.7115
 20
-12.8659
 11
-48.3335
 21
-12.472
  0
LINE
  8
0
 10
-48.3335
 20
-12.472
 11
-48.9355
 21
-12.0481
  0
LINE
  8
0
 10
-48.9355
 20
-12.0481
 11
-49.5159
 21
-11.5952
  0
LINE
  8
0
 10
-49.5159
 20
-11.5952
 11
-50.0734
 21
-11.1143
  0
LINE
  8
0
 10
-50.0734
 20
-11.1143
 11
-50.6066
 21
-10.6066
  0
LINE
  8
0
 10
-50.6066
 20
-10.6066
 11
-51.1143
 21
-10.0734
  0
LINE
  8
0
 10
-51.1143
 20
-10.0734
 11
-51.5952
 21
-9.51588
  0
LINE
  8
0
 10
-51.5952
 20
-9.51588
 11
-52.0481
 21
-8.93549
  0
LINE
  8
0
 10
-52.0481
 20
-8.93549
 11
-52.472
 21
-8.33354
  0
LINE
  8
0
 10
-52.472
 20
-8.33354
 11
-52.8659
 21
-7.71153
  0
LINE
  8
0
 10
-52.8659
 20
-7.71153
 11
-53.2288
 21
-7.07094
  0
LINE
  8
0
 10
-53.2288
 20
-7.07094
 11
-53.5598
 21
-6.41331
  0
LINE
  8
0
 10
-53.5598
 20
-6.41331
 11
-53.8582
 21
-5.74025
  0
LINE
  8
0
 10
-53.8582
 20
-5.74025
 11
-54.1232
 21
-5.05334
  0
LINE
  8
0
 10
-54.1232
 20
-5.05334
 11
-54.3541
 21
-4.35426
  0
LINE
  8
0
 10
-54.3541
 20
-4.35426
 11
-54.5505
 21
-3.6447
  0
LINE
  8
0
 10
-54.5505
 20
-3.6447
 11
-54.7118
 21
-2.92635
  0
LINE
  8
0
 10
-54.7118
 20
-2.92635
 11
-54.8376
 21
-2.20094
  0
LINE
  8
0
 10
-54.8376
 20
-2.20094
 11
-54.9278
 21
-1.47025
  0
LINE
  8
0
 10
-54.9278
 20
-1.47025
 11
-54.9819
 21
-0.736008
  0
LINE
  8
0
 10
-54.9819
 20
-0.736008
 11
-55
 21
0
  0
LINE
  8
0
 10
-55
 20
0
 11
-54.9819
 21
0.736008
  0
LINE
  8
0
 10
-54.9819
 20
0.736008
 11
-54.9278
 21
1.47025
  0
LINE
  8
0
 10
-54.9278
 20
1.47025
 11
-54.8376
 21
2.20094
  0
LINE
  8
0
 10
-54.8376
 20
2.20094
 11
-54.7118
 21
2.92635
  0
LINE
  8
0
 10
-54.7118
 20
2.92635
 11
-54.5505
 21
3.6447
  0
LINE
  8
0
 10
-54.5505
 20
3.6447
 11
-54.3541
 21
4.35426
  0
LINE
  8
0
 10
-54.3541
 20
4.35426
 11
-54.1232
 21
5.05334
  0
LINE
  8
0
 10
-54.1232
 20
5.05334
 11
-53.8582
 21
5.74025
  0
LINE
  8
0
 10
-53.8582
 20
5.74025
 11
-53.5598
 21
6.41331
  0
LINE
  8
0
 10
-53.5598
 20
6.41331
 11
-53.2288
 21
7.07094
  0
LINE
  8
0
 10
-53.2288
 20
7.07094
 11
-52.8659
 21
7.71153
  0
LINE
  8
0
 10
-52.8659
 20
7.71153
 11
-52.472
 21
8.33354
  0
LINE
  8
0
 10
-52.472
 20
8.33354
 11
-52.0481
 21
8.93549
  0
LINE
  8
0
 10
-52.0481
 20
8.93549
 11
-51.5952
 21
9.51588
  0
LINE
  8
0
 10
-51.5952
 20
9.51588
 11
-51.1143
 21
10.0734
  0
LINE
  8
0
 10
-51.1143
 20
10.0734
 11
-50.6066
 21
10.6066
  0
LINE
  8
0
 10
-50.6066
 20
10.6066
 11
-50.0734
 21
11.1143
  0
LINE
  8
0
 10
-50.0734
 20
11.1143
 11
-49.5159
 21
11.5952
  0
LINE
  8
0
 10
-49.5159
 20
11.5952
 11
-48.9355
 21
12.0481
  0
LINE
  8
0
 10
-48.9355
 20
12.0481
 11
-48.3335
 21
12.472
  0
LINE
  8
0
 10
-48.3335
 20
12.472
 11
-47.7115
 21
12.8659
  0
LINE
  8
0
 10
-47.7115
 20
12.8659
 11
-47.0709
 21
13.2288
  0
LINE
  8
0
 10
-47.0709
 20
13.2288
 11
-46.4133
 21
13.5598
  0
LINE
  8
0
 10
-46.4133
 20
13.5598
 11
-45.7402
 21
13.8582
  0
LINE
  8
0
 10
-45.7402
 20
13.8582
 11
-45.0533
 21
14.1232
  0
LINE
  8
0
 10
-45.0533
 20
14.1232
 11
-44.3543
 21
14.3541
  0
LINE
  8
0
 10
-44.3543
 20
14.3541
 11
-43.6447
 21
14.5505
  0
LINE
  8
0
 10
-43.6447
 20
14.5505
 11
-42.9263
 21
14.7118
  0
LINE
  8
0
 10
-42.9263
 20
14.7118
 11
-42.2009
 21
14.8376
  0
LINE
  8
0
 10
-42.2009
 20
14.8376
 11
-41.4702
 21
14.9278
  0
LINE
  8
0
 10
-41.4702
 20
14.9278
 11
-40.736
 21
14.9819
  0
LINE
  8
0
 10
-40.736
 20
14.9819
 11
-40
 21
15
  0
LINE
  8
0
 10
-40
 20
15
 11
-39.264
 21
14.9819
  0
LINE
  8
0
 10
-39.264
 20
14.9819
 11
-38.5297
 21
14.9278
  0
LINE
  8
0
 10
-38.5297
 20
14.9278
 11
-37.799
 21
14.8376
  0
LINE
  8
0
 10
-37.799
 20
14.8376
 11
-37.0736
 21
14.7118
  0
LINE
  8
0
 10
-37.0736
 20
14.7118
 11
-36.3553
 21
14.5505
  0
LINE
  8
0
 10
-36.3553
 20
14.5505
 11
-35.6457
 21
14.3541
  0
LINE
  8
0
 10
-35.6457
 20
14.3541
 11
-34.9466
 21
14.1232
  0
LINE
  8
0
 10
-34.9466
 20
14.1232
 11
-34.2597
 21
13.8582
  0
LINE
  8
0
 10
-34.2597
 20
13.8582
 11
-33.5867
 21
13.5598
  0
LINE
  8
0
 10
-33.5867
 20
13.5598
 11
-32.929
 21
13.2288
  0
LINE
  8
0
 10
-32.929
 20
13.2288
 11
-32.2885
 21
12.8659
  0
LINE
  8
0
 10
-32.2885
 20
12.8659
 11
-31.6664
 21
12.472
  0
LINE
  8
0
 10
-31.6664
 20
12.472
 11
-31.0645
 21
12.0481
  0
LINE
  8
0
 10
-31.0645
 20
12.0481
 11
-30.4841
 21
11.5952
  0
LINE
  8
0
 10
-30.4841
 20
11.5952
 11
-29.9266
 21
11.1143
  0
LINE
  8
0
 10
-29.9266
 20
11.1143
 11
-29.3934
 21
10.6066
  0
LINE
  8
0
 10
-29.3934
 20
10.6066
 11
-28.8857
 21
10.0734
  0
LINE
  8
0
 10
-28.8857
 20
10.0734
 11
-28.4048
 21
9.51588
  0
LINE
  8
0
 10
-28.4048
 20
9.51588
 11
-27.9519
 21
8.93549
  0
LINE
  8
0
 10
-27.9519
 20
8.93549
 11
-27.528
 21
8.33354
  0
LINE
  8
0
 10
-27.528
 20
8.33354
 11
-27.1341
 21
7.71153
  0
LINE
  8
0
 10
-27.1341
 20
7.71153
 11
-26.7712
 21
7.07094
  0
LINE
  8
0
 10
-26.7712
 20
7.07094
 11
-26.4402
 21
6.41331
  0
LINE
  8
0
 10
-26.4402
 20
6.41331
 11
-26.1418
 21
5.74025
  0
LINE
  8
0
 10
-26.1418
 20
5.74025
 11
-25.8768
 21
5.05334
  0
LINE
  8
0
 10
-25.8768
 20
5.05334
 11
-25.6459
 21
4.35426
  0
LINE
  8
0
 10
-25.6459
 20
4.35426
 11
-25.4495
 21
3.6447
  0
LINE
  8
0
 10
-25.4495
 20
3.6447
 11
-25.2882
 21
2.92635
  0
LINE
  8
0
 10
-25.2882
 20
2.92635
 11
-25.1623
 21
2.20094
  0
LINE
  8
0
 10
-25.1623
 20
2.20094
 11
-25.0722
 21
1.47025
  0
LINE
  8
0
 10
-25.0722
 20
1.47025
 11
-25.0181
 21
0.736008
  0
LINE
  8
0
 10
-25.0181
 20
0.736008
 11
-25
 21
0
  0
LINE
  8
0
 10
-25
 20
0
 11
-25.0181
 21
-0.736008
  0
LINE
  8
0
 10
-25.0181
 20
-0.736008
 11
-25.0722
 21
-1.47025
  0
LINE
  8
0
 10
-25.0722
 20
-1.47025
 11
-25.1623
 21
-2.20094
  0
LINE
  8
0
 10
-25.1623
 20
-2.20094
 11
-25.2882
 21
-2.92635
  0
LINE
  8
0
 10
-25.2882
 20
-2.92635
 11
-25.4495
 21
-3.6447
  0
LINE
  8
0
 10
-25.4495
 20
-3.6447
 11
-25.6459
 21
-4.35426
  0
LINE
  8
0
 10
-25.6459
 20
-4.35426
 11
-25.8768
 21
-5.05334
  0
LINE
  8
0
 10
-25.8768
 20
-5.05334
 11
-26.1418
 21
-5.74025
  0
LINE
  8
0
 10
-26.1418
 20
-5.74025
 11
-26.4402
 21
-6.41331
  0
LINE
  8
0
 10
-26.4402
 20
-6.41331
 11
-26.7712
 21
-7.07094
  0
LINE
  8
0
 10
-26.7712
 20
-7.07094
 11
-27.1341
 21
-7.71153
  0
LINE
  8
0
 10
-27.1341
 20
-7.71153
 11
-27.528
 21
-8.33354
  0
LINE
  8
0
 10
-27.528
 20
-8.33354
 11
-27.9519
 21
-8.93549
  0
LINE
  8
0
 10
-27.9519
 20
-8.93549
 11
-28.4048
 21
-9.51588
  0
LINE
  8
0
 10
-28.4048
 20
-9.51588
 11
-28.8857
 21
-10.0734
  0
LINE
  8
0
 10
-28.8857
 20
-10.0734
 11
-29.3934
 21
-10.6066
  0
LINE
  8
0
 10
-29.3934
 20
-10.6066
 11
-29.9266
 21
-11.1143
  0
LINE
  8
0
 10
-29.9266
 20
-11.1143
 11
-30.4841
 21
-11.5952
  0
LINE
  8
0
 10
-30.4841
 20
-11.5952
 11
-31.0645
 21
-12.0481
  0
LINE
  8
0
 10
-31.0645
 20
-12.0481
 11
-31.6664
 21
-12.472
  0
LINE
  8
0
 10
-31.6664
 20
-12.472
 11
-32.2885
 21
-12.8659
  0
LINE
  8
0
 10
-32.2885
 20
-12.8659
 11
-32.929
 21
-13.2288
  0
LINE
  8
0
 10
-32.929
 20
-13.2288
 11
-33.5867
 21
-13.5598
  0
LINE
  8
0
 10
-33.5867
 20
-13.5598
 11
-34.2597
 21
-13.8582
  0
LINE
  8
0
 10
-34.2597
 20
-13.8582
 11
-34.9466
 21
-14.1232
  0
LINE
  8
0
 10
-34.9466
 20
-14.1232
 11
-35.6457
 21
-14.3541
  0
LINE
  8
0
 10
-35.6457
 20
-14.3541
 11
-36.3553
 21
-14.5505
  0
LINE
  8
0
 10
-36.3553
 20
-14.5505
 11
-37.0736
 21
-14.7118
  0
LINE
  8
0
 10
-37.0736
 20
-14.7118
 11
-37.799
 21
-14.8376
  0
LINE
  8
0
 10
-37.799
 20
-14.8376
 11
-38.5297
 21
-14.9278
  0
LINE
  8
0
 10
-38.5297
 20
-14.9278
 11
-39.264
 21
-14.9819
  0
LINE
  8
0
 10
-39.264
 20
-14.9819
 11
-40
 21
-15
  0
LINE
  8
0
 10
-40
 20
-15
 11
-40.736
 21
-14.9819
  0
LINE
  8
0
 10
39.264
 20
-14.9819
 11
38.5297
 21
-14.9278
  0
LINE
  8
0
 10
38.5297
 20
-14.9278
 11
37.799
 21
-14.8376
  0
LINE
  8
0
 10
37.799
 20
-14.8376
 11
37.0736
 21
-14.7118
  0
LINE
  8
0
 10
37.0736
 20
-14.7118
 11
36.3553
 21
-14.5505
  0
LINE
  8
0
 10
36.3553
 20
-14.5505
 11
35.6457
 21
-14.3541
  0
LINE
  8
0
 10
35.6457
 20
-14.3541
 11
34.9466
 21
-14.1232
  0
LINE
  8
0
 10
34.9466
 20
-14.1232
 11
34.2597
 21
-13.8582
  0
LINE
  8
0
 10
34.2597
 20
-13.8582
 11
33.5867
 21
-13.5598
  0
LINE
  8
0
 10
33.5867
 20
-13.5598
 11
32.929
 21
-13.2288
  0
LINE
  8
0
 10
32.929
 20
-13.2288
 11
32.2885
 21
-12.8659
  0
LINE
  8
0
 10
32.2885
 20
-12.8659
 11
31.6664
 21
-12.472
  0
LINE
  8
0
 10
31.6664
 20
-12.472
 11
31.0645
 21
-12.0481
  0
LINE
  8
0
 10
31.0645
 20
-12.0481
 11
30.4841
 21
-11.5952
  0
LINE
  8
0
 10
30.4841
 20
-11.5952
 11
29.9266
 21
-11.1143
  0
LINE
  8
0
 10
29.9266
 20
-11.1143
 11
29.3934
 21
-10.6066
  0
LINE
  8
0
 10
29.3934
 20
-10.6066
 11
28.8857
 21
-10.0734
  0
LINE
  8
0
 10
28.8857
 20
-10.0734
 11
28.4048
 21
-9.51588
  0
LINE
  8
0
 10
28.4048
 20
-9.51588
 11
27.9519
 21
-8.93549
  0
LINE
  8
0
 10
27.9519
 20
-8.93549
 11
27.528
 21
-8.33354
  0
LINE
  8
0
 10
27.528
 20
-8.33354
 11
27.1341
 21
-7.71153
  0
LINE
  8
0
 10
27.1341
 20
-7.71153
 11
26.7712
 21
-7.07094
  0
LINE
  8
0
 10
26.7712
 20
-7.07094
 11
26.4402
 21
-6.41331
  0
LINE
  8
0
 10
26.4402
 20
-6.41331
 11
26.1418
 21
-5.74025
  0
LINE
  8
0
 10
26.1418
 20
-5.74025
 11
25.8768
 21
-5.05334
  0
LINE
  8
0
 10
25.8768
 20
-5.05334
 11
25.6459
 21
-4.35426
  0
LINE
  8
0
 10
25.6459
 20
-4.35426
 11
25.4495
 21
-3.6447
  0
LINE
  8
0
 10
25.4495
 20
-3.6447
 11
25.2882
 21
-2.92635
  0
LINE
  8
0
 10
25.2882
 20
-2.92635
 11
25.1623
 21
-2.20094
  0
LINE
  8
0
 10
25.1623
 20
-2.20094
 11
25.0722
 21
-1.47025
  0
LINE
  8
0
 10
25.0722
 20
-1.47025
 11
25.0181
 21
-0.736008
  0
LINE
  8
0
 10
25.0181
 20
-0.736008
 11
25
 21
0
  0
LINE
  8
0
 10
25
 20
0
 11
25.0181
 21
0.736008
  0
LINE
  8
0
 10
25.0181
 20
0.736008
 11
25.0722
 21
1.47025
  0
LINE
  8
0
 10
25.0722
 20
1.47025
 11
25.1623
 21
2.20094
  0
LINE
  8
0
 10
25.1623
 20
2.20094
 11
25.2882
 21
2.92635
  0
LINE
  8
0
 10
25.2882
 20
2.92635
 11
25.4495
 21
3.6447
  0
LINE
  8
0
 10
25.4495
 20
3.6447
 11
25.6459
 21
4.35426
  0
LINE
  8
0
 10
25.6459
 20
4.35426
 11
25.8768
 21
5.05334
  0
LINE
  8
0
 10
25.8768
 20
5.05334
 11
26.1418
 21
5.74025
  0
LINE
  8
0
 10
26.1418
 20
5.74025
 11
26.4402
 21
6.41331
  0
LINE
  8
0
 10
26.4402
 20
6.41331
 11
26.7712
 21
7.07094
  0
LINE
  8
0
 10
26.7712
 20
7.07094
 11
27.1341
 21
7.71153
  0
LINE
  8
0
 10
27.1341
 20
7.71153
 11
27.528
 21
8.33354
  0
LINE
  8
0
 10
27.528
 20
8.33354
 11
27.9519
 21
8.93549
  0
LINE
  8
0
 10
27.9519
 20
8.93549
 11
28.4048
 21
9.51588
  0
LINE
  8
0
 10
28.4048
 20
9.51588
 11
28.8857
 21
10.0734
  0
LINE
  8
0
 10
28.8857
 20
10.0734
 11
29.3934
 21
10.6066
  0
LINE
  8
0
 10
29.3934
 20
10.6066
 11
29.9266
 21
11.1143
  0
LINE
  8
0
 10
29.9266
 20
11.1143
 11
30.4841
 21
11.5952
  0
LINE
  8
0
 10
30.4841
 20
11.5952
 11
31.0645
 21
12.0481
  0
LINE
  8
0
 10
31.0645
 20
12.0481
 11
31.6664
 21
12.472
  0
LINE
  8
0
 10
31.6664
 20
12.472
 11
32.2885
 21
12.8659
  0
LINE
  8
0
 10
32.2885
 20
12.8659
 11
32.929
 21
13.2288
  0
LINE
  8
0
 10
32.929
 20
13.2288
 11
33.5867
 21
13.5598
  0
LINE
  8
0
 10
33.5867
 20
13.5598
 11
34.2597
 21
13.8582
  0
LINE
  8
0
 10
34.2597
 20
13.8582
 11
34.9466
 21
14.1232
  0
LINE
  8
0
 10
34.9466
 20
14.1232
 11
35.6457
 21
14.3541
  0
LINE
  8
0
 10
35.6457
 20
14.3541
 11
36.3553
 21
14.5505
  0
LINE
  8
0
 10
36.3553
 20
14.5505
 11
37.0736
 21
14.7118
  0
LINE
  8
0
 10
37.0736
 20
14.7118
 11
37.799
 21
14.8376
  0
LINE
  8
0
 10
37.799
 20
14.8376
 11
38.5297
 21
14.9278
  0
LINE
  8
0
 10
38.5297
 20
14.9278
 11
39.264
 21
14.9819
  0
LINE
  8
0
 10
39.264
 20
14.9819
 11
40
 21
15
  0
LINE
  8
0
 10
40
 20
15
 11
40.736
 21
14.9819
  0
LINE
  8
0
 10
40.736
 20
14.9819
 11
41.4702
 21
14.9278
  0
LINE
  8
0
 10
41.4702
 20
14.9278
 11
42.2009
 21
14.8376
  0
LINE
  8
0
 10
42.2009
 20
14.8376
 11
42.9263
 21
14.7118
  0
LINE
  8
0
 10
42.9263
 20
14.7118
 11
43.6447
 21
14.5505
  0
LINE
  8
0
 10
43.6447
 20
14.5505
 11
44.3543
 21
14.3541
  0
LINE
  8
0
 10
44.3543
 20
14.3541
 11
45.0533
 21
14.1232
  0
LINE
  8
0
 10
45.0533
 20
14.1232
 11
45.7402
 21
13.8582
  0
LINE
  8
0
 10
45.7402
 20
13.8582
 11
46.4133
 21
13.5598
  0
LINE
  8
0
 10
46.4133
 20
13.5598
 11
47.0709
 21
13.2288
  0
LINE
  8
0
 10
47.0709
 20
13.2288
 11
47.7115
 21
12.8659
  0
LINE
  8
0
 10
47.7115
 20
12.8659
 11
48.3335
 21
12.472
  0
LINE
  8
0
 10
48.3335
 20
12.472
 11
48.9355
 21
12.0481
  0
LINE
  8
0
 10
48.9355
 20
12.0481
 11
49.5159
 21
11.5952
  0
LINE
  8
0
 10
49.5159
 20
11.5952
 11
50.0734
 21
11.1143
  0
LINE
  8
0
 10
50.0734
 20
11.1143
 11
50.6066
 21
10.6066
  0
LINE
  8
0
 10
50.6066
 20
10.6066
 11
51.1143
 21
10.0734
  0
LINE
  8
0
 10
51.1143
 20
10.0734
 11
51.5952
 21
9.51588
  0
LINE
  8
0
 10
51.5952
 20
9.51588
 11
52.0481
 21
8.93549
  0
LINE
  8
0
 10
52.0481
 20
8.93549
 11
52.472
 21
8.33354
  0
LINE
  8
0
 10
52.472
 20
8.33354
 11
52.8659
 21
7.71153
  0
LINE
  8
0
 10
52.8659
 20
7.71153
 11
53.2288
 21
7.07094
  0
LINE
  8
0
 10
53.2288
 20
7.07094
 11
53.5598
 21
6.41331
  0
LINE
  8
0
 10
53.5598
 20
6.41331
 11
53.8582
 21
5.74025
  0
LINE
  8
0
 10
53.8582
 20
5.74025
 11
54.1232
 21
5.05334
  0
LINE
  8
0
 10
54.1232
 20
5.05334
 11
54.3541
 21
4.35426
  0
LINE
  8
0
 10
54.3541
 20
4.35426
 11
54.5505
 21
3.6447
  0
LINE
  8
0
 10
54.5505
 20
3.6447
 11
54.7118
 21
2.92635
  0
LINE
  8
0
 10
54.7118
 20
2.92635
 11
54.8376
 21
2.20094
  0
LINE
  8
0
 10
54.8376
 20
2.20094
 11
54.9278
 21
1.47025
  0
LINE
  8
0
 10
54.9278
 20
1.47025
 11
54.9819
 21
0.736008
  0
LINE
  8
0
 10
54.9819
 20
0.736008
 11
55
 21
0
  0
LINE
  8
0
 10
55
 20
0
 11
54.9819
 21
-0.736008
  0
LINE
  8
0
 10
54.9819
 20
-0.736008
 11
54.9278
 21
-1.47025
  0
LINE
  8
0
 10
54.9278
 20
-1.47025
 11
54.8376
 21
-2.20094
  0
LINE
  8
0
 10
54.8376
 20
-2.20094
 11
54.7118
 21
-2.92635
  0
LINE
  8
0
 10
54.7118
 20
-2.92635
 11
54.5505
 21
-3.6447
  0
LINE
  8
0
 10
54.5505
 20
-3.6447
 11
54.3541
 21
-4.35426
  0
LINE
  8
0
 10
54.3541
 20
-4.35426
 11
54.1232
 21
-5.05334
  0
LINE
  8
0
 10
54.1232
 20
-5.05334
 11
53.8582
 21
-5.74025
  0
LINE
  8
0
 10
53.8582
 20
-5.74025
 11
53.5598
 21
-6.41331
  0
LINE
  8
0
 10
53.5598
 20
-6.41331
 11
53.2288
 21
-7.07094
  0
LINE
  8
0
 10
53.2288
 20
-7.07094
 11
52.8659
 21
-7.71153
  0
LINE
  8
0
 10
52.8659
 20
-7.71153
 11
52.472
 21
-8.33354
  0
LINE
  8
0
 10
52.472
 20
-8.33354
 11
52.0481
 21
-8.93549
  0
LINE
  8
0
 10
52.0481
 20
-8.93549
 11
51.5952
 21
-9.51588
  0
LINE
  8
0
 10
51.5952
 20
-9.51588
 11
51.1143
 21
-10.0734
  0
LINE
  8
0
 10
51.1143
 20
-10.0734
 11
50.6066
 21
-10.6066
  0
LINE
  8
0
 10
50.6066
 20
-10.6066
 11
50.0734
 21
-11.1143
  0
LINE
  8
0
 10
50.0734
 20
-11.1143
 11
49.5159
 21
-11.5952
  0
LINE
  8
0
 10
49.5159
 20
-11.5952
 11
48.9355
 21
-12.0481
  0
LINE
  8
0
 10
48.9355
 20
-12.0481
 11
48.3335
 21
-12.472
  0
LINE
  8
0
 10
48.3335
 20
-12.472
 11
47.7115
 21
-12.8659
  0
LINE
  8
0
 10
47.7115
 20
-12.8659
 11
47.0709
 21
-13.2288
  0
LINE
  8
0
 10
47.0709
 20
-13.2288
 11
46.4133
 21
-13.5598
  0
LINE
  8
0
 10
46.4133
 20
-13.5598
 11
45.7402
 21
-13.8582
  0
LINE
  8
0
 10
45.7402
 20
-13.8582
 11
45.0533
 21
-14.1232
  0
LINE
  8
0
 10
45.0533
 20
-14.1232
 11
44.3543
 21
-14.3541
  0
LINE
  8
0
 10
44.3543
 20
-14.3541
 11
43.6447
 21
-14.5505
  0
LINE
  8
0
 10
43.6447
 20
-14.5505
 11
42.9263
 21
-14.7118
  0
LINE
  8
0
 10
42.9263
 20
-14.7118
 11
42.2009
 21
-14.8376
  0
LINE
  8
0
 10
42.2009
 20
-14.8376
 11
41.4702
 21
-14.9278
  0
LINE
  8
0
 10
41.4702
 20
-14.9278
 11
40.736
 21
-14.9819
  0
LINE
  8
0
 10
40.736
 20
-14.9819
 11
40
 21
-15
  0
LINE
  8
0
 10
40
 20
-15
 11
39.264
 21
-14.9819
  0
LINE
  8
0
 10
-68.0074
 20
-30.1109
 11
-68.5955
 21
-30.0772
  0
LINE
  8
0
 10
-68.5955
 20
-30.0772
 11
-69.1811
 21
-30.0147
  0
LINE
  8
0
 10
-69.1811
 20
-30.0147
 11
-69.763
 21
-29.9235
  0
LINE
  8
0
 10
-69.763
 20
-29.9235
 11
-70.3397
 21
-29.8038
  0
LINE
  8
0
 10
-70.3397
 20
-29.8038
 11
-70.9099
 21
-29.6561
  0
LINE
  8
0
 10
-70.9099
 20
-29.6561
 11
-71.4721
 21
-29.4805
  0
LINE
  8
0
 10
-71.4721
 20
-29.4805
 11
-72.025
 21
-29.2775
  0
LINE
  8
0
 10
-72.025
 20
-29.2775
 11
-72.5673
 21
-29.0477
  0
LINE
  8
0
 10
-72.5673
 20
-29.0477
 11
-73.0976
 21
-28.7915
  0
LINE
  8
0
 10
-73.0976
 20
-28.7915
 11
-73.6148
 21
-28.5096
  0
LINE
  8
0
 10
-73.6148
 20
-28.5096
 11
-74.1175
 21
-28.2027
  0
LINE
  8
0
 10
-74.1175
 20
-28.2027
 11
-74.6045
 21
-27.8715
  0
LINE
  8
0
 10
-74.6045
 20
-27.8715
 11
-75.0747
 21
-27.5168
  0
LINE
  8
0
 10
-75.0747
 20
-27.5168
 11
-75.5269
 21
-27.1394
  0
LINE
  8
0
 10
-75.5269
 20
-27.1394
 11
-75.9601
 21
-26.7403
  0
LINE
  8
0
 10
-75.9601
 20
-26.7403
 11
-76.3732
 21
-26.3204
  0
LINE
  8
0
 10
-76.3732
 20
-26.3204
 11
-76.7651
 21
-25.8808
  0
LINE
  8
0
 10
-76.7651
 20
-25.8808
 11
-77.135
 21
-25.4225
  0
LINE
  8
0
 10
-77.135
 20
-25.4225
 11
-77.482
 21
-24.9465
  0
LINE
  8
0
 10
-77.482
 20
-24.9465
 11
-77.8052
 21
-24.4541
  0
LINE
  8
0
 10
-77.8052
 20
-24.4541
 11
-78.1039
 21
-23.9465
  0
LINE
  8
0
 10
-78.1039
 20
-23.9465
 11
-78.3773
 21
-23.4248
  0
LINE
  8
0
 10
-78.3773
 20
-23.4248
 11
-78.6247
 21
-22.8903
  0
LINE
  8
0
 10
-78.6247
 20
-22.8903
 11
-78.8457
 21
-22.3443
  0
LINE
  8
0
 10
-78.8457
 20
-22.3443
 11
-79.0396
 21
-21.7882
  0
LINE
  8
0
 10
-79.0396
 20
-21.7882
 11
-79.2059
 21
-21.2232
  0
LINE
  8
0
 10
-79.2059
 20
-21.2232
 11
-79.3443
 21
-20.6507
  0
LINE
  8
0
 10
-79.3443
 20
-20.6507
 11
-79.4545
 21
-20.0721
  0
LINE
  8
0
 10
-79.4545
 20
-20.0721
 11
-79.5362
 21
-19.4888
  0
LINE
  8
0
 10
-79.5362
 20
-19.4888
 11
-79.5891
 21
-18.9022
  0
LINE
  8
0
 10
-79.5891
 20
-18.9022
 11
-79.6132
 21
-18.3137
  0
LINE
  8
0
 10
-79.6132
 20
-18.3137
 11
-79.6084
 21
-17.7247
  0
LINE
  8
0
 10
-79.6084
 20
-17.7247
 11
-79.5747
 21
-17.1367
  0
LINE
  8
0
 10
-79.5747
 20
-17.1367
 11
-79.5121
 21
-16.551
  0
LINE
  8
0
 10
-79.5121
 20
-16.551
 11
-79.421
 21
-15.9691
  0
LINE
  8
0
 10
-79.421
 20
-15.9691
 11
-79.3013
 21
-15.3924
  0
LINE
  8
0
 10
-79.3013
 20
-15.3924
 11
-79.1535
 21
-14.8223
  0
LINE
  8
0
 10
-79.1535
 20
-14.8223
 11
-78.978
 21
-14.2601
  0
LINE
  8
0
 10
-78.978
 20
-14.2601
 11
-78.775
 21
-13.7071
  0
LINE
  8
0
 10
-78.775
 20
-13.7071
 11
-78.5452
 21
-13.1648
  0
LINE
  8
0
 10
-78.5452
 20
-13.1648
 11
-78.289
 21
-12.6345
  0
LINE
  8
0
 10
-78.289
 20
-12.6345
 11
-78.0071
 21
-12.1173
  0
LINE
  8
0
 10
-78.0071
 20
-12.1173
 11
-77.7002
 21
-11.6146
  0
LINE
  8
0
 10
-77.7002
 20
-11.6146
 11
-77.369
 21
-11.1276
  0
LINE
  8
0
 10
-77.369
 20
-11.1276
 11
-77.0142
 21
-10.6574
  0
LINE
  8
0
 10
-77.0142
 20
-10.6574
 11
-76.6369
 21
-10.2052
  0
LINE
  8
0
 10
-76.6369
 20
-10.2052
 11
-76.2378
 21
-9.77202
  0
LINE
  8
0
 10
-76.2378
 20
-9.77202
 11
-75.8179
 21
-9.35896
  0
LINE
  8
0
 10
-75.8179
 20
-9.35896
 11
-75.3783
 21
-8.967
  0
LINE
  8
0
 10
-75.3783
 20
-8.967
 11
-74.9199
 21
-8.59709
  0
LINE
  8
0
 10
-74.9199
 20
-8.59709
 11
-74.444
 21
-8.25011
  0
LINE
  8
0
 10
-74.444
 20
-8.25011
 11
-73.9516
 21
-7.9269
  0
LINE
  8
0
 10
-73.9516
 20
-7.9269
 11
-73.444
 21
-7.62823
  0
LINE
  8
0
 10
-73.444
 20
-7.62823
 11
-72.9223
 21
-7.35486
  0
LINE
  8
0
 10
-72.9223
 20
-7.35486
 11
-72.3878
 21
-7.10739
  0
LINE
  8
0
 10
-72.3878
 20
-7.10739
 11
-71.8418
 21
-6.88646
  0
LINE
  8
0
 10
-71.8418
 20
-6.88646
 11
-71.2856
 21
-6.69257
  0
LINE
  8
0
 10
-71.2856
 20
-6.69257
 11
-70.7206
 21
-6.52621
  0
LINE
  8
0
 10
-70.7206
 20
-6.52621
 11
-70.1481
 21
-6.38779
  0
LINE
  8
0
 10
-70.1481
 20
-6.38779
 11
-69.5695
 21
-6.2776
  0
LINE
  8
0
 10
-69.5695
 20
-6.2776
 11
-68.9862
 21
-6.19595
  0
LINE
  8
0
 10
-68.9862
 20
-6.19595
 11
-68.3996
 21
-6.14302
  0
LINE
  8
0
 10
-68.3996
 20
-6.14302
 11
-67.8111
 21
-6.11893
  0
LINE
  8
0
 10
-67.8111
 20
-6.11893
 11
-67.2222
 21
-6.12375
  0
LINE
  8
0
 10
-67.2222
 20
-6.12375
 11
-66.6341
 21
-6.15746
  0
LINE
  8
0
 10
-66.6341
 20
-6.15746
 11
-66.0485
 21
-6.21999
  0
LINE
  8
0
 10
-66.0485
 20
-6.21999
 11
-65.4666
 21
-6.31117
  0
LINE
  8
0
 10
-65.4666
 20
-6.31117
 11
-64.8899
 21
-6.4308
  0
LINE
  8
0
 10
-64.8899
 20
-6.4308
 11
-64.3197
 21
-6.57858
  0
LINE
  8
0
 10
-64.3197
 20
-6.57858
 11
-63.7575
 21
-6.75417
  0
LINE
  8
0
 10
-63.7575
 20
-6.75417
 11
-63.2046
 21
-6.95712
  0
LINE
  8
0
 10
-63.2046
 20
-6.95712
 11
-62.6623
 21
-7.18697
  0
LINE
  8
0
 10
-62.6623
 20
-7.18697
 11
-62.132
 21
-7.44313
  0
LINE
  8
0
 10
-62.132
 20
-7.44313
 11
-61.6148
 21
-7.72502
  0
LINE
  8
0
 10
-61.6148
 20
-7.72502
 11
-61.1121
 21
-8.03195
  0
LINE
  8
0
 10
-61.1121
 20
-8.03195
 11
-60.6251
 21
-8.36316
  0
LINE
  8
0
 10
-60.6251
 20
-8.36316
 11
-60.1549
 21
-8.71788
  0
LINE
  8
0
 10
-60.1549
 20
-8.71788
 11
-59.7027
 21
-9.09525
  0
LINE
  8
0
 10
-59.7027
 20
-9.09525
 11
-59.2695
 21
-9.49434
  0
LINE
  8
0
 10
-59.2695
 20
-9.49434
 11
-58.8564
 21
-9.91422
  0
LINE
  8
0
 10
-58.8564
 20
-9.91422
 11
-58.4645
 21
-10.3539
  0
LINE
  8
0
 10
-58.4645
 20
-10.3539
 11
-58.0946
 21
-10.8122
  0
LINE
  8
0
 10
-58.0946
 20
-10.8122
 11
-57.7476
 21
-11.2881
  0
LINE
  8
0
 10
-57.7476
 20
-11.2881
 11
-57.4244
 21
-11.7805
  0
LINE
  8
0
 10
-57.4244
 20
-11.7805
 11
-57.1257
 21
-12.2882
  0
LINE
  8
0
 10
-57.1257
 20
-12.2882
 11
-56.8523
 21
-12.8099
  0
LINE
  8
0
 10
-56.8523
 20
-12.8099
 11
-56.6049
 21
-13.3443
  0
LINE
  8
0
 10
-56.6049
 20
-13.3443
 11
-56.3839
 21
-13.8903
  0
LINE
  8
0
 10
-56.3839
 20
-13.8903
 11
-56.19
 21
-14.4465
  0
LINE
  8
0
 10
-56.19
 20
-14.4465
 11
-56.0237
 21
-15.0115
  0
LINE
  8
0
 10
-56.0237
 20
-15.0115
 11
-55.8853
 21
-15.584
  0
LINE
  8
0
 10
-55.8853
 20
-15.584
 11
-55.7751
 21
-16.1626
  0
LINE
  8
0
 10
-55.7751
 20
-16.1626
 11
-55.6934
 21
-16.7459
  0
LINE
  8
0
 10
-55.6934
 20
-16.7459
 11
-55.6405
 21
-17.3325
  0
LINE
  8
0
 10
-55.6405
 20
-17.3325
 11
-55.6164
 21
-17.921
  0
LINE
  8
0
 10
-55.6164
 20
-17.921
 11
-55.6212
 21
-18.5099
  0
LINE
  8
0
 10
-55.6212
 20
-18.5099
 11
-55.6549
 21
-19.098
  0
LINE
  8
0
 10
-55.6549
 20
-19.098
 11
-55.7175
 21
-19.6836
  0
LINE
  8
0
 10
-55.7175
 20
-19.6836
 11
-55.8087
 21
-20.2655
  0
LINE
  8
0
 10
-55.8087
 20
-20.2655
 11
-55.9283
 21
-20.8422
  0
LINE
  8
0
 10
-55.9283
 20
-20.8422
 11
-56.0761
 21
-21.4124
  0
LINE
  8
0
 10
-56.0761
 20
-21.4124
 11
-56.2516
 21
-21.9746
  0
LINE
  8
0
 10
-56.2516
 20
-21.9746
 11
-56.4546
 21
-22.5275
  0
LINE
  8
0
 10
-56.4546
 20
-22.5275
 11
-56.6844
 21
-23.0698
  0
LINE
  8
0
 10
-56.6844
 20
-23.0698
 11
-56.9406
 21
-23.6002
  0
LINE
  8
0
 10
-56.9406
 20
-23.6002
 11
-57.2225
 21
-24.1173
  0
LINE
  8
0
 10
-57.2225
 20
-24.1173
 11
-57.5294
 21
-24.62
  0
LINE
  8
0
 10
-57.5294
 20
-24.62
 11
-57.8606
 21
-25.1071
  0
LINE
  8
0
 10
-57.8606
 20
-25.1071
 11
-58.2154
 21
-25.5773
  0
LINE
  8
0
 10
-58.2154
 20
-25.5773
 11
-58.5927
 21
-26.0295
  0
LINE
  8
0
 10
-58.5927
 20
-26.0295
 11
-58.9918
 21
-26.4626
  0
LINE
  8
0
 10
-58.9918
 20
-26.4626
 11
-59.4117
 21
-26.8757
  0
LINE
  8
0
 10
-59.4117
 20
-26.8757
 11
-59.8513
 21
-27.2677
  0
LINE
  8
0
 10
-59.8513
 20
-27.2677
 11
-60.3097
 21
-27.6376
  0
LINE
  8
0
 10
-60.3097
 20
-27.6376
 11
-60.7856
 21
-27.9845
  0
LINE
  8
0
 10
-60.7856
 20
-27.9845
 11
-61.278
 21
-28.3078
  0
LINE
  8
0
 10
-61.278
 20
-28.3078
 11
-61.7856
 21
-28.6064
  0
LINE
  8
0
 10
-61.7856
 20
-28.6064
 11
-62.3073
 21
-28.8798
  0
LINE
  8
0
 10
-62.3073
 20
-28.8798
 11
-62.8418
 21
-29.1273
  0
LINE
  8
0
 10
-62.8418
 20
-29.1273
 11
-63.3878
 21
-29.3482
  0
LINE
  8
0
 10
-63.3878
 20
-29.3482
 11
-63.944
 21
-29.5421
  0
LINE
  8
0
 10
-63.944
 20
-29.5421
 11
-64.509
 21
-29.7084
  0
LINE
  8
0
 10
-64.509
 20
-29.7084
 11
-65.0815
 21
-29.8469
  0
LINE
  8
0
 10
-65.0815
 20
-29.8469
 11
-65.66
 21
-29.957
  0
LINE
  8
0
 10
-65.66
 20
-29.957
 11
-66.2434
 21
-30.0387
  0
LINE
  8
0
 10
-66.2434
 20
-30.0387
 11
-66.83
 21
-30.0916
  0
LINE
  8
0
 10
-66.83
 20
-30.0916
 11
-67.4185
 21
-30.1157
  0
LINE
  8
0
 10
-67.4185
 20
-30.1157
 11
-68.0074
 21
-30.1109
  0
LINE
  8
0
 10
66.83
 20
-30.0916
 11
66.2434
 21
-30.0387
  0
LINE
  8
0
 10
66.2434
 20
-30.0387
 11
65.66
 21
-29.957
  0
LINE
  8
0
 10
65.66
 20
-29.957
 11
65.0815
 21
-29.8469
  0
LINE
  8
0
 10
65.0815
 20
-29.8469
 11
64.509
 21
-29.7084
  0
LINE
  8
0
 10
64.509
 20
-29.7084
 11
63.944
 21
-29.5421
  0
LINE
  8
0
 10
63.944
 20
-29.5421
 11
63.3878
 21
-29.3482
  0
LINE
  8
0
 10
63.3878
 20
-29.3482
 11
62.8418
 21
-29.1273
  0
LINE
  8
0
 10
62.8418
 20
-29.1273
 11
62.3073
 21
-28.8798
  0
LINE
  8
0
 10
62.3073
 20
-28.8798
 11
61.7856
 21
-28.6064
  0
LINE
  8
0
 10
61.7856
 20
-28.6064
 11
61.278
 21
-28.3078
  0
LINE
  8
0
 10
61.278
 20
-28.3078
 11
60.7856
 21
-27.9845
  0
LINE
  8
0
 10
60.7856
 20
-27.9845
 11
60.3097
 21
-27.6376
  0
LINE
  8
0
 10
60.3097
 20
-27.6376
 11
59.8513
 21
-27.2677
  0
LINE
  8
0
 10
59.8513
 20
-27.2677
 11
59.4117
 21
-26.8757
  0
LINE
  8
0
 10
59.4117
 20
-26.8757
 11
58.9918
 21
-26.4626
  0
LINE
  8
0
 10
58.9918
 20
-26.4626
 11
58.5927
 21
-26.0295
  0
LINE
  8
0
 10
58.5927
 20
-26.0295
 11
58.2154
 21
-25.5773
  0
LINE
  8
0
 10
58.2154
 20
-25.5773
 11
57.8606
 21
-25.1071
  0
LINE
  8
0
 10
57.8606
 20
-25.1071
 11
57.5294
 21
-24.62
  0
LINE
  8
0
 10
57.5294
 20
-24.62
 11
57.2225
 21
-24.1173
  0
LINE
  8
0
 10
57.2225
 20
-24.1173
 11
56.9406
 21
-23.6002
  0
LINE
  8
0
 10
56.9406
 20
-23.6002
 11
56.6844
 21
-23.0698
  0
LINE
  8
0
 10
56.6844
 20
-23.0698
 11
56.4546
 21
-22.5275
  0
LINE
  8
0
 10
56.4546
 20
-22.5275
 11
56.2516
 21
-21.9746
  0
LINE
  8
0
 10
56.2516
 20
-21.9746
 11
56.0761
 21
-21.4124
  0
LINE
  8
0
 10
56.0761
 20
-21.4124
 11
55.9283
 21
-20.8422
  0
LINE
  8
0
 10
55.9283
 20
-20.8422
 11
55.8087
 21
-20.2655
  0
LINE
  8
0
 10
55.8087
 20
-20.2655
 11
55.7175
 21
-19.6836
  0
LINE
  8
0
 10
55.7175
 20
-19.6836
 11
55.6549
 21
-19.098
  0
LINE
  8
0
 10
55.6549
 20
-19.098
 11
55.6212
 21
-18.5099
  0
LINE
  8
0
 10
55.6212
 20
-18.5099
 11
55.6164
 21
-17.921
  0
LINE
  8
0
 10
55.6164
 20
-17.921
 11
55.6405
 21
-17.3325
  0
LINE
  8
0
 10
55.6405
 20
-17.3325
 11
55.6934
 21
-16.7459
  0
LINE
  8
0
 10
55.6934
 20
-16.7459
 11
55.7751
 21
-16.1626
  0
LINE
  8
0
 10
55.7751
 20
-16.1626
 11
55.8853
 21
-15.584
  0
LINE
  8
0
 10
55.8853
 20
-15.584
 11
56.0237
 21
-15.0115
  0
LINE
  8
0
 10
56.0237
 20
-15.0115
 11
56.19
 21
-14.4465
  0
LINE
  8
0
 10
56.19
 20
-14.4465
 11
56.3839
 21
-13.8903
  0
LINE
  8
0
 10
56.3839
 20
-13.8903
 11
56.6049
 21
-13.3443
  0
LINE
  8
0
 10
56.6049
 20
-13.3443
 11
56.8523
 21
-12.8099
  0
LINE
  8
0
 10
56.8523
 20
-12.8099
 11
57.1257
 21
-12.2882
  0
LINE
  8
0
 10
57.1257
 20
-12.2882
 11
57.4244
 21
-11.7805
  0
LINE
  8
0
 10
57.4244
 20
-11.7805
 11
57.7476
 21
-11.2881
  0
LINE
  8
0
 10
57.7476
 20
-11.2881
 11
58.0946
 21
-10.8122
  0
LINE
  8
0
 10
58.0946
 20
-10.8122
 11
58.4645
 21
-10.3539
  0
LINE
  8
0
 10
58.4645
 20
-10.3539
 11
58.8564
 21
-9.91422
  0
LINE
  8
0
 10
58.8564
 20
-9.91422
 11
59.2695
 21
-9.49434
  0
LINE
  8
0
 10
59.2695
 20
-9.49434
 11
59.7027
 21
-9.09525
  0
LINE
  8
0
 10
59.7027
 20
-9.09525
 11
60.1549
 21
-8.71788
  0
LINE
  8
0
 10
60.1549
 20
-8.71788
 11
60.6251
 21
-8.36316
  0
LINE
  8
0
 10
60.6251
 20
-8.36316
 11
61.1121
 21
-8.03195
  0
LINE
  8
0
 10
61.1121
 20
-8.03195
 11
61.6148
 21
-7.72502
  0
LINE
  8
0
 10
61.6148
 20
-7.72502
 11
62.132
 21
-7.44313
  0
LINE
  8
0
 10
62.132
 20
-7.44313
 11
62.6623
 21
-7.18697
  0
LINE
  8
0
 10
62.6623
 20
-7.18697
 11
63.2046
 21
-6.95712
  0
LINE
  8
0
 10
63.2046
 20
-6.95712
 11
63.7575
 21
-6.75417
  0
LINE
  8
0
 10
63.7575
 20
-6.75417
 11
64.3197
 21
-6.57858
  0
LINE
  8
0
 10
64.3197
 20
-6.57858
 11
64.8899
 21
-6.4308
  0
LINE
  8
0
 10
64.8899
 20
-6.4308
 11
65.4666
 21
-6.31117
  0
LINE
  8
0
 10
65.4666
 20
-6.31117
 11
66.0485
 21
-6.21999
  0
LINE
  8
0
 10
66.0485
 20
-6.21999
 11
66.6341
 21
-6.15746
  0
LINE
  8
0
 10
66.6341
 20
-6.15746
 11
67.2222
 21
-6.12375
  0
LINE
  8
0
 10
67.2222
 20
-6.12375
 11
67.8111
 21
-6.11893
  0
LINE
  8
0
 10
67.8111
 20
-6.11893
 11
68.3996
 21
-6.14302
  0
LINE
  8
0
 10
68.3996
 20
-6.14302
 11
68.9862
 21
-6.19595
  0
LINE
  8
0
 10
68.9862
 20
-6.19595
 11
69.5695
 21
-6.2776
  0
LINE
  8
0
 10
69.5695
 20
-6.2776
 11
70.1481
 21
-6.38779
  0
LINE
  8
0
 10
70.1481
 20
-6.38779
 11
70.7206
 21
-6.52621
  0
LINE
  8
0
 10
70.7206
 20
-6.52621
 11
71.2856
 21
-6.69257
  0
LINE
  8
0
 10
71.2856
 20
-6.69257
 11
71.8418
 21
-6.88646
  0
LINE
  8
0
 10
71.8418
 20
-6.88646
 11
72.3878
 21
-7.10739
  0
LINE
  8
0
 10
72.3878
 20
-7.10739
 11
72.9223
 21
-7.35486
  0
LINE
  8
0
 10
72.9223
 20
-7.35486
 11
73.444
 21
-7.62823
  0
LINE
  8
0
 10
73.444
 20
-7.62823
 11
73.9516
 21
-7.9269
  0
LINE
  8
0
 10
73.9516
 20
-7.9269
 11
74.444
 21
-8.25011
  0
LINE
  8
0
 10
74.444
 20
-8.25011
 11
74.9199
 21
-8.59709
  0
LINE
  8
0
 10
74.9199
 20
-8.59709
 11
75.3783
 21
-8.967
  0
LINE
  8
0
 10
75.3783
 20
-8.967
 11
75.8179
 21
-9.35896
  0
LINE
  8
0
 10
75.8179
 20
-9.35896
 11
76.2378
 21
-9.77202
  0
LINE
  8
0
 10
76.2378
 20
-9.77202
 11
76.6369
 21
-10.2052
  0
LINE
  8
0
 10
76.6369
 20
-10.2052
 11
77.0142
 21
-10.6574
  0
LINE
  8
0
 10
77.0142
 20
-10.6574
 11
77.369
 21
-11.1276
  0
LINE
  8
0
 10
77.369
 20
-11.1276
 11
77.7002
 21
-11.6146
  0
LINE
  8
0
 10
77.7002
 20
-11.6146
 11
78.0071
 21
-12.1173
  0
LINE
  8
0
 10
78.0071
 20
-12.1173
 11
78.289
 21
-12.6345
  0
LINE
  8
0
 10
78.289
 20
-12.6345
 11
78.5452
 21
-13.1648
  0
LINE
  8
0
 10
78.5452
 20
-13.1648
 11
78.775
 21
-13.7071
  0
LINE
  8
0
 10
78.775
 20
-13.7071
 11
78.978
 21
-14.2601
  0
LINE
  8
0
 10
78.978
 20
-14.2601
 11
79.1535
 21
-14.8223
  0
LINE
  8
0
 10
79.1535
 20
-14.8223
 11
79.3013
 21
-15.3924
  0
LINE
  8
0
 10
79.3013
 20
-15.3924
 11
79.421
 21
-15.9691
  0
LINE
  8
0
 10
79.421
 20
-15.9691
 11
79.5121
 21
-16.551
  0
LINE
  8
0
 10
79.5121
 20
-16.551
 11
79.5747
 21
-17.1367
  0
LINE
  8
0
 10
79.5747
 20
-17.1367
 11
79.6084
 21
-17.7247
  0
LINE
  8
0
 10
79.6084
 20
-17.7247
 11
79.6132
 21
-18.3137
  0
LINE
  8
0
 10
79.6132
 20
-18.3137
 11
79.5891
 21
-18.9022
  0
LINE
  8
0
 10
79.5891
 20
-18.9022
 11
79.5362
 21
-19.4888
  0
LINE
  8
0
 10
79.5362
 20
-19.4888
 11
79.4545
 21
-20.0721
  0
LINE
  8
0
 10
79.4545
 20
-20.0721
 11
79.3443
 21
-20.6507
  0
LINE
  8
0
 10
79.3443
 20
-20.6507
 11
79.2059
 21
-21.2232
  0
LINE
  8
0
 10
79.2059
 20
-21.2232
 11
79.0396
 21
-21.7882
  0
LINE
  8
0
 10
79.0396
 20
-21.7882
 11
78.8457
 21
-22.3443
  0
LINE
  8
0
 10
78.8457
 20
-22.3443
 11
78.6247
 21
-22.8903
  0
LINE
  8
0
 10
78.6247
 20
-22.8903
 11
78.3773
 21
-23.4248
  0
LINE
  8
0
 10
78.3773
 20
-23.4248
 11
78.1039
 21
-23.9465
  0
LINE
  8
0
 10
78.1039
 20
-23.9465
 11
77.8052
 21
-24.4541
  0
LINE
  8
0
 10
77.8052
 20
-24.4541
 11
77.482
 21
-24.9465
  0
LINE
  8
0
 10
77.482
 20
-24.9465
 11
77.135
 21
-25.4225
  0
LINE
  8
0
 10
77.135
 20
-25.4225
 11
76.7651
 21
-25.8808
  0
LINE
  8
0
 10
76.7651
 20
-25.8808
 11
76.3732
 21
-26.3204
  0
LINE
  8
0
 10
76.3732
 20
-26.3204
 11
75.9601
 21
-26.7403
  0
LINE
  8
0
 10
75.9601
 20
-26.7403
 11
75.5269
 21
-27.1394
  0
LINE
  8
0
 10
75.5269
 20
-27.1394
 11
75.0747
 21
-27.5168
  0
LINE
  8
0
 10
75.0747
 20
-27.5168
 11
74.6045
 21
-27.8715
  0
LINE
  8
0
 10
74.6045
 20
-27.8715
 11
74.1175
 21
-28.2027
  0
LINE
  8
0
 10
74.1175
 20
-28.2027
 11
73.6148
 21
-28.5096
  0
LINE
  8
0
 10
73.6148
 20
-28.5096
 11
73.0976
 21
-28.7915
  0
LINE
  8
0
 10
73.0976
 20
-28.7915
 11
72.5673
 21
-29.0477
  0
LINE
  8
0
 10
72.5673
 20
-29.0477
 11
72.025
 21
-29.2775
  0
LINE
  8
0
 10
72.025
 20
-29.2775
 11
71.4721
 21
-29.4805
  0
LINE
  8
0
 10
71.4721
 20
-29.4805
 11
70.9099
 21
-29.6561
  0
LINE
  8
0
 10
70.9099
 20
-29.6561
 11
70.3397
 21
-29.8038
  0
LINE
  8
0
 10
70.3397
 20
-29.8038
 11
69.763
 21
-29.9235
  0
LINE
  8
0
 10
69.763
 20
-29.9235
 11
69.1811
 21
-30.0147
  0
LINE
  8
0
 10
69.1811
 20
-30.0147
 11
68.5955
 21
-30.0772
  0
LINE
  8
0
 10
68.5955
 20
-30.0772
 11
68.0074
 21
-30.1109
  0
LINE
  8
0
 10
68.0074
 20
-30.1109
 11
67.4185
 21
-30.1157
  0
LINE
  8
0
 10
67.4185
 20
-30.1157
 11
66.83
 21
-30.0916
  0
LINE
  8
0
 10
-50.0863
 20
-61.483
 11
-50.6737
 21
-61.4397
  0
LINE
  8
0
 10
-50.6737
 20
-61.4397
 11
-51.2582
 21
-61.3676
  0
LINE
  8
0
 10
-51.2582
 20
-61.3676
 11
-51.8385
 21
-61.2669
  0
LINE
  8
0
 10
-51.8385
 20
-61.2669
 11
-52.4132
 21
-61.1378
  0
LINE
  8
0
 10
-52.4132
 20
-61.1378
 11
-52.9809
 21
-60.9808
  0
LINE
  8
0
 10
-52.9809
 20
-60.9808
 11
-53.5401
 21
-60.796
  0
LINE
  8
0
 10
-53.5401
 20
-60.796
 11
-54.0897
 21
-60.584
  0
LINE
  8
0
 10
-54.0897
 20
-60.584
 11
-54.6281
 21
-60.3453
  0
LINE
  8
0
 10
-54.6281
 20
-60.3453
 11
-55.1542
 21
-60.0805
  0
LINE
  8
0
 10
-55.1542
 20
-60.0805
 11
-55.6667
 21
-59.7902
  0
LINE
  8
0
 10
-55.6667
 20
-59.7902
 11
-56.1643
 21
-59.4751
  0
LINE
  8
0
 10
-56.1643
 20
-59.4751
 11
-56.6459
 21
-59.136
  0
LINE
  8
0
 10
-56.6459
 20
-59.136
 11
-57.1102
 21
-58.7736
  0
LINE
  8
0
 10
-57.1102
 20
-58.7736
 11
-57.5562
 21
-58.3889
  0
LINE
  8
0
 10
-57.5562
 20
-58.3889
 11
-57.9827
 21
-57.9827
  0
LINE
  8
0
 10
-57.9827
 20
-57.9827
 11
-58.3889
 21
-57.5562
  0
LINE
  8
0
 10
-58.3889
 20
-57.5562
 11
-58.7736
 21
-57.1102
  0
LINE
  8
0
 10
-58.7736
 20
-57.1102
 11
-59.136
 21
-56.6459
  0
LINE
  8
0
 10
-59.136
 20
-56.6459
 11
-59.4751
 21
-56.1643
  0
LINE
  8
0
 10
-59.4751
 20
-56.1643
 11
-59.7902
 21
-55.6667
  0
LINE
  8
0
 10
-59.7902
 20
-55.6667
 11
-60.0805
 21
-55.1542
  0
LINE
  8
0
 10
-60.0805
 20
-55.1542
 11
-60.3453
 21
-54.6281
  0
LINE
  8
0
 10
-60.3453
 20
-54.6281
 11
-60.584
 21
-54.0897
  0
LINE
  8
0
 10
-60.584
 20
-54.0897
 11
-60.796
 21
-53.5401
  0
LINE
  8
0
 10
-60.796
 20
-53.5401
 11
-60.9808
 21
-52.9809
  0
LINE
  8
0
 10
-60.9808
 20
-52.9809
 11
-61.1378
 21
-52.4132
  0
LINE
  8
0
 10
-61.1378
 20
-52.4132
 11
-61.2669
 21
-51.8385
  0
LINE
  8
0
 10
-61.2669
 20
-51.8385
 11
-61.3676
 21
-51.2582
  0
LINE
  8
0
 10
-61.3676
 20
-51.2582
 11
-61.4397
 21
-50.6737
  0
LINE
  8
0
 10
-61.4397
 20
-50.6737
 11
-61.483
 21
-50.0863
  0
LINE
  8
0
 10
-61.483
 20
-50.0863
 11
-61.4975
 21
-49.4975
  0
LINE
  8
0
 10
-61.4975
 20
-49.4975
 11
-61.483
 21
-48.9087
  0
LINE
  8
0
 10
-61.483
 20
-48.9087
 11
-61.4397
 21
-48.3213
  0
LINE
  8
0
 10
-61.4397
 20
-48.3213
 11
-61.3676
 21
-47.7367
  0
LINE
  8
0
 10
-61.3676
 20
-47.7367
 11
-61.2669
 21
-47.1564
  0
LINE
  8
0
 10
-61.2669
 20
-47.1564
 11
-61.1378
 21
-46.5817
  0
LINE
  8
0
 10
-61.1378
 20
-46.5817
 11
-60.9808
 21
-46.0141
  0
LINE
  8
0
 10
-60.9808
 20
-46.0141
 11
-60.796
 21
-45.4548
  0
LINE
  8
0
 10
-60.796
 20
-45.4548
 11
-60.584
 21
-44.9053
  0
LINE
  8
0
 10
-60.584
 20
-44.9053
 11
-60.3453
 21
-44.3668
  0
LINE
  8
0
 10
-60.3453
 20
-44.3668
 11
-60.0805
 21
-43.8407
  0
LINE
  8
0
 10
-60.0805
 20
-43.8407
 11
-59.7902
 21
-43.3282
  0
LINE
  8
0
 10
-59.7902
 20
-43.3282
 11
-59.4751
 21
-42.8306
  0
LINE
  8
0
 10
-59.4751
 20
-42.8306
 11
-59.136
 21
-42.3491
  0
LINE
  8
0
 10
-59.136
 20
-42.3491
 11
-58.7736
 21
-41.8848
  0
LINE
  8
0
 10
-58.7736
 20
-41.8848
 11
-58.3889
 21
-41.4388
  0
LINE
  8
0
 10
-58.3889
 20
-41.4388
 11
-57.9827
 21
-41.0122
  0
LINE
  8
0
 10
-57.9827
 20
-41.0122
 11
-57.5562
 21
-40.606
  0
LINE
  8
0
 10
-57.5562
 20
-40.606
 11
-57.1102
 21
-40.2213
  0
LINE
  8
0
 10
-57.1102
 20
-40.2213
 11
-56.6459
 21
-39.859
  0
LINE
  8
0
 10
-56.6459
 20
-39.859
 11
-56.1643
 21
-39.5198
  0
LINE
  8
0
 10
-56.1643
 20
-39.5198
 11
-55.6667
 21
-39.2047
  0
LINE
  8
0
 10
-55.6667
 20
-39.2047
 11
-55.1542
 21
-38.9144
  0
LINE
  8
0
 10
-55.1542
 20
-38.9144
 11
-54.6281
 21
-38.6496
  0
LINE
  8
0
 10
-54.6281
 20
-38.6496
 11
-54.0897
 21
-38.4109
  0
LINE
  8
0
 10
-54.0897
 20
-38.4109
 11
-53.5401
 21
-38.1989
  0
LINE
  8
0
 10
-53.5401
 20
-38.1989
 11
-52.9809
 21
-38.0142
  0
LINE
  8
0
 10
-52.9809
 20
-38.0142
 11
-52.4132
 21
-37.8571
  0
LINE
  8
0
 10
-52.4132
 20
-37.8571
 11
-51.8385
 21
-37.728
  0
LINE
  8
0
 10
-51.8385
 20
-37.728
 11
-51.2582
 21
-37.6273
  0
LINE
  8
0
 10
-51.2582
 20
-37.6273
 11
-50.6737
 21
-37.5553
  0
LINE
  8
0
 10
-50.6737
 20
-37.5553
 11
-50.0863
 21
-37.5119
  0
LINE
  8
0
 10
-50.0863
 20
-37.5119
 11
-49.4975
 21
-37.4975
  0
LINE
  8
0
 10
-49.4975
 20
-37.4975
 11
-48.9087
 21
-37.5119
  0
LINE
  8
0
 10
-48.9087
 20
-37.5119
 11
-48.3213
 21
-37.5553
  0
LINE
  8
0
 10
-48.3213
 20
-37.5553
 11
-47.7367
 21
-37.6273
  0
LINE
  8
0
 10
-47.7367
 20
-37.6273
 11
-47.1564
 21
-37.728
  0
LINE
  8
0
 10
-47.1564
 20
-37.728
 11
-46.5817
 21
-37.8571
  0
LINE
  8
0
 10
-46.5817
 20
-37.8571
 11
-46.0141
 21
-38.0142
  0
LINE
  8
0
 10
-46.0141
 20
-38.0142
 11
-45.4548
 21
-38.1989
  0
LINE
  8
0
 10
-45.4548
 20
-38.1989
 11
-44.9053
 21
-38.4109
  0
LINE
  8
0
 10
-44.9053
 20
-38.4109
 11
-44.3668
 21
-38.6496
  0
LINE
  8
0
 10
-44.3668
 20
-38.6496
 11
-43.8407
 21
-38.9144
  0
LINE
  8
0
 10
-43.8407
 20
-38.9144
 11
-43.3282
 21
-39.2047
  0
LINE
  8
0
 10
-43.3282
 20
-39.2047
 11
-42.8306
 21
-39.5198
  0
LINE
  8
0
 10
-42.8306
 20
-39.5198
 11
-42.3491
 21
-39.859
  0
LINE
  8
0
 10
-42.3491
 20
-39.859
 11
-41.8848
 21
-40.2213
  0
LINE
  8
0
 10
-41.8848
 20
-40.2213
 11
-41.4388
 21
-40.606
  0
LINE
  8
0
 10
-41.4388
 20
-40.606
 11
-41.0122
 21
-41.0122
  0
LINE
  8
0
 10
-41.0122
 20
-41.0122
 11
-40.606
 21
-41.4388
  0
LINE
  8
0
 10
-40.606
 20
-41.4388
 11
-40.2213
 21
-41.8848
  0
LINE
  8
0
 10
-40.2213
 20
-41.8848
 11
-39.859
 21
-42.3491
  0
LINE
  8
0
 10
-39.859
 20
-42.3491
 11
-39.5198
 21
-42.8306
  0
LINE
  8
0
 10
-39.5198
 20
-42.8306
 11
-39.2047
 21
-43.3282
  0
LINE
  8
0
 10
-39.2047
 20
-43.3282
 11
-38.9144
 21
-43.8407
  0
LINE
  8
0
 10
-38.9144
 20
-43.8407
 11
-38.6496
 21
-44.3668
  0
LINE
  8
0
 10
-38.6496
 20
-44.3668
 11
-38.4109
 21
-44.9053
  0
LINE
  8
0
 10
-38.4109
 20
-44.9053
 11
-38.1989
 21
-45.4548
  0
LINE
  8
0
 10
-38.1989
 20
-45.4548
 11
-38.0142
 21
-46.0141
  0
LINE
  8
0
 10
-38.0142
 20
-46.0141
 11
-37.8571
 21
-46.5817
  0
LINE
  8
0
 10
-37.8571
 20
-46.5817
 11
-37.728
 21
-47.1564
  0
LINE
  8
0
 10
-37.728
 20
-47.1564
 11
-37.6273
 21
-47.7367
  0
LINE
  8
0
 10
-37.6273
 20
-47.7367
 11
-37.5553
 21
-48.3213
  0
LINE
  8
0
 10
-37.5553
 20
-48.3213
 11
-37.5119
 21
-48.9087
  0
LINE
  8
0
 10
-37.5119
 20
-48.9087
 11
-37.4975
 21
-49.4975
  0
LINE
  8
0
 10
-37.4975
 20
-49.4975
 11
-37.5119
 21
-50.0863
  0
LINE
  8
0
 10
-37.5119
 20
-50.0863
 11
-37.5553
 21
-50.6737
  0
LINE
  8
0
 10
-37.5553
 20
-50.6737
 11
-37.6273
 21
-51.2582
  0
LINE
  8
0
 10
-37.6273
 20
-51.2582
 11
-37.728
 21
-51.8385
  0
LINE
  8
0
 10
-37.728
 20
-51.8385
 11
-37.8571
 21
-52.4132
  0
LINE
  8
0
 10
-37.8571
 20
-52.4132
 11
-38.0142
 21
-52.9809
  0
LINE
  8
0
 10
-38.0142
 20
-52.9809
 11
-38.1989
 21
-53.5401
  0
LINE
  8
0
 10
-38.1989
 20
-53.5401
 11
-38.4109
 21
-54.0897
  0
LINE
  8
0
 10
-38.4109
 20
-54.0897
 11
-38.6496
 21
-54.6281
  0
LINE
  8
0
 10
-38.6496
 20
-54.6281
 11
-38.9144
 21
-55.1542
  0
LINE
  8
0
 10
-38.9144
 20
-55.1542
 11
-39.2047
 21
-55.6667
  0
LINE
  8
0
 10
-39.2047
 20
-55.6667
 11
-39.5198
 21
-56.1643
  0
LINE
  8
0
 10
-39.5198
 20
-56.1643
 11
-39.859
 21
-56.6459
  0
LINE
  8
0
 10
-39.859
 20
-56.6459
 11
-40.2213
 21
-57.1102
  0
LINE
  8
0
 10
-40.2213
 20
-57.1102
 11
-40.606
 21
-57.5562
  0
LINE
  8
0
 10
-40.606
 20
-57.5562
 11
-41.0122
 21
-57.9827
  0
LINE
  8
0
 10
-41.0122
 20
-57.9827
 11
-41.4388
 21
-58.3889
  0
LINE
  8
0
 10
-41.4388
 20
-58.3889
 11
-41.8848
 21
-58.7736
  0
LINE
  8
0
 10
-41.8848
 20
-58.7736
 11
-42.3491
 21
-59.136
  0
LINE
  8
0
 10
-42.3491
 20
-59.136
 11
-42.8306
 21
-59.4751
  0
LINE
  8
0
 10
-42.8306
 20
-59.4751
 11
-43.3282
 21
-59.7902
  0
LINE
  8
0
 10
-43.3282
 20
-59.7902
 11
-43.8407
 21
-60.0805
  0
LINE
  8
0
 10
-43.8407
 20
-60.0805
 11
-44.3668
 21
-60.3453
  0
LINE
  8
0
 10
-44.3668
 20
-60.3453
 11
-44.9053
 21
-60.584
  0
LINE
  8
0
 10
-44.9053
 20
-60.584
 11
-45.4548
 21
-60.796
  0
LINE
  8
0
 10
-45.4548
 20
-60.796
 11
-46.0141
 21
-60.9808
  0
LINE
  8
0
 10
-46.0141
 20
-60.9808
 11
-46.5817
 21
-61.1378
  0
LINE
  8
0
 10
-46.5817
 20
-61.1378
 11
-47.1564
 21
-61.2669
  0
LINE
  8
0
 10
-47.1564
 20
-61.2669
 11
-47.7367
 21
-61.3676
  0
LINE
  8
0
 10
-47.7367
 20
-61.3676
 11
-48.3213
 21
-61.4397
  0
LINE
  8
0
 10
-48.3213
 20
-61.4397
 11
-48.9087
 21
-61.483
  0
LINE
  8
0
 10
-48.9087
 20
-61.483
 11
-49.4975
 21
-61.4975
  0
LINE
  8
0
 10
-49.4975
 20
-61.4975
 11
-50.0863
 21
-61.483
  0
LINE
  8
0
 10
48.9087
 20
-61.483
 11
48.3213
 21
-61.4397
  0
LINE
  8
0
 10
48.3213
 20
-61.4397
 11
47.7367
 21
-61.3676
  0
LINE
  8
0
 10
47.7367
 20
-61.3676
 11
47.1564
 21
-61.2669
  0
LINE
  8
0
 10
47.1564
 20
-61.2669
 11
46.5817
 21
-61.1378
  0
LINE
  8
0
 10
46.5817
 20
-61.1378
 11
46.0141
 21
-60.9808
  0
LINE
  8
0
 10
46.0141
 20
-60.9808
 11
45.4548
 21
-60.796
  0
LINE
  8
0
 10
45.4548
 20
-60.796
 11
44.9053
 21
-60.584
  0
LINE
  8
0
 10
44.9053
 20
-60.584
 11
44.3668
 21
-60.3453
  0
LINE
  8
0
 10
44.3668
 20
-60.3453
 11
43.8407
 21
-60.0805
  0
LINE
  8
0
 10
43.8407
 20
-60.0805
 11
43.3282
 21
-59.7902
  0
LINE
  8
0
 10
43.3282
 20
-59.7902
 11
42.8306
 21
-59.4751
  0
LINE
  8
0
 10
42.8306
 20
-59.4751
 11
42.3491
 21
-59.136
  0
LINE
  8
0
 10
42.3491
 20
-59.136
 11
41.8848
 21
-58.7736
  0
LINE
  8
0
 10
41.8848
 20
-58.7736
 11
41.4388
 21
-58.3889
  0
LINE
  8
0
 10
41.4388
 20
-58.3889
 11
41.0122
 21
-57.9827
  0
LINE
  8
0
 10
41.0122
 20
-57.9827
 11
40.606
 21
-57.5562
  0
LINE
  8
0
 10
40.606
 20
-57.5562
 11
40.2213
 21
-57.1102
  0
LINE
  8
0
 10
40.2213
 20
-57.1102
 11
39.859
 21
-56.6459
  0
LINE
  8
0
 10
39.859
 20
-56.6459
 11
39.5198
 21
-56.1643
  0
LINE
  8
0
 10
39.5198
 20
-56.1643
 11
39.2047
 21
-55.6667
  0
LINE
  8
0
 10
39.2047
 20
-55.6667
 11
38.9144
 21
-55.1542
  0
LINE
  8
0
 10
38.9144
 20
-55.1542
 11
38.6496
 21
-54.6281
  0
LINE
  8
0
 10
38.6496
 20
-54.6281
 11
38.4109
 21
-54.0897
  0
LINE
  8
0
 10
38.4109
 20
-54.0897
 11
38.1989
 21
-53.5401
  0
LINE
  8
0
 10
38.1989
 20
-53.5401
 11
38.0142
 21
-52.9809
  0
LINE
  8
0
 10
38.0142
 20
-52.9809
 11
37.8571
 21
-52.4132
  0
LINE
  8
0
 10
37.8571
 20
-52.4132
 11
37.728
 21
-51.8385
  0
LINE
  8
0
 10
37.728
 20
-51.8385
 11
37.6273
 21
-51.2582
  0
LINE
  8
0
 10
37.6273
 20
-51.2582
 11
37.5553
 21
-50.6737
  0
LINE
  8
0
 10
37.5553
 20
-50.6737
 11
37.5119
 21
-50.0863
  0
LINE
  8
0
 10
37.5119
 20
-50.0863
 11
37.4975
 21
-49.4975
  0
LINE
  8
0
 10
37.4975
 20
-49.4975
 11
37.5119
 21
-48.9087
  0
LINE
  8
0
 10
37.5119
 20
-48.9087
 11
37.5553
 21
-48.3213
  0
LINE
  8
0
 10
37.5553
 20
-48.3213
 11
37.6273
 21
-47.7367
  0
LINE
  8
0
 10
37.6273
 20
-47.7367
 11
37.728
 21
-47.1564
  0
LINE
  8
0
 10
37.728
 20
-47.1564
 11
37.8571
 21
-46.5817
  0
LINE
  8
0
 10
37.8571
 20
-46.5817
 11
38.0142
 21
-46.0141
  0
LINE
  8
0
 10
38.0142
 20
-46.0141
 11
38.1989
 21
-45.4548
  0
LINE
  8
0
 10
38.1989
 20
-45.4548
 11
38.4109
 21
-44.9053
  0
LINE
  8
0
 10
38.4109
 20
-44.9053
 11
38.6496
 21
-44.3668
  0
LINE
  8
0
 10
38.6496
 20
-44.3668
 11
38.9144
 21
-43.8407
  0
LINE
  8
0
 10
38.9144
 20
-43.8407
 11
39.2047
 21
-43.3282
  0
LINE
  8
0
 10
39.2047
 20
-43.3282
 11
39.5198
 21
-42.8306
  0
LINE
  8
0
 10
39.5198
 20
-42.8306
 11
39.859
 21
-42.3491
  0
LINE
  8
0
 10
39.859
 20
-42.3491
 11
40.2213
 21
-41.8848
  0
LINE
  8
0
 10
40.2213
 20
-41.8848
 11
40.606
 21
-41.4388
  0
LINE
  8
0
 10
40.606
 20
-41.4388
 11
41.0122
 21
-41.0122
  0
LINE
  8
0
 10
41.0122
 20
-41.0122
 11
41.4388
 21
-40.606
  0
LINE
  8
0
 10
41.4388
 20
-40.606
 11
41.8848
 21
-40.2213
  0
LINE
  8
0
 10
41.8848
 20
-40.2213
 11
42.3491
 21
-39.859
  0
LINE
  8
0
 10
42.3491
 20
-39.859
 11
42.8306
 21
-39.5198
  0
LINE
  8
0
 10
42.8306
 20
-39.5198
 11
43.3282
 21
-39.2047
  0
LINE
  8
0
 10
43.3282
 20
-39.2047
 11
43.8407
 21
-38.9144
  0
LINE
  8
0
 10
43.8407
 20
-38.9144
 11
44.3668
 21
-38.6496
  0
LINE
  8
0
 10
44.3668
 20
-38.6496
 11
44.9053
 21
-38.4109
  0
LINE
  8
0
 10
44.9053
 20
-38.4109
 11
45.4548
 21
-38.1989
  0
LINE
  8
0
 10
45.4548
 20
-38.1989
 11
46.0141
 21
-38.0142
  0
LINE
  8
0
 10
46.0141
 20
-38.0142
 11
46.5817
 21
-37.8571
  0
LINE
  8
0
 10
46.5817
 20
-37.8571
 11
47.1564
 21
-37.728
  0
LINE
  8
0
 10
47.1564
 20
-37.728
 11
47.7367
 21
-37.6273
  0
LINE
  8
0
 10
47.7367
 20
-37.6273
 11
48.3213
 21
-37.5553
  0
LINE
  8
0
 10
48.3213
 20
-37.5553
 11
48.9087
 21
-37.5119
  0
LINE
  8
0
 10
48.9087
 20
-37.5119
 11
49.4975
 21
-37.4975
  0
LINE
  8
0
 10
49.4975
 20
-37.4975
 11
50.0863
 21
-37.5119
  0
LINE
  8
0
 10
50.0863
 20
-37.5119
 11
50.6737
 21
-37.5553
  0
LINE
  8
0
 10
50.6737
 20
-37.5553
 11
51.2582
 21
-37.6273
  0
LINE
  8
0
 10
51.2582
 20
-37.6273
 11
51.8385
 21
-37.728
  0
LINE
  8
0
 10
51.8385
 20
-37.728
 11
52.4132
 21
-37.8571
  0
LINE
  8
0
 10
52.4132
 20
-37.8571
 11
52.9809
 21
-38.0142
  0
LINE
  8
0
 10
52.9809
 20
-38.0142
 11
53.5401
 21
-38.1989
  0
LINE
  8
0
 10
53.5401
 20
-38.1989
 11
54.0897
 21
-38.4109
  0
LINE
  8
0
 10
54.0897
 20
-38.4109
 11
54.6281
 21
-38.6496
  0
LINE
  8
0
 10
54.6281
 20
-38.6496
 11
55.1542
 21
-38.9144
  0
LINE
  8
0
 10
55.1542
 20
-38.9144
 11
55.6667
 21
-39.2047
  0
LINE
  8
0
 10
55.6667
 20
-39.2047
 11
56.1643
 21
-39.5198
  0
LINE
  8
0
 10
56.1643
 20
-39.5198
 11
56.6459
 21
-39.859
  0
LINE
  8
0
 10
56.6459
 20
-39.859
 11
57.1102
 21
-40.2213
  0
LINE
  8
0
 10
57.1102
 20
-40.2213
 11
57.5562
 21
-40.606
  0
LINE
  8
0
 10
57.5562
 20
-40.606
 11
57.9827
 21
-41.0122
  0
LINE
  8
0
 10
57.9827
 20
-41.0122
 11
58.3889
 21
-41.4388
  0
LINE
  8
0
 10
58.3889
 20
-41.4388
 11
58.7736
 21
-41.8848
  0
LINE
  8
0
 10
58.7736
 20
-41.8848
 11
59.136
 21
-42.3491
  0
LINE
  8
0
 10
59.136
 20
-42.3491
 11
59.4751
 21
-42.8306
  0
LINE
  8
0
 10
59.4751
 20
-42.8306
 11
59.7902
 21
-43.3282
  0
LINE
  8
0
 10
59.7902
 20
-43.3282
 11
60.0805
 21
-43.8407
  0
LINE
  8
0
 10
60.0805
 20
-43.8407
 11
60.3453
 21
-44.3668
  0
LINE
  8
0
 10
60.3453
 20
-44.3668
 11
60.584
 21
-44.9053
  0
LINE
  8
0
 10
60.584
 20
-44.9053
 11
60.796
 21
-45.4548
  0
LINE
  8
0
 10
60.796
 20
-45.4548
 11
60.9808
 21
-46.0141
  0
LINE
  8
0
 10
60.9808
 20
-46.0141
 11
61.1378
 21
-46.5817
  0
LINE
  8
0
 10
61.1378
 20
-46.5817
 11
61.2669
 21
-47.1564
  0
LINE
  8
0
 10
61.2669
 20
-47.1564
 11
61.3676
 21
-47.7367
  0
LINE
  8
0
 10
61.3676
 20
-47.7367
 11
61.4397
 21
-48.3213
  0
LINE
  8
0
 10
61.4397
 20
-48.3213
 11
61.483
 21
-48.9087
  0
LINE
  8
0
 10
61.483
 20
-48.9087
 11
61.4975
 21
-49.4975
  0
LINE
  8
0
 10
61.4975
 20
-49.4975
 11
61.483
 21
-50.0863
  0
LINE
  8
0
 10
61.483
 20
-50.0863
 11
61.4397
 21
-50.6737
  0
LINE
  8
0
 10
61.4397
 20
-50.6737
 11
61.3676
 21
-51.2582
  0
LINE
  8
0
 10
61.3676
 20
-51.2582
 11
61.2669
 21
-51.8385
  0
LINE
  8
0
 10
61.2669
 20
-51.8385
 11
61.1378
 21
-52.4132
  0
LINE
  8
0
 10
61.1378
 20
-52.4132
 11
60.9808
 21
-52.9809
  0
LINE
  8
0
 10
60.9808
 20
-52.9809
 11
60.796
 21
-53.5401
  0
LINE
  8
0
 10
60.796
 20
-53.5401
 11
60.584
 21
-54.0897
  0
LINE
  8
0
 10
60.584
 20
-54.0897
 11
60.3453
 21
-54.6281
  0
LINE
  8
0
 10
60.3453
 20
-54.6281
 11
60.0805
 21
-55.1542
  0
LINE
  8
0
 10
60.0805
 20
-55.1542
 11
59.7902
 21
-55.6667
  0
LINE
  8
0
 10
59.7902
 20
-55.6667
 11
59.4751
 21
-56.1643
  0
LINE
  8
0
 10
59.4751
 20
-56.1643
 11
59.136
 21
-56.6459
  0
LINE
  8
0
 10
59.136
 20
-56.6459
 11
58.7736
 21
-57.1102
  0
LINE
  8
0
 10
58.7736
 20
-57.1102
 11
58.3889
 21
-57.5562
  0
LINE
  8
0
 10
58.3889
 20
-57.5562
 11
57.9827
 21
-57.9827
  0
LINE
  8
0
 10
57.9827
 20
-57.9827
 11
57.5562
 21
-58.3889
  0
LINE
  8
0
 10
57.5562
 20
-58.3889
 11
57.1102
 21
-58.7736
  0
LINE
  8
0
 10
57.1102
 20
-58.7736
 11
56.6459
 21
-59.136
  0
LINE
  8
0
 10
56.6459
 20
-59.136
 11
56.1643
 21
-59.4751
  0
LINE
  8
0
 10
56.1643
 20
-59.4751
 11
55.6667
 21
-59.7902
  0
LINE
  8
0
 10
55.6667
 20
-59.7902
 11
55.1542
 21
-60.0805
  0
LINE
  8
0
 10
55.1542
 20
-60.0805
 11
54.6281
 21
-60.3453
  0
LINE
  8
0
 10
54.6281
 20
-60.3453
 11
54.0897
 21
-60.584
  0
LINE
  8
0
 10
54.0897
 20
-60.584
 11
53.5401
 21
-60.796
  0
LINE
  8
0
 10
53.5401
 20
-60.796
 11
52.9809
 21
-60.9808
  0
LINE
  8
0
 10
52.9809
 20
-60.9808
 11
52.4132
 21
-61.1378
  0
LINE
  8
0
 10
52.4132
 20
-61.1378
 11
51.8385
 21
-61.2669
  0
LINE
  8
0
 10
51.8385
 20
-61.2669
 11
51.2582
 21
-61.3676
  0
LINE
  8
0
 10
51.2582
 20
-61.3676
 11
50.6737
 21
-61.4397
  0
LINE
  8
0
 10
50.6737
 20
-61.4397
 11
50.0863
 21
-61.483
  0
LINE
  8
0
 10
50.0863
 20
-61.483
 11
49.4975
 21
-61.4975
  0
LINE
  8
0
 10
49.4975
 20
-61.4975
 11
48.9087
 21
-61.483
  0
LINE
  8
0
 10
-18.9022
 20
-79.5891
 11
-19.4888
 21
-79.5362
  0
LINE
  8
0
 10
-19.4888
 20
-79.5362
 11
-20.0721
 21
-79.4545
  0
LINE
  8
0
 10
-20.0721
 20
-79.4545
 11
-20.6507
 21
-79.3443
  0
LINE
  8
0
 10
-20.6507
 20
-79.3443
 11
-21.2232
 21
-79.2059
  0
LINE
  8
0
 10
-21.2232
 20
-79.2059
 11
-21.7882
 21
-79.0396
  0
LINE
  8
0
 10
-21.7882
 20
-79.0396
 11
-22.3443
 21
-78.8457
  0
LINE
  8
0
 10
-22.3443
 20
-78.8457
 11
-22.8903
 21
-78.6247
  0
LINE
  8
0
 10
-22.8903
 20
-78.6247
 11
-23.4248
 21
-78.3773
  0
LINE
  8
0
 10
-23.4248
 20
-78.3773
 11
-23.9465
 21
-78.1039
  0
LINE
  8
0
 10
-23.9465
 20
-78.1039
 11
-24.4541
 21
-77.8052
  0
LINE
  8
0
 10
-24.4541
 20
-77.8052
 11
-24.9465
 21
-77.482
  0
LINE
  8
0
 10
-24.9465
 20
-77.482
 11
-25.4225
 21
-77.135
  0
LINE
  8
0
 10
-25.4225
 20
-77.135
 11
-25.8808
 21
-76.7651
  0
LINE
  8
0
 10
-25.8808
 20
-76.7651
 11
-26.3204
 21
-76.3732
  0
LINE
  8
0
 10
-26.3204
 20
-76.3732
 11
-26.7403
 21
-75.9601
  0
LINE
  8
0
 10
-26.7403
 20
-75.9601
 11
-27.1394
 21
-75.5269
  0
LINE
  8
0
 10
-27.1394
 20
-75.5269
 11
-27.5168
 21
-75.0747
  0
LINE
  8
0
 10
-27.5168
 20
-75.0747
 11
-27.8715
 21
-74.6045
  0
LINE
  8
0
 10
-27.8715
 20
-74.6045
 11
-28.2027
 21
-74.1175
  0
LINE
  8
0
 10
-28.2027
 20
-74.1175
 11
-28.5096
 21
-73.6148
  0
LINE
  8
0
 10
-28.5096
 20
-73.6148
 11
-28.7915
 21
-73.0976
  0
LINE
  8
0
 10
-28.7915
 20
-73.0976
 11
-29.0477
 21
-72.5673
  0
LINE
  8
0
 10
-29.0477
 20
-72.5673
 11
-29.2775
 21
-72.025
  0
LINE
  8
0
 10
-29.2775
 20
-72.025
 11
-29.4805
 21
-71.4721
  0
LINE
  8
0
 10
-29.4805
 20
-71.4721
 11
-29.6561
 21
-70.9099
  0
LINE
  8
0
 10
-29.6561
 20
-70.9099
 11
-29.8038
 21
-70.3397
  0
LINE
  8
0
 10
-29.8038
 20
-70.3397
 11
-29.9235
 21
-69.763
  0
LINE
  8
0
 10
-29.9235
 20
-69.763
 11
-30.0147
 21
-69.1811
  0
LINE
  8
0
 10
-30.0147
 20
-69.1811
 11
-30.0772
 21
-68.5955
  0
LINE
  8
0
 10
-30.0772
 20
-68.5955
 11
-30.1109
 21
-68.0074
  0
LINE
  8
0
 10
-30.1109
 20
-68.0074
 11
-30.1157
 21
-67.4185
  0
LINE
  8
0
 10
-30.1157
 20
-67.4185
 11
-30.0916
 21
-66.83
  0
LINE
  8
0
 10
-30.0916
 20
-66.83
 11
-30.0387
 21
-66.2434
  0
LINE
  8
0
 10
-30.0387
 20
-66.2434
 11
-29.957
 21
-65.66
  0
LINE
  8
0
 10
-29.957
 20
-65.66
 11
-29.8469
 21
-65.0815
  0
LINE
  8
0
 10
-29.8469
 20
-65.0815
 11
-29.7084
 21
-64.509
  0
LINE
  8
0
 10
-29.7084
 20
-64.509
 11
-29.5421
 21
-63.944
  0
LINE
  8
0
 10
-29.5421
 20
-63.944
 11
-29.3482
 21
-63.3878
  0
LINE
  8
0
 10
-29.3482
 20
-63.3878
 11
-29.1273
 21
-62.8418
  0
LINE
  8
0
 10
-29.1273
 20
-62.8418
 11
-28.8798
 21
-62.3073
  0
LINE
  8
0
 10
-28.8798
 20
-62.3073
 11
-28.6064
 21
-61.7856
  0
LINE
  8
0
 10
-28.6064
 20
-61.7856
 11
-28.3078
 21
-61.278
  0
LINE
  8
0
 10
-28.3078
 20
-61.278
 11
-27.9845
 21
-60.7856
  0
LINE
  8
0
 10
-27.9845
 20
-60.7856
 11
-27.6376
 21
-60.3097
  0
LINE
  8
0
 10
-27.6376
 20
-60.3097
 11
-27.2677
 21
-59.8513
  0
LINE
  8
0
 10
-27.2677
 20
-59.8513
 11
-26.8757
 21
-59.4117
  0
LINE
  8
0
 10
-26.8757
 20
-59.4117
 11
-26.4626
 21
-58.9918
  0
LINE
  8
0
 10
-26.4626
 20
-58.9918
 11
-26.0295
 21
-58.5927
  0
LINE
  8
0
 10
-26.0295
 20
-58.5927
 11
-25.5773
 21
-58.2154
  0
LINE
  8
0
 10
-25.5773
 20
-58.2154
 11
-25.1071
 21
-57.8606
  0
LINE
  8
0
 10
-25.1071
 20
-57.8606
 11
-24.62
 21
-57.5294
  0
LINE
  8
0
 10
-24.62
 20
-57.5294
 11
-24.1173
 21
-57.2225
  0
LINE
  8
0
 10
-24.1173
 20
-57.2225
 11
-23.6002
 21
-56.9406
  0
LINE
  8
0
 10
-23.6002
 20
-56.9406
 11
-23.0698
 21
-56.6844
  0
LINE
  8
0
 10
-23.0698
 20
-56.6844
 11
-22.5275
 21
-56.4546
  0
LINE
  8
0
 10
-22.5275
 20
-56.4546
 11
-21.9746
 21
-56.2516
  0
LINE
  8
0
 10
-21.9746
 20
-56.2516
 11
-21.4124
 21
-56.0761
  0
LINE
  8
0
 10
-21.4124
 20
-56.0761
 11
-20.8422
 21
-55.9283
  0
LINE
  8
0
 10
-20.8422
 20
-55.9283
 11
-20.2655
 21
-55.8087
  0
LINE
  8
0
 10
-20.2655
 20
-55.8087
 11
-19.6836
 21
-55.7175
  0
LINE
  8
0
 10
-19.6836
 20
-55.7175
 11
-19.098
 21
-55.6549
  0
LINE
  8
0
 10
-19.098
 20
-55.6549
 11
-18.5099
 21
-55.6212
  0
LINE
  8
0
 10
-18.5099
 20
-55.6212
 11
-17.921
 21
-55.6164
  0
LINE
  8
0
 10
-17.921
 20
-55.6164
 11
-17.3325
 21
-55.6405
  0
LINE
  8
0
 10
-17.3325
 20
-55.6405
 11
-16.7459
 21
-55.6934
  0
LINE
  8
0
 10
-16.7459
 20
-55.6934
 11
-16.1626
 21
-55.7751
  0
LINE
  8
0
 10
-16.1626
 20
-55.7751
 11
-15.584
 21
-55.8853
  0
LINE
  8
0
 10
-15.584
 20
-55.8853
 11
-15.0115
 21
-56.0237
  0
LINE
  8
0
 10
-15.0115
 20
-56.0237
 11
-14.4465
 21
-56.19
  0
LINE
  8
0
 10
-14.4465
 20
-56.19
 11
-13.8903
 21
-56.3839
  0
LINE
  8
0
 10
-13.8903
 20
-56.3839
 11
-13.3443
 21
-56.6049
  0
LINE
  8
0
 10
-13.3443
 20
-56.6049
 11
-12.8099
 21
-56.8523
  0
LINE
  8
0
 10
-12.8099
 20
-56.8523
 11
-12.2882
 21
-57.1257
  0
LINE
  8
0
 10
-12.2882
 20
-57.1257
 11
-11.7805
 21
-57.4244
  0
LINE
  8
0
 10
-11.7805
 20
-57.4244
 11
-11.2881
 21
-57.7476
  0
LINE
  8
0
 10
-11.2881
 20
-57.7476
 11
-10.8122
 21
-58.0946
  0
LINE
  8
0
 10
-10.8122
 20
-58.0946
 11
-10.3539
 21
-58.4645
  0
LINE
  8
0
 10
-10.3539
 20
-58.4645
 11
-9.91422
 21
-58.8564
  0
LINE
  8
0
 10
-9.91422
 20
-58.8564
 11
-9.49434
 21
-59.2695
  0
LINE
  8
0
 10
-9.49434
 20
-59.2695
 11
-9.09525
 21
-59.7027
  0
LINE
  8
0
 10
-9.09525
 20
-59.7027
 11
-8.71788
 21
-60.1549
  0
LINE
  8
0
 10
-8.71788
 20
-60.1549
 11
-8.36316
 21
-60.6251
  0
LINE
  8
0
 10
-8.36316
 20
-60.6251
 11
-8.03195
 21
-61.1121
  0
LINE
  8
0
 10
-8.03195
 20
-61.1121
 11
-7.72502
 21
-61.6148
  0
LINE
  8
0
 10
-7.72502
 20
-61.6148
 11
-7.44313
 21
-62.132
  0
LINE
  8
0
 10
-7.44313
 20
-62.132
 11
-7.18697
 21
-62.6623
  0
LINE
  8
0
 10
-7.18697
 20
-62.6623
 11
-6.95712
 21
-63.2046
  0
LINE
  8
0
 10
-6.95712
 20
-63.2046
 11
-6.75417
 21
-63.7575
  0
LINE
  8
0
 10
-6.75417
 20
-63.7575
 11
-6.57858
 21
-64.3197
  0
LINE
  8
0
 10
-6.57858
 20
-64.3197
 11
-6.4308
 21
-64.8899
  0
LINE
  8
0
 10
-6.4308
 20
-64.8899
 11
-6.31117
 21
-65.4666
  0
LINE
  8
0
 10
-6.31117
 20
-65.4666
 11
-6.21999
 21
-66.0485
  0
LINE
  8
0
 10
-6.21999
 20
-66.0485
 11
-6.15746
 21
-66.6341
  0
LINE
  8
0
 10
-6.15746
 20
-66.6341
 11
-6.12375
 21
-67.2222
  0
LINE
  8
0
 10
-6.12375
 20
-67.2222
 11
-6.11893
 21
-67.8111
  0
LINE
  8
0
 10
-6.11893
 20
-67.8111
 11
-6.14302
 21
-68.3996
  0
LINE
  8
0
 10
-6.14302
 20
-68.3996
 11
-6.19595
 21
-68.9862
  0
LINE
  8
0
 10
-6.19595
 20
-68.9862
 11
-6.2776
 21
-69.5695
  0
LINE
  8
0
 10
-6.2776
 20
-69.5695
 11
-6.38779
 21
-70.1481
  0
LINE
  8
0
 10
-6.38779
 20
-70.1481
 11
-6.52621
 21
-70.7206
  0
LINE
  8
0
 10
-6.52621
 20
-70.7206
 11
-6.69257
 21
-71.2856
  0
LINE
  8
0
 10
-6.69257
 20
-71.2856
 11
-6.88646
 21
-71.8418
  0
LINE
  8
0
 10
-6.88646
 20
-71.8418
 11
-7.10739
 21
-72.3878
  0
LINE
  8
0
 10
-7.10739
 20
-72.3878
 11
-7.35486
 21
-72.9223
  0
LINE
  8
0
 10
-7.35486
 20
-72.9223
 11
-7.62823
 21
-73.444
  0
LINE
  8
0
 10
-7.62823
 20
-73.444
 11
-7.9269
 21
-73.9516
  0
LINE
  8
0
 10
-7.9269
 20
-73.9516
 11
-8.25011
 21
-74.444
  0
LINE
  8
0
 10
-8.25011
 20
-74.444
 11
-8.59709
 21
-74.9199
  0
LINE
  8
0
 10
-8.59709
 20
-74.9199
 11
-8.967
 21
-75.3783
  0
LINE
  8
0
 10
-8.967
 20
-75.3783
 11
-9.35896
 21
-75.8179
  0
LINE
  8
0
 10
-9.35896
 20
-75.8179
 11
-9.77202
 21
-76.2378
  0
LINE
  8
0
 10
-9.77202
 20
-76.2378
 11
-10.2052
 21
-76.6369
  0
LINE
  8
0
 10
-10.2052
 20
-76.6369
 11
-10.6574
 21
-77.0142
  0
LINE
  8
0
 10
-10.6574
 20
-77.0142
 11
-11.1276
 21
-77.369
  0
LINE
  8
0
 10
-11.1276
 20
-77.369
 11
-11.6146
 21
-77.7002
  0
LINE
  8
0
 10
-11.6146
 20
-77.7002
 11
-12.1173
 21
-78.0071
  0
LINE
  8
0
 10
-12.1173
 20
-78.0071
 11
-12.6345
 21
-78.289
  0
LINE
  8
0
 10
-12.6345
 20
-78.289
 11
-13.1648
 21
-78.5452
  0
LINE
  8
0
 10
-13.1648
 20
-78.5452
 11
-13.7071
 21
-78.775
  0
LINE
  8
0
 10
-13.7071
 20
-78.775
 11
-14.2601
 21
-78.978
  0
LINE
  8
0
 10
-14.2601
 20
-78.978
 11
-14.8223
 21
-79.1535
  0
LINE
  8
0
 10
-14.8223
 20
-79.1535
 11
-15.3924
 21
-79.3013
  0
LINE
  8
0
 10
-15.3924
 20
-79.3013
 11
-15.9691
 21
-79.421
  0
LINE
  8
0
 10
-15.9691
 20
-79.421
 11
-16.551
 21
-79.5121
  0
LINE
  8
0
 10
-16.551
 20
-79.5121
 11
-17.1367
 21
-79.5747
  0
LINE
  8
0
 10
-17.1367
 20
-79.5747
 11
-17.7247
 21
-79.6084
  0
LINE
  8
0
 10
-17.7247
 20
-79.6084
 11
-18.3137
 21
-79.6132
  0
LINE
  8
0
 10
-18.3137
 20
-79.6132
 11
-18.9022
 21
-79.5891
  0
LINE
  8
0
 10
17.7247
 20
-79.6084
 11
17.1367
 21
-79.5747
  0
LINE
  8
0
 10
17.1367
 20
-79.5747
 11
16.551
 21
-79.5121
  0
LINE
  8
0
 10
16.551
 20
-79.5121
 11
15.9691
 21
-79.421
  0
LINE
  8
0
 10
15.9691
 20
-79.421
 11
15.3924
 21
-79.3013
  0
LINE
  8
0
 10
15.3924
 20
-79.3013
 11
14.8223
 21
-79.1535
  0
LINE
  8
0
 10
14.8223
 20
-79.1535
 11
14.2601
 21
-78.978
  0
LINE
  8
0
 10
14.2601
 20
-78.978
 11
13.7071
 21
-78.775
  0
LINE
  8
0
 10
13.7071
 20
-78.775
 11
13.1648
 21
-78.5452
  0
LINE
  8
0
 10
13.1648
 20
-78.5452
 11
12.6345
 21
-78.289
  0
LINE
  8
0
 10
12.6345
 20
-78.289
 11
12.1173
 21
-78.0071
  0
LINE
  8
0
 10
12.1173
 20
-78.0071
 11
11.6146
 21
-77.7002
  0
LINE
  8
0
 10
11.6146
 20
-77.7002
 11
11.1276
 21
-77.369
  0
LINE
  8
0
 10
11.1276
 20
-77.369
 11
10.6574
 21
-77.0142
  0
LINE
  8
0
 10
10.6574
 20
-77.0142
 11
10.2052
 21
-76.6369
  0
LINE
  8
0
 10
10.2052
 20
-76.6369
 11
9.77202
 21
-76.2378
  0
LINE
  8
0
 10
9.77202
 20
-76.2378
 11
9.35896
 21
-75.8179
  0
LINE
  8
0
 10
9.35896
 20
-75.8179
 11
8.967
 21
-75.3783
  0
LINE
  8
0
 10
8.967
 20
-75.3783
 11
8.59709
 21
-74.9199
  0
LINE
  8
0
 10
8.59709
 20
-74.9199
 11
8.25011
 21
-74.444
  0
LINE
  8
0
 10
8.25011
 20
-74.444
 11
7.9269
 21
-73.9516
  0
LINE
  8
0
 10
7.9269
 20
-73.9516
 11
7.62823
 21
-73.444
  0
LINE
  8
0
 10
7.62823
 20
-73.444
 11
7.35486
 21
-72.9223
  0
LINE
  8
0
 10
7.35486
 20
-72.9223
 11
7.10739
 21
-72.3878
  0
LINE
  8
0
 10
7.10739
 20
-72.3878
 11
6.88646
 21
-71.8418
  0
LINE
  8
0
 10
6.88646
 20
-71.8418
 11
6.69257
 21
-71.2856
  0
LINE
  8
0
 10
6.69257
 20
-71.2856
 11
6.52621
 21
-70.7206
  0
LINE
  8
0
 10
6.52621
 20
-70.7206
 11
6.38779
 21
-70.1481
  0
LINE
  8
0
 10
6.38779
 20
-70.1481
 11
6.2776
 21
-69.5695
  0
LINE
  8
0
 10
6.2776
 20
-69.5695
 11
6.19595
 21
-68.9862
  0
LINE
  8
0
 10
6.19595
 20
-68.9862
 11
6.14302
 21
-68.3996
  0
LINE
  8
0
 10
6.14302
 20
-68.3996
 11
6.11893
 21
-67.8111
  0
LINE
  8
0
 10
6.11893
 20
-67.8111
 11
6.12375
 21
-67.2222
  0
LINE
  8
0
 10
6.12375
 20
-67.2222
 11
6.15746
 21
-66.6341
  0
LINE
  8
0
 10
6.15746
 20
-66.6341
 11
6.21999
 21
-66.0485
  0
LINE
  8
0
 10
6.21999
 20
-66.0485
 11
6.31117
 21
-65.4666
  0
LINE
  8
0
 10
6.31117
 20
-65.4666
 11
6.4308
 21
-64.8899
  0
LINE
  8
0
 10
6.4308
 20
-64.8899
 11
6.57858
 21
-64.3197
  0
LINE
  8
0
 10
6.57858
 20
-64.3197
 11
6.75417
 21
-63.7575
  0
LINE
  8
0
 10
6.75417
 20
-63.7575
 11
6.95712
 21
-63.2046
  0
LINE
  8
0
 10
6.95712
 20
-63.2046
 11
7.18697
 21
-62.6623
  0
LINE
  8
0
 10
7.18697
 20
-62.6623
 11
7.44313
 21
-62.132
  0
LINE
  8
0
 10
7.44313
 20
-62.132
 11
7.72502
 21
-61.6148
  0
LINE
  8
0
 10
7.72502
 20
-61.6148
 11
8.03195
 21
-61.1121
  0
LINE
  8
0
 10
8.03195
 20
-61.1121
 11
8.36316
 21
-60.6251
  0
LINE
  8
0
 10
8.36316
 20
-60.6251
 11
8.71788
 21
-60.1549
  0
LINE
  8
0
 10
8.71788
 20
-60.1549
 11
9.09525
 21
-59.7027
  0
LINE
  8
0
 10
9.09525
 20
-59.7027
 11
9.49434
 21
-59.2695
  0
LINE
  8
0
 10
9.49434
 20
-59.2695
 11
9.91422
 21
-58.8564
  0
LINE
  8
0
 10
9.91422
 20
-58.8564
 11
10.3539
 21
-58.4645
  0
LINE
  8
0
 10
10.3539
 20
-58.4645
 11
10.8122
 21
-58.0946
  0
LINE
  8
0
 10
10.8122
 20
-58.0946
 11
11.2881
 21
-57.7476
  0
LINE
  8
0
 10
11.2881
 20
-57.7476
 11
11.7805
 21
-57.4244
  0
LINE
  8
0
 10
11.7805
 20
-57.4244
 11
12.2882
 21
-57.1257
  0
LINE
  8
0
 10
12.2882
 20
-57.1257
 11
12.8099
 21
-56.8523
  0
LINE
  8
0
 10
12.8099
 20
-56.8523
 11
13.3443
 21
-56.6049
  0
LINE
  8
0
 10
13.3443
 20
-56.6049
 11
13.8903
 21
-56.3839
  0
LINE
  8
0
 10
13.8903
 20
-56.3839
 11
14.4465
 21
-56.19
  0
LINE
  8
0
 10
14.4465
 20
-56.19
 11
15.0115
 21
-56.0237
  0
LINE
  8
0
 10
15.0115
 20
-56.0237
 11
15.584
 21
-55.8853
  0
LINE
  8
0
 10
15.584
 20
-55.8853
 11
16.1626
 21
-55.7751
  0
LINE
  8
0
 10
16.1626
 20
-55.7751
 11
16.7459
 21
-55.6934
  0
LINE
  8
0
 10
16.7459
 20
-55.6934
 11
17.3325
 21
-55.6405
  0
LINE
  8
0
 10
17.3325
 20
-55.6405
 11
17.921
 21
-55.6164
  0
LINE
  8
0
 10
17.921
 20
-55.6164
 11
18.5099
 21
-55.6212
  0
LINE
  8
0
 10
18.5099
 20
-55.6212
 11
19.098
 21
-55.6549
  0
LINE
  8
0
 10
19.098
 20
-55.6549
 11
19.6836
 21
-55.7175
  0
LINE
  8
0
 10
19.6836
 20
-55.7175
 11
20.2655
 21
-55.8087
  0
LINE
  8
0
 10
20.2655
 20
-55.8087
 11
20.8422
 21
-55.9283
  0
LINE
  8
0
 10
20.8422
 20
-55.9283
 11
21.4124
 21
-56.0761
  0
LINE
  8
0
 10
21.4124
 20
-56.0761
 11
21.9746
 21
-56.2516
  0
LINE
  8
0
 10
21.9746
 20
-56.2516
 11
22.5275
 21
-56.4546
  0
LINE
  8
0
 10
22.5275
 20
-56.4546
 11
23.0698
 21
-56.6844
  0
LINE
  8
0
 10
23.0698
 20
-56.6844
 11
23.6002
 21
-56.9406
  0
LINE
  8
0
 10
23.6002
 20
-56.9406
 11
24.1173
 21
-57.2225
  0
LINE
  8
0
 10
24.1173
 20
-57.2225
 11
24.62
 21
-57.5294
  0
LINE
  8
0
 10
24.62
 20
-57.5294
 11
25.1071
 21
-57.8606
  0
LINE
  8
0
 10
25.1071
 20
-57.8606
 11
25.5773
 21
-58.2154
  0
LINE
  8
0
 10
25.5773
 20
-58.2154
 11
26.0295
 21
-58.5927
  0
LINE
  8
0
 10
26.0295
 20
-58.5927
 11
26.4626
 21
-58.9918
  0
LINE
  8
0
 10
26.4626
 20
-58.9918
 11
26.8757
 21
-59.4117
  0
LINE
  8
0
 10
26.8757
 20
-59.4117
 11
27.2677
 21
-59.8513
  0
LINE
  8
0
 10
27.2677
 20
-59.8513
 11
27.6376
 21
-60.3097
  0
LINE
  8
0
 10
27.6376
 20
-60.3097
 11
27.9845
 21
-60.7856
  0
LINE
  8
0
 10
27.9845
 20
-60.7856
 11
28.3078
 21
-61.278
  0
LINE
  8
0
 10
28.3078
 20
-61.278
 11
28.6064
 21
-61.7856
  0
LINE
  8
0
 10
28.6064
 20
-61.7856
 11
28.8798
 21
-62.3073
  0
LINE
  8
0
 10
28.8798
 20
-62.3073
 11
29.1273
 21
-62.8418
  0
LINE
  8
0
 10
29.1273
 20
-62.8418
 11
29.3482
 21
-63.3878
  0
LINE
  8
0
 10
29.3482
 20
-63.3878
 11
29.5421
 21
-63.944
  0
LINE
  8
0
 10
29.5421
 20
-63.944
 11
29.7084
 21
-64.509
  0
LINE
  8
0
 10
29.7084
 20
-64.509
 11
29.8469
 21
-65.0815
  0
LINE
  8
0
 10
29.8469
 20
-65.0815
 11
29.957
 21
-65.66
  0
LINE
  8
0
 10
29.957
 20
-65.66
 11
30.0387
 21
-66.2434
  0
LINE
  8
0
 10
30.0387
 20
-66.2434
 11
30.0916
 21
-66.83
  0
LINE
  8
0
 10
30.0916
 20
-66.83
 11
30.1157
 21
-67.4185
  0
LINE
  8
0
 10
30.1157
 20
-67.4185
 11
30.1109
 21
-68.0074
  0
LINE
  8
0
 10
30.1109
 20
-68.0074
 11
30.0772
 21
-68.5955
  0
LINE
  8
0
 10
30.0772
 20
-68.5955
 11
30.0147
 21
-69.1811
  0
LINE
  8
0
 10
30.0147
 20
-69.1811
 11
29.9235
 21
-69.763
  0
LINE
  8
0
 10
29.9235
 20
-69.763
 11
29.8038
 21
-70.3397
  0
LINE
  8
0
 10
29.8038
 20
-70.3397
 11
29.6561
 21
-70.9099
  0
LINE
  8
0
 10
29.6561
 20
-70.9099
 11
29.4805
 21
-71.4721
  0
LINE
  8
0
 10
29.4805
 20
-71.4721
 11
29.2775
 21
-72.025
  0
LINE
  8
0
 10
29.2775
 20
-72.025
 11
29.0477
 21
-72.5673
  0
LINE
  8
0
 10
29.0477
 20
-72.5673
 11
28.7915
 21
-73.0976
  0
LINE
  8
0
 10
28.7915
 20
-73.0976
 11
28.5096
 21
-73.6148
  0
LINE
  8
0
 10
28.5096
 20
-73.6148
 11
28.2027
 21
-74.1175
  0
LINE
  8
0
 10
28.2027
 20
-74.1175
 11
27.8715
 21
-74.6045
  0
LINE
  8
0
 10
27.8715
 20
-74.6045
 11
27.5168
 21
-75.0747
  0
LINE
  8
0
 10
27.5168
 20
-75.0747
 11
27.1394
 21
-75.5269
  0
LINE
  8
0
 10
27.1394
 20
-75.5269
 11
26.7403
 21
-75.9601
  0
LINE
  8
0
 10
26.7403
 20
-75.9601
 11
26.3204
 21
-76.3732
  0
LINE
  8
0
 10
26.3204
 20
-76.3732
 11
25.8808
 21
-76.7651
  0
LINE
  8
0
 10
25.8808
 20
-76.7651
 11
25.4225
 21
-77.135
  0
LINE
  8
0
 10
25.4225
 20
-77.135
 11
24.9465
 21
-77.482
  0
LINE
  8
0
 10
24.9465
 20
-77.482
 11
24.4541
 21
-77.8052
  0
LINE
  8
0
 10
24.4541
 20
-77.8052
 11
23.9465
 21
-78.1039
  0
LINE
  8
0
 10
23.9465
 20
-78.1039
 11
23.4248
 21
-78.3773
  0
LINE
  8
0
 10
23.4248
 20
-78.3773
 11
22.8903
 21
-78.6247
  0
LINE
  8
0
 10
22.8903
 20
-78.6247
 11
22.3443
 21
-78.8457
  0
LINE
  8
0
 10
22.3443
 20
-78.8457
 11
21.7882
 21
-79.0396
  0
LINE
  8
0
 10
21.7882
 20
-79.0396
 11
21.2232
 21
-79.2059
  0
LINE
  8
0
 10
21.2232
 20
-79.2059
 11
20.6507
 21
-79.3443
  0
LINE
  8
0
 10
20.6507
 20
-79.3443
 11
20.0721
 21
-79.4545
  0
LINE
  8
0
 10
20.0721
 20
-79.4545
 11
19.4888
 21
-79.5362
  0
LINE
  8
0
 10
19.4888
 20
-79.5362
 11
18.9022
 21
-79.5891
  0
LINE
  8
0
 10
18.9022
 20
-79.5891
 11
18.3137
 21
-79.6132
  0
LINE
  8
0
 10
18.3137
 20
-79.6132
 11
17.7247
 21
-79.6084
  0
ENDSEC
  0
SECTION
  2
OBJECTS
  0
DICTIONARY
  0
ENDSEC
  0
EOF
