  0
SECTION
  2
BLOCKS
  0
ENDSEC
  0
SECTION
  2
ENTITIES
  0
LINE
  8
0
 10
2.52698
 20
-51.438
 11
5.04788
 21
-51.252
  0
LINE
  8
0
 10
5.04788
 20
-51.252
 11
7.55661
 21
-50.9426
  0
LINE
  8
0
 10
7.55661
 20
-50.9426
 11
10.0471
 21
-50.5104
  0
LINE
  8
0
 10
10.0471
 20
-50.5104
 11
12.5135
 21
-49.9566
  0
LINE
  8
0
 10
12.5135
 20
-49.9566
 11
14.9496
 21
-49.2824
  0
LINE
  8
0
 10
14.9496
 20
-49.2824
 11
17.3498
 21
-48.4895
  0
LINE
  8
0
 10
17.3498
 20
-48.4895
 11
19.7082
 21
-47.5798
  0
LINE
  8
0
 10
19.7082
 20
-47.5798
 11
22.0191
 21
-46.5554
  0
LINE
  8
0
 10
22.0191
 20
-46.5554
 11
24.2769
 21
-45.4189
  0
LINE
  8
0
 10
24.2769
 20
-45.4189
 11
26.4763
 21
-44.173
  0
LINE
  8
0
 10
26.4763
 20
-44.173
 11
28.6119
 21
-42.8207
  0
LINE
  8
0
 10
28.6119
 20
-42.8207
 11
30.6785
 21
-41.3652
  0
LINE
  8
0
 10
30.6785
 20
-41.3652
 11
32.6712
 21
-39.81
  0
LINE
  8
0
 10
32.6712
 20
-39.81
 11
34.5853
 21
-38.159
  0
LINE
  8
0
 10
34.5853
 20
-38.159
 11
36.416
 21
-36.416
  0
LINE
  8
0
 10
36.416
 20
-36.416
 11
38.159
 21
-34.5853
  0
LINE
  8
0
 10
38.159
 20
-34.5853
 11
39.81
 21
-32.6712
  0
LINE
  8
0
 10
39.81
 20
-32.6712
 11
41.3652
 21
-30.6785
  0
LINE
  8
0
 10
41.3652
 20
-30.6785
 11
42.8207
 21
-28.6119
  0
LINE
  8
0
 10
42.8207
 20
-28.6119
 11
44.173
 21
-26.4763
  0
LINE
  8
0
 10
44.173
 20
-26.4763
 11
45.4189
 21
-24.2769
  0
LINE
  8
0
 10
45.4189
 20
-24.2769
 11
46.5554
 21
-22.0191
  0
LINE
  8
0
 10
46.5554
 20
-22.0191
 11
47.5798
 21
-19.7082
  0
LINE
  8
0
 10
47.5798
 20
-19.7082
 11
48.4895
 21
-17.3498
  0
LINE
  8
0
 10
48.4895
 20
-17.3498
 11
49.2824
 21
-14.9496
  0
LINE
  8
0
 10
49.2824
 20
-14.9496
 11
49.9566
 21
-12.5135
  0
LINE
  8
0
 10
49.9566
 20
-12.5135
 11
50.5104
 21
-10.0471
  0
LINE
  8
0
 10
50.5104
 20
-10.0471
 11
50.9426
 21
-7.55661
  0
LINE
  8
0
 10
50.9426
 20
-7.55661
 11
51.252
 21
-5.04788
  0
LINE
  8
0
 10
51.252
 20
-5.04788
 11
51.438
 21
-2.52698
  0
LINE
  8
0
 10
51.438
 20
-2.52698
 11
51.5
 21
0
  0
LINE
  8
0
 10
51.5
 20
0
 11
51.438
 21
2.52698
  0
LINE
  8
0
 10
51.438
 20
2.52698
 11
51.252
 21
5.04788
  0
LINE
  8
0
 10
51.252
 20
5.04788
 11
50.9426
 21
7.55661
  0
LINE
  8
0
 10
50.9426
 20
7.55661
 11
50.5104
 21
10.0471
  0
LINE
  8
0
 10
50.5104
 20
10.0471
 11
49.9566
 21
12.5135
  0
LINE
  8
0
 10
49.9566
 20
12.5135
 11
49.2824
 21
14.9496
  0
LINE
  8
0
 10
49.2824
 20
14.9496
 11
48.4895
 21
17.3498
  0
LINE
  8
0
 10
48.4895
 20
17.3498
 11
47.5798
 21
19.7082
  0
LINE
  8
0
 10
47.5798
 20
19.7082
 11
46.5554
 21
22.0191
  0
LINE
  8
0
 10
46.5554
 20
22.0191
 11
45.4189
 21
24.2769
  0
LINE
  8
0
 10
45.4189
 20
24.2769
 11
44.173
 21
26.4763
  0
LINE
  8
0
 10
44.173
 20
26.4763
 11
42.8207
 21
28.6119
  0
LINE
  8
0
 10
42.8207
 20
28.6119
 11
41.3652
 21
30.6785
  0
LINE
  8
0
 10
41.3652
 20
30.6785
 11
39.81
 21
32.6712
  0
LINE
  8
0
 10
39.81
 20
32.6712
 11
38.159
 21
34.5853
  0
LINE
  8
0
 10
38.159
 20
34.5853
 11
36.416
 21
36.416
  0
LINE
  8
0
 10
36.416
 20
36.416
 11
34.5853
 21
38.159
  0
LINE
  8
0
 10
34.5853
 20
38.159
 11
32.6712
 21
39.81
  0
LINE
  8
0
 10
32.6712
 20
39.81
 11
30.6785
 21
41.3652
  0
LINE
  8
0
 10
30.6785
 20
41.3652
 11
28.6119
 21
42.8207
  0
LINE
  8
0
 10
28.6119
 20
42.8207
 11
26.4763
 21
44.173
  0
LINE
  8
0
 10
26.4763
 20
44.173
 11
24.2769
 21
45.4189
  0
LINE
  8
0
 10
24.2769
 20
45.4189
 11
22.0191
 21
46.5554
  0
LINE
  8
0
 10
22.0191
 20
46.5554
 11
19.7082
 21
47.5798
  0
LINE
  8
0
 10
19.7082
 20
47.5798
 11
17.3498
 21
48.4895
  0
LINE
  8
0
 10
17.3498
 20
48.4895
 11
14.9496
 21
49.2824
  0
LINE
  8
0
 10
14.9496
 20
49.2824
 11
12.5135
 21
49.9566
  0
LINE
  8
0
 10
12.5135
 20
49.9566
 11
10.0471
 21
50.5104
  0
LINE
  8
0
 10
10.0471
 20
50.5104
 11
7.55661
 21
50.9426
  0
LINE
  8
0
 10
7.55661
 20
50.9426
 11
5.04788
 21
51.252
  0
LINE
  8
0
 10
5.04788
 20
51.252
 11
2.52698
 21
51.438
  0
LINE
  8
0
 10
2.52698
 20
51.438
 11
0
 21
51.5
  0
LINE
  8
0
 10
0
 20
51.5
 11
-2.52698
 21
51.438
  0
LINE
  8
0
 10
-2.52698
 20
51.438
 11
-5.04788
 21
51.252
  0
LINE
  8
0
 10
-5.04788
 20
51.252
 11
-7.55661
 21
50.9426
  0
LINE
  8
0
 10
-7.55661
 20
50.9426
 11
-10.0471
 21
50.5104
  0
LINE
  8
0
 10
-10.0471
 20
50.5104
 11
-12.5135
 21
49.9566
  0
LINE
  8
0
 10
-12.5135
 20
49.9566
 11
-14.9496
 21
49.2824
  0
LINE
  8
0
 10
-14.9496
 20
49.2824
 11
-17.3498
 21
48.4895
  0
LINE
  8
0
 10
-17.3498
 20
48.4895
 11
-19.7082
 21
47.5798
  0
LINE
  8
0
 10
-19.7082
 20
47.5798
 11
-22.0191
 21
46.5554
  0
LINE
  8
0
 10
-22.0191
 20
46.5554
 11
-24.2769
 21
45.4189
  0
LINE
  8
0
 10
-24.2769
 20
45.4189
 11
-26.4763
 21
44.173
  0
LINE
  8
0
 10
-26.4763
 20
44.173
 11
-28.6119
 21
42.8207
  0
LINE
  8
0
 10
-28.6119
 20
42.8207
 11
-30.6785
 21
41.3652
  0
LINE
  8
0
 10
-30.6785
 20
41.3652
 11
-32.6712
 21
39.81
  0
LINE
  8
0
 10
-32.6712
 20
39.81
 11
-34.5853
 21
38.159
  0
LINE
  8
0
 10
-34.5853
 20
38.159
 11
-36.416
 21
36.416
  0
LINE
  8
0
 10
-36.416
 20
36.416
 11
-38.159
 21
34.5853
  0
LINE
  8
0
 10
-38.159
 20
34.5853
 11
-39.81
 21
32.6712
  0
LINE
  8
0
 10
-39.81
 20
32.6712
 11
-41.3652
 21
30.6785
  0
LINE
  8
0
 10
-41.3652
 20
30.6785
 11
-42.8207
 21
28.6119
  0
LINE
  8
0
 10
-42.8207
 20
28.6119
 11
-44.173
 21
26.4763
  0
LINE
  8
0
 10
-44.173
 20
26.4763
 11
-45.4189
 21
24.2769
  0
LINE
  8
0
 10
-45.4189
 20
24.2769
 11
-46.5554
 21
22.0191
  0
LINE
  8
0
 10
-46.5554
 20
22.0191
 11
-47.5798
 21
19.7082
  0
LINE
  8
0
 10
-47.5798
 20
19.7082
 11
-48.4895
 21
17.3498
  0
LINE
  8
0
 10
-48.4895
 20
17.3498
 11
-49.2824
 21
14.9496
  0
LINE
  8
0
 10
-49.2824
 20
14.9496
 11
-49.9566
 21
12.5135
  0
LINE
  8
0
 10
-49.9566
 20
12.5135
 11
-50.5104
 21
10.0471
  0
LINE
  8
0
 10
-50.5104
 20
10.0471
 11
-50.9426
 21
7.55661
  0
LINE
  8
0
 10
-50.9426
 20
7.55661
 11
-51.252
 21
5.04788
  0
LINE
  8
0
 10
-51.252
 20
5.04788
 11
-51.438
 21
2.52698
  0
LINE
  8
0
 10
-51.438
 20
2.52698
 11
-51.5
 21
0
  0
LINE
  8
0
 10
-51.5
 20
0
 11
-51.438
 21
-2.52698
  0
LINE
  8
0
 10
-51.438
 20
-2.52698
 11
-51.252
 21
-5.04788
  0
LINE
  8
0
 10
-51.252
 20
-5.04788
 11
-50.9426
 21
-7.55661
  0
LINE
  8
0
 10
-50.9426
 20
-7.55661
 11
-50.5104
 21
-10.0471
  0
LINE
  8
0
 10
-50.5104
 20
-10.0471
 11
-49.9566
 21
-12.5135
  0
LINE
  8
0
 10
-49.9566
 20
-12.5135
 11
-49.2824
 21
-14.9496
  0
LINE
  8
0
 10
-49.2824
 20
-14.9496
 11
-48.4895
 21
-17.3498
  0
LINE
  8
0
 10
-48.4895
 20
-17.3498
 11
-47.5798
 21
-19.7082
  0
LINE
  8
0
 10
-47.5798
 20
-19.7082
 11
-46.5554
 21
-22.0191
  0
LINE
  8
0
 10
-46.5554
 20
-22.0191
 11
-45.4189
 21
-24.2769
  0
LINE
  8
0
 10
-45.4189
 20
-24.2769
 11
-44.173
 21
-26.4763
  0
LINE
  8
0
 10
-44.173
 20
-26.4763
 11
-42.8207
 21
-28.6119
  0
LINE
  8
0
 10
-42.8207
 20
-28.6119
 11
-41.3652
 21
-30.6785
  0
LINE
  8
0
 10
-41.3652
 20
-30.6785
 11
-39.81
 21
-32.6712
  0
LINE
  8
0
 10
-39.81
 20
-32.6712
 11
-38.159
 21
-34.5853
  0
LINE
  8
0
 10
-38.159
 20
-34.5853
 11
-36.416
 21
-36.416
  0
LINE
  8
0
 10
-36.416
 20
-36.416
 11
-34.5853
 21
-38.159
  0
LINE
  8
0
 10
-34.5853
 20
-38.159
 11
-32.6712
 21
-39.81
  0
LINE
  8
0
 10
-32.6712
 20
-39.81
 11
-30.6785
 21
-41.3652
  0
LINE
  8
0
 10
-30.6785
 20
-41.3652
 11
-28.6119
 21
-42.8207
  0
LINE
  8
0
 10
-28.6119
 20
-42.8207
 11
-26.4763
 21
-44.173
  0
LINE
  8
0
 10
-26.4763
 20
-44.173
 11
-24.2769
 21
-45.4189
  0
LINE
  8
0
 10
-24.2769
 20
-45.4189
 11
-22.0191
 21
-46.5554
  0
LINE
  8
0
 10
-22.0191
 20
-46.5554
 11
-19.7082
 21
-47.5798
  0
LINE
  8
0
 10
-19.7082
 20
-47.5798
 11
-17.3498
 21
-48.4895
  0
LINE
  8
0
 10
-17.3498
 20
-48.4895
 11
-14.9496
 21
-49.2824
  0
LINE
  8
0
 10
-14.9496
 20
-49.2824
 11
-12.5135
 21
-49.9566
  0
LINE
  8
0
 10
-12.5135
 20
-49.9566
 11
-10.0471
 21
-50.5104
  0
LINE
  8
0
 10
-10.0471
 20
-50.5104
 11
-7.55661
 21
-50.9426
  0
LINE
  8
0
 10
-7.55661
 20
-50.9426
 11
-5.04788
 21
-51.252
  0
LINE
  8
0
 10
-5.04788
 20
-51.252
 11
-2.52698
 21
-51.438
  0
LINE
  8
0
 10
-2.52698
 20
-51.438
 11
0
 21
-51.5
  0
LINE
  8
0
 10
0
 20
-51.5
 11
2.52698
 21
-51.438
  0
LINE
  8
0
 10
-23.1883
 20
43.1633
 11
-23.0984
 21
43.2141
  0
LINE
  8
0
 10
-23.0984
 20
43.2141
 11
-20.9502
 21
44.2955
  0
LINE
  8
0
 10
-20.9502
 20
44.2955
 11
-18.7515
 21
45.2701
  0
LINE
  8
0
 10
-18.7515
 20
45.2701
 11
-16.5076
 21
46.1357
  0
LINE
  8
0
 10
-16.5076
 20
46.1357
 11
-14.2239
 21
46.8901
  0
LINE
  8
0
 10
-14.2239
 20
46.8901
 11
-11.906
 21
47.5315
  0
LINE
  8
0
 10
-11.906
 20
47.5315
 11
-9.55942
 21
48.0585
  0
LINE
  8
0
 10
-9.55942
 20
48.0585
 11
-7.18979
 21
48.4696
  0
LINE
  8
0
 10
-7.18979
 20
48.4696
 11
-4.80283
 21
48.764
  0
LINE
  8
0
 10
-4.80283
 20
48.764
 11
-2.40431
 21
48.941
  0
LINE
  8
0
 10
-2.40431
 20
48.941
 11
-1.5
 21
48.9632
  0
LINE
  8
0
 10
-1.5
 20
48.9632
 11
-1.5
 21
29.9618
  0
LINE
  8
0
 10
-1.5
 20
29.9618
 11
-2.94051
 21
29.8555
  0
LINE
  8
0
 10
-2.94051
 20
29.8555
 11
-4.4019
 21
29.6753
  0
LINE
  8
0
 10
-4.4019
 20
29.6753
 11
-5.85271
 21
29.4236
  0
LINE
  8
0
 10
-5.85271
 20
29.4236
 11
-7.2894
 21
29.1009
  0
LINE
  8
0
 10
-7.2894
 20
29.1009
 11
-8.70853
 21
28.7082
  0
LINE
  8
0
 10
-8.70853
 20
28.7082
 11
-10.1067
 21
28.2463
  0
LINE
  8
0
 10
-10.1067
 20
28.2463
 11
-11.4805
 21
27.7164
  0
LINE
  8
0
 10
-11.4805
 20
27.7164
 11
-12.8266
 21
27.1197
  0
LINE
  8
0
 10
-12.8266
 20
27.1197
 11
-13.6781
 21
26.6911
  0
LINE
  8
0
 10
-13.6781
 20
26.6911
 11
-23.1883
 21
43.1633
  0
LINE
  8
0
 10
12.8266
 20
27.1197
 11
11.4805
 21
27.7164
  0
LINE
  8
0
 10
11.4805
 20
27.7164
 11
10.1067
 21
28.2463
  0
LINE
  8
0
 10
10.1067
 20
28.2463
 11
8.70853
 21
28.7082
  0
LINE
  8
0
 10
8.70853
 20
28.7082
 11
7.2894
 21
29.1009
  0
LINE
  8
0
 10
7.2894
 20
29.1009
 11
5.85271
 21
29.4236
  0
LINE
  8
0
 10
5.85271
 20
29.4236
 11
4.4019
 21
29.6753
  0
LINE
  8
0
 10
4.4019
 20
29.6753
 11
2.94051
 21
29.8555
  0
LINE
  8
0
 10
2.94051
 20
29.8555
 11
1.5
 21
29.9618
  0
LINE
  8
0
 10
1.5
 20
29.9618
 11
1.5
 21
48.9632
  0
LINE
  8
0
 10
1.5
 20
48.9632
 11
2.40431
 21
48.941
  0
LINE
  8
0
 10
2.40431
 20
48.941
 11
4.80283
 21
48.764
  0
LINE
  8
0
 10
4.80283
 20
48.764
 11
7.18979
 21
48.4696
  0
LINE
  8
0
 10
7.18979
 20
48.4696
 11
9.55942
 21
48.0585
  0
LINE
  8
0
 10
9.55942
 20
48.0585
 11
11.906
 21
47.5315
  0
LINE
  8
0
 10
11.906
 20
47.5315
 11
14.2239
 21
46.8901
  0
LINE
  8
0
 10
14.2239
 20
46.8901
 11
16.5076
 21
46.1357
  0
LINE
  8
0
 10
16.5076
 20
46.1357
 11
18.7515
 21
45.2701
  0
LINE
  8
0
 10
18.7515
 20
45.2701
 11
20.9502
 21
44.2955
  0
LINE
  8
0
 10
20.9502
 20
44.2955
 11
23.0984
 21
43.2141
  0
LINE
  8
0
 10
23.0984
 20
43.2141
 11
23.1883
 21
43.1633
  0
LINE
  8
0
 10
23.1883
 20
43.1633
 11
13.6781
 21
26.6911
  0
LINE
  8
0
 10
13.6781
 20
26.6911
 11
12.8266
 21
27.1197
  0
LINE
  8
0
 10
-41.6548
 20
25.7815
 11
-40.742
 21
27.2229
  0
LINE
  8
0
 10
-40.742
 20
27.2229
 11
-39.3572
 21
29.1893
  0
LINE
  8
0
 10
-39.3572
 20
29.1893
 11
-37.8775
 21
31.0853
  0
LINE
  8
0
 10
-37.8775
 20
31.0853
 11
-36.3066
 21
32.9064
  0
LINE
  8
0
 10
-36.3066
 20
32.9064
 11
-34.6482
 21
34.6482
  0
LINE
  8
0
 10
-34.6482
 20
34.6482
 11
-32.9064
 21
36.3066
  0
LINE
  8
0
 10
-32.9064
 20
36.3066
 11
-31.0853
 21
37.8775
  0
LINE
  8
0
 10
-31.0853
 20
37.8775
 11
-29.1893
 21
39.3572
  0
LINE
  8
0
 10
-29.1893
 20
39.3572
 11
-27.2229
 21
40.742
  0
LINE
  8
0
 10
-27.2229
 20
40.742
 11
-25.7815
 21
41.6548
  0
LINE
  8
0
 10
-25.7815
 20
41.6548
 11
-16.2764
 21
25.1915
  0
LINE
  8
0
 10
-16.2764
 20
25.1915
 11
-16.6671
 21
24.9441
  0
LINE
  8
0
 10
-16.6671
 20
24.9441
 11
-17.871
 21
24.0962
  0
LINE
  8
0
 10
-17.871
 20
24.0962
 11
-19.0318
 21
23.1903
  0
LINE
  8
0
 10
-19.0318
 20
23.1903
 11
-20.1468
 21
22.2285
  0
LINE
  8
0
 10
-20.1468
 20
22.2285
 11
-21.2132
 21
21.2132
  0
LINE
  8
0
 10
-21.2132
 20
21.2132
 11
-22.2285
 21
20.1468
  0
LINE
  8
0
 10
-22.2285
 20
20.1468
 11
-23.1903
 21
19.0318
  0
LINE
  8
0
 10
-23.1903
 20
19.0318
 11
-24.0962
 21
17.871
  0
LINE
  8
0
 10
-24.0962
 20
17.871
 11
-24.9441
 21
16.6671
  0
LINE
  8
0
 10
-24.9441
 20
16.6671
 11
-25.1915
 21
16.2764
  0
LINE
  8
0
 10
-25.1915
 20
16.2764
 11
-41.6548
 21
25.7815
  0
LINE
  8
0
 10
24.9441
 20
16.6671
 11
24.0962
 21
17.871
  0
LINE
  8
0
 10
24.0962
 20
17.871
 11
23.1903
 21
19.0318
  0
LINE
  8
0
 10
23.1903
 20
19.0318
 11
22.2285
 21
20.1468
  0
LINE
  8
0
 10
22.2285
 20
20.1468
 11
21.2132
 21
21.2132
  0
LINE
  8
0
 10
21.2132
 20
21.2132
 11
20.1468
 21
22.2285
  0
LINE
  8
0
 10
20.1468
 20
22.2285
 11
19.0318
 21
23.1903
  0
LINE
  8
0
 10
19.0318
 20
23.1903
 11
17.871
 21
24.0962
  0
LINE
  8
0
 10
17.871
 20
24.0962
 11
16.6671
 21
24.9441
  0
LINE
  8
0
 10
16.6671
 20
24.9441
 11
16.2764
 21
25.1915
  0
LINE
  8
0
 10
16.2764
 20
25.1915
 11
25.7815
 21
41.6548
  0
LINE
  8
0
 10
25.7815
 20
41.6548
 11
27.2229
 21
40.742
  0
LINE
  8
0
 10
27.2229
 20
40.742
 11
29.1893
 21
39.3572
  0
LINE
  8
0
 10
29.1893
 20
39.3572
 11
31.0853
 21
37.8775
  0
LINE
  8
0
 10
31.0853
 20
37.8775
 11
32.9064
 21
36.3066
  0
LINE
  8
0
 10
32.9064
 20
36.3066
 11
34.6482
 21
34.6482
  0
LINE
  8
0
 10
34.6482
 20
34.6482
 11
36.3066
 21
32.9064
  0
LINE
  8
0
 10
36.3066
 20
32.9064
 11
37.8775
 21
31.0853
  0
LINE
  8
0
 10
37.8775
 20
31.0853
 11
39.3572
 21
29.1893
  0
LINE
  8
0
 10
39.3572
 20
29.1893
 11
40.742
 21
27.2229
  0
LINE
  8
0
 10
40.742
 20
27.2229
 11
41.6548
 21
25.7815
  0
LINE
  8
0
 10
41.6548
 20
25.7815
 11
25.1915
 21
16.2764
  0
LINE
  8
0
 10
25.1915
 20
16.2764
 11
24.9441
 21
16.6671
  0
LINE
  8
0
 10
-12.6767
 20
24.9567
 11
-11.9715
 21
25.3117
  0
LINE
  8
0
 10
-11.9715
 20
25.3117
 11
-10.7151
 21
25.8686
  0
LINE
  8
0
 10
-10.7151
 20
25.8686
 11
-9.43291
 21
26.3632
  0
LINE
  8
0
 10
-9.43291
 20
26.3632
 11
-8.12796
 21
26.7943
  0
LINE
  8
0
 10
-8.12796
 20
26.7943
 11
-6.80344
 21
27.1609
  0
LINE
  8
0
 10
-6.80344
 20
27.1609
 11
-5.46252
 21
27.462
  0
LINE
  8
0
 10
-5.46252
 20
27.462
 11
-4.10844
 21
27.6969
  0
LINE
  8
0
 10
-4.10844
 20
27.6969
 11
-2.74448
 21
27.8652
  0
LINE
  8
0
 10
-2.74448
 20
27.8652
 11
-1.5
 21
27.957
  0
LINE
  8
0
 10
-1.5
 20
27.957
 11
-1.5
 21
7.85681
  0
LINE
  8
0
 10
-1.5
 20
7.85681
 11
-1.56071
 21
7.84627
  0
LINE
  8
0
 10
-1.56071
 20
7.84627
 11
-1.94383
 21
7.76024
  0
LINE
  8
0
 10
-1.94383
 20
7.76024
 11
-2.32227
 21
7.65552
  0
LINE
  8
0
 10
-2.32227
 20
7.65552
 11
-2.6293
 21
7.55409
  0
LINE
  8
0
 10
-2.6293
 20
7.55409
 11
-12.6767
 21
24.9567
  0
LINE
  8
0
 10
2.32227
 20
7.65552
 11
1.94383
 21
7.76024
  0
LINE
  8
0
 10
1.94383
 20
7.76024
 11
1.56071
 21
7.84627
  0
LINE
  8
0
 10
1.56071
 20
7.84627
 11
1.5
 21
7.85681
  0
LINE
  8
0
 10
1.5
 20
7.85681
 11
1.5
 21
27.957
  0
LINE
  8
0
 10
1.5
 20
27.957
 11
2.74448
 21
27.8652
  0
LINE
  8
0
 10
2.74448
 20
27.8652
 11
4.10844
 21
27.6969
  0
LINE
  8
0
 10
4.10844
 20
27.6969
 11
5.46252
 21
27.462
  0
LINE
  8
0
 10
5.46252
 20
27.462
 11
6.80344
 21
27.1609
  0
LINE
  8
0
 10
6.80344
 20
27.1609
 11
8.12796
 21
26.7943
  0
LINE
  8
0
 10
8.12796
 20
26.7943
 11
9.43291
 21
26.3632
  0
LINE
  8
0
 10
9.43291
 20
26.3632
 11
10.7151
 21
25.8686
  0
LINE
  8
0
 10
10.7151
 20
25.8686
 11
11.9715
 21
25.3117
  0
LINE
  8
0
 10
11.9715
 20
25.3117
 11
12.6767
 21
24.9567
  0
LINE
  8
0
 10
12.6767
 20
24.9567
 11
2.6293
 21
7.55409
  0
LINE
  8
0
 10
2.6293
 20
7.55409
 11
2.32227
 21
7.65552
  0
LINE
  8
0
 10
-23.4585
 20
15.2758
 11
-23.2811
 21
15.556
  0
LINE
  8
0
 10
-23.2811
 20
15.556
 11
-22.4898
 21
16.6796
  0
LINE
  8
0
 10
-22.4898
 20
16.6796
 11
-21.6443
 21
17.763
  0
LINE
  8
0
 10
-21.6443
 20
17.763
 11
-20.7466
 21
18.8036
  0
LINE
  8
0
 10
-20.7466
 20
18.8036
 11
-19.799
 21
19.799
  0
LINE
  8
0
 10
-19.799
 20
19.799
 11
-18.8036
 21
20.7466
  0
LINE
  8
0
 10
-18.8036
 20
20.7466
 11
-17.763
 21
21.6443
  0
LINE
  8
0
 10
-17.763
 20
21.6443
 11
-16.6796
 21
22.4898
  0
LINE
  8
0
 10
-16.6796
 20
22.4898
 11
-15.556
 21
23.2811
  0
LINE
  8
0
 10
-15.556
 20
23.2811
 11
-15.2758
 21
23.4585
  0
LINE
  8
0
 10
-15.2758
 20
23.4585
 11
-5.22685
 21
6.05321
  0
LINE
  8
0
 10
-5.22685
 20
6.05321
 11
-5.37247
 21
5.9276
  0
LINE
  8
0
 10
-5.37247
 20
5.9276
 11
-5.65685
 21
5.65685
  0
LINE
  8
0
 10
-5.65685
 20
5.65685
 11
-5.9276
 21
5.37247
  0
LINE
  8
0
 10
-5.9276
 20
5.37247
 11
-6.05321
 21
5.22685
  0
LINE
  8
0
 10
-6.05321
 20
5.22685
 11
-23.4585
 21
15.2758
  0
LINE
  8
0
 10
5.9276
 20
5.37247
 11
5.65685
 21
5.65685
  0
LINE
  8
0
 10
5.65685
 20
5.65685
 11
5.37247
 21
5.9276
  0
LINE
  8
0
 10
5.37247
 20
5.9276
 11
5.22685
 21
6.05321
  0
LINE
  8
0
 10
5.22685
 20
6.05321
 11
15.2758
 21
23.4585
  0
LINE
  8
0
 10
15.2758
 20
23.4585
 11
15.556
 21
23.2811
  0
LINE
  8
0
 10
15.556
 20
23.2811
 11
16.6796
 21
22.4898
  0
LINE
  8
0
 10
16.6796
 20
22.4898
 11
17.763
 21
21.6443
  0
LINE
  8
0
 10
17.763
 20
21.6443
 11
18.8036
 21
20.7466
  0
LINE
  8
0
 10
18.8036
 20
20.7466
 11
19.799
 21
19.799
  0
LINE
  8
0
 10
19.799
 20
19.799
 11
20.7466
 21
18.8036
  0
LINE
  8
0
 10
20.7466
 20
18.8036
 11
21.6443
 21
17.763
  0
LINE
  8
0
 10
21.6443
 20
17.763
 11
22.4898
 21
16.6796
  0
LINE
  8
0
 10
22.4898
 20
16.6796
 11
23.2811
 21
15.556
  0
LINE
  8
0
 10
23.2811
 20
15.556
 11
23.4585
 21
15.2758
  0
LINE
  8
0
 10
23.4585
 20
15.2758
 11
6.05321
 21
5.22685
  0
LINE
  8
0
 10
6.05321
 20
5.22685
 11
5.9276
 21
5.37247
  0
LINE
  8
0
 10
-48.941
 20
2.40431
 11
-48.764
 21
4.80283
  0
LINE
  8
0
 10
-48.764
 20
4.80283
 11
-48.4696
 21
7.18979
  0
LINE
  8
0
 10
-48.4696
 20
7.18979
 11
-48.0585
 21
9.55942
  0
LINE
  8
0
 10
-48.0585
 20
9.55942
 11
-47.5315
 21
11.906
  0
LINE
  8
0
 10
-47.5315
 20
11.906
 11
-46.8901
 21
14.2239
  0
LINE
  8
0
 10
-46.8901
 20
14.2239
 11
-46.1357
 21
16.5076
  0
LINE
  8
0
 10
-46.1357
 20
16.5076
 11
-45.2701
 21
18.7515
  0
LINE
  8
0
 10
-45.2701
 20
18.7515
 11
-44.2955
 21
20.9502
  0
LINE
  8
0
 10
-44.2955
 20
20.9502
 11
-43.2141
 21
23.0984
  0
LINE
  8
0
 10
-43.2141
 20
23.0984
 11
-43.1633
 21
23.1883
  0
LINE
  8
0
 10
-43.1633
 20
23.1883
 11
-26.6911
 21
13.6781
  0
LINE
  8
0
 10
-26.6911
 20
13.6781
 11
-27.1197
 21
12.8266
  0
LINE
  8
0
 10
-27.1197
 20
12.8266
 11
-27.7164
 21
11.4805
  0
LINE
  8
0
 10
-27.7164
 20
11.4805
 11
-28.2463
 21
10.1067
  0
LINE
  8
0
 10
-28.2463
 20
10.1067
 11
-28.7082
 21
8.70853
  0
LINE
  8
0
 10
-28.7082
 20
8.70853
 11
-29.1009
 21
7.2894
  0
LINE
  8
0
 10
-29.1009
 20
7.2894
 11
-29.4236
 21
5.85271
  0
LINE
  8
0
 10
-29.4236
 20
5.85271
 11
-29.6753
 21
4.4019
  0
LINE
  8
0
 10
-29.6753
 20
4.4019
 11
-29.8555
 21
2.94051
  0
LINE
  8
0
 10
-29.8555
 20
2.94051
 11
-29.9618
 21
1.5
  0
LINE
  8
0
 10
-29.9618
 20
1.5
 11
-48.9632
 21
1.5
  0
LINE
  8
0
 10
-48.9632
 20
1.5
 11
-48.941
 21
2.40431
  0
LINE
  8
0
 10
29.9618
 20
1.5
 11
29.8555
 21
2.94051
  0
LINE
  8
0
 10
29.8555
 20
2.94051
 11
29.6753
 21
4.4019
  0
LINE
  8
0
 10
29.6753
 20
4.4019
 11
29.4236
 21
5.85271
  0
LINE
  8
0
 10
29.4236
 20
5.85271
 11
29.1009
 21
7.2894
  0
LINE
  8
0
 10
29.1009
 20
7.2894
 11
28.7082
 21
8.70853
  0
LINE
  8
0
 10
28.7082
 20
8.70853
 11
28.2463
 21
10.1067
  0
LINE
  8
0
 10
28.2463
 20
10.1067
 11
27.7164
 21
11.4805
  0
LINE
  8
0
 10
27.7164
 20
11.4805
 11
27.1197
 21
12.8266
  0
LINE
  8
0
 10
27.1197
 20
12.8266
 11
26.6911
 21
13.6781
  0
LINE
  8
0
 10
26.6911
 20
13.6781
 11
43.1633
 21
23.1883
  0
LINE
  8
0
 10
43.1633
 20
23.1883
 11
43.2141
 21
23.0984
  0
LINE
  8
0
 10
43.2141
 20
23.0984
 11
44.2955
 21
20.9502
  0
LINE
  8
0
 10
44.2955
 20
20.9502
 11
45.2701
 21
18.7515
  0
LINE
  8
0
 10
45.2701
 20
18.7515
 11
46.1357
 21
16.5076
  0
LINE
  8
0
 10
46.1357
 20
16.5076
 11
46.8901
 21
14.2239
  0
LINE
  8
0
 10
46.8901
 20
14.2239
 11
47.5315
 21
11.906
  0
LINE
  8
0
 10
47.5315
 20
11.906
 11
48.0585
 21
9.55942
  0
LINE
  8
0
 10
48.0585
 20
9.55942
 11
48.4696
 21
7.18979
  0
LINE
  8
0
 10
48.4696
 20
7.18979
 11
48.764
 21
4.80283
  0
LINE
  8
0
 10
48.764
 20
4.80283
 11
48.941
 21
2.40431
  0
LINE
  8
0
 10
48.941
 20
2.40431
 11
48.9632
 21
1.5
  0
LINE
  8
0
 10
48.9632
 20
1.5
 11
29.9618
 21
1.5
  0
LINE
  8
0
 10
-27.8652
 20
2.74448
 11
-27.6969
 21
4.10844
  0
LINE
  8
0
 10
-27.6969
 20
4.10844
 11
-27.462
 21
5.46252
  0
LINE
  8
0
 10
-27.462
 20
5.46252
 11
-27.1609
 21
6.80344
  0
LINE
  8
0
 10
-27.1609
 20
6.80344
 11
-26.7943
 21
8.12796
  0
LINE
  8
0
 10
-26.7943
 20
8.12796
 11
-26.3632
 21
9.43291
  0
LINE
  8
0
 10
-26.3632
 20
9.43291
 11
-25.8686
 21
10.7151
  0
LINE
  8
0
 10
-25.8686
 20
10.7151
 11
-25.3117
 21
11.9715
  0
LINE
  8
0
 10
-25.3117
 20
11.9715
 11
-24.9567
 21
12.6767
  0
LINE
  8
0
 10
-24.9567
 20
12.6767
 11
-7.55409
 21
2.6293
  0
LINE
  8
0
 10
-7.55409
 20
2.6293
 11
-7.65552
 21
2.32227
  0
LINE
  8
0
 10
-7.65552
 20
2.32227
 11
-7.76024
 21
1.94383
  0
LINE
  8
0
 10
-7.76024
 20
1.94383
 11
-7.84627
 21
1.56071
  0
LINE
  8
0
 10
-7.84627
 20
1.56071
 11
-7.85681
 21
1.5
  0
LINE
  8
0
 10
-7.85681
 20
1.5
 11
-27.957
 21
1.5
  0
LINE
  8
0
 10
-27.957
 20
1.5
 11
-27.8652
 21
2.74448
  0
LINE
  8
0
 10
7.85681
 20
1.5
 11
7.84627
 21
1.56071
  0
LINE
  8
0
 10
7.84627
 20
1.56071
 11
7.76024
 21
1.94383
  0
LINE
  8
0
 10
7.76024
 20
1.94383
 11
7.65552
 21
2.32227
  0
LINE
  8
0
 10
7.65552
 20
2.32227
 11
7.55409
 21
2.6293
  0
LINE
  8
0
 10
7.55409
 20
2.6293
 11
24.9567
 21
12.6767
  0
LINE
  8
0
 10
24.9567
 20
12.6767
 11
25.3117
 21
11.9715
  0
LINE
  8
0
 10
25.3117
 20
11.9715
 11
25.8686
 21
10.7151
  0
LINE
  8
0
 10
25.8686
 20
10.7151
 11
26.3632
 21
9.43291
  0
LINE
  8
0
 10
26.3632
 20
9.43291
 11
26.7943
 21
8.12796
  0
LINE
  8
0
 10
26.7943
 20
8.12796
 11
27.1609
 21
6.80344
  0
LINE
  8
0
 10
27.1609
 20
6.80344
 11
27.462
 21
5.46252
  0
LINE
  8
0
 10
27.462
 20
5.46252
 11
27.6969
 21
4.10844
  0
LINE
  8
0
 10
27.6969
 20
4.10844
 11
27.8652
 21
2.74448
  0
LINE
  8
0
 10
27.8652
 20
2.74448
 11
27.957
 21
1.5
  0
LINE
  8
0
 10
27.957
 20
1.5
 11
7.85681
 21
1.5
  0
LINE
  8
0
 10
-0.147202
 20
-2.99638
 11
-0.294037
 21
-2.98555
  0
LINE
  8
0
 10
-0.294037
 20
-2.98555
 11
-0.440186
 21
-2.96753
  0
LINE
  8
0
 10
-0.440186
 20
-2.96753
 11
-0.585266
 21
-2.94235
  0
LINE
  8
0
 10
-0.585266
 20
-2.94235
 11
-0.728928
 21
-2.91008
  0
LINE
  8
0
 10
-0.728928
 20
-2.91008
 11
-0.87085
 21
-2.87082
  0
LINE
  8
0
 10
-0.87085
 20
-2.87082
 11
-1.01067
 21
-2.82463
  0
LINE
  8
0
 10
-1.01067
 20
-2.82463
 11
-1.14804
 21
-2.77164
  0
LINE
  8
0
 10
-1.14804
 20
-2.77164
 11
-1.28265
 21
-2.71196
  0
LINE
  8
0
 10
-1.28265
 20
-2.71196
 11
-1.41418
 21
-2.64575
  0
LINE
  8
0
 10
-1.41418
 20
-2.64575
 11
-1.5423
 21
-2.57318
  0
LINE
  8
0
 10
-1.5423
 20
-2.57318
 11
-1.6667
 21
-2.4944
  0
LINE
  8
0
 10
-1.6667
 20
-2.4944
 11
-1.78709
 21
-2.40962
  0
LINE
  8
0
 10
-1.78709
 20
-2.40962
 11
-1.90317
 21
-2.31903
  0
LINE
  8
0
 10
-1.90317
 20
-2.31903
 11
-2.01466
 21
-2.22284
  0
LINE
  8
0
 10
-2.01466
 20
-2.22284
 11
-2.12131
 21
-2.12131
  0
LINE
  8
0
 10
-2.12131
 20
-2.12131
 11
-2.22284
 21
-2.01466
  0
LINE
  8
0
 10
-2.22284
 20
-2.01466
 11
-2.31903
 21
-1.90317
  0
LINE
  8
0
 10
-2.31903
 20
-1.90317
 11
-2.40962
 21
-1.78709
  0
LINE
  8
0
 10
-2.40962
 20
-1.78709
 11
-2.4944
 21
-1.6667
  0
LINE
  8
0
 10
-2.4944
 20
-1.6667
 11
-2.57318
 21
-1.5423
  0
LINE
  8
0
 10
-2.57318
 20
-1.5423
 11
-2.64575
 21
-1.41418
  0
LINE
  8
0
 10
-2.64575
 20
-1.41418
 11
-2.71196
 21
-1.28265
  0
LINE
  8
0
 10
-2.71196
 20
-1.28265
 11
-2.77164
 21
-1.14804
  0
LINE
  8
0
 10
-2.77164
 20
-1.14804
 11
-2.82463
 21
-1.01067
  0
LINE
  8
0
 10
-2.82463
 20
-1.01067
 11
-2.87082
 21
-0.87085
  0
LINE
  8
0
 10
-2.87082
 20
-0.87085
 11
-2.91008
 21
-0.728928
  0
LINE
  8
0
 10
-2.91008
 20
-0.728928
 11
-2.94235
 21
-0.585266
  0
LINE
  8
0
 10
-2.94235
 20
-0.585266
 11
-2.96753
 21
-0.440186
  0
LINE
  8
0
 10
-2.96753
 20
-0.440186
 11
-2.98555
 21
-0.294037
  0
LINE
  8
0
 10
-2.98555
 20
-0.294037
 11
-2.99638
 21
-0.147202
  0
LINE
  8
0
 10
-2.99638
 20
-0.147202
 11
-3
 21
0
  0
LINE
  8
0
 10
-3
 20
0
 11
-2.99638
 21
0.147202
  0
LINE
  8
0
 10
-2.99638
 20
0.147202
 11
-2.98555
 21
0.294037
  0
LINE
  8
0
 10
-2.98555
 20
0.294037
 11
-2.96753
 21
0.440186
  0
LINE
  8
0
 10
-2.96753
 20
0.440186
 11
-2.94235
 21
0.585266
  0
LINE
  8
0
 10
-2.94235
 20
0.585266
 11
-2.91008
 21
0.728928
  0
LINE
  8
0
 10
-2.91008
 20
0.728928
 11
-2.87082
 21
0.87085
  0
LINE
  8
0
 10
-2.87082
 20
0.87085
 11
-2.82463
 21
1.01067
  0
LINE
  8
0
 10
-2.82463
 20
1.01067
 11
-2.77164
 21
1.14804
  0
LINE
  8
0
 10
-2.77164
 20
1.14804
 11
-2.71196
 21
1.28265
  0
LINE
  8
0
 10
-2.71196
 20
1.28265
 11
-2.64575
 21
1.41418
  0
LINE
  8
0
 10
-2.64575
 20
1.41418
 11
-2.57318
 21
1.5423
  0
LINE
  8
0
 10
-2.57318
 20
1.5423
 11
-2.4944
 21
1.6667
  0
LINE
  8
0
 10
-2.4944
 20
1.6667
 11
-2.40962
 21
1.78709
  0
LINE
  8
0
 10
-2.40962
 20
1.78709
 11
-2.31903
 21
1.90317
  0
LINE
  8
0
 10
-2.31903
 20
1.90317
 11
-2.22284
 21
2.01466
  0
LINE
  8
0
 10
-2.22284
 20
2.01466
 11
-2.12131
 21
2.12131
  0
LINE
  8
0
 10
-2.12131
 20
2.12131
 11
-2.01466
 21
2.22284
  0
LINE
  8
0
 10
-2.01466
 20
2.22284
 11
-1.90317
 21
2.31903
  0
LINE
  8
0
 10
-1.90317
 20
2.31903
 11
-1.78709
 21
2.40962
  0
LINE
  8
0
 10
-1.78709
 20
2.40962
 11
-1.6667
 21
2.4944
  0
LINE
  8
0
 10
-1.6667
 20
2.4944
 11
-1.5423
 21
2.57318
  0
LINE
  8
0
 10
-1.5423
 20
2.57318
 11
-1.41418
 21
2.64575
  0
LINE
  8
0
 10
-1.41418
 20
2.64575
 11
-1.28265
 21
2.71196
  0
LINE
  8
0
 10
-1.28265
 20
2.71196
 11
-1.14804
 21
2.77164
  0
LINE
  8
0
 10
-1.14804
 20
2.77164
 11
-1.01067
 21
2.82463
  0
LINE
  8
0
 10
-1.01067
 20
2.82463
 11
-0.87085
 21
2.87082
  0
LINE
  8
0
 10
-0.87085
 20
2.87082
 11
-0.728928
 21
2.91008
  0
LINE
  8
0
 10
-0.728928
 20
2.91008
 11
-0.585266
 21
2.94235
  0
LINE
  8
0
 10
-0.585266
 20
2.94235
 11
-0.440186
 21
2.96753
  0
LINE
  8
0
 10
-0.440186
 20
2.96753
 11
-0.294037
 21
2.98555
  0
LINE
  8
0
 10
-0.294037
 20
2.98555
 11
-0.147202
 21
2.99638
  0
LINE
  8
0
 10
-0.147202
 20
2.99638
 11
0
 21
3
  0
LINE
  8
0
 10
0
 20
3
 11
0.147202
 21
2.99638
  0
LINE
  8
0
 10
0.147202
 20
2.99638
 11
0.294037
 21
2.98555
  0
LINE
  8
0
 10
0.294037
 20
2.98555
 11
0.440186
 21
2.96753
  0
LINE
  8
0
 10
0.440186
 20
2.96753
 11
0.585266
 21
2.94235
  0
LINE
  8
0
 10
0.585266
 20
2.94235
 11
0.728928
 21
2.91008
  0
LINE
  8
0
 10
0.728928
 20
2.91008
 11
0.87085
 21
2.87082
  0
LINE
  8
0
 10
0.87085
 20
2.87082
 11
1.01067
 21
2.82463
  0
LINE
  8
0
 10
1.01067
 20
2.82463
 11
1.14804
 21
2.77164
  0
LINE
  8
0
 10
1.14804
 20
2.77164
 11
1.28265
 21
2.71196
  0
LINE
  8
0
 10
1.28265
 20
2.71196
 11
1.41418
 21
2.64575
  0
LINE
  8
0
 10
1.41418
 20
2.64575
 11
1.5423
 21
2.57318
  0
LINE
  8
0
 10
1.5423
 20
2.57318
 11
1.6667
 21
2.4944
  0
LINE
  8
0
 10
1.6667
 20
2.4944
 11
1.78709
 21
2.40962
  0
LINE
  8
0
 10
1.78709
 20
2.40962
 11
1.90317
 21
2.31903
  0
LINE
  8
0
 10
1.90317
 20
2.31903
 11
2.01466
 21
2.22284
  0
LINE
  8
0
 10
2.01466
 20
2.22284
 11
2.12131
 21
2.12131
  0
LINE
  8
0
 10
2.12131
 20
2.12131
 11
2.22284
 21
2.01466
  0
LINE
  8
0
 10
2.22284
 20
2.01466
 11
2.31903
 21
1.90317
  0
LINE
  8
0
 10
2.31903
 20
1.90317
 11
2.40962
 21
1.78709
  0
LINE
  8
0
 10
2.40962
 20
1.78709
 11
2.4944
 21
1.6667
  0
LINE
  8
0
 10
2.4944
 20
1.6667
 11
2.57318
 21
1.5423
  0
LINE
  8
0
 10
2.57318
 20
1.5423
 11
2.64575
 21
1.41418
  0
LINE
  8
0
 10
2.64575
 20
1.41418
 11
2.71196
 21
1.28265
  0
LINE
  8
0
 10
2.71196
 20
1.28265
 11
2.77164
 21
1.14804
  0
LINE
  8
0
 10
2.77164
 20
1.14804
 11
2.82463
 21
1.01067
  0
LINE
  8
0
 10
2.82463
 20
1.01067
 11
2.87082
 21
0.87085
  0
LINE
  8
0
 10
2.87082
 20
0.87085
 11
2.91008
 21
0.728928
  0
LINE
  8
0
 10
2.91008
 20
0.728928
 11
2.94235
 21
0.585266
  0
LINE
  8
0
 10
2.94235
 20
0.585266
 11
2.96753
 21
0.440186
  0
LINE
  8
0
 10
2.96753
 20
0.440186
 11
2.98555
 21
0.294037
  0
LINE
  8
0
 10
2.98555
 20
0.294037
 11
2.99638
 21
0.147202
  0
LINE
  8
0
 10
2.99638
 20
0.147202
 11
3
 21
0
  0
LINE
  8
0
 10
3
 20
0
 11
2.99638
 21
-0.147202
  0
LINE
  8
0
 10
2.99638
 20
-0.147202
 11
2.98555
 21
-0.294037
  0
LINE
  8
0
 10
2.98555
 20
-0.294037
 11
2.96753
 21
-0.440186
  0
LINE
  8
0
 10
2.96753
 20
-0.440186
 11
2.94235
 21
-0.585266
  0
LINE
  8
0
 10
2.94235
 20
-0.585266
 11
2.91008
 21
-0.728928
  0
LINE
  8
0
 10
2.91008
 20
-0.728928
 11
2.87082
 21
-0.87085
  0
LINE
  8
0
 10
2.87082
 20
-0.87085
 11
2.82463
 21
-1.01067
  0
LINE
  8
0
 10
2.82463
 20
-1.01067
 11
2.77164
 21
-1.14804
  0
LINE
  8
0
 10
2.77164
 20
-1.14804
 11
2.71196
 21
-1.28265
  0
LINE
  8
0
 10
2.71196
 20
-1.28265
 11
2.64575
 21
-1.41418
  0
LINE
  8
0
 10
2.64575
 20
-1.41418
 11
2.57318
 21
-1.5423
  0
LINE
  8
0
 10
2.57318
 20
-1.5423
 11
2.4944
 21
-1.6667
  0
LINE
  8
0
 10
2.4944
 20
-1.6667
 11
2.40962
 21
-1.78709
  0
LINE
  8
0
 10
2.40962
 20
-1.78709
 11
2.31903
 21
-1.90317
  0
LINE
  8
0
 10
2.31903
 20
-1.90317
 11
2.22284
 21
-2.01466
  0
LINE
  8
0
 10
2.22284
 20
-2.01466
 11
2.12131
 21
-2.12131
  0
LINE
  8
0
 10
2.12131
 20
-2.12131
 11
2.01466
 21
-2.22284
  0
LINE
  8
0
 10
2.01466
 20
-2.22284
 11
1.90317
 21
-2.31903
  0
LINE
  8
0
 10
1.90317
 20
-2.31903
 11
1.78709
 21
-2.40962
  0
LINE
  8
0
 10
1.78709
 20
-2.40962
 11
1.6667
 21
-2.4944
  0
LINE
  8
0
 10
1.6667
 20
-2.4944
 11
1.5423
 21
-2.57318
  0
LINE
  8
0
 10
1.5423
 20
-2.57318
 11
1.41418
 21
-2.64575
  0
LINE
  8
0
 10
1.41418
 20
-2.64575
 11
1.28265
 21
-2.71196
  0
LINE
  8
0
 10
1.28265
 20
-2.71196
 11
1.14804
 21
-2.77164
  0
LINE
  8
0
 10
1.14804
 20
-2.77164
 11
1.01067
 21
-2.82463
  0
LINE
  8
0
 10
1.01067
 20
-2.82463
 11
0.87085
 21
-2.87082
  0
LINE
  8
0
 10
0.87085
 20
-2.87082
 11
0.728928
 21
-2.91008
  0
LINE
  8
0
 10
0.728928
 20
-2.91008
 11
0.585266
 21
-2.94235
  0
LINE
  8
0
 10
0.585266
 20
-2.94235
 11
0.440186
 21
-2.96753
  0
LINE
  8
0
 10
0.440186
 20
-2.96753
 11
0.294037
 21
-2.98555
  0
LINE
  8
0
 10
0.294037
 20
-2.98555
 11
0.147202
 21
-2.99638
  0
LINE
  8
0
 10
0.147202
 20
-2.99638
 11
0
 21
-3
  0
LINE
  8
0
 10
0
 20
-3
 11
-0.147202
 21
-2.99638
  0
LINE
  8
0
 10
43.1633
 20
-23.1883
 11
26.6911
 21
-13.6781
  0
LINE
  8
0
 10
26.6911
 20
-13.6781
 11
27.1197
 21
-12.8266
  0
LINE
  8
0
 10
27.1197
 20
-12.8266
 11
27.7164
 21
-11.4805
  0
LINE
  8
0
 10
27.7164
 20
-11.4805
 11
28.2463
 21
-10.1067
  0
LINE
  8
0
 10
28.2463
 20
-10.1067
 11
28.7082
 21
-8.70853
  0
LINE
  8
0
 10
28.7082
 20
-8.70853
 11
29.1009
 21
-7.2894
  0
LINE
  8
0
 10
29.1009
 20
-7.2894
 11
29.4236
 21
-5.85271
  0
LINE
  8
0
 10
29.4236
 20
-5.85271
 11
29.6753
 21
-4.4019
  0
LINE
  8
0
 10
29.6753
 20
-4.4019
 11
29.8555
 21
-2.94051
  0
LINE
  8
0
 10
29.8555
 20
-2.94051
 11
29.9618
 21
-1.5
  0
LINE
  8
0
 10
29.9618
 20
-1.5
 11
48.9632
 21
-1.5
  0
LINE
  8
0
 10
48.9632
 20
-1.5
 11
48.941
 21
-2.40431
  0
LINE
  8
0
 10
48.941
 20
-2.40431
 11
48.764
 21
-4.80283
  0
LINE
  8
0
 10
48.764
 20
-4.80283
 11
48.4696
 21
-7.18979
  0
LINE
  8
0
 10
48.4696
 20
-7.18979
 11
48.0585
 21
-9.55942
  0
LINE
  8
0
 10
48.0585
 20
-9.55942
 11
47.5315
 21
-11.906
  0
LINE
  8
0
 10
47.5315
 20
-11.906
 11
46.8901
 21
-14.2239
  0
LINE
  8
0
 10
46.8901
 20
-14.2239
 11
46.1357
 21
-16.5076
  0
LINE
  8
0
 10
46.1357
 20
-16.5076
 11
45.2701
 21
-18.7515
  0
LINE
  8
0
 10
45.2701
 20
-18.7515
 11
44.2955
 21
-20.9502
  0
LINE
  8
0
 10
44.2955
 20
-20.9502
 11
43.2141
 21
-23.0984
  0
LINE
  8
0
 10
43.2141
 20
-23.0984
 11
43.1633
 21
-23.1883
  0
LINE
  8
0
 10
24.9567
 20
-12.6767
 11
7.55409
 21
-2.6293
  0
LINE
  8
0
 10
7.55409
 20
-2.6293
 11
7.65552
 21
-2.32227
  0
LINE
  8
0
 10
7.65552
 20
-2.32227
 11
7.76024
 21
-1.94383
  0
LINE
  8
0
 10
7.76024
 20
-1.94383
 11
7.84627
 21
-1.56071
  0
LINE
  8
0
 10
7.84627
 20
-1.56071
 11
7.85681
 21
-1.5
  0
LINE
  8
0
 10
7.85681
 20
-1.5
 11
27.957
 21
-1.5
  0
LINE
  8
0
 10
27.957
 20
-1.5
 11
27.8652
 21
-2.74448
  0
LINE
  8
0
 10
27.8652
 20
-2.74448
 11
27.6969
 21
-4.10844
  0
LINE
  8
0
 10
27.6969
 20
-4.10844
 11
27.462
 21
-5.46252
  0
LINE
  8
0
 10
27.462
 20
-5.46252
 11
27.1609
 21
-6.80344
  0
LINE
  8
0
 10
27.1609
 20
-6.80344
 11
26.7943
 21
-8.12796
  0
LINE
  8
0
 10
26.7943
 20
-8.12796
 11
26.3632
 21
-9.43291
  0
LINE
  8
0
 10
26.3632
 20
-9.43291
 11
25.8686
 21
-10.7151
  0
LINE
  8
0
 10
25.8686
 20
-10.7151
 11
25.3117
 21
-11.9715
  0
LINE
  8
0
 10
25.3117
 20
-11.9715
 11
24.9567
 21
-12.6767
  0
LINE
  8
0
 10
-43.2141
 20
-23.0984
 11
-44.2955
 21
-20.9502
  0
LINE
  8
0
 10
-44.2955
 20
-20.9502
 11
-45.2701
 21
-18.7515
  0
LINE
  8
0
 10
-45.2701
 20
-18.7515
 11
-46.1357
 21
-16.5076
  0
LINE
  8
0
 10
-46.1357
 20
-16.5076
 11
-46.8901
 21
-14.2239
  0
LINE
  8
0
 10
-46.8901
 20
-14.2239
 11
-47.5315
 21
-11.906
  0
LINE
  8
0
 10
-47.5315
 20
-11.906
 11
-48.0585
 21
-9.55942
  0
LINE
  8
0
 10
-48.0585
 20
-9.55942
 11
-48.4696
 21
-7.18979
  0
LINE
  8
0
 10
-48.4696
 20
-7.18979
 11
-48.764
 21
-4.80283
  0
LINE
  8
0
 10
-48.764
 20
-4.80283
 11
-48.941
 21
-2.40431
  0
LINE
  8
0
 10
-48.941
 20
-2.40431
 11
-48.9632
 21
-1.5
  0
LINE
  8
0
 10
-48.9632
 20
-1.5
 11
-29.9618
 21
-1.5
  0
LINE
  8
0
 10
-29.9618
 20
-1.5
 11
-29.8555
 21
-2.94051
  0
LINE
  8
0
 10
-29.8555
 20
-2.94051
 11
-29.6753
 21
-4.4019
  0
LINE
  8
0
 10
-29.6753
 20
-4.4019
 11
-29.4236
 21
-5.85271
  0
LINE
  8
0
 10
-29.4236
 20
-5.85271
 11
-29.1009
 21
-7.2894
  0
LINE
  8
0
 10
-29.1009
 20
-7.2894
 11
-28.7082
 21
-8.70853
  0
LINE
  8
0
 10
-28.7082
 20
-8.70853
 11
-28.2463
 21
-10.1067
  0
LINE
  8
0
 10
-28.2463
 20
-10.1067
 11
-27.7164
 21
-11.4805
  0
LINE
  8
0
 10
-27.7164
 20
-11.4805
 11
-27.1197
 21
-12.8266
  0
LINE
  8
0
 10
-27.1197
 20
-12.8266
 11
-26.6911
 21
-13.6781
  0
LINE
  8
0
 10
-26.6911
 20
-13.6781
 11
-43.1633
 21
-23.1883
  0
LINE
  8
0
 10
-43.1633
 20
-23.1883
 11
-43.2141
 21
-23.0984
  0
LINE
  8
0
 10
-25.3117
 20
-11.9715
 11
-25.8686
 21
-10.7151
  0
LINE
  8
0
 10
-25.8686
 20
-10.7151
 11
-26.3632
 21
-9.43291
  0
LINE
  8
0
 10
-26.3632
 20
-9.43291
 11
-26.7943
 21
-8.12796
  0
LINE
  8
0
 10
-26.7943
 20
-8.12796
 11
-27.1609
 21
-6.80344
  0
LINE
  8
0
 10
-27.1609
 20
-6.80344
 11
-27.462
 21
-5.46252
  0
LINE
  8
0
 10
-27.462
 20
-5.46252
 11
-27.6969
 21
-4.10844
  0
LINE
  8
0
 10
-27.6969
 20
-4.10844
 11
-27.8652
 21
-2.74448
  0
LINE
  8
0
 10
-27.8652
 20
-2.74448
 11
-27.957
 21
-1.5
  0
LINE
  8
0
 10
-27.957
 20
-1.5
 11
-7.85681
 21
-1.5
  0
LINE
  8
0
 10
-7.85681
 20
-1.5
 11
-7.84627
 21
-1.56071
  0
LINE
  8
0
 10
-7.84627
 20
-1.56071
 11
-7.76024
 21
-1.94383
  0
LINE
  8
0
 10
-7.76024
 20
-1.94383
 11
-7.65552
 21
-2.32227
  0
LINE
  8
0
 10
-7.65552
 20
-2.32227
 11
-7.55409
 21
-2.6293
  0
LINE
  8
0
 10
-7.55409
 20
-2.6293
 11
-24.9567
 21
-12.6767
  0
LINE
  8
0
 10
-24.9567
 20
-12.6767
 11
-25.3117
 21
-11.9715
  0
LINE
  8
0
 10
-15.556
 20
-23.2811
 11
-16.6796
 21
-22.4898
  0
LINE
  8
0
 10
-16.6796
 20
-22.4898
 11
-17.763
 21
-21.6443
  0
LINE
  8
0
 10
-17.763
 20
-21.6443
 11
-18.8036
 21
-20.7466
  0
LINE
  8
0
 10
-18.8036
 20
-20.7466
 11
-19.799
 21
-19.799
  0
LINE
  8
0
 10
-19.799
 20
-19.799
 11
-20.7466
 21
-18.8036
  0
LINE
  8
0
 10
-20.7466
 20
-18.8036
 11
-21.6443
 21
-17.763
  0
LINE
  8
0
 10
-21.6443
 20
-17.763
 11
-22.4898
 21
-16.6796
  0
LINE
  8
0
 10
-22.4898
 20
-16.6796
 11
-23.2811
 21
-15.556
  0
LINE
  8
0
 10
-23.2811
 20
-15.556
 11
-23.4585
 21
-15.2758
  0
LINE
  8
0
 10
-23.4585
 20
-15.2758
 11
-6.05321
 21
-5.22685
  0
LINE
  8
0
 10
-6.05321
 20
-5.22685
 11
-5.9276
 21
-5.37247
  0
LINE
  8
0
 10
-5.9276
 20
-5.37247
 11
-5.65685
 21
-5.65685
  0
LINE
  8
0
 10
-5.65685
 20
-5.65685
 11
-5.37247
 21
-5.9276
  0
LINE
  8
0
 10
-5.37247
 20
-5.9276
 11
-5.22685
 21
-6.05321
  0
LINE
  8
0
 10
-5.22685
 20
-6.05321
 11
-15.2758
 21
-23.4585
  0
LINE
  8
0
 10
-15.2758
 20
-23.4585
 11
-15.556
 21
-23.2811
  0
LINE
  8
0
 10
5.22685
 20
-6.05321
 11
5.37247
 21
-5.9276
  0
LINE
  8
0
 10
5.37247
 20
-5.9276
 11
5.65685
 21
-5.65685
  0
LINE
  8
0
 10
5.65685
 20
-5.65685
 11
5.9276
 21
-5.37247
  0
LINE
  8
0
 10
5.9276
 20
-5.37247
 11
6.05321
 21
-5.22685
  0
LINE
  8
0
 10
6.05321
 20
-5.22685
 11
23.4585
 21
-15.2758
  0
LINE
  8
0
 10
23.4585
 20
-15.2758
 11
23.2811
 21
-15.556
  0
LINE
  8
0
 10
23.2811
 20
-15.556
 11
22.4898
 21
-16.6796
  0
LINE
  8
0
 10
22.4898
 20
-16.6796
 11
21.6443
 21
-17.763
  0
LINE
  8
0
 10
21.6443
 20
-17.763
 11
20.7466
 21
-18.8036
  0
LINE
  8
0
 10
20.7466
 20
-18.8036
 11
19.799
 21
-19.799
  0
LINE
  8
0
 10
19.799
 20
-19.799
 11
18.8036
 21
-20.7466
  0
LINE
  8
0
 10
18.8036
 20
-20.7466
 11
17.763
 21
-21.6443
  0
LINE
  8
0
 10
17.763
 20
-21.6443
 11
16.6796
 21
-22.4898
  0
LINE
  8
0
 10
16.6796
 20
-22.4898
 11
15.556
 21
-23.2811
  0
LINE
  8
0
 10
15.556
 20
-23.2811
 11
15.2758
 21
-23.4585
  0
LINE
  8
0
 10
15.2758
 20
-23.4585
 11
5.22685
 21
-6.05321
  0
LINE
  8
0
 10
-2.74448
 20
-27.8652
 11
-4.10844
 21
-27.6969
  0
LINE
  8
0
 10
-4.10844
 20
-27.6969
 11
-5.46252
 21
-27.462
  0
LINE
  8
0
 10
-5.46252
 20
-27.462
 11
-6.80344
 21
-27.1609
  0
LINE
  8
0
 10
-6.80344
 20
-27.1609
 11
-8.12796
 21
-26.7943
  0
LINE
  8
0
 10
-8.12796
 20
-26.7943
 11
-9.43291
 21
-26.3632
  0
LINE
  8
0
 10
-9.43291
 20
-26.3632
 11
-10.7151
 21
-25.8686
  0
LINE
  8
0
 10
-10.7151
 20
-25.8686
 11
-11.9715
 21
-25.3117
  0
LINE
  8
0
 10
-11.9715
 20
-25.3117
 11
-12.6767
 21
-24.9567
  0
LINE
  8
0
 10
-12.6767
 20
-24.9567
 11
-2.6293
 21
-7.55409
  0
LINE
  8
0
 10
-2.6293
 20
-7.55409
 11
-2.32227
 21
-7.65552
  0
LINE
  8
0
 10
-2.32227
 20
-7.65552
 11
-1.94383
 21
-7.76024
  0
LINE
  8
0
 10
-1.94383
 20
-7.76024
 11
-1.56071
 21
-7.84627
  0
LINE
  8
0
 10
-1.56071
 20
-7.84627
 11
-1.5
 21
-7.85681
  0
LINE
  8
0
 10
-1.5
 20
-7.85681
 11
-1.5
 21
-27.957
  0
LINE
  8
0
 10
-1.5
 20
-27.957
 11
-2.74448
 21
-27.8652
  0
LINE
  8
0
 10
1.5
 20
-7.85681
 11
1.56071
 21
-7.84627
  0
LINE
  8
0
 10
1.56071
 20
-7.84627
 11
1.94383
 21
-7.76024
  0
LINE
  8
0
 10
1.94383
 20
-7.76024
 11
2.32227
 21
-7.65552
  0
LINE
  8
0
 10
2.32227
 20
-7.65552
 11
2.6293
 21
-7.55409
  0
LINE
  8
0
 10
2.6293
 20
-7.55409
 11
12.6767
 21
-24.9567
  0
LINE
  8
0
 10
12.6767
 20
-24.9567
 11
11.9715
 21
-25.3117
  0
LINE
  8
0
 10
11.9715
 20
-25.3117
 11
10.7151
 21
-25.8686
  0
LINE
  8
0
 10
10.7151
 20
-25.8686
 11
9.43291
 21
-26.3632
  0
LINE
  8
0
 10
9.43291
 20
-26.3632
 11
8.12796
 21
-26.7943
  0
LINE
  8
0
 10
8.12796
 20
-26.7943
 11
6.80344
 21
-27.1609
  0
LINE
  8
0
 10
6.80344
 20
-27.1609
 11
5.46252
 21
-27.462
  0
LINE
  8
0
 10
5.46252
 20
-27.462
 11
4.10844
 21
-27.6969
  0
LINE
  8
0
 10
4.10844
 20
-27.6969
 11
2.74448
 21
-27.8652
  0
LINE
  8
0
 10
2.74448
 20
-27.8652
 11
1.5
 21
-27.957
  0
LINE
  8
0
 10
1.5
 20
-27.957
 11
1.5
 21
-7.85681
  0
LINE
  8
0
 10
-27.2229
 20
-40.742
 11
-29.1893
 21
-39.3572
  0
LINE
  8
0
 10
-29.1893
 20
-39.3572
 11
-31.0853
 21
-37.8775
  0
LINE
  8
0
 10
-31.0853
 20
-37.8775
 11
-32.9064
 21
-36.3066
  0
LINE
  8
0
 10
-32.9064
 20
-36.3066
 11
-34.6482
 21
-34.6482
  0
LINE
  8
0
 10
-34.6482
 20
-34.6482
 11
-36.3066
 21
-32.9064
  0
LINE
  8
0
 10
-36.3066
 20
-32.9064
 11
-37.8775
 21
-31.0853
  0
LINE
  8
0
 10
-37.8775
 20
-31.0853
 11
-39.3572
 21
-29.1893
  0
LINE
  8
0
 10
-39.3572
 20
-29.1893
 11
-40.742
 21
-27.2229
  0
LINE
  8
0
 10
-40.742
 20
-27.2229
 11
-41.6548
 21
-25.7815
  0
LINE
  8
0
 10
-41.6548
 20
-25.7815
 11
-25.1915
 21
-16.2764
  0
LINE
  8
0
 10
-25.1915
 20
-16.2764
 11
-24.9441
 21
-16.6671
  0
LINE
  8
0
 10
-24.9441
 20
-16.6671
 11
-24.0962
 21
-17.871
  0
LINE
  8
0
 10
-24.0962
 20
-17.871
 11
-23.1903
 21
-19.0318
  0
LINE
  8
0
 10
-23.1903
 20
-19.0318
 11
-22.2285
 21
-20.1468
  0
LINE
  8
0
 10
-22.2285
 20
-20.1468
 11
-21.2132
 21
-21.2132
  0
LINE
  8
0
 10
-21.2132
 20
-21.2132
 11
-20.1468
 21
-22.2285
  0
LINE
  8
0
 10
-20.1468
 20
-22.2285
 11
-19.0318
 21
-23.1903
  0
LINE
  8
0
 10
-19.0318
 20
-23.1903
 11
-17.871
 21
-24.0962
  0
LINE
  8
0
 10
-17.871
 20
-24.0962
 11
-16.6671
 21
-24.9441
  0
LINE
  8
0
 10
-16.6671
 20
-24.9441
 11
-16.2764
 21
-25.1915
  0
LINE
  8
0
 10
-16.2764
 20
-25.1915
 11
-25.7815
 21
-41.6548
  0
LINE
  8
0
 10
-25.7815
 20
-41.6548
 11
-27.2229
 21
-40.742
  0
LINE
  8
0
 10
16.2764
 20
-25.1915
 11
16.6671
 21
-24.9441
  0
LINE
  8
0
 10
16.6671
 20
-24.9441
 11
17.871
 21
-24.0962
  0
LINE
  8
0
 10
17.871
 20
-24.0962
 11
19.0318
 21
-23.1903
  0
LINE
  8
0
 10
19.0318
 20
-23.1903
 11
20.1468
 21
-22.2285
  0
LINE
  8
0
 10
20.1468
 20
-22.2285
 11
21.2132
 21
-21.2132
  0
LINE
  8
0
 10
21.2132
 20
-21.2132
 11
22.2285
 21
-20.1468
  0
LINE
  8
0
 10
22.2285
 20
-20.1468
 11
23.1903
 21
-19.0318
  0
LINE
  8
0
 10
23.1903
 20
-19.0318
 11
24.0962
 21
-17.871
  0
LINE
  8
0
 10
24.0962
 20
-17.871
 11
24.9441
 21
-16.6671
  0
LINE
  8
0
 10
24.9441
 20
-16.6671
 11
25.1915
 21
-16.2764
  0
LINE
  8
0
 10
25.1915
 20
-16.2764
 11
41.6548
 21
-25.7815
  0
LINE
  8
0
 10
41.6548
 20
-25.7815
 11
40.742
 21
-27.2229
  0
LINE
  8
0
 10
40.742
 20
-27.2229
 11
39.3572
 21
-29.1893
  0
LINE
  8
0
 10
39.3572
 20
-29.1893
 11
37.8775
 21
-31.0853
  0
LINE
  8
0
 10
37.8775
 20
-31.0853
 11
36.3066
 21
-32.9064
  0
LINE
  8
0
 10
36.3066
 20
-32.9064
 11
34.6482
 21
-34.6482
  0
LINE
  8
0
 10
34.6482
 20
-34.6482
 11
32.9064
 21
-36.3066
  0
LINE
  8
0
 10
32.9064
 20
-36.3066
 11
31.0853
 21
-37.8775
  0
LINE
  8
0
 10
31.0853
 20
-37.8775
 11
29.1893
 21
-39.3572
  0
LINE
  8
0
 10
29.1893
 20
-39.3572
 11
27.2229
 21
-40.742
  0
LINE
  8
0
 10
27.2229
 20
-40.742
 11
25.7815
 21
-41.6548
  0
LINE
  8
0
 10
25.7815
 20
-41.6548
 11
16.2764
 21
-25.1915
  0
LINE
  8
0
 10
-2.40431
 20
-48.941
 11
-4.80283
 21
-48.764
  0
LINE
  8
0
 10
-4.80283
 20
-48.764
 11
-7.18979
 21
-48.4696
  0
LINE
  8
0
 10
-7.18979
 20
-48.4696
 11
-9.55942
 21
-48.0585
  0
LINE
  8
0
 10
-9.55942
 20
-48.0585
 11
-11.906
 21
-47.5315
  0
LINE
  8
0
 10
-11.906
 20
-47.5315
 11
-14.2239
 21
-46.8901
  0
LINE
  8
0
 10
-14.2239
 20
-46.8901
 11
-16.5076
 21
-46.1357
  0
LINE
  8
0
 10
-16.5076
 20
-46.1357
 11
-18.7515
 21
-45.2701
  0
LINE
  8
0
 10
-18.7515
 20
-45.2701
 11
-20.9502
 21
-44.2955
  0
LINE
  8
0
 10
-20.9502
 20
-44.2955
 11
-23.0984
 21
-43.2141
  0
LINE
  8
0
 10
-23.0984
 20
-43.2141
 11
-23.1883
 21
-43.1633
  0
LINE
  8
0
 10
-23.1883
 20
-43.1633
 11
-13.6781
 21
-26.6911
  0
LINE
  8
0
 10
-13.6781
 20
-26.6911
 11
-12.8266
 21
-27.1197
  0
LINE
  8
0
 10
-12.8266
 20
-27.1197
 11
-11.4805
 21
-27.7164
  0
LINE
  8
0
 10
-11.4805
 20
-27.7164
 11
-10.1067
 21
-28.2463
  0
LINE
  8
0
 10
-10.1067
 20
-28.2463
 11
-8.70853
 21
-28.7082
  0
LINE
  8
0
 10
-8.70853
 20
-28.7082
 11
-7.2894
 21
-29.1009
  0
LINE
  8
0
 10
-7.2894
 20
-29.1009
 11
-5.85271
 21
-29.4236
  0
LINE
  8
0
 10
-5.85271
 20
-29.4236
 11
-4.4019
 21
-29.6753
  0
LINE
  8
0
 10
-4.4019
 20
-29.6753
 11
-2.94051
 21
-29.8555
  0
LINE
  8
0
 10
-2.94051
 20
-29.8555
 11
-1.5
 21
-29.9618
  0
LINE
  8
0
 10
-1.5
 20
-29.9618
 11
-1.5
 21
-48.9632
  0
LINE
  8
0
 10
-1.5
 20
-48.9632
 11
-2.40431
 21
-48.941
  0
LINE
  8
0
 10
1.5
 20
-29.9618
 11
2.94051
 21
-29.8555
  0
LINE
  8
0
 10
2.94051
 20
-29.8555
 11
4.4019
 21
-29.6753
  0
LINE
  8
0
 10
4.4019
 20
-29.6753
 11
5.85271
 21
-29.4236
  0
LINE
  8
0
 10
5.85271
 20
-29.4236
 11
7.2894
 21
-29.1009
  0
LINE
  8
0
 10
7.2894
 20
-29.1009
 11
8.70853
 21
-28.7082
  0
LINE
  8
0
 10
8.70853
 20
-28.7082
 11
10.1067
 21
-28.2463
  0
LINE
  8
0
 10
10.1067
 20
-28.2463
 11
11.4805
 21
-27.7164
  0
LINE
  8
0
 10
11.4805
 20
-27.7164
 11
12.8266
 21
-27.1197
  0
LINE
  8
0
 10
12.8266
 20
-27.1197
 11
13.6781
 21
-26.6911
  0
LINE
  8
0
 10
13.6781
 20
-26.6911
 11
23.1883
 21
-43.1633
  0
LINE
  8
0
 10
23.1883
 20
-43.1633
 11
23.0984
 21
-43.2141
  0
LINE
  8
0
 10
23.0984
 20
-43.2141
 11
20.9502
 21
-44.2955
  0
LINE
  8
0
 10
20.9502
 20
-44.2955
 11
18.7515
 21
-45.2701
  0
LINE
  8
0
 10
18.7515
 20
-45.2701
 11
16.5076
 21
-46.1357
  0
LINE
  8
0
 10
16.5076
 20
-46.1357
 11
14.2239
 21
-46.8901
  0
LINE
  8
0
 10
14.2239
 20
-46.8901
 11
11.906
 21
-47.5315
  0
LINE
  8
0
 10
11.906
 20
-47.5315
 11
9.55942
 21
-48.0585
  0
LINE
  8
0
 10
9.55942
 20
-48.0585
 11
7.18979
 21
-48.4696
  0
LINE
  8
0
 10
7.18979
 20
-48.4696
 11
4.80283
 21
-48.764
  0
LINE
  8
0
 10
4.80283
 20
-48.764
 11
2.40431
 21
-48.941
  0
LINE
  8
0
 10
2.40431
 20
-48.941
 11
1.5
 21
-48.9632
  0
LINE
  8
0
 10
1.5
 20
-48.9632
 11
1.5
 21
-29.9618
  0
ENDSEC
  0
SECTION
  2
OBJECTS
  0
DICTIONARY
  0
ENDSEC
  0
EOF
