  0
SECTION
  2
BLOCKS
  0
ENDSEC
  0
SECTION
  2
ENTITIES
  0
LINE
  8
0
 10
2.55151
 20
-51.9374
 11
5.09688
 21
-51.7496
  0
LINE
  8
0
 10
5.09688
 20
-51.7496
 11
7.62997
 21
-51.4372
  0
LINE
  8
0
 10
7.62997
 20
-51.4372
 11
10.1447
 21
-51.0008
  0
LINE
  8
0
 10
10.1447
 20
-51.0008
 11
12.635
 21
-50.4416
  0
LINE
  8
0
 10
12.635
 20
-50.4416
 11
15.0948
 21
-49.7609
  0
LINE
  8
0
 10
15.0948
 20
-49.7609
 11
17.5183
 21
-48.9603
  0
LINE
  8
0
 10
17.5183
 20
-48.9603
 11
19.8995
 21
-48.0417
  0
LINE
  8
0
 10
19.8995
 20
-48.0417
 11
22.2329
 21
-47.0074
  0
LINE
  8
0
 10
22.2329
 20
-47.0074
 11
24.5126
 21
-45.8599
  0
LINE
  8
0
 10
24.5126
 20
-45.8599
 11
26.7333
 21
-44.6019
  0
LINE
  8
0
 10
26.7333
 20
-44.6019
 11
28.8896
 21
-43.2364
  0
LINE
  8
0
 10
28.8896
 20
-43.2364
 11
30.9763
 21
-41.7668
  0
LINE
  8
0
 10
30.9763
 20
-41.7668
 11
32.9884
 21
-40.1965
  0
LINE
  8
0
 10
32.9884
 20
-40.1965
 11
34.9211
 21
-38.5294
  0
LINE
  8
0
 10
34.9211
 20
-38.5294
 11
36.7695
 21
-36.7695
  0
LINE
  8
0
 10
36.7695
 20
-36.7695
 11
38.5294
 21
-34.9211
  0
LINE
  8
0
 10
38.5294
 20
-34.9211
 11
40.1965
 21
-32.9884
  0
LINE
  8
0
 10
40.1965
 20
-32.9884
 11
41.7668
 21
-30.9763
  0
LINE
  8
0
 10
41.7668
 20
-30.9763
 11
43.2364
 21
-28.8896
  0
LINE
  8
0
 10
43.2364
 20
-28.8896
 11
44.6019
 21
-26.7333
  0
LINE
  8
0
 10
44.6019
 20
-26.7333
 11
45.8599
 21
-24.5126
  0
LINE
  8
0
 10
45.8599
 20
-24.5126
 11
47.0074
 21
-22.2329
  0
LINE
  8
0
 10
47.0074
 20
-22.2329
 11
48.0417
 21
-19.8995
  0
LINE
  8
0
 10
48.0417
 20
-19.8995
 11
48.9603
 21
-17.5183
  0
LINE
  8
0
 10
48.9603
 20
-17.5183
 11
49.7609
 21
-15.0948
  0
LINE
  8
0
 10
49.7609
 20
-15.0948
 11
50.4416
 21
-12.635
  0
LINE
  8
0
 10
50.4416
 20
-12.635
 11
51.0008
 21
-10.1447
  0
LINE
  8
0
 10
51.0008
 20
-10.1447
 11
51.4372
 21
-7.62997
  0
LINE
  8
0
 10
51.4372
 20
-7.62997
 11
51.7496
 21
-5.09688
  0
LINE
  8
0
 10
51.7496
 20
-5.09688
 11
51.9374
 21
-2.55151
  0
LINE
  8
0
 10
51.9374
 20
-2.55151
 11
52
 21
0
  0
LINE
  8
0
 10
52
 20
0
 11
51.9374
 21
2.55151
  0
LINE
  8
0
 10
51.9374
 20
2.55151
 11
51.7496
 21
5.09688
  0
LINE
  8
0
 10
51.7496
 20
5.09688
 11
51.4372
 21
7.62997
  0
LINE
  8
0
 10
51.4372
 20
7.62997
 11
51.0008
 21
10.1447
  0
LINE
  8
0
 10
51.0008
 20
10.1447
 11
50.4416
 21
12.635
  0
LINE
  8
0
 10
50.4416
 20
12.635
 11
49.7609
 21
15.0948
  0
LINE
  8
0
 10
49.7609
 20
15.0948
 11
48.9603
 21
17.5183
  0
LINE
  8
0
 10
48.9603
 20
17.5183
 11
48.0417
 21
19.8995
  0
LINE
  8
0
 10
48.0417
 20
19.8995
 11
47.0074
 21
22.2329
  0
LINE
  8
0
 10
47.0074
 20
22.2329
 11
45.8599
 21
24.5126
  0
LINE
  8
0
 10
45.8599
 20
24.5126
 11
44.6019
 21
26.7333
  0
LINE
  8
0
 10
44.6019
 20
26.7333
 11
43.2364
 21
28.8896
  0
LINE
  8
0
 10
43.2364
 20
28.8896
 11
41.7668
 21
30.9763
  0
LINE
  8
0
 10
41.7668
 20
30.9763
 11
40.1965
 21
32.9884
  0
LINE
  8
0
 10
40.1965
 20
32.9884
 11
38.5294
 21
34.9211
  0
LINE
  8
0
 10
38.5294
 20
34.9211
 11
36.7695
 21
36.7695
  0
LINE
  8
0
 10
36.7695
 20
36.7695
 11
34.9211
 21
38.5294
  0
LINE
  8
0
 10
34.9211
 20
38.5294
 11
32.9884
 21
40.1965
  0
LINE
  8
0
 10
32.9884
 20
40.1965
 11
30.9763
 21
41.7668
  0
LINE
  8
0
 10
30.9763
 20
41.7668
 11
28.8896
 21
43.2364
  0
LINE
  8
0
 10
28.8896
 20
43.2364
 11
26.7333
 21
44.6019
  0
LINE
  8
0
 10
26.7333
 20
44.6019
 11
24.5126
 21
45.8599
  0
LINE
  8
0
 10
24.5126
 20
45.8599
 11
22.2329
 21
47.0074
  0
LINE
  8
0
 10
22.2329
 20
47.0074
 11
19.8995
 21
48.0417
  0
LINE
  8
0
 10
19.8995
 20
48.0417
 11
17.5183
 21
48.9603
  0
LINE
  8
0
 10
17.5183
 20
48.9603
 11
15.0948
 21
49.7609
  0
LINE
  8
0
 10
15.0948
 20
49.7609
 11
12.635
 21
50.4416
  0
LINE
  8
0
 10
12.635
 20
50.4416
 11
10.1447
 21
51.0008
  0
LINE
  8
0
 10
10.1447
 20
51.0008
 11
7.62997
 21
51.4372
  0
LINE
  8
0
 10
7.62997
 20
51.4372
 11
5.09688
 21
51.7496
  0
LINE
  8
0
 10
5.09688
 20
51.7496
 11
2.55151
 21
51.9374
  0
LINE
  8
0
 10
2.55151
 20
51.9374
 11
0
 21
52
  0
LINE
  8
0
 10
0
 20
52
 11
-2.55151
 21
51.9374
  0
LINE
  8
0
 10
-2.55151
 20
51.9374
 11
-5.09688
 21
51.7496
  0
LINE
  8
0
 10
-5.09688
 20
51.7496
 11
-7.62997
 21
51.4372
  0
LINE
  8
0
 10
-7.62997
 20
51.4372
 11
-10.1447
 21
51.0008
  0
LINE
  8
0
 10
-10.1447
 20
51.0008
 11
-12.635
 21
50.4416
  0
LINE
  8
0
 10
-12.635
 20
50.4416
 11
-15.0948
 21
49.7609
  0
LINE
  8
0
 10
-15.0948
 20
49.7609
 11
-17.5183
 21
48.9603
  0
LINE
  8
0
 10
-17.5183
 20
48.9603
 11
-19.8995
 21
48.0417
  0
LINE
  8
0
 10
-19.8995
 20
48.0417
 11
-22.2329
 21
47.0074
  0
LINE
  8
0
 10
-22.2329
 20
47.0074
 11
-24.5126
 21
45.8599
  0
LINE
  8
0
 10
-24.5126
 20
45.8599
 11
-26.7333
 21
44.6019
  0
LINE
  8
0
 10
-26.7333
 20
44.6019
 11
-28.8896
 21
43.2364
  0
LINE
  8
0
 10
-28.8896
 20
43.2364
 11
-30.9763
 21
41.7668
  0
LINE
  8
0
 10
-30.9763
 20
41.7668
 11
-32.9884
 21
40.1965
  0
LINE
  8
0
 10
-32.9884
 20
40.1965
 11
-34.9211
 21
38.5294
  0
LINE
  8
0
 10
-34.9211
 20
38.5294
 11
-36.7695
 21
36.7695
  0
LINE
  8
0
 10
-36.7695
 20
36.7695
 11
-38.5294
 21
34.9211
  0
LINE
  8
0
 10
-38.5294
 20
34.9211
 11
-40.1965
 21
32.9884
  0
LINE
  8
0
 10
-40.1965
 20
32.9884
 11
-41.7668
 21
30.9763
  0
LINE
  8
0
 10
-41.7668
 20
30.9763
 11
-43.2364
 21
28.8896
  0
LINE
  8
0
 10
-43.2364
 20
28.8896
 11
-44.6019
 21
26.7333
  0
LINE
  8
0
 10
-44.6019
 20
26.7333
 11
-45.8599
 21
24.5126
  0
LINE
  8
0
 10
-45.8599
 20
24.5126
 11
-47.0074
 21
22.2329
  0
LINE
  8
0
 10
-47.0074
 20
22.2329
 11
-48.0417
 21
19.8995
  0
LINE
  8
0
 10
-48.0417
 20
19.8995
 11
-48.9603
 21
17.5183
  0
LINE
  8
0
 10
-48.9603
 20
17.5183
 11
-49.7609
 21
15.0948
  0
LINE
  8
0
 10
-49.7609
 20
15.0948
 11
-50.4416
 21
12.635
  0
LINE
  8
0
 10
-50.4416
 20
12.635
 11
-51.0008
 21
10.1447
  0
LINE
  8
0
 10
-51.0008
 20
10.1447
 11
-51.4372
 21
7.62997
  0
LINE
  8
0
 10
-51.4372
 20
7.62997
 11
-51.7496
 21
5.09688
  0
LINE
  8
0
 10
-51.7496
 20
5.09688
 11
-51.9374
 21
2.55151
  0
LINE
  8
0
 10
-51.9374
 20
2.55151
 11
-52
 21
0
  0
LINE
  8
0
 10
-52
 20
0
 11
-51.9374
 21
-2.55151
  0
LINE
  8
0
 10
-51.9374
 20
-2.55151
 11
-51.7496
 21
-5.09688
  0
LINE
  8
0
 10
-51.7496
 20
-5.09688
 11
-51.4372
 21
-7.62997
  0
LINE
  8
0
 10
-51.4372
 20
-7.62997
 11
-51.0008
 21
-10.1447
  0
LINE
  8
0
 10
-51.0008
 20
-10.1447
 11
-50.4416
 21
-12.635
  0
LINE
  8
0
 10
-50.4416
 20
-12.635
 11
-49.7609
 21
-15.0948
  0
LINE
  8
0
 10
-49.7609
 20
-15.0948
 11
-48.9603
 21
-17.5183
  0
LINE
  8
0
 10
-48.9603
 20
-17.5183
 11
-48.0417
 21
-19.8995
  0
LINE
  8
0
 10
-48.0417
 20
-19.8995
 11
-47.0074
 21
-22.2329
  0
LINE
  8
0
 10
-47.0074
 20
-22.2329
 11
-45.8599
 21
-24.5126
  0
LINE
  8
0
 10
-45.8599
 20
-24.5126
 11
-44.6019
 21
-26.7333
  0
LINE
  8
0
 10
-44.6019
 20
-26.7333
 11
-43.2364
 21
-28.8896
  0
LINE
  8
0
 10
-43.2364
 20
-28.8896
 11
-41.7668
 21
-30.9763
  0
LINE
  8
0
 10
-41.7668
 20
-30.9763
 11
-40.1965
 21
-32.9884
  0
LINE
  8
0
 10
-40.1965
 20
-32.9884
 11
-38.5294
 21
-34.9211
  0
LINE
  8
0
 10
-38.5294
 20
-34.9211
 11
-36.7695
 21
-36.7695
  0
LINE
  8
0
 10
-36.7695
 20
-36.7695
 11
-34.9211
 21
-38.5294
  0
LINE
  8
0
 10
-34.9211
 20
-38.5294
 11
-32.9884
 21
-40.1965
  0
LINE
  8
0
 10
-32.9884
 20
-40.1965
 11
-30.9763
 21
-41.7668
  0
LINE
  8
0
 10
-30.9763
 20
-41.7668
 11
-28.8896
 21
-43.2364
  0
LINE
  8
0
 10
-28.8896
 20
-43.2364
 11
-26.7333
 21
-44.6019
  0
LINE
  8
0
 10
-26.7333
 20
-44.6019
 11
-24.5126
 21
-45.8599
  0
LINE
  8
0
 10
-24.5126
 20
-45.8599
 11
-22.2329
 21
-47.0074
  0
LINE
  8
0
 10
-22.2329
 20
-47.0074
 11
-19.8995
 21
-48.0417
  0
LINE
  8
0
 10
-19.8995
 20
-48.0417
 11
-17.5183
 21
-48.9603
  0
LINE
  8
0
 10
-17.5183
 20
-48.9603
 11
-15.0948
 21
-49.7609
  0
LINE
  8
0
 10
-15.0948
 20
-49.7609
 11
-12.635
 21
-50.4416
  0
LINE
  8
0
 10
-12.635
 20
-50.4416
 11
-10.1447
 21
-51.0008
  0
LINE
  8
0
 10
-10.1447
 20
-51.0008
 11
-7.62997
 21
-51.4372
  0
LINE
  8
0
 10
-7.62997
 20
-51.4372
 11
-5.09688
 21
-51.7496
  0
LINE
  8
0
 10
-5.09688
 20
-51.7496
 11
-2.55151
 21
-51.9374
  0
LINE
  8
0
 10
-2.55151
 20
-51.9374
 11
0
 21
-52
  0
LINE
  8
0
 10
0
 20
-52
 11
2.55151
 21
-51.9374
  0
LINE
  8
0
 10
-23.1883
 20
43.1633
 11
-23.0984
 21
43.2141
  0
LINE
  8
0
 10
-23.0984
 20
43.2141
 11
-20.9502
 21
44.2955
  0
LINE
  8
0
 10
-20.9502
 20
44.2955
 11
-18.7515
 21
45.2701
  0
LINE
  8
0
 10
-18.7515
 20
45.2701
 11
-16.5076
 21
46.1357
  0
LINE
  8
0
 10
-16.5076
 20
46.1357
 11
-14.2239
 21
46.8901
  0
LINE
  8
0
 10
-14.2239
 20
46.8901
 11
-11.906
 21
47.5315
  0
LINE
  8
0
 10
-11.906
 20
47.5315
 11
-9.55942
 21
48.0585
  0
LINE
  8
0
 10
-9.55942
 20
48.0585
 11
-7.18979
 21
48.4696
  0
LINE
  8
0
 10
-7.18979
 20
48.4696
 11
-4.80283
 21
48.764
  0
LINE
  8
0
 10
-4.80283
 20
48.764
 11
-2.40431
 21
48.941
  0
LINE
  8
0
 10
-2.40431
 20
48.941
 11
-1.5
 21
48.9632
  0
LINE
  8
0
 10
-1.5
 20
48.9632
 11
-1.5
 21
29.9618
  0
LINE
  8
0
 10
-1.5
 20
29.9618
 11
-2.94051
 21
29.8555
  0
LINE
  8
0
 10
-2.94051
 20
29.8555
 11
-4.4019
 21
29.6753
  0
LINE
  8
0
 10
-4.4019
 20
29.6753
 11
-5.85271
 21
29.4236
  0
LINE
  8
0
 10
-5.85271
 20
29.4236
 11
-7.2894
 21
29.1009
  0
LINE
  8
0
 10
-7.2894
 20
29.1009
 11
-8.70853
 21
28.7082
  0
LINE
  8
0
 10
-8.70853
 20
28.7082
 11
-10.1067
 21
28.2463
  0
LINE
  8
0
 10
-10.1067
 20
28.2463
 11
-11.4805
 21
27.7164
  0
LINE
  8
0
 10
-11.4805
 20
27.7164
 11
-12.8266
 21
27.1197
  0
LINE
  8
0
 10
-12.8266
 20
27.1197
 11
-13.6781
 21
26.6911
  0
LINE
  8
0
 10
-13.6781
 20
26.6911
 11
-23.1883
 21
43.1633
  0
LINE
  8
0
 10
12.8266
 20
27.1197
 11
11.4805
 21
27.7164
  0
LINE
  8
0
 10
11.4805
 20
27.7164
 11
10.1067
 21
28.2463
  0
LINE
  8
0
 10
10.1067
 20
28.2463
 11
8.70853
 21
28.7082
  0
LINE
  8
0
 10
8.70853
 20
28.7082
 11
7.2894
 21
29.1009
  0
LINE
  8
0
 10
7.2894
 20
29.1009
 11
5.85271
 21
29.4236
  0
LINE
  8
0
 10
5.85271
 20
29.4236
 11
4.4019
 21
29.6753
  0
LINE
  8
0
 10
4.4019
 20
29.6753
 11
2.94051
 21
29.8555
  0
LINE
  8
0
 10
2.94051
 20
29.8555
 11
1.5
 21
29.9618
  0
LINE
  8
0
 10
1.5
 20
29.9618
 11
1.5
 21
48.9632
  0
LINE
  8
0
 10
1.5
 20
48.9632
 11
2.40431
 21
48.941
  0
LINE
  8
0
 10
2.40431
 20
48.941
 11
4.80283
 21
48.764
  0
LINE
  8
0
 10
4.80283
 20
48.764
 11
7.18979
 21
48.4696
  0
LINE
  8
0
 10
7.18979
 20
48.4696
 11
9.55942
 21
48.0585
  0
LINE
  8
0
 10
9.55942
 20
48.0585
 11
11.906
 21
47.5315
  0
LINE
  8
0
 10
11.906
 20
47.5315
 11
14.2239
 21
46.8901
  0
LINE
  8
0
 10
14.2239
 20
46.8901
 11
16.5076
 21
46.1357
  0
LINE
  8
0
 10
16.5076
 20
46.1357
 11
18.7515
 21
45.2701
  0
LINE
  8
0
 10
18.7515
 20
45.2701
 11
20.9502
 21
44.2955
  0
LINE
  8
0
 10
20.9502
 20
44.2955
 11
23.0984
 21
43.2141
  0
LINE
  8
0
 10
23.0984
 20
43.2141
 11
23.1883
 21
43.1633
  0
LINE
  8
0
 10
23.1883
 20
43.1633
 11
13.6781
 21
26.6911
  0
LINE
  8
0
 10
13.6781
 20
26.6911
 11
12.8266
 21
27.1197
  0
LINE
  8
0
 10
-41.6548
 20
25.7815
 11
-40.742
 21
27.2229
  0
LINE
  8
0
 10
-40.742
 20
27.2229
 11
-39.3572
 21
29.1893
  0
LINE
  8
0
 10
-39.3572
 20
29.1893
 11
-37.8775
 21
31.0853
  0
LINE
  8
0
 10
-37.8775
 20
31.0853
 11
-36.3066
 21
32.9064
  0
LINE
  8
0
 10
-36.3066
 20
32.9064
 11
-34.6482
 21
34.6482
  0
LINE
  8
0
 10
-34.6482
 20
34.6482
 11
-32.9064
 21
36.3066
  0
LINE
  8
0
 10
-32.9064
 20
36.3066
 11
-31.0853
 21
37.8775
  0
LINE
  8
0
 10
-31.0853
 20
37.8775
 11
-29.1893
 21
39.3572
  0
LINE
  8
0
 10
-29.1893
 20
39.3572
 11
-27.2229
 21
40.742
  0
LINE
  8
0
 10
-27.2229
 20
40.742
 11
-25.7815
 21
41.6548
  0
LINE
  8
0
 10
-25.7815
 20
41.6548
 11
-16.2764
 21
25.1915
  0
LINE
  8
0
 10
-16.2764
 20
25.1915
 11
-16.6671
 21
24.9441
  0
LINE
  8
0
 10
-16.6671
 20
24.9441
 11
-17.871
 21
24.0962
  0
LINE
  8
0
 10
-17.871
 20
24.0962
 11
-19.0318
 21
23.1903
  0
LINE
  8
0
 10
-19.0318
 20
23.1903
 11
-20.1468
 21
22.2285
  0
LINE
  8
0
 10
-20.1468
 20
22.2285
 11
-21.2132
 21
21.2132
  0
LINE
  8
0
 10
-21.2132
 20
21.2132
 11
-22.2285
 21
20.1468
  0
LINE
  8
0
 10
-22.2285
 20
20.1468
 11
-23.1903
 21
19.0318
  0
LINE
  8
0
 10
-23.1903
 20
19.0318
 11
-24.0962
 21
17.871
  0
LINE
  8
0
 10
-24.0962
 20
17.871
 11
-24.9441
 21
16.6671
  0
LINE
  8
0
 10
-24.9441
 20
16.6671
 11
-25.1915
 21
16.2764
  0
LINE
  8
0
 10
-25.1915
 20
16.2764
 11
-41.6548
 21
25.7815
  0
LINE
  8
0
 10
24.9441
 20
16.6671
 11
24.0962
 21
17.871
  0
LINE
  8
0
 10
24.0962
 20
17.871
 11
23.1903
 21
19.0318
  0
LINE
  8
0
 10
23.1903
 20
19.0318
 11
22.2285
 21
20.1468
  0
LINE
  8
0
 10
22.2285
 20
20.1468
 11
21.2132
 21
21.2132
  0
LINE
  8
0
 10
21.2132
 20
21.2132
 11
20.1468
 21
22.2285
  0
LINE
  8
0
 10
20.1468
 20
22.2285
 11
19.0318
 21
23.1903
  0
LINE
  8
0
 10
19.0318
 20
23.1903
 11
17.871
 21
24.0962
  0
LINE
  8
0
 10
17.871
 20
24.0962
 11
16.6671
 21
24.9441
  0
LINE
  8
0
 10
16.6671
 20
24.9441
 11
16.2764
 21
25.1915
  0
LINE
  8
0
 10
16.2764
 20
25.1915
 11
25.7815
 21
41.6548
  0
LINE
  8
0
 10
25.7815
 20
41.6548
 11
27.2229
 21
40.742
  0
LINE
  8
0
 10
27.2229
 20
40.742
 11
29.1893
 21
39.3572
  0
LINE
  8
0
 10
29.1893
 20
39.3572
 11
31.0853
 21
37.8775
  0
LINE
  8
0
 10
31.0853
 20
37.8775
 11
32.9064
 21
36.3066
  0
LINE
  8
0
 10
32.9064
 20
36.3066
 11
34.6482
 21
34.6482
  0
LINE
  8
0
 10
34.6482
 20
34.6482
 11
36.3066
 21
32.9064
  0
LINE
  8
0
 10
36.3066
 20
32.9064
 11
37.8775
 21
31.0853
  0
LINE
  8
0
 10
37.8775
 20
31.0853
 11
39.3572
 21
29.1893
  0
LINE
  8
0
 10
39.3572
 20
29.1893
 11
40.742
 21
27.2229
  0
LINE
  8
0
 10
40.742
 20
27.2229
 11
41.6548
 21
25.7815
  0
LINE
  8
0
 10
41.6548
 20
25.7815
 11
25.1915
 21
16.2764
  0
LINE
  8
0
 10
25.1915
 20
16.2764
 11
24.9441
 21
16.6671
  0
LINE
  8
0
 10
-13.1774
 20
25.8239
 11
-12.3991
 21
26.2157
  0
LINE
  8
0
 10
-12.3991
 20
26.2157
 11
-11.0978
 21
26.7925
  0
LINE
  8
0
 10
-11.0978
 20
26.7925
 11
-9.76979
 21
27.3048
  0
LINE
  8
0
 10
-9.76979
 20
27.3048
 11
-8.41824
 21
27.7513
  0
LINE
  8
0
 10
-8.41824
 20
27.7513
 11
-7.04642
 21
28.1309
  0
LINE
  8
0
 10
-7.04642
 20
28.1309
 11
-5.65761
 21
28.4428
  0
LINE
  8
0
 10
-5.65761
 20
28.4428
 11
-4.25517
 21
28.6861
  0
LINE
  8
0
 10
-4.25517
 20
28.6861
 11
-2.84248
 21
28.8604
  0
LINE
  8
0
 10
-2.84248
 20
28.8604
 11
-1.5
 21
28.9594
  0
LINE
  8
0
 10
-1.5
 20
28.9594
 11
-1.5
 21
7.85681
  0
LINE
  8
0
 10
-1.5
 20
7.85681
 11
-1.56071
 21
7.84627
  0
LINE
  8
0
 10
-1.56071
 20
7.84627
 11
-1.94383
 21
7.76024
  0
LINE
  8
0
 10
-1.94383
 20
7.76024
 11
-2.32227
 21
7.65552
  0
LINE
  8
0
 10
-2.32227
 20
7.65552
 11
-2.6293
 21
7.55409
  0
LINE
  8
0
 10
-2.6293
 20
7.55409
 11
-13.1774
 21
25.8239
  0
LINE
  8
0
 10
2.32227
 20
7.65552
 11
1.94383
 21
7.76024
  0
LINE
  8
0
 10
1.94383
 20
7.76024
 11
1.56071
 21
7.84627
  0
LINE
  8
0
 10
1.56071
 20
7.84627
 11
1.5
 21
7.85681
  0
LINE
  8
0
 10
1.5
 20
7.85681
 11
1.5
 21
28.9594
  0
LINE
  8
0
 10
1.5
 20
28.9594
 11
2.84248
 21
28.8604
  0
LINE
  8
0
 10
2.84248
 20
28.8604
 11
4.25517
 21
28.6861
  0
LINE
  8
0
 10
4.25517
 20
28.6861
 11
5.65761
 21
28.4428
  0
LINE
  8
0
 10
5.65761
 20
28.4428
 11
7.04642
 21
28.1309
  0
LINE
  8
0
 10
7.04642
 20
28.1309
 11
8.41824
 21
27.7513
  0
LINE
  8
0
 10
8.41824
 20
27.7513
 11
9.76979
 21
27.3048
  0
LINE
  8
0
 10
9.76979
 20
27.3048
 11
11.0978
 21
26.7925
  0
LINE
  8
0
 10
11.0978
 20
26.7925
 11
12.3991
 21
26.2157
  0
LINE
  8
0
 10
12.3991
 20
26.2157
 11
13.1774
 21
25.8239
  0
LINE
  8
0
 10
13.1774
 20
25.8239
 11
2.6293
 21
7.55409
  0
LINE
  8
0
 10
2.6293
 20
7.55409
 11
2.32227
 21
7.65552
  0
LINE
  8
0
 10
-24.325
 20
15.7761
 11
-24.1126
 21
16.1115
  0
LINE
  8
0
 10
-24.1126
 20
16.1115
 11
-23.293
 21
17.2753
  0
LINE
  8
0
 10
-23.293
 20
17.2753
 11
-22.4173
 21
18.3974
  0
LINE
  8
0
 10
-22.4173
 20
18.3974
 11
-21.4876
 21
19.4752
  0
LINE
  8
0
 10
-21.4876
 20
19.4752
 11
-20.5061
 21
20.5061
  0
LINE
  8
0
 10
-20.5061
 20
20.5061
 11
-19.4752
 21
21.4876
  0
LINE
  8
0
 10
-19.4752
 20
21.4876
 11
-18.3974
 21
22.4173
  0
LINE
  8
0
 10
-18.3974
 20
22.4173
 11
-17.2753
 21
23.293
  0
LINE
  8
0
 10
-17.2753
 20
23.293
 11
-16.1115
 21
24.1126
  0
LINE
  8
0
 10
-16.1115
 20
24.1126
 11
-15.7761
 21
24.325
  0
LINE
  8
0
 10
-15.7761
 20
24.325
 11
-5.22685
 21
6.05321
  0
LINE
  8
0
 10
-5.22685
 20
6.05321
 11
-5.37247
 21
5.9276
  0
LINE
  8
0
 10
-5.37247
 20
5.9276
 11
-5.65685
 21
5.65685
  0
LINE
  8
0
 10
-5.65685
 20
5.65685
 11
-5.9276
 21
5.37247
  0
LINE
  8
0
 10
-5.9276
 20
5.37247
 11
-6.05321
 21
5.22685
  0
LINE
  8
0
 10
-6.05321
 20
5.22685
 11
-24.325
 21
15.7761
  0
LINE
  8
0
 10
5.9276
 20
5.37247
 11
5.65685
 21
5.65685
  0
LINE
  8
0
 10
5.65685
 20
5.65685
 11
5.37247
 21
5.9276
  0
LINE
  8
0
 10
5.37247
 20
5.9276
 11
5.22685
 21
6.05321
  0
LINE
  8
0
 10
5.22685
 20
6.05321
 11
15.7761
 21
24.325
  0
LINE
  8
0
 10
15.7761
 20
24.325
 11
16.1115
 21
24.1126
  0
LINE
  8
0
 10
16.1115
 20
24.1126
 11
17.2753
 21
23.293
  0
LINE
  8
0
 10
17.2753
 20
23.293
 11
18.3974
 21
22.4173
  0
LINE
  8
0
 10
18.3974
 20
22.4173
 11
19.4752
 21
21.4876
  0
LINE
  8
0
 10
19.4752
 20
21.4876
 11
20.5061
 21
20.5061
  0
LINE
  8
0
 10
20.5061
 20
20.5061
 11
21.4876
 21
19.4752
  0
LINE
  8
0
 10
21.4876
 20
19.4752
 11
22.4173
 21
18.3974
  0
LINE
  8
0
 10
22.4173
 20
18.3974
 11
23.293
 21
17.2753
  0
LINE
  8
0
 10
23.293
 20
17.2753
 11
24.1126
 21
16.1115
  0
LINE
  8
0
 10
24.1126
 20
16.1115
 11
24.325
 21
15.7761
  0
LINE
  8
0
 10
24.325
 20
15.7761
 11
6.05321
 21
5.22685
  0
LINE
  8
0
 10
6.05321
 20
5.22685
 11
5.9276
 21
5.37247
  0
LINE
  8
0
 10
-48.941
 20
2.40431
 11
-48.764
 21
4.80283
  0
LINE
  8
0
 10
-48.764
 20
4.80283
 11
-48.4696
 21
7.18979
  0
LINE
  8
0
 10
-48.4696
 20
7.18979
 11
-48.0585
 21
9.55942
  0
LINE
  8
0
 10
-48.0585
 20
9.55942
 11
-47.5315
 21
11.906
  0
LINE
  8
0
 10
-47.5315
 20
11.906
 11
-46.8901
 21
14.2239
  0
LINE
  8
0
 10
-46.8901
 20
14.2239
 11
-46.1357
 21
16.5076
  0
LINE
  8
0
 10
-46.1357
 20
16.5076
 11
-45.2701
 21
18.7515
  0
LINE
  8
0
 10
-45.2701
 20
18.7515
 11
-44.2955
 21
20.9502
  0
LINE
  8
0
 10
-44.2955
 20
20.9502
 11
-43.2141
 21
23.0984
  0
LINE
  8
0
 10
-43.2141
 20
23.0984
 11
-43.1633
 21
23.1883
  0
LINE
  8
0
 10
-43.1633
 20
23.1883
 11
-26.6911
 21
13.6781
  0
LINE
  8
0
 10
-26.6911
 20
13.6781
 11
-27.1197
 21
12.8266
  0
LINE
  8
0
 10
-27.1197
 20
12.8266
 11
-27.7164
 21
11.4805
  0
LINE
  8
0
 10
-27.7164
 20
11.4805
 11
-28.2463
 21
10.1067
  0
LINE
  8
0
 10
-28.2463
 20
10.1067
 11
-28.7082
 21
8.70853
  0
LINE
  8
0
 10
-28.7082
 20
8.70853
 11
-29.1009
 21
7.2894
  0
LINE
  8
0
 10
-29.1009
 20
7.2894
 11
-29.4236
 21
5.85271
  0
LINE
  8
0
 10
-29.4236
 20
5.85271
 11
-29.6753
 21
4.4019
  0
LINE
  8
0
 10
-29.6753
 20
4.4019
 11
-29.8555
 21
2.94051
  0
LINE
  8
0
 10
-29.8555
 20
2.94051
 11
-29.9618
 21
1.5
  0
LINE
  8
0
 10
-29.9618
 20
1.5
 11
-48.9632
 21
1.5
  0
LINE
  8
0
 10
-48.9632
 20
1.5
 11
-48.941
 21
2.40431
  0
LINE
  8
0
 10
29.9618
 20
1.5
 11
29.8555
 21
2.94051
  0
LINE
  8
0
 10
29.8555
 20
2.94051
 11
29.6753
 21
4.4019
  0
LINE
  8
0
 10
29.6753
 20
4.4019
 11
29.4236
 21
5.85271
  0
LINE
  8
0
 10
29.4236
 20
5.85271
 11
29.1009
 21
7.2894
  0
LINE
  8
0
 10
29.1009
 20
7.2894
 11
28.7082
 21
8.70853
  0
LINE
  8
0
 10
28.7082
 20
8.70853
 11
28.2463
 21
10.1067
  0
LINE
  8
0
 10
28.2463
 20
10.1067
 11
27.7164
 21
11.4805
  0
LINE
  8
0
 10
27.7164
 20
11.4805
 11
27.1197
 21
12.8266
  0
LINE
  8
0
 10
27.1197
 20
12.8266
 11
26.6911
 21
13.6781
  0
LINE
  8
0
 10
26.6911
 20
13.6781
 11
43.1633
 21
23.1883
  0
LINE
  8
0
 10
43.1633
 20
23.1883
 11
43.2141
 21
23.0984
  0
LINE
  8
0
 10
43.2141
 20
23.0984
 11
44.2955
 21
20.9502
  0
LINE
  8
0
 10
44.2955
 20
20.9502
 11
45.2701
 21
18.7515
  0
LINE
  8
0
 10
45.2701
 20
18.7515
 11
46.1357
 21
16.5076
  0
LINE
  8
0
 10
46.1357
 20
16.5076
 11
46.8901
 21
14.2239
  0
LINE
  8
0
 10
46.8901
 20
14.2239
 11
47.5315
 21
11.906
  0
LINE
  8
0
 10
47.5315
 20
11.906
 11
48.0585
 21
9.55942
  0
LINE
  8
0
 10
48.0585
 20
9.55942
 11
48.4696
 21
7.18979
  0
LINE
  8
0
 10
48.4696
 20
7.18979
 11
48.764
 21
4.80283
  0
LINE
  8
0
 10
48.764
 20
4.80283
 11
48.941
 21
2.40431
  0
LINE
  8
0
 10
48.941
 20
2.40431
 11
48.9632
 21
1.5
  0
LINE
  8
0
 10
48.9632
 20
1.5
 11
29.9618
 21
1.5
  0
LINE
  8
0
 10
-28.8604
 20
2.84248
 11
-28.6861
 21
4.25517
  0
LINE
  8
0
 10
-28.6861
 20
4.25517
 11
-28.4428
 21
5.65761
  0
LINE
  8
0
 10
-28.4428
 20
5.65761
 11
-28.1309
 21
7.04642
  0
LINE
  8
0
 10
-28.1309
 20
7.04642
 11
-27.7513
 21
8.41824
  0
LINE
  8
0
 10
-27.7513
 20
8.41824
 11
-27.3048
 21
9.76979
  0
LINE
  8
0
 10
-27.3048
 20
9.76979
 11
-26.7925
 21
11.0978
  0
LINE
  8
0
 10
-26.7925
 20
11.0978
 11
-26.2157
 21
12.3991
  0
LINE
  8
0
 10
-26.2157
 20
12.3991
 11
-25.8239
 21
13.1774
  0
LINE
  8
0
 10
-25.8239
 20
13.1774
 11
-7.55409
 21
2.6293
  0
LINE
  8
0
 10
-7.55409
 20
2.6293
 11
-7.65552
 21
2.32227
  0
LINE
  8
0
 10
-7.65552
 20
2.32227
 11
-7.76024
 21
1.94383
  0
LINE
  8
0
 10
-7.76024
 20
1.94383
 11
-7.84627
 21
1.56071
  0
LINE
  8
0
 10
-7.84627
 20
1.56071
 11
-7.85681
 21
1.5
  0
LINE
  8
0
 10
-7.85681
 20
1.5
 11
-28.9594
 21
1.5
  0
LINE
  8
0
 10
-28.9594
 20
1.5
 11
-28.8604
 21
2.84248
  0
LINE
  8
0
 10
7.85681
 20
1.5
 11
7.84627
 21
1.56071
  0
LINE
  8
0
 10
7.84627
 20
1.56071
 11
7.76024
 21
1.94383
  0
LINE
  8
0
 10
7.76024
 20
1.94383
 11
7.65552
 21
2.32227
  0
LINE
  8
0
 10
7.65552
 20
2.32227
 11
7.55409
 21
2.6293
  0
LINE
  8
0
 10
7.55409
 20
2.6293
 11
25.8239
 21
13.1774
  0
LINE
  8
0
 10
25.8239
 20
13.1774
 11
26.2157
 21
12.3991
  0
LINE
  8
0
 10
26.2157
 20
12.3991
 11
26.7925
 21
11.0978
  0
LINE
  8
0
 10
26.7925
 20
11.0978
 11
27.3048
 21
9.76979
  0
LINE
  8
0
 10
27.3048
 20
9.76979
 11
27.7513
 21
8.41824
  0
LINE
  8
0
 10
27.7513
 20
8.41824
 11
28.1309
 21
7.04642
  0
LINE
  8
0
 10
28.1309
 20
7.04642
 11
28.4428
 21
5.65761
  0
LINE
  8
0
 10
28.4428
 20
5.65761
 11
28.6861
 21
4.25517
  0
LINE
  8
0
 10
28.6861
 20
4.25517
 11
28.8604
 21
2.84248
  0
LINE
  8
0
 10
28.8604
 20
2.84248
 11
28.9594
 21
1.5
  0
LINE
  8
0
 10
28.9594
 20
1.5
 11
7.85681
 21
1.5
  0
LINE
  8
0
 10
-0.147202
 20
-2.99638
 11
-0.294037
 21
-2.98555
  0
LINE
  8
0
 10
-0.294037
 20
-2.98555
 11
-0.440186
 21
-2.96753
  0
LINE
  8
0
 10
-0.440186
 20
-2.96753
 11
-0.585266
 21
-2.94235
  0
LINE
  8
0
 10
-0.585266
 20
-2.94235
 11
-0.728928
 21
-2.91008
  0
LINE
  8
0
 10
-0.728928
 20
-2.91008
 11
-0.87085
 21
-2.87082
  0
LINE
  8
0
 10
-0.87085
 20
-2.87082
 11
-1.01067
 21
-2.82463
  0
LINE
  8
0
 10
-1.01067
 20
-2.82463
 11
-1.14804
 21
-2.77164
  0
LINE
  8
0
 10
-1.14804
 20
-2.77164
 11
-1.28265
 21
-2.71196
  0
LINE
  8
0
 10
-1.28265
 20
-2.71196
 11
-1.41418
 21
-2.64575
  0
LINE
  8
0
 10
-1.41418
 20
-2.64575
 11
-1.5423
 21
-2.57318
  0
LINE
  8
0
 10
-1.5423
 20
-2.57318
 11
-1.6667
 21
-2.4944
  0
LINE
  8
0
 10
-1.6667
 20
-2.4944
 11
-1.78709
 21
-2.40962
  0
LINE
  8
0
 10
-1.78709
 20
-2.40962
 11
-1.90317
 21
-2.31903
  0
LINE
  8
0
 10
-1.90317
 20
-2.31903
 11
-2.01466
 21
-2.22284
  0
LINE
  8
0
 10
-2.01466
 20
-2.22284
 11
-2.12131
 21
-2.12131
  0
LINE
  8
0
 10
-2.12131
 20
-2.12131
 11
-2.22284
 21
-2.01466
  0
LINE
  8
0
 10
-2.22284
 20
-2.01466
 11
-2.31903
 21
-1.90317
  0
LINE
  8
0
 10
-2.31903
 20
-1.90317
 11
-2.40962
 21
-1.78709
  0
LINE
  8
0
 10
-2.40962
 20
-1.78709
 11
-2.4944
 21
-1.6667
  0
LINE
  8
0
 10
-2.4944
 20
-1.6667
 11
-2.57318
 21
-1.5423
  0
LINE
  8
0
 10
-2.57318
 20
-1.5423
 11
-2.64575
 21
-1.41418
  0
LINE
  8
0
 10
-2.64575
 20
-1.41418
 11
-2.71196
 21
-1.28265
  0
LINE
  8
0
 10
-2.71196
 20
-1.28265
 11
-2.77164
 21
-1.14804
  0
LINE
  8
0
 10
-2.77164
 20
-1.14804
 11
-2.82463
 21
-1.01067
  0
LINE
  8
0
 10
-2.82463
 20
-1.01067
 11
-2.87082
 21
-0.87085
  0
LINE
  8
0
 10
-2.87082
 20
-0.87085
 11
-2.91008
 21
-0.728928
  0
LINE
  8
0
 10
-2.91008
 20
-0.728928
 11
-2.94235
 21
-0.585266
  0
LINE
  8
0
 10
-2.94235
 20
-0.585266
 11
-2.96753
 21
-0.440186
  0
LINE
  8
0
 10
-2.96753
 20
-0.440186
 11
-2.98555
 21
-0.294037
  0
LINE
  8
0
 10
-2.98555
 20
-0.294037
 11
-2.99638
 21
-0.147202
  0
LINE
  8
0
 10
-2.99638
 20
-0.147202
 11
-3
 21
0
  0
LINE
  8
0
 10
-3
 20
0
 11
-2.99638
 21
0.147202
  0
LINE
  8
0
 10
-2.99638
 20
0.147202
 11
-2.98555
 21
0.294037
  0
LINE
  8
0
 10
-2.98555
 20
0.294037
 11
-2.96753
 21
0.440186
  0
LINE
  8
0
 10
-2.96753
 20
0.440186
 11
-2.94235
 21
0.585266
  0
LINE
  8
0
 10
-2.94235
 20
0.585266
 11
-2.91008
 21
0.728928
  0
LINE
  8
0
 10
-2.91008
 20
0.728928
 11
-2.87082
 21
0.87085
  0
LINE
  8
0
 10
-2.87082
 20
0.87085
 11
-2.82463
 21
1.01067
  0
LINE
  8
0
 10
-2.82463
 20
1.01067
 11
-2.77164
 21
1.14804
  0
LINE
  8
0
 10
-2.77164
 20
1.14804
 11
-2.71196
 21
1.28265
  0
LINE
  8
0
 10
-2.71196
 20
1.28265
 11
-2.64575
 21
1.41418
  0
LINE
  8
0
 10
-2.64575
 20
1.41418
 11
-2.57318
 21
1.5423
  0
LINE
  8
0
 10
-2.57318
 20
1.5423
 11
-2.4944
 21
1.6667
  0
LINE
  8
0
 10
-2.4944
 20
1.6667
 11
-2.40962
 21
1.78709
  0
LINE
  8
0
 10
-2.40962
 20
1.78709
 11
-2.31903
 21
1.90317
  0
LINE
  8
0
 10
-2.31903
 20
1.90317
 11
-2.22284
 21
2.01466
  0
LINE
  8
0
 10
-2.22284
 20
2.01466
 11
-2.12131
 21
2.12131
  0
LINE
  8
0
 10
-2.12131
 20
2.12131
 11
-2.01466
 21
2.22284
  0
LINE
  8
0
 10
-2.01466
 20
2.22284
 11
-1.90317
 21
2.31903
  0
LINE
  8
0
 10
-1.90317
 20
2.31903
 11
-1.78709
 21
2.40962
  0
LINE
  8
0
 10
-1.78709
 20
2.40962
 11
-1.6667
 21
2.4944
  0
LINE
  8
0
 10
-1.6667
 20
2.4944
 11
-1.5423
 21
2.57318
  0
LINE
  8
0
 10
-1.5423
 20
2.57318
 11
-1.41418
 21
2.64575
  0
LINE
  8
0
 10
-1.41418
 20
2.64575
 11
-1.28265
 21
2.71196
  0
LINE
  8
0
 10
-1.28265
 20
2.71196
 11
-1.14804
 21
2.77164
  0
LINE
  8
0
 10
-1.14804
 20
2.77164
 11
-1.01067
 21
2.82463
  0
LINE
  8
0
 10
-1.01067
 20
2.82463
 11
-0.87085
 21
2.87082
  0
LINE
  8
0
 10
-0.87085
 20
2.87082
 11
-0.728928
 21
2.91008
  0
LINE
  8
0
 10
-0.728928
 20
2.91008
 11
-0.585266
 21
2.94235
  0
LINE
  8
0
 10
-0.585266
 20
2.94235
 11
-0.440186
 21
2.96753
  0
LINE
  8
0
 10
-0.440186
 20
2.96753
 11
-0.294037
 21
2.98555
  0
LINE
  8
0
 10
-0.294037
 20
2.98555
 11
-0.147202
 21
2.99638
  0
LINE
  8
0
 10
-0.147202
 20
2.99638
 11
0
 21
3
  0
LINE
  8
0
 10
0
 20
3
 11
0.147202
 21
2.99638
  0
LINE
  8
0
 10
0.147202
 20
2.99638
 11
0.294037
 21
2.98555
  0
LINE
  8
0
 10
0.294037
 20
2.98555
 11
0.440186
 21
2.96753
  0
LINE
  8
0
 10
0.440186
 20
2.96753
 11
0.585266
 21
2.94235
  0
LINE
  8
0
 10
0.585266
 20
2.94235
 11
0.728928
 21
2.91008
  0
LINE
  8
0
 10
0.728928
 20
2.91008
 11
0.87085
 21
2.87082
  0
LINE
  8
0
 10
0.87085
 20
2.87082
 11
1.01067
 21
2.82463
  0
LINE
  8
0
 10
1.01067
 20
2.82463
 11
1.14804
 21
2.77164
  0
LINE
  8
0
 10
1.14804
 20
2.77164
 11
1.28265
 21
2.71196
  0
LINE
  8
0
 10
1.28265
 20
2.71196
 11
1.41418
 21
2.64575
  0
LINE
  8
0
 10
1.41418
 20
2.64575
 11
1.5423
 21
2.57318
  0
LINE
  8
0
 10
1.5423
 20
2.57318
 11
1.6667
 21
2.4944
  0
LINE
  8
0
 10
1.6667
 20
2.4944
 11
1.78709
 21
2.40962
  0
LINE
  8
0
 10
1.78709
 20
2.40962
 11
1.90317
 21
2.31903
  0
LINE
  8
0
 10
1.90317
 20
2.31903
 11
2.01466
 21
2.22284
  0
LINE
  8
0
 10
2.01466
 20
2.22284
 11
2.12131
 21
2.12131
  0
LINE
  8
0
 10
2.12131
 20
2.12131
 11
2.22284
 21
2.01466
  0
LINE
  8
0
 10
2.22284
 20
2.01466
 11
2.31903
 21
1.90317
  0
LINE
  8
0
 10
2.31903
 20
1.90317
 11
2.40962
 21
1.78709
  0
LINE
  8
0
 10
2.40962
 20
1.78709
 11
2.4944
 21
1.6667
  0
LINE
  8
0
 10
2.4944
 20
1.6667
 11
2.57318
 21
1.5423
  0
LINE
  8
0
 10
2.57318
 20
1.5423
 11
2.64575
 21
1.41418
  0
LINE
  8
0
 10
2.64575
 20
1.41418
 11
2.71196
 21
1.28265
  0
LINE
  8
0
 10
2.71196
 20
1.28265
 11
2.77164
 21
1.14804
  0
LINE
  8
0
 10
2.77164
 20
1.14804
 11
2.82463
 21
1.01067
  0
LINE
  8
0
 10
2.82463
 20
1.01067
 11
2.87082
 21
0.87085
  0
LINE
  8
0
 10
2.87082
 20
0.87085
 11
2.91008
 21
0.728928
  0
LINE
  8
0
 10
2.91008
 20
0.728928
 11
2.94235
 21
0.585266
  0
LINE
  8
0
 10
2.94235
 20
0.585266
 11
2.96753
 21
0.440186
  0
LINE
  8
0
 10
2.96753
 20
0.440186
 11
2.98555
 21
0.294037
  0
LINE
  8
0
 10
2.98555
 20
0.294037
 11
2.99638
 21
0.147202
  0
LINE
  8
0
 10
2.99638
 20
0.147202
 11
3
 21
0
  0
LINE
  8
0
 10
3
 20
0
 11
2.99638
 21
-0.147202
  0
LINE
  8
0
 10
2.99638
 20
-0.147202
 11
2.98555
 21
-0.294037
  0
LINE
  8
0
 10
2.98555
 20
-0.294037
 11
2.96753
 21
-0.440186
  0
LINE
  8
0
 10
2.96753
 20
-0.440186
 11
2.94235
 21
-0.585266
  0
LINE
  8
0
 10
2.94235
 20
-0.585266
 11
2.91008
 21
-0.728928
  0
LINE
  8
0
 10
2.91008
 20
-0.728928
 11
2.87082
 21
-0.87085
  0
LINE
  8
0
 10
2.87082
 20
-0.87085
 11
2.82463
 21
-1.01067
  0
LINE
  8
0
 10
2.82463
 20
-1.01067
 11
2.77164
 21
-1.14804
  0
LINE
  8
0
 10
2.77164
 20
-1.14804
 11
2.71196
 21
-1.28265
  0
LINE
  8
0
 10
2.71196
 20
-1.28265
 11
2.64575
 21
-1.41418
  0
LINE
  8
0
 10
2.64575
 20
-1.41418
 11
2.57318
 21
-1.5423
  0
LINE
  8
0
 10
2.57318
 20
-1.5423
 11
2.4944
 21
-1.6667
  0
LINE
  8
0
 10
2.4944
 20
-1.6667
 11
2.40962
 21
-1.78709
  0
LINE
  8
0
 10
2.40962
 20
-1.78709
 11
2.31903
 21
-1.90317
  0
LINE
  8
0
 10
2.31903
 20
-1.90317
 11
2.22284
 21
-2.01466
  0
LINE
  8
0
 10
2.22284
 20
-2.01466
 11
2.12131
 21
-2.12131
  0
LINE
  8
0
 10
2.12131
 20
-2.12131
 11
2.01466
 21
-2.22284
  0
LINE
  8
0
 10
2.01466
 20
-2.22284
 11
1.90317
 21
-2.31903
  0
LINE
  8
0
 10
1.90317
 20
-2.31903
 11
1.78709
 21
-2.40962
  0
LINE
  8
0
 10
1.78709
 20
-2.40962
 11
1.6667
 21
-2.4944
  0
LINE
  8
0
 10
1.6667
 20
-2.4944
 11
1.5423
 21
-2.57318
  0
LINE
  8
0
 10
1.5423
 20
-2.57318
 11
1.41418
 21
-2.64575
  0
LINE
  8
0
 10
1.41418
 20
-2.64575
 11
1.28265
 21
-2.71196
  0
LINE
  8
0
 10
1.28265
 20
-2.71196
 11
1.14804
 21
-2.77164
  0
LINE
  8
0
 10
1.14804
 20
-2.77164
 11
1.01067
 21
-2.82463
  0
LINE
  8
0
 10
1.01067
 20
-2.82463
 11
0.87085
 21
-2.87082
  0
LINE
  8
0
 10
0.87085
 20
-2.87082
 11
0.728928
 21
-2.91008
  0
LINE
  8
0
 10
0.728928
 20
-2.91008
 11
0.585266
 21
-2.94235
  0
LINE
  8
0
 10
0.585266
 20
-2.94235
 11
0.440186
 21
-2.96753
  0
LINE
  8
0
 10
0.440186
 20
-2.96753
 11
0.294037
 21
-2.98555
  0
LINE
  8
0
 10
0.294037
 20
-2.98555
 11
0.147202
 21
-2.99638
  0
LINE
  8
0
 10
0.147202
 20
-2.99638
 11
0
 21
-3
  0
LINE
  8
0
 10
0
 20
-3
 11
-0.147202
 21
-2.99638
  0
LINE
  8
0
 10
43.1633
 20
-23.1883
 11
26.6911
 21
-13.6781
  0
LINE
  8
0
 10
26.6911
 20
-13.6781
 11
27.1197
 21
-12.8266
  0
LINE
  8
0
 10
27.1197
 20
-12.8266
 11
27.7164
 21
-11.4805
  0
LINE
  8
0
 10
27.7164
 20
-11.4805
 11
28.2463
 21
-10.1067
  0
LINE
  8
0
 10
28.2463
 20
-10.1067
 11
28.7082
 21
-8.70853
  0
LINE
  8
0
 10
28.7082
 20
-8.70853
 11
29.1009
 21
-7.2894
  0
LINE
  8
0
 10
29.1009
 20
-7.2894
 11
29.4236
 21
-5.85271
  0
LINE
  8
0
 10
29.4236
 20
-5.85271
 11
29.6753
 21
-4.4019
  0
LINE
  8
0
 10
29.6753
 20
-4.4019
 11
29.8555
 21
-2.94051
  0
LINE
  8
0
 10
29.8555
 20
-2.94051
 11
29.9618
 21
-1.5
  0
LINE
  8
0
 10
29.9618
 20
-1.5
 11
48.9632
 21
-1.5
  0
LINE
  8
0
 10
48.9632
 20
-1.5
 11
48.941
 21
-2.40431
  0
LINE
  8
0
 10
48.941
 20
-2.40431
 11
48.764
 21
-4.80283
  0
LINE
  8
0
 10
48.764
 20
-4.80283
 11
48.4696
 21
-7.18979
  0
LINE
  8
0
 10
48.4696
 20
-7.18979
 11
48.0585
 21
-9.55942
  0
LINE
  8
0
 10
48.0585
 20
-9.55942
 11
47.5315
 21
-11.906
  0
LINE
  8
0
 10
47.5315
 20
-11.906
 11
46.8901
 21
-14.2239
  0
LINE
  8
0
 10
46.8901
 20
-14.2239
 11
46.1357
 21
-16.5076
  0
LINE
  8
0
 10
46.1357
 20
-16.5076
 11
45.2701
 21
-18.7515
  0
LINE
  8
0
 10
45.2701
 20
-18.7515
 11
44.2955
 21
-20.9502
  0
LINE
  8
0
 10
44.2955
 20
-20.9502
 11
43.2141
 21
-23.0984
  0
LINE
  8
0
 10
43.2141
 20
-23.0984
 11
43.1633
 21
-23.1883
  0
LINE
  8
0
 10
25.8239
 20
-13.1774
 11
7.55409
 21
-2.6293
  0
LINE
  8
0
 10
7.55409
 20
-2.6293
 11
7.65552
 21
-2.32227
  0
LINE
  8
0
 10
7.65552
 20
-2.32227
 11
7.76024
 21
-1.94383
  0
LINE
  8
0
 10
7.76024
 20
-1.94383
 11
7.84627
 21
-1.56071
  0
LINE
  8
0
 10
7.84627
 20
-1.56071
 11
7.85681
 21
-1.5
  0
LINE
  8
0
 10
7.85681
 20
-1.5
 11
28.9594
 21
-1.5
  0
LINE
  8
0
 10
28.9594
 20
-1.5
 11
28.8604
 21
-2.84248
  0
LINE
  8
0
 10
28.8604
 20
-2.84248
 11
28.6861
 21
-4.25517
  0
LINE
  8
0
 10
28.6861
 20
-4.25517
 11
28.4428
 21
-5.65761
  0
LINE
  8
0
 10
28.4428
 20
-5.65761
 11
28.1309
 21
-7.04642
  0
LINE
  8
0
 10
28.1309
 20
-7.04642
 11
27.7513
 21
-8.41824
  0
LINE
  8
0
 10
27.7513
 20
-8.41824
 11
27.3048
 21
-9.76979
  0
LINE
  8
0
 10
27.3048
 20
-9.76979
 11
26.7925
 21
-11.0978
  0
LINE
  8
0
 10
26.7925
 20
-11.0978
 11
26.2157
 21
-12.3991
  0
LINE
  8
0
 10
26.2157
 20
-12.3991
 11
25.8239
 21
-13.1774
  0
LINE
  8
0
 10
-43.2141
 20
-23.0984
 11
-44.2955
 21
-20.9502
  0
LINE
  8
0
 10
-44.2955
 20
-20.9502
 11
-45.2701
 21
-18.7515
  0
LINE
  8
0
 10
-45.2701
 20
-18.7515
 11
-46.1357
 21
-16.5076
  0
LINE
  8
0
 10
-46.1357
 20
-16.5076
 11
-46.8901
 21
-14.2239
  0
LINE
  8
0
 10
-46.8901
 20
-14.2239
 11
-47.5315
 21
-11.906
  0
LINE
  8
0
 10
-47.5315
 20
-11.906
 11
-48.0585
 21
-9.55942
  0
LINE
  8
0
 10
-48.0585
 20
-9.55942
 11
-48.4696
 21
-7.18979
  0
LINE
  8
0
 10
-48.4696
 20
-7.18979
 11
-48.764
 21
-4.80283
  0
LINE
  8
0
 10
-48.764
 20
-4.80283
 11
-48.941
 21
-2.40431
  0
LINE
  8
0
 10
-48.941
 20
-2.40431
 11
-48.9632
 21
-1.5
  0
LINE
  8
0
 10
-48.9632
 20
-1.5
 11
-29.9618
 21
-1.5
  0
LINE
  8
0
 10
-29.9618
 20
-1.5
 11
-29.8555
 21
-2.94051
  0
LINE
  8
0
 10
-29.8555
 20
-2.94051
 11
-29.6753
 21
-4.4019
  0
LINE
  8
0
 10
-29.6753
 20
-4.4019
 11
-29.4236
 21
-5.85271
  0
LINE
  8
0
 10
-29.4236
 20
-5.85271
 11
-29.1009
 21
-7.2894
  0
LINE
  8
0
 10
-29.1009
 20
-7.2894
 11
-28.7082
 21
-8.70853
  0
LINE
  8
0
 10
-28.7082
 20
-8.70853
 11
-28.2463
 21
-10.1067
  0
LINE
  8
0
 10
-28.2463
 20
-10.1067
 11
-27.7164
 21
-11.4805
  0
LINE
  8
0
 10
-27.7164
 20
-11.4805
 11
-27.1197
 21
-12.8266
  0
LINE
  8
0
 10
-27.1197
 20
-12.8266
 11
-26.6911
 21
-13.6781
  0
LINE
  8
0
 10
-26.6911
 20
-13.6781
 11
-43.1633
 21
-23.1883
  0
LINE
  8
0
 10
-43.1633
 20
-23.1883
 11
-43.2141
 21
-23.0984
  0
LINE
  8
0
 10
-26.2157
 20
-12.3991
 11
-26.7925
 21
-11.0978
  0
LINE
  8
0
 10
-26.7925
 20
-11.0978
 11
-27.3048
 21
-9.76979
  0
LINE
  8
0
 10
-27.3048
 20
-9.76979
 11
-27.7513
 21
-8.41824
  0
LINE
  8
0
 10
-27.7513
 20
-8.41824
 11
-28.1309
 21
-7.04642
  0
LINE
  8
0
 10
-28.1309
 20
-7.04642
 11
-28.4428
 21
-5.65761
  0
LINE
  8
0
 10
-28.4428
 20
-5.65761
 11
-28.6861
 21
-4.25517
  0
LINE
  8
0
 10
-28.6861
 20
-4.25517
 11
-28.8604
 21
-2.84248
  0
LINE
  8
0
 10
-28.8604
 20
-2.84248
 11
-28.9594
 21
-1.5
  0
LINE
  8
0
 10
-28.9594
 20
-1.5
 11
-7.85681
 21
-1.5
  0
LINE
  8
0
 10
-7.85681
 20
-1.5
 11
-7.84627
 21
-1.56071
  0
LINE
  8
0
 10
-7.84627
 20
-1.56071
 11
-7.76024
 21
-1.94383
  0
LINE
  8
0
 10
-7.76024
 20
-1.94383
 11
-7.65552
 21
-2.32227
  0
LINE
  8
0
 10
-7.65552
 20
-2.32227
 11
-7.55409
 21
-2.6293
  0
LINE
  8
0
 10
-7.55409
 20
-2.6293
 11
-25.8239
 21
-13.1774
  0
LINE
  8
0
 10
-25.8239
 20
-13.1774
 11
-26.2157
 21
-12.3991
  0
LINE
  8
0
 10
-16.1115
 20
-24.1126
 11
-17.2753
 21
-23.293
  0
LINE
  8
0
 10
-17.2753
 20
-23.293
 11
-18.3974
 21
-22.4173
  0
LINE
  8
0
 10
-18.3974
 20
-22.4173
 11
-19.4752
 21
-21.4876
  0
LINE
  8
0
 10
-19.4752
 20
-21.4876
 11
-20.5061
 21
-20.5061
  0
LINE
  8
0
 10
-20.5061
 20
-20.5061
 11
-21.4876
 21
-19.4752
  0
LINE
  8
0
 10
-21.4876
 20
-19.4752
 11
-22.4173
 21
-18.3974
  0
LINE
  8
0
 10
-22.4173
 20
-18.3974
 11
-23.293
 21
-17.2753
  0
LINE
  8
0
 10
-23.293
 20
-17.2753
 11
-24.1126
 21
-16.1115
  0
LINE
  8
0
 10
-24.1126
 20
-16.1115
 11
-24.325
 21
-15.7761
  0
LINE
  8
0
 10
-24.325
 20
-15.7761
 11
-6.05321
 21
-5.22685
  0
LINE
  8
0
 10
-6.05321
 20
-5.22685
 11
-5.9276
 21
-5.37247
  0
LINE
  8
0
 10
-5.9276
 20
-5.37247
 11
-5.65685
 21
-5.65685
  0
LINE
  8
0
 10
-5.65685
 20
-5.65685
 11
-5.37247
 21
-5.9276
  0
LINE
  8
0
 10
-5.37247
 20
-5.9276
 11
-5.22685
 21
-6.05321
  0
LINE
  8
0
 10
-5.22685
 20
-6.05321
 11
-15.7761
 21
-24.325
  0
LINE
  8
0
 10
-15.7761
 20
-24.325
 11
-16.1115
 21
-24.1126
  0
LINE
  8
0
 10
5.22685
 20
-6.05321
 11
5.37247
 21
-5.9276
  0
LINE
  8
0
 10
5.37247
 20
-5.9276
 11
5.65685
 21
-5.65685
  0
LINE
  8
0
 10
5.65685
 20
-5.65685
 11
5.9276
 21
-5.37247
  0
LINE
  8
0
 10
5.9276
 20
-5.37247
 11
6.05321
 21
-5.22685
  0
LINE
  8
0
 10
6.05321
 20
-5.22685
 11
24.325
 21
-15.7761
  0
LINE
  8
0
 10
24.325
 20
-15.7761
 11
24.1126
 21
-16.1115
  0
LINE
  8
0
 10
24.1126
 20
-16.1115
 11
23.293
 21
-17.2753
  0
LINE
  8
0
 10
23.293
 20
-17.2753
 11
22.4173
 21
-18.3974
  0
LINE
  8
0
 10
22.4173
 20
-18.3974
 11
21.4876
 21
-19.4752
  0
LINE
  8
0
 10
21.4876
 20
-19.4752
 11
20.5061
 21
-20.5061
  0
LINE
  8
0
 10
20.5061
 20
-20.5061
 11
19.4752
 21
-21.4876
  0
LINE
  8
0
 10
19.4752
 20
-21.4876
 11
18.3974
 21
-22.4173
  0
LINE
  8
0
 10
18.3974
 20
-22.4173
 11
17.2753
 21
-23.293
  0
LINE
  8
0
 10
17.2753
 20
-23.293
 11
16.1115
 21
-24.1126
  0
LINE
  8
0
 10
16.1115
 20
-24.1126
 11
15.7761
 21
-24.325
  0
LINE
  8
0
 10
15.7761
 20
-24.325
 11
5.22685
 21
-6.05321
  0
LINE
  8
0
 10
-2.84248
 20
-28.8604
 11
-4.25517
 21
-28.6861
  0
LINE
  8
0
 10
-4.25517
 20
-28.6861
 11
-5.65761
 21
-28.4428
  0
LINE
  8
0
 10
-5.65761
 20
-28.4428
 11
-7.04642
 21
-28.1309
  0
LINE
  8
0
 10
-7.04642
 20
-28.1309
 11
-8.41824
 21
-27.7513
  0
LINE
  8
0
 10
-8.41824
 20
-27.7513
 11
-9.76979
 21
-27.3048
  0
LINE
  8
0
 10
-9.76979
 20
-27.3048
 11
-11.0978
 21
-26.7925
  0
LINE
  8
0
 10
-11.0978
 20
-26.7925
 11
-12.3991
 21
-26.2157
  0
LINE
  8
0
 10
-12.3991
 20
-26.2157
 11
-13.1774
 21
-25.8239
  0
LINE
  8
0
 10
-13.1774
 20
-25.8239
 11
-2.6293
 21
-7.55409
  0
LINE
  8
0
 10
-2.6293
 20
-7.55409
 11
-2.32227
 21
-7.65552
  0
LINE
  8
0
 10
-2.32227
 20
-7.65552
 11
-1.94383
 21
-7.76024
  0
LINE
  8
0
 10
-1.94383
 20
-7.76024
 11
-1.56071
 21
-7.84627
  0
LINE
  8
0
 10
-1.56071
 20
-7.84627
 11
-1.5
 21
-7.85681
  0
LINE
  8
0
 10
-1.5
 20
-7.85681
 11
-1.5
 21
-28.9594
  0
LINE
  8
0
 10
-1.5
 20
-28.9594
 11
-2.84248
 21
-28.8604
  0
LINE
  8
0
 10
1.5
 20
-7.85681
 11
1.56071
 21
-7.84627
  0
LINE
  8
0
 10
1.56071
 20
-7.84627
 11
1.94383
 21
-7.76024
  0
LINE
  8
0
 10
1.94383
 20
-7.76024
 11
2.32227
 21
-7.65552
  0
LINE
  8
0
 10
2.32227
 20
-7.65552
 11
2.6293
 21
-7.55409
  0
LINE
  8
0
 10
2.6293
 20
-7.55409
 11
13.1774
 21
-25.8239
  0
LINE
  8
0
 10
13.1774
 20
-25.8239
 11
12.3991
 21
-26.2157
  0
LINE
  8
0
 10
12.3991
 20
-26.2157
 11
11.0978
 21
-26.7925
  0
LINE
  8
0
 10
11.0978
 20
-26.7925
 11
9.76979
 21
-27.3048
  0
LINE
  8
0
 10
9.76979
 20
-27.3048
 11
8.41824
 21
-27.7513
  0
LINE
  8
0
 10
8.41824
 20
-27.7513
 11
7.04642
 21
-28.1309
  0
LINE
  8
0
 10
7.04642
 20
-28.1309
 11
5.65761
 21
-28.4428
  0
LINE
  8
0
 10
5.65761
 20
-28.4428
 11
4.25517
 21
-28.6861
  0
LINE
  8
0
 10
4.25517
 20
-28.6861
 11
2.84248
 21
-28.8604
  0
LINE
  8
0
 10
2.84248
 20
-28.8604
 11
1.5
 21
-28.9594
  0
LINE
  8
0
 10
1.5
 20
-28.9594
 11
1.5
 21
-7.85681
  0
LINE
  8
0
 10
-27.2229
 20
-40.742
 11
-29.1893
 21
-39.3572
  0
LINE
  8
0
 10
-29.1893
 20
-39.3572
 11
-31.0853
 21
-37.8775
  0
LINE
  8
0
 10
-31.0853
 20
-37.8775
 11
-32.9064
 21
-36.3066
  0
LINE
  8
0
 10
-32.9064
 20
-36.3066
 11
-34.6482
 21
-34.6482
  0
LINE
  8
0
 10
-34.6482
 20
-34.6482
 11
-36.3066
 21
-32.9064
  0
LINE
  8
0
 10
-36.3066
 20
-32.9064
 11
-37.8775
 21
-31.0853
  0
LINE
  8
0
 10
-37.8775
 20
-31.0853
 11
-39.3572
 21
-29.1893
  0
LINE
  8
0
 10
-39.3572
 20
-29.1893
 11
-40.742
 21
-27.2229
  0
LINE
  8
0
 10
-40.742
 20
-27.2229
 11
-41.6548
 21
-25.7815
  0
LINE
  8
0
 10
-41.6548
 20
-25.7815
 11
-25.1915
 21
-16.2764
  0
LINE
  8
0
 10
-25.1915
 20
-16.2764
 11
-24.9441
 21
-16.6671
  0
LINE
  8
0
 10
-24.9441
 20
-16.6671
 11
-24.0962
 21
-17.871
  0
LINE
  8
0
 10
-24.0962
 20
-17.871
 11
-23.1903
 21
-19.0318
  0
LINE
  8
0
 10
-23.1903
 20
-19.0318
 11
-22.2285
 21
-20.1468
  0
LINE
  8
0
 10
-22.2285
 20
-20.1468
 11
-21.2132
 21
-21.2132
  0
LINE
  8
0
 10
-21.2132
 20
-21.2132
 11
-20.1468
 21
-22.2285
  0
LINE
  8
0
 10
-20.1468
 20
-22.2285
 11
-19.0318
 21
-23.1903
  0
LINE
  8
0
 10
-19.0318
 20
-23.1903
 11
-17.871
 21
-24.0962
  0
LINE
  8
0
 10
-17.871
 20
-24.0962
 11
-16.6671
 21
-24.9441
  0
LINE
  8
0
 10
-16.6671
 20
-24.9441
 11
-16.2764
 21
-25.1915
  0
LINE
  8
0
 10
-16.2764
 20
-25.1915
 11
-25.7815
 21
-41.6548
  0
LINE
  8
0
 10
-25.7815
 20
-41.6548
 11
-27.2229
 21
-40.742
  0
LINE
  8
0
 10
16.2764
 20
-25.1915
 11
16.6671
 21
-24.9441
  0
LINE
  8
0
 10
16.6671
 20
-24.9441
 11
17.871
 21
-24.0962
  0
LINE
  8
0
 10
17.871
 20
-24.0962
 11
19.0318
 21
-23.1903
  0
LINE
  8
0
 10
19.0318
 20
-23.1903
 11
20.1468
 21
-22.2285
  0
LINE
  8
0
 10
20.1468
 20
-22.2285
 11
21.2132
 21
-21.2132
  0
LINE
  8
0
 10
21.2132
 20
-21.2132
 11
22.2285
 21
-20.1468
  0
LINE
  8
0
 10
22.2285
 20
-20.1468
 11
23.1903
 21
-19.0318
  0
LINE
  8
0
 10
23.1903
 20
-19.0318
 11
24.0962
 21
-17.871
  0
LINE
  8
0
 10
24.0962
 20
-17.871
 11
24.9441
 21
-16.6671
  0
LINE
  8
0
 10
24.9441
 20
-16.6671
 11
25.1915
 21
-16.2764
  0
LINE
  8
0
 10
25.1915
 20
-16.2764
 11
41.6548
 21
-25.7815
  0
LINE
  8
0
 10
41.6548
 20
-25.7815
 11
40.742
 21
-27.2229
  0
LINE
  8
0
 10
40.742
 20
-27.2229
 11
39.3572
 21
-29.1893
  0
LINE
  8
0
 10
39.3572
 20
-29.1893
 11
37.8775
 21
-31.0853
  0
LINE
  8
0
 10
37.8775
 20
-31.0853
 11
36.3066
 21
-32.9064
  0
LINE
  8
0
 10
36.3066
 20
-32.9064
 11
34.6482
 21
-34.6482
  0
LINE
  8
0
 10
34.6482
 20
-34.6482
 11
32.9064
 21
-36.3066
  0
LINE
  8
0
 10
32.9064
 20
-36.3066
 11
31.0853
 21
-37.8775
  0
LINE
  8
0
 10
31.0853
 20
-37.8775
 11
29.1893
 21
-39.3572
  0
LINE
  8
0
 10
29.1893
 20
-39.3572
 11
27.2229
 21
-40.742
  0
LINE
  8
0
 10
27.2229
 20
-40.742
 11
25.7815
 21
-41.6548
  0
LINE
  8
0
 10
25.7815
 20
-41.6548
 11
16.2764
 21
-25.1915
  0
LINE
  8
0
 10
-2.40431
 20
-48.941
 11
-4.80283
 21
-48.764
  0
LINE
  8
0
 10
-4.80283
 20
-48.764
 11
-7.18979
 21
-48.4696
  0
LINE
  8
0
 10
-7.18979
 20
-48.4696
 11
-9.55942
 21
-48.0585
  0
LINE
  8
0
 10
-9.55942
 20
-48.0585
 11
-11.906
 21
-47.5315
  0
LINE
  8
0
 10
-11.906
 20
-47.5315
 11
-14.2239
 21
-46.8901
  0
LINE
  8
0
 10
-14.2239
 20
-46.8901
 11
-16.5076
 21
-46.1357
  0
LINE
  8
0
 10
-16.5076
 20
-46.1357
 11
-18.7515
 21
-45.2701
  0
LINE
  8
0
 10
-18.7515
 20
-45.2701
 11
-20.9502
 21
-44.2955
  0
LINE
  8
0
 10
-20.9502
 20
-44.2955
 11
-23.0984
 21
-43.2141
  0
LINE
  8
0
 10
-23.0984
 20
-43.2141
 11
-23.1883
 21
-43.1633
  0
LINE
  8
0
 10
-23.1883
 20
-43.1633
 11
-13.6781
 21
-26.6911
  0
LINE
  8
0
 10
-13.6781
 20
-26.6911
 11
-12.8266
 21
-27.1197
  0
LINE
  8
0
 10
-12.8266
 20
-27.1197
 11
-11.4805
 21
-27.7164
  0
LINE
  8
0
 10
-11.4805
 20
-27.7164
 11
-10.1067
 21
-28.2463
  0
LINE
  8
0
 10
-10.1067
 20
-28.2463
 11
-8.70853
 21
-28.7082
  0
LINE
  8
0
 10
-8.70853
 20
-28.7082
 11
-7.2894
 21
-29.1009
  0
LINE
  8
0
 10
-7.2894
 20
-29.1009
 11
-5.85271
 21
-29.4236
  0
LINE
  8
0
 10
-5.85271
 20
-29.4236
 11
-4.4019
 21
-29.6753
  0
LINE
  8
0
 10
-4.4019
 20
-29.6753
 11
-2.94051
 21
-29.8555
  0
LINE
  8
0
 10
-2.94051
 20
-29.8555
 11
-1.5
 21
-29.9618
  0
LINE
  8
0
 10
-1.5
 20
-29.9618
 11
-1.5
 21
-48.9632
  0
LINE
  8
0
 10
-1.5
 20
-48.9632
 11
-2.40431
 21
-48.941
  0
LINE
  8
0
 10
1.5
 20
-29.9618
 11
2.94051
 21
-29.8555
  0
LINE
  8
0
 10
2.94051
 20
-29.8555
 11
4.4019
 21
-29.6753
  0
LINE
  8
0
 10
4.4019
 20
-29.6753
 11
5.85271
 21
-29.4236
  0
LINE
  8
0
 10
5.85271
 20
-29.4236
 11
7.2894
 21
-29.1009
  0
LINE
  8
0
 10
7.2894
 20
-29.1009
 11
8.70853
 21
-28.7082
  0
LINE
  8
0
 10
8.70853
 20
-28.7082
 11
10.1067
 21
-28.2463
  0
LINE
  8
0
 10
10.1067
 20
-28.2463
 11
11.4805
 21
-27.7164
  0
LINE
  8
0
 10
11.4805
 20
-27.7164
 11
12.8266
 21
-27.1197
  0
LINE
  8
0
 10
12.8266
 20
-27.1197
 11
13.6781
 21
-26.6911
  0
LINE
  8
0
 10
13.6781
 20
-26.6911
 11
23.1883
 21
-43.1633
  0
LINE
  8
0
 10
23.1883
 20
-43.1633
 11
23.0984
 21
-43.2141
  0
LINE
  8
0
 10
23.0984
 20
-43.2141
 11
20.9502
 21
-44.2955
  0
LINE
  8
0
 10
20.9502
 20
-44.2955
 11
18.7515
 21
-45.2701
  0
LINE
  8
0
 10
18.7515
 20
-45.2701
 11
16.5076
 21
-46.1357
  0
LINE
  8
0
 10
16.5076
 20
-46.1357
 11
14.2239
 21
-46.8901
  0
LINE
  8
0
 10
14.2239
 20
-46.8901
 11
11.906
 21
-47.5315
  0
LINE
  8
0
 10
11.906
 20
-47.5315
 11
9.55942
 21
-48.0585
  0
LINE
  8
0
 10
9.55942
 20
-48.0585
 11
7.18979
 21
-48.4696
  0
LINE
  8
0
 10
7.18979
 20
-48.4696
 11
4.80283
 21
-48.764
  0
LINE
  8
0
 10
4.80283
 20
-48.764
 11
2.40431
 21
-48.941
  0
LINE
  8
0
 10
2.40431
 20
-48.941
 11
1.5
 21
-48.9632
  0
LINE
  8
0
 10
1.5
 20
-48.9632
 11
1.5
 21
-29.9618
  0
ENDSEC
  0
SECTION
  2
OBJECTS
  0
DICTIONARY
  0
ENDSEC
  0
EOF
