  0
SECTION
  2
BLOCKS
  0
ENDSEC
  0
SECTION
  2
ENTITIES
  0
LINE
  8
0
 10
0.981339
 20
-19.9759
 11
1.96034
 21
-19.9037
  0
LINE
  8
0
 10
1.96034
 20
-19.9037
 11
2.9346
 21
-19.7835
  0
LINE
  8
0
 10
2.9346
 20
-19.7835
 11
3.90179
 21
-19.6157
  0
LINE
  8
0
 10
3.90179
 20
-19.6157
 11
4.85959
 21
-19.4006
  0
LINE
  8
0
 10
4.85959
 20
-19.4006
 11
5.80568
 21
-19.1388
  0
LINE
  8
0
 10
5.80568
 20
-19.1388
 11
6.73779
 21
-18.8309
  0
LINE
  8
0
 10
6.73779
 20
-18.8309
 11
7.65366
 21
-18.4776
  0
LINE
  8
0
 10
7.65366
 20
-18.4776
 11
8.5511
 21
-18.0798
  0
LINE
  8
0
 10
8.5511
 20
-18.0798
 11
9.42793
 21
-17.6384
  0
LINE
  8
0
 10
9.42793
 20
-17.6384
 11
10.282
 21
-17.1546
  0
LINE
  8
0
 10
10.282
 20
-17.1546
 11
11.1114
 21
-16.6294
  0
LINE
  8
0
 10
11.1114
 20
-16.6294
 11
11.914
 21
-16.0641
  0
LINE
  8
0
 10
11.914
 20
-16.0641
 11
12.6879
 21
-15.4602
  0
LINE
  8
0
 10
12.6879
 20
-15.4602
 11
13.4312
 21
-14.819
  0
LINE
  8
0
 10
13.4312
 20
-14.819
 11
14.1421
 21
-14.1421
  0
LINE
  8
0
 10
14.1421
 20
-14.1421
 11
14.819
 21
-13.4312
  0
LINE
  8
0
 10
14.819
 20
-13.4312
 11
15.4602
 21
-12.6879
  0
LINE
  8
0
 10
15.4602
 20
-12.6879
 11
16.0641
 21
-11.914
  0
LINE
  8
0
 10
16.0641
 20
-11.914
 11
16.6294
 21
-11.1114
  0
LINE
  8
0
 10
16.6294
 20
-11.1114
 11
17.1546
 21
-10.282
  0
LINE
  8
0
 10
17.1546
 20
-10.282
 11
17.6384
 21
-9.42793
  0
LINE
  8
0
 10
17.6384
 20
-9.42793
 11
18.0798
 21
-8.5511
  0
LINE
  8
0
 10
18.0798
 20
-8.5511
 11
18.4776
 21
-7.65366
  0
LINE
  8
0
 10
18.4776
 20
-7.65366
 11
18.8309
 21
-6.73779
  0
LINE
  8
0
 10
18.8309
 20
-6.73779
 11
19.1388
 21
-5.80568
  0
LINE
  8
0
 10
19.1388
 20
-5.80568
 11
19.4006
 21
-4.85959
  0
LINE
  8
0
 10
19.4006
 20
-4.85959
 11
19.6157
 21
-3.90179
  0
LINE
  8
0
 10
19.6157
 20
-3.90179
 11
19.7835
 21
-2.9346
  0
LINE
  8
0
 10
19.7835
 20
-2.9346
 11
19.9037
 21
-1.96034
  0
LINE
  8
0
 10
19.9037
 20
-1.96034
 11
19.9759
 21
-0.981339
  0
LINE
  8
0
 10
19.9759
 20
-0.981339
 11
20
 21
0
  0
LINE
  8
0
 10
20
 20
0
 11
19.9759
 21
0.981339
  0
LINE
  8
0
 10
19.9759
 20
0.981339
 11
19.9037
 21
1.96034
  0
LINE
  8
0
 10
19.9037
 20
1.96034
 11
19.7835
 21
2.9346
  0
LINE
  8
0
 10
19.7835
 20
2.9346
 11
19.6157
 21
3.90179
  0
LINE
  8
0
 10
19.6157
 20
3.90179
 11
19.4006
 21
4.85959
  0
LINE
  8
0
 10
19.4006
 20
4.85959
 11
19.1388
 21
5.80568
  0
LINE
  8
0
 10
19.1388
 20
5.80568
 11
18.8309
 21
6.73779
  0
LINE
  8
0
 10
18.8309
 20
6.73779
 11
18.4776
 21
7.65366
  0
LINE
  8
0
 10
18.4776
 20
7.65366
 11
18.0798
 21
8.5511
  0
LINE
  8
0
 10
18.0798
 20
8.5511
 11
17.6384
 21
9.42793
  0
LINE
  8
0
 10
17.6384
 20
9.42793
 11
17.1546
 21
10.282
  0
LINE
  8
0
 10
17.1546
 20
10.282
 11
16.6294
 21
11.1114
  0
LINE
  8
0
 10
16.6294
 20
11.1114
 11
16.0641
 21
11.914
  0
LINE
  8
0
 10
16.0641
 20
11.914
 11
15.4602
 21
12.6879
  0
LINE
  8
0
 10
15.4602
 20
12.6879
 11
14.819
 21
13.4312
  0
LINE
  8
0
 10
14.819
 20
13.4312
 11
14.1421
 21
14.1421
  0
LINE
  8
0
 10
14.1421
 20
14.1421
 11
13.4312
 21
14.819
  0
LINE
  8
0
 10
13.4312
 20
14.819
 11
12.6879
 21
15.4602
  0
LINE
  8
0
 10
12.6879
 20
15.4602
 11
11.914
 21
16.0641
  0
LINE
  8
0
 10
11.914
 20
16.0641
 11
11.1114
 21
16.6294
  0
LINE
  8
0
 10
11.1114
 20
16.6294
 11
10.282
 21
17.1546
  0
LINE
  8
0
 10
10.282
 20
17.1546
 11
9.42793
 21
17.6384
  0
LINE
  8
0
 10
9.42793
 20
17.6384
 11
8.5511
 21
18.0798
  0
LINE
  8
0
 10
8.5511
 20
18.0798
 11
7.65366
 21
18.4776
  0
LINE
  8
0
 10
7.65366
 20
18.4776
 11
6.73779
 21
18.8309
  0
LINE
  8
0
 10
6.73779
 20
18.8309
 11
5.80568
 21
19.1388
  0
LINE
  8
0
 10
5.80568
 20
19.1388
 11
4.85959
 21
19.4006
  0
LINE
  8
0
 10
4.85959
 20
19.4006
 11
3.90179
 21
19.6157
  0
LINE
  8
0
 10
3.90179
 20
19.6157
 11
2.9346
 21
19.7835
  0
LINE
  8
0
 10
2.9346
 20
19.7835
 11
1.96034
 21
19.9037
  0
LINE
  8
0
 10
1.96034
 20
19.9037
 11
0.981339
 21
19.9759
  0
LINE
  8
0
 10
0.981339
 20
19.9759
 11
0
 21
20
  0
LINE
  8
0
 10
0
 20
20
 11
-0.981339
 21
19.9759
  0
LINE
  8
0
 10
-0.981339
 20
19.9759
 11
-1.96034
 21
19.9037
  0
LINE
  8
0
 10
-1.96034
 20
19.9037
 11
-2.9346
 21
19.7835
  0
LINE
  8
0
 10
-2.9346
 20
19.7835
 11
-3.90179
 21
19.6157
  0
LINE
  8
0
 10
-3.90179
 20
19.6157
 11
-4.85959
 21
19.4006
  0
LINE
  8
0
 10
-4.85959
 20
19.4006
 11
-5.80568
 21
19.1388
  0
LINE
  8
0
 10
-5.80568
 20
19.1388
 11
-6.73779
 21
18.8309
  0
LINE
  8
0
 10
-6.73779
 20
18.8309
 11
-7.65366
 21
18.4776
  0
LINE
  8
0
 10
-7.65366
 20
18.4776
 11
-8.5511
 21
18.0798
  0
LINE
  8
0
 10
-8.5511
 20
18.0798
 11
-9.42793
 21
17.6384
  0
LINE
  8
0
 10
-9.42793
 20
17.6384
 11
-10.282
 21
17.1546
  0
LINE
  8
0
 10
-10.282
 20
17.1546
 11
-11.1114
 21
16.6294
  0
LINE
  8
0
 10
-11.1114
 20
16.6294
 11
-11.914
 21
16.0641
  0
LINE
  8
0
 10
-11.914
 20
16.0641
 11
-12.6879
 21
15.4602
  0
LINE
  8
0
 10
-12.6879
 20
15.4602
 11
-13.4312
 21
14.819
  0
LINE
  8
0
 10
-13.4312
 20
14.819
 11
-14.1421
 21
14.1421
  0
LINE
  8
0
 10
-14.1421
 20
14.1421
 11
-14.819
 21
13.4312
  0
LINE
  8
0
 10
-14.819
 20
13.4312
 11
-15.4602
 21
12.6879
  0
LINE
  8
0
 10
-15.4602
 20
12.6879
 11
-16.0641
 21
11.914
  0
LINE
  8
0
 10
-16.0641
 20
11.914
 11
-16.6294
 21
11.1114
  0
LINE
  8
0
 10
-16.6294
 20
11.1114
 11
-17.1546
 21
10.282
  0
LINE
  8
0
 10
-17.1546
 20
10.282
 11
-17.6384
 21
9.42793
  0
LINE
  8
0
 10
-17.6384
 20
9.42793
 11
-18.0798
 21
8.5511
  0
LINE
  8
0
 10
-18.0798
 20
8.5511
 11
-18.4776
 21
7.65366
  0
LINE
  8
0
 10
-18.4776
 20
7.65366
 11
-18.8309
 21
6.73779
  0
LINE
  8
0
 10
-18.8309
 20
6.73779
 11
-19.1388
 21
5.80568
  0
LINE
  8
0
 10
-19.1388
 20
5.80568
 11
-19.4006
 21
4.85959
  0
LINE
  8
0
 10
-19.4006
 20
4.85959
 11
-19.6157
 21
3.90179
  0
LINE
  8
0
 10
-19.6157
 20
3.90179
 11
-19.7835
 21
2.9346
  0
LINE
  8
0
 10
-19.7835
 20
2.9346
 11
-19.9037
 21
1.96034
  0
LINE
  8
0
 10
-19.9037
 20
1.96034
 11
-19.9759
 21
0.981339
  0
LINE
  8
0
 10
-19.9759
 20
0.981339
 11
-20
 21
0
  0
LINE
  8
0
 10
-20
 20
0
 11
-19.9759
 21
-0.981339
  0
LINE
  8
0
 10
-19.9759
 20
-0.981339
 11
-19.9037
 21
-1.96034
  0
LINE
  8
0
 10
-19.9037
 20
-1.96034
 11
-19.7835
 21
-2.9346
  0
LINE
  8
0
 10
-19.7835
 20
-2.9346
 11
-19.6157
 21
-3.90179
  0
LINE
  8
0
 10
-19.6157
 20
-3.90179
 11
-19.4006
 21
-4.85959
  0
LINE
  8
0
 10
-19.4006
 20
-4.85959
 11
-19.1388
 21
-5.80568
  0
LINE
  8
0
 10
-19.1388
 20
-5.80568
 11
-18.8309
 21
-6.73779
  0
LINE
  8
0
 10
-18.8309
 20
-6.73779
 11
-18.4776
 21
-7.65366
  0
LINE
  8
0
 10
-18.4776
 20
-7.65366
 11
-18.0798
 21
-8.5511
  0
LINE
  8
0
 10
-18.0798
 20
-8.5511
 11
-17.6384
 21
-9.42793
  0
LINE
  8
0
 10
-17.6384
 20
-9.42793
 11
-17.1546
 21
-10.282
  0
LINE
  8
0
 10
-17.1546
 20
-10.282
 11
-16.6294
 21
-11.1114
  0
LINE
  8
0
 10
-16.6294
 20
-11.1114
 11
-16.0641
 21
-11.914
  0
LINE
  8
0
 10
-16.0641
 20
-11.914
 11
-15.4602
 21
-12.6879
  0
LINE
  8
0
 10
-15.4602
 20
-12.6879
 11
-14.819
 21
-13.4312
  0
LINE
  8
0
 10
-14.819
 20
-13.4312
 11
-14.1421
 21
-14.1421
  0
LINE
  8
0
 10
-14.1421
 20
-14.1421
 11
-13.4312
 21
-14.819
  0
LINE
  8
0
 10
-13.4312
 20
-14.819
 11
-12.6879
 21
-15.4602
  0
LINE
  8
0
 10
-12.6879
 20
-15.4602
 11
-11.914
 21
-16.0641
  0
LINE
  8
0
 10
-11.914
 20
-16.0641
 11
-11.1114
 21
-16.6294
  0
LINE
  8
0
 10
-11.1114
 20
-16.6294
 11
-10.282
 21
-17.1546
  0
LINE
  8
0
 10
-10.282
 20
-17.1546
 11
-9.42793
 21
-17.6384
  0
LINE
  8
0
 10
-9.42793
 20
-17.6384
 11
-8.5511
 21
-18.0798
  0
LINE
  8
0
 10
-8.5511
 20
-18.0798
 11
-7.65366
 21
-18.4776
  0
LINE
  8
0
 10
-7.65366
 20
-18.4776
 11
-6.73779
 21
-18.8309
  0
LINE
  8
0
 10
-6.73779
 20
-18.8309
 11
-5.80568
 21
-19.1388
  0
LINE
  8
0
 10
-5.80568
 20
-19.1388
 11
-4.85959
 21
-19.4006
  0
LINE
  8
0
 10
-4.85959
 20
-19.4006
 11
-3.90179
 21
-19.6157
  0
LINE
  8
0
 10
-3.90179
 20
-19.6157
 11
-2.9346
 21
-19.7835
  0
LINE
  8
0
 10
-2.9346
 20
-19.7835
 11
-1.96034
 21
-19.9037
  0
LINE
  8
0
 10
-1.96034
 20
-19.9037
 11
-0.981339
 21
-19.9759
  0
LINE
  8
0
 10
-0.981339
 20
-19.9759
 11
0
 21
-20
  0
LINE
  8
0
 10
0
 20
-20
 11
0.981339
 21
-19.9759
  0
LINE
  8
0
 10
-0.809616
 20
-16.4801
 11
-1.61728
 21
-16.4205
  0
LINE
  8
0
 10
-1.61728
 20
-16.4205
 11
-2.42105
 21
-16.3214
  0
LINE
  8
0
 10
-2.42105
 20
-16.3214
 11
-3.21898
 21
-16.183
  0
LINE
  8
0
 10
-3.21898
 20
-16.183
 11
-4.00917
 21
-16.0055
  0
LINE
  8
0
 10
-4.00917
 20
-16.0055
 11
-4.61986
 21
-15.8365
  0
LINE
  8
0
 10
-4.61986
 20
-15.8365
 11
-0.142502
 21
-2.05661
  0
LINE
  8
0
 10
-0.142502
 20
-2.05661
 11
-1.09355
 21
-1.7476
  0
LINE
  8
0
 10
-1.09355
 20
-1.7476
 11
-5.57185
 21
-15.5304
  0
LINE
  8
0
 10
-5.57185
 20
-15.5304
 11
-6.31427
 21
-15.244
  0
LINE
  8
0
 10
-6.31427
 20
-15.244
 11
-7.05466
 21
-14.9158
  0
LINE
  8
0
 10
-7.05466
 20
-14.9158
 11
-7.77805
 21
-14.5517
  0
LINE
  8
0
 10
-7.77805
 20
-14.5517
 11
-8.48268
 21
-14.1525
  0
LINE
  8
0
 10
-8.48268
 20
-14.1525
 11
-9.1669
 21
-13.7192
  0
LINE
  8
0
 10
-9.1669
 20
-13.7192
 11
-9.82903
 21
-13.2529
  0
LINE
  8
0
 10
-9.82903
 20
-13.2529
 11
-10.4675
 21
-12.7547
  0
LINE
  8
0
 10
-10.4675
 20
-12.7547
 11
-11.0807
 21
-12.2257
  0
LINE
  8
0
 10
-11.0807
 20
-12.2257
 11
-11.6673
 21
-11.6673
  0
LINE
  8
0
 10
-11.6673
 20
-11.6673
 11
-12.2257
 21
-11.0807
  0
LINE
  8
0
 10
-12.2257
 20
-11.0807
 11
-12.7547
 21
-10.4675
  0
LINE
  8
0
 10
-12.7547
 20
-10.4675
 11
-13.0448
 21
-10.0957
  0
LINE
  8
0
 10
-13.0448
 20
-10.0957
 11
-1.32413
 21
-1.58008
  0
LINE
  8
0
 10
-1.32413
 20
-1.58008
 11
-1.91193
 21
-0.771057
  0
LINE
  8
0
 10
-1.91193
 20
-0.771057
 11
-13.6341
 21
-9.28773
  0
LINE
  8
0
 10
-13.6341
 20
-9.28773
 11
-13.7192
 21
-9.1669
  0
LINE
  8
0
 10
-13.7192
 20
-9.1669
 11
-14.1525
 21
-8.48268
  0
LINE
  8
0
 10
-14.1525
 20
-8.48268
 11
-14.5517
 21
-7.77805
  0
LINE
  8
0
 10
-14.5517
 20
-7.77805
 11
-14.9158
 21
-7.05466
  0
LINE
  8
0
 10
-14.9158
 20
-7.05466
 11
-15.244
 21
-6.31427
  0
LINE
  8
0
 10
-15.244
 20
-6.31427
 11
-15.5355
 21
-5.55867
  0
LINE
  8
0
 10
-15.5355
 20
-5.55867
 11
-15.7895
 21
-4.78969
  0
LINE
  8
0
 10
-15.7895
 20
-4.78969
 11
-16.0055
 21
-4.00917
  0
LINE
  8
0
 10
-16.0055
 20
-4.00917
 11
-16.183
 21
-3.21898
  0
LINE
  8
0
 10
-16.183
 20
-3.21898
 11
-16.3214
 21
-2.42105
  0
LINE
  8
0
 10
-16.3214
 20
-2.42105
 11
-16.4205
 21
-1.61728
  0
LINE
  8
0
 10
-16.4205
 20
-1.61728
 11
-16.4801
 21
-0.809616
  0
LINE
  8
0
 10
-16.4801
 20
-0.809616
 11
-16.4877
 21
-0.5
  0
LINE
  8
0
 10
-16.4877
 20
-0.5
 11
-2
 21
-0.5
  0
LINE
  8
0
 10
-2
 20
-0.5
 11
-2
 21
0.5
  0
LINE
  8
0
 10
-2
 20
0.5
 11
-16.4877
 21
0.5
  0
LINE
  8
0
 10
-16.4877
 20
0.5
 11
-16.4801
 21
0.809616
  0
LINE
  8
0
 10
-16.4801
 20
0.809616
 11
-16.4205
 21
1.61728
  0
LINE
  8
0
 10
-16.4205
 20
1.61728
 11
-16.3214
 21
2.42105
  0
LINE
  8
0
 10
-16.3214
 20
2.42105
 11
-16.183
 21
3.21898
  0
LINE
  8
0
 10
-16.183
 20
3.21898
 11
-16.0055
 21
4.00917
  0
LINE
  8
0
 10
-16.0055
 20
4.00917
 11
-15.7895
 21
4.78969
  0
LINE
  8
0
 10
-15.7895
 20
4.78969
 11
-15.5355
 21
5.55867
  0
LINE
  8
0
 10
-15.5355
 20
5.55867
 11
-15.244
 21
6.31427
  0
LINE
  8
0
 10
-15.244
 20
6.31427
 11
-14.9158
 21
7.05466
  0
LINE
  8
0
 10
-14.9158
 20
7.05466
 11
-14.5517
 21
7.77805
  0
LINE
  8
0
 10
-14.5517
 20
7.77805
 11
-14.1525
 21
8.48268
  0
LINE
  8
0
 10
-14.1525
 20
8.48268
 11
-13.7192
 21
9.1669
  0
LINE
  8
0
 10
-13.7192
 20
9.1669
 11
-13.6341
 21
9.28773
  0
LINE
  8
0
 10
-13.6341
 20
9.28773
 11
-1.91193
 21
0.771057
  0
LINE
  8
0
 10
-1.91193
 20
0.771057
 11
-1.32413
 21
1.58008
  0
LINE
  8
0
 10
-1.32413
 20
1.58008
 11
-13.0448
 21
10.0957
  0
LINE
  8
0
 10
-13.0448
 20
10.0957
 11
-12.7547
 21
10.4675
  0
LINE
  8
0
 10
-12.7547
 20
10.4675
 11
-12.2257
 21
11.0807
  0
LINE
  8
0
 10
-12.2257
 20
11.0807
 11
-11.6673
 21
11.6673
  0
LINE
  8
0
 10
-11.6673
 20
11.6673
 11
-11.0807
 21
12.2257
  0
LINE
  8
0
 10
-11.0807
 20
12.2257
 11
-10.4675
 21
12.7547
  0
LINE
  8
0
 10
-10.4675
 20
12.7547
 11
-9.82903
 21
13.2529
  0
LINE
  8
0
 10
-9.82903
 20
13.2529
 11
-9.1669
 21
13.7192
  0
LINE
  8
0
 10
-9.1669
 20
13.7192
 11
-8.48268
 21
14.1525
  0
LINE
  8
0
 10
-8.48268
 20
14.1525
 11
-7.77805
 21
14.5517
  0
LINE
  8
0
 10
-7.77805
 20
14.5517
 11
-7.05466
 21
14.9158
  0
LINE
  8
0
 10
-7.05466
 20
14.9158
 11
-6.31427
 21
15.244
  0
LINE
  8
0
 10
-6.31427
 20
15.244
 11
-5.57185
 21
15.5304
  0
LINE
  8
0
 10
-5.57185
 20
15.5304
 11
-1.09355
 21
1.7476
  0
LINE
  8
0
 10
-1.09355
 20
1.7476
 11
-0.142502
 21
2.05661
  0
LINE
  8
0
 10
-0.142502
 20
2.05661
 11
-4.61986
 21
15.8365
  0
LINE
  8
0
 10
-4.61986
 20
15.8365
 11
-4.00917
 21
16.0055
  0
LINE
  8
0
 10
-4.00917
 20
16.0055
 11
-3.21898
 21
16.183
  0
LINE
  8
0
 10
-3.21898
 20
16.183
 11
-2.42105
 21
16.3214
  0
LINE
  8
0
 10
-2.42105
 20
16.3214
 11
-1.61728
 21
16.4205
  0
LINE
  8
0
 10
-1.61728
 20
16.4205
 11
-0.809616
 21
16.4801
  0
LINE
  8
0
 10
-0.809616
 20
16.4801
 11
0
 21
16.5
  0
LINE
  8
0
 10
0
 20
16.5
 11
0.809616
 21
16.4801
  0
LINE
  8
0
 10
0.809616
 20
16.4801
 11
1.61728
 21
16.4205
  0
LINE
  8
0
 10
1.61728
 20
16.4205
 11
2.42105
 21
16.3214
  0
LINE
  8
0
 10
2.42105
 20
16.3214
 11
3.21898
 21
16.183
  0
LINE
  8
0
 10
3.21898
 20
16.183
 11
4.00917
 21
16.0055
  0
LINE
  8
0
 10
4.00917
 20
16.0055
 11
4.61986
 21
15.8365
  0
LINE
  8
0
 10
4.61986
 20
15.8365
 11
0.142502
 21
2.05661
  0
LINE
  8
0
 10
0.142502
 20
2.05661
 11
1.09355
 21
1.7476
  0
LINE
  8
0
 10
1.09355
 20
1.7476
 11
5.57185
 21
15.5304
  0
LINE
  8
0
 10
5.57185
 20
15.5304
 11
6.31427
 21
15.244
  0
LINE
  8
0
 10
6.31427
 20
15.244
 11
7.05466
 21
14.9158
  0
LINE
  8
0
 10
7.05466
 20
14.9158
 11
7.77805
 21
14.5517
  0
LINE
  8
0
 10
7.77805
 20
14.5517
 11
8.48268
 21
14.1525
  0
LINE
  8
0
 10
8.48268
 20
14.1525
 11
9.1669
 21
13.7192
  0
LINE
  8
0
 10
9.1669
 20
13.7192
 11
9.82903
 21
13.2529
  0
LINE
  8
0
 10
9.82903
 20
13.2529
 11
10.4675
 21
12.7547
  0
LINE
  8
0
 10
10.4675
 20
12.7547
 11
11.0807
 21
12.2257
  0
LINE
  8
0
 10
11.0807
 20
12.2257
 11
11.6673
 21
11.6673
  0
LINE
  8
0
 10
11.6673
 20
11.6673
 11
12.2257
 21
11.0807
  0
LINE
  8
0
 10
12.2257
 20
11.0807
 11
12.7547
 21
10.4675
  0
LINE
  8
0
 10
12.7547
 20
10.4675
 11
13.0448
 21
10.0957
  0
LINE
  8
0
 10
13.0448
 20
10.0957
 11
1.32413
 21
1.58008
  0
LINE
  8
0
 10
1.32413
 20
1.58008
 11
1.91193
 21
0.771057
  0
LINE
  8
0
 10
1.91193
 20
0.771057
 11
13.6341
 21
9.28773
  0
LINE
  8
0
 10
13.6341
 20
9.28773
 11
13.7192
 21
9.1669
  0
LINE
  8
0
 10
13.7192
 20
9.1669
 11
14.1525
 21
8.48268
  0
LINE
  8
0
 10
14.1525
 20
8.48268
 11
14.5517
 21
7.77805
  0
LINE
  8
0
 10
14.5517
 20
7.77805
 11
14.9158
 21
7.05466
  0
LINE
  8
0
 10
14.9158
 20
7.05466
 11
15.244
 21
6.31427
  0
LINE
  8
0
 10
15.244
 20
6.31427
 11
15.5355
 21
5.55867
  0
LINE
  8
0
 10
15.5355
 20
5.55867
 11
15.7895
 21
4.78969
  0
LINE
  8
0
 10
15.7895
 20
4.78969
 11
16.0055
 21
4.00917
  0
LINE
  8
0
 10
16.0055
 20
4.00917
 11
16.183
 21
3.21898
  0
LINE
  8
0
 10
16.183
 20
3.21898
 11
16.3214
 21
2.42105
  0
LINE
  8
0
 10
16.3214
 20
2.42105
 11
16.4205
 21
1.61728
  0
LINE
  8
0
 10
16.4205
 20
1.61728
 11
16.4801
 21
0.809616
  0
LINE
  8
0
 10
16.4801
 20
0.809616
 11
16.4877
 21
0.5
  0
LINE
  8
0
 10
16.4877
 20
0.5
 11
2
 21
0.5
  0
LINE
  8
0
 10
2
 20
0.5
 11
2
 21
-0.5
  0
LINE
  8
0
 10
2
 20
-0.5
 11
16.4877
 21
-0.5
  0
LINE
  8
0
 10
16.4877
 20
-0.5
 11
16.4801
 21
-0.809616
  0
LINE
  8
0
 10
16.4801
 20
-0.809616
 11
16.4205
 21
-1.61728
  0
LINE
  8
0
 10
16.4205
 20
-1.61728
 11
16.3214
 21
-2.42105
  0
LINE
  8
0
 10
16.3214
 20
-2.42105
 11
16.183
 21
-3.21898
  0
LINE
  8
0
 10
16.183
 20
-3.21898
 11
16.0055
 21
-4.00917
  0
LINE
  8
0
 10
16.0055
 20
-4.00917
 11
15.7895
 21
-4.78969
  0
LINE
  8
0
 10
15.7895
 20
-4.78969
 11
15.5355
 21
-5.55867
  0
LINE
  8
0
 10
15.5355
 20
-5.55867
 11
15.244
 21
-6.31427
  0
LINE
  8
0
 10
15.244
 20
-6.31427
 11
14.9158
 21
-7.05466
  0
LINE
  8
0
 10
14.9158
 20
-7.05466
 11
14.5517
 21
-7.77805
  0
LINE
  8
0
 10
14.5517
 20
-7.77805
 11
14.1525
 21
-8.48268
  0
LINE
  8
0
 10
14.1525
 20
-8.48268
 11
13.7192
 21
-9.1669
  0
LINE
  8
0
 10
13.7192
 20
-9.1669
 11
13.6341
 21
-9.28773
  0
LINE
  8
0
 10
13.6341
 20
-9.28773
 11
1.91193
 21
-0.771057
  0
LINE
  8
0
 10
1.91193
 20
-0.771057
 11
1.32413
 21
-1.58008
  0
LINE
  8
0
 10
1.32413
 20
-1.58008
 11
13.0448
 21
-10.0957
  0
LINE
  8
0
 10
13.0448
 20
-10.0957
 11
12.7547
 21
-10.4675
  0
LINE
  8
0
 10
12.7547
 20
-10.4675
 11
12.2257
 21
-11.0807
  0
LINE
  8
0
 10
12.2257
 20
-11.0807
 11
11.6673
 21
-11.6673
  0
LINE
  8
0
 10
11.6673
 20
-11.6673
 11
11.0807
 21
-12.2257
  0
LINE
  8
0
 10
11.0807
 20
-12.2257
 11
10.4675
 21
-12.7547
  0
LINE
  8
0
 10
10.4675
 20
-12.7547
 11
9.82903
 21
-13.2529
  0
LINE
  8
0
 10
9.82903
 20
-13.2529
 11
9.1669
 21
-13.7192
  0
LINE
  8
0
 10
9.1669
 20
-13.7192
 11
8.48268
 21
-14.1525
  0
LINE
  8
0
 10
8.48268
 20
-14.1525
 11
7.77805
 21
-14.5517
  0
LINE
  8
0
 10
7.77805
 20
-14.5517
 11
7.05466
 21
-14.9158
  0
LINE
  8
0
 10
7.05466
 20
-14.9158
 11
6.31427
 21
-15.244
  0
LINE
  8
0
 10
6.31427
 20
-15.244
 11
5.57185
 21
-15.5304
  0
LINE
  8
0
 10
5.57185
 20
-15.5304
 11
1.09355
 21
-1.7476
  0
LINE
  8
0
 10
1.09355
 20
-1.7476
 11
0.142502
 21
-2.05661
  0
LINE
  8
0
 10
0.142502
 20
-2.05661
 11
4.61986
 21
-15.8365
  0
LINE
  8
0
 10
4.61986
 20
-15.8365
 11
4.00917
 21
-16.0055
  0
LINE
  8
0
 10
4.00917
 20
-16.0055
 11
3.21898
 21
-16.183
  0
LINE
  8
0
 10
3.21898
 20
-16.183
 11
2.42105
 21
-16.3214
  0
LINE
  8
0
 10
2.42105
 20
-16.3214
 11
1.61728
 21
-16.4205
  0
LINE
  8
0
 10
1.61728
 20
-16.4205
 11
0.809616
 21
-16.4801
  0
LINE
  8
0
 10
0.809616
 20
-16.4801
 11
0
 21
-16.5
  0
LINE
  8
0
 10
0
 20
-16.5
 11
-0.809616
 21
-16.4801
  0
LINE
  8
0
 10
0.0981293
 20
-1.99759
 11
0.19603
 21
-1.99036
  0
LINE
  8
0
 10
0.19603
 20
-1.99036
 11
0.293457
 21
-1.97835
  0
LINE
  8
0
 10
0.293457
 20
-1.97835
 11
0.390167
 21
-1.96156
  0
LINE
  8
0
 10
0.390167
 20
-1.96156
 11
0.485947
 21
-1.94005
  0
LINE
  8
0
 10
0.485947
 20
-1.94005
 11
0.580566
 21
-1.91388
  0
LINE
  8
0
 10
0.580566
 20
-1.91388
 11
0.673767
 21
-1.88309
  0
LINE
  8
0
 10
0.673767
 20
-1.88309
 11
0.765366
 21
-1.84775
  0
LINE
  8
0
 10
0.765366
 20
-1.84775
 11
0.855103
 21
-1.80797
  0
LINE
  8
0
 10
0.855103
 20
-1.80797
 11
0.94278
 21
-1.76384
  0
LINE
  8
0
 10
0.94278
 20
-1.76384
 11
1.0282
 21
-1.71545
  0
LINE
  8
0
 10
1.0282
 20
-1.71545
 11
1.11113
 21
-1.66293
  0
LINE
  8
0
 10
1.11113
 20
-1.66293
 11
1.19139
 21
-1.60641
  0
LINE
  8
0
 10
1.19139
 20
-1.60641
 11
1.26878
 21
-1.54602
  0
LINE
  8
0
 10
1.26878
 20
-1.54602
 11
1.34311
 21
-1.48189
  0
LINE
  8
0
 10
1.34311
 20
-1.48189
 11
1.4142
 21
-1.4142
  0
LINE
  8
0
 10
1.4142
 20
-1.4142
 11
1.48189
 21
-1.34311
  0
LINE
  8
0
 10
1.48189
 20
-1.34311
 11
1.54602
 21
-1.26878
  0
LINE
  8
0
 10
1.54602
 20
-1.26878
 11
1.60641
 21
-1.19139
  0
LINE
  8
0
 10
1.60641
 20
-1.19139
 11
1.66293
 21
-1.11113
  0
LINE
  8
0
 10
1.66293
 20
-1.11113
 11
1.71545
 21
-1.0282
  0
LINE
  8
0
 10
1.71545
 20
-1.0282
 11
1.76384
 21
-0.94278
  0
LINE
  8
0
 10
1.76384
 20
-0.94278
 11
1.80797
 21
-0.855103
  0
LINE
  8
0
 10
1.80797
 20
-0.855103
 11
1.84775
 21
-0.765366
  0
LINE
  8
0
 10
1.84775
 20
-0.765366
 11
1.88309
 21
-0.673767
  0
LINE
  8
0
 10
1.88309
 20
-0.673767
 11
1.91388
 21
-0.580566
  0
LINE
  8
0
 10
1.91388
 20
-0.580566
 11
1.94005
 21
-0.485947
  0
LINE
  8
0
 10
1.94005
 20
-0.485947
 11
1.96156
 21
-0.390167
  0
LINE
  8
0
 10
1.96156
 20
-0.390167
 11
1.97835
 21
-0.293457
  0
LINE
  8
0
 10
1.97835
 20
-0.293457
 11
1.99036
 21
-0.19603
  0
LINE
  8
0
 10
1.99036
 20
-0.19603
 11
1.99759
 21
-0.0981293
  0
LINE
  8
0
 10
1.99759
 20
-0.0981293
 11
2
 21
0
  0
LINE
  8
0
 10
2
 20
0
 11
1.99759
 21
0.0981293
  0
LINE
  8
0
 10
1.99759
 20
0.0981293
 11
1.99036
 21
0.19603
  0
LINE
  8
0
 10
1.99036
 20
0.19603
 11
1.97835
 21
0.293457
  0
LINE
  8
0
 10
1.97835
 20
0.293457
 11
1.96156
 21
0.390167
  0
LINE
  8
0
 10
1.96156
 20
0.390167
 11
1.94005
 21
0.485947
  0
LINE
  8
0
 10
1.94005
 20
0.485947
 11
1.91388
 21
0.580566
  0
LINE
  8
0
 10
1.91388
 20
0.580566
 11
1.88309
 21
0.673767
  0
LINE
  8
0
 10
1.88309
 20
0.673767
 11
1.84775
 21
0.765366
  0
LINE
  8
0
 10
1.84775
 20
0.765366
 11
1.80797
 21
0.855103
  0
LINE
  8
0
 10
1.80797
 20
0.855103
 11
1.76384
 21
0.94278
  0
LINE
  8
0
 10
1.76384
 20
0.94278
 11
1.71545
 21
1.0282
  0
LINE
  8
0
 10
1.71545
 20
1.0282
 11
1.66293
 21
1.11113
  0
LINE
  8
0
 10
1.66293
 20
1.11113
 11
1.60641
 21
1.19139
  0
LINE
  8
0
 10
1.60641
 20
1.19139
 11
1.54602
 21
1.26878
  0
LINE
  8
0
 10
1.54602
 20
1.26878
 11
1.48189
 21
1.34311
  0
LINE
  8
0
 10
1.48189
 20
1.34311
 11
1.4142
 21
1.4142
  0
LINE
  8
0
 10
1.4142
 20
1.4142
 11
1.34311
 21
1.48189
  0
LINE
  8
0
 10
1.34311
 20
1.48189
 11
1.26878
 21
1.54602
  0
LINE
  8
0
 10
1.26878
 20
1.54602
 11
1.19139
 21
1.60641
  0
LINE
  8
0
 10
1.19139
 20
1.60641
 11
1.11113
 21
1.66293
  0
LINE
  8
0
 10
1.11113
 20
1.66293
 11
1.0282
 21
1.71545
  0
LINE
  8
0
 10
1.0282
 20
1.71545
 11
0.94278
 21
1.76384
  0
LINE
  8
0
 10
0.94278
 20
1.76384
 11
0.855103
 21
1.80797
  0
LINE
  8
0
 10
0.855103
 20
1.80797
 11
0.765366
 21
1.84775
  0
LINE
  8
0
 10
0.765366
 20
1.84775
 11
0.673767
 21
1.88309
  0
LINE
  8
0
 10
0.673767
 20
1.88309
 11
0.580566
 21
1.91388
  0
LINE
  8
0
 10
0.580566
 20
1.91388
 11
0.485947
 21
1.94005
  0
LINE
  8
0
 10
0.485947
 20
1.94005
 11
0.390167
 21
1.96156
  0
LINE
  8
0
 10
0.390167
 20
1.96156
 11
0.293457
 21
1.97835
  0
LINE
  8
0
 10
0.293457
 20
1.97835
 11
0.19603
 21
1.99036
  0
LINE
  8
0
 10
0.19603
 20
1.99036
 11
0.0981293
 21
1.99759
  0
LINE
  8
0
 10
0.0981293
 20
1.99759
 11
0
 21
2
  0
LINE
  8
0
 10
0
 20
2
 11
-0.0981293
 21
1.99759
  0
LINE
  8
0
 10
-0.0981293
 20
1.99759
 11
-0.19603
 21
1.99036
  0
LINE
  8
0
 10
-0.19603
 20
1.99036
 11
-0.293457
 21
1.97835
  0
LINE
  8
0
 10
-0.293457
 20
1.97835
 11
-0.390167
 21
1.96156
  0
LINE
  8
0
 10
-0.390167
 20
1.96156
 11
-0.485947
 21
1.94005
  0
LINE
  8
0
 10
-0.485947
 20
1.94005
 11
-0.580566
 21
1.91388
  0
LINE
  8
0
 10
-0.580566
 20
1.91388
 11
-0.673767
 21
1.88309
  0
LINE
  8
0
 10
-0.673767
 20
1.88309
 11
-0.765366
 21
1.84775
  0
LINE
  8
0
 10
-0.765366
 20
1.84775
 11
-0.855103
 21
1.80797
  0
LINE
  8
0
 10
-0.855103
 20
1.80797
 11
-0.94278
 21
1.76384
  0
LINE
  8
0
 10
-0.94278
 20
1.76384
 11
-1.0282
 21
1.71545
  0
LINE
  8
0
 10
-1.0282
 20
1.71545
 11
-1.11113
 21
1.66293
  0
LINE
  8
0
 10
-1.11113
 20
1.66293
 11
-1.19139
 21
1.60641
  0
LINE
  8
0
 10
-1.19139
 20
1.60641
 11
-1.26878
 21
1.54602
  0
LINE
  8
0
 10
-1.26878
 20
1.54602
 11
-1.34311
 21
1.48189
  0
LINE
  8
0
 10
-1.34311
 20
1.48189
 11
-1.4142
 21
1.4142
  0
LINE
  8
0
 10
-1.4142
 20
1.4142
 11
-1.48189
 21
1.34311
  0
LINE
  8
0
 10
-1.48189
 20
1.34311
 11
-1.54602
 21
1.26878
  0
LINE
  8
0
 10
-1.54602
 20
1.26878
 11
-1.60641
 21
1.19139
  0
LINE
  8
0
 10
-1.60641
 20
1.19139
 11
-1.66293
 21
1.11113
  0
LINE
  8
0
 10
-1.66293
 20
1.11113
 11
-1.71545
 21
1.0282
  0
LINE
  8
0
 10
-1.71545
 20
1.0282
 11
-1.76384
 21
0.94278
  0
LINE
  8
0
 10
-1.76384
 20
0.94278
 11
-1.80797
 21
0.855103
  0
LINE
  8
0
 10
-1.80797
 20
0.855103
 11
-1.84775
 21
0.765366
  0
LINE
  8
0
 10
-1.84775
 20
0.765366
 11
-1.88309
 21
0.673767
  0
LINE
  8
0
 10
-1.88309
 20
0.673767
 11
-1.91388
 21
0.580566
  0
LINE
  8
0
 10
-1.91388
 20
0.580566
 11
-1.94005
 21
0.485947
  0
LINE
  8
0
 10
-1.94005
 20
0.485947
 11
-1.96156
 21
0.390167
  0
LINE
  8
0
 10
-1.96156
 20
0.390167
 11
-1.97835
 21
0.293457
  0
LINE
  8
0
 10
-1.97835
 20
0.293457
 11
-1.99036
 21
0.19603
  0
LINE
  8
0
 10
-1.99036
 20
0.19603
 11
-1.99759
 21
0.0981293
  0
LINE
  8
0
 10
-1.99759
 20
0.0981293
 11
-2
 21
0
  0
LINE
  8
0
 10
-2
 20
0
 11
-1.99759
 21
-0.0981293
  0
LINE
  8
0
 10
-1.99759
 20
-0.0981293
 11
-1.99036
 21
-0.19603
  0
LINE
  8
0
 10
-1.99036
 20
-0.19603
 11
-1.97835
 21
-0.293457
  0
LINE
  8
0
 10
-1.97835
 20
-0.293457
 11
-1.96156
 21
-0.390167
  0
LINE
  8
0
 10
-1.96156
 20
-0.390167
 11
-1.94005
 21
-0.485947
  0
LINE
  8
0
 10
-1.94005
 20
-0.485947
 11
-1.91388
 21
-0.580566
  0
LINE
  8
0
 10
-1.91388
 20
-0.580566
 11
-1.88309
 21
-0.673767
  0
LINE
  8
0
 10
-1.88309
 20
-0.673767
 11
-1.84775
 21
-0.765366
  0
LINE
  8
0
 10
-1.84775
 20
-0.765366
 11
-1.80797
 21
-0.855103
  0
LINE
  8
0
 10
-1.80797
 20
-0.855103
 11
-1.76384
 21
-0.94278
  0
LINE
  8
0
 10
-1.76384
 20
-0.94278
 11
-1.71545
 21
-1.0282
  0
LINE
  8
0
 10
-1.71545
 20
-1.0282
 11
-1.66293
 21
-1.11113
  0
LINE
  8
0
 10
-1.66293
 20
-1.11113
 11
-1.60641
 21
-1.19139
  0
LINE
  8
0
 10
-1.60641
 20
-1.19139
 11
-1.54602
 21
-1.26878
  0
LINE
  8
0
 10
-1.54602
 20
-1.26878
 11
-1.48189
 21
-1.34311
  0
LINE
  8
0
 10
-1.48189
 20
-1.34311
 11
-1.4142
 21
-1.4142
  0
LINE
  8
0
 10
-1.4142
 20
-1.4142
 11
-1.34311
 21
-1.48189
  0
LINE
  8
0
 10
-1.34311
 20
-1.48189
 11
-1.26878
 21
-1.54602
  0
LINE
  8
0
 10
-1.26878
 20
-1.54602
 11
-1.19139
 21
-1.60641
  0
LINE
  8
0
 10
-1.19139
 20
-1.60641
 11
-1.11113
 21
-1.66293
  0
LINE
  8
0
 10
-1.11113
 20
-1.66293
 11
-1.0282
 21
-1.71545
  0
LINE
  8
0
 10
-1.0282
 20
-1.71545
 11
-0.94278
 21
-1.76384
  0
LINE
  8
0
 10
-0.94278
 20
-1.76384
 11
-0.855103
 21
-1.80797
  0
LINE
  8
0
 10
-0.855103
 20
-1.80797
 11
-0.765366
 21
-1.84775
  0
LINE
  8
0
 10
-0.765366
 20
-1.84775
 11
-0.673767
 21
-1.88309
  0
LINE
  8
0
 10
-0.673767
 20
-1.88309
 11
-0.580566
 21
-1.91388
  0
LINE
  8
0
 10
-0.580566
 20
-1.91388
 11
-0.485947
 21
-1.94005
  0
LINE
  8
0
 10
-0.485947
 20
-1.94005
 11
-0.390167
 21
-1.96156
  0
LINE
  8
0
 10
-0.390167
 20
-1.96156
 11
-0.293457
 21
-1.97835
  0
LINE
  8
0
 10
-0.293457
 20
-1.97835
 11
-0.19603
 21
-1.99036
  0
LINE
  8
0
 10
-0.19603
 20
-1.99036
 11
-0.0981293
 21
-1.99759
  0
LINE
  8
0
 10
-0.0981293
 20
-1.99759
 11
0
 21
-2
  0
LINE
  8
0
 10
0
 20
-2
 11
0.0981293
 21
-1.99759
  0
LINE
  8
0
 10
-0.049057
 20
-0.998795
 11
-0.0980072
 21
-0.995178
  0
LINE
  8
0
 10
-0.0980072
 20
-0.995178
 11
-0.146729
 21
-0.989166
  0
LINE
  8
0
 10
-0.146729
 20
-0.989166
 11
-0.195084
 21
-0.980774
  0
LINE
  8
0
 10
-0.195084
 20
-0.980774
 11
-0.242966
 21
-0.970016
  0
LINE
  8
0
 10
-0.242966
 20
-0.970016
 11
-0.290283
 21
-0.95694
  0
LINE
  8
0
 10
-0.290283
 20
-0.95694
 11
-0.336884
 21
-0.941544
  0
LINE
  8
0
 10
-0.336884
 20
-0.941544
 11
-0.382675
 21
-0.923874
  0
LINE
  8
0
 10
-0.382675
 20
-0.923874
 11
-0.427551
 21
-0.903976
  0
LINE
  8
0
 10
-0.427551
 20
-0.903976
 11
-0.47139
 21
-0.881912
  0
LINE
  8
0
 10
-0.47139
 20
-0.881912
 11
-0.514099
 21
-0.857727
  0
LINE
  8
0
 10
-0.514099
 20
-0.857727
 11
-0.555557
 21
-0.831467
  0
LINE
  8
0
 10
-0.555557
 20
-0.831467
 11
-0.595688
 21
-0.803207
  0
LINE
  8
0
 10
-0.595688
 20
-0.803207
 11
-0.634384
 21
-0.77301
  0
LINE
  8
0
 10
-0.634384
 20
-0.77301
 11
-0.671555
 21
-0.740936
  0
LINE
  8
0
 10
-0.671555
 20
-0.740936
 11
-0.707092
 21
-0.707092
  0
LINE
  8
0
 10
-0.707092
 20
-0.707092
 11
-0.740936
 21
-0.671555
  0
LINE
  8
0
 10
-0.740936
 20
-0.671555
 11
-0.77301
 21
-0.634384
  0
LINE
  8
0
 10
-0.77301
 20
-0.634384
 11
-0.803207
 21
-0.595688
  0
LINE
  8
0
 10
-0.803207
 20
-0.595688
 11
-0.831467
 21
-0.555557
  0
LINE
  8
0
 10
-0.831467
 20
-0.555557
 11
-0.857727
 21
-0.514099
  0
LINE
  8
0
 10
-0.857727
 20
-0.514099
 11
-0.881912
 21
-0.47139
  0
LINE
  8
0
 10
-0.881912
 20
-0.47139
 11
-0.903976
 21
-0.427551
  0
LINE
  8
0
 10
-0.903976
 20
-0.427551
 11
-0.923874
 21
-0.382675
  0
LINE
  8
0
 10
-0.923874
 20
-0.382675
 11
-0.941544
 21
-0.336884
  0
LINE
  8
0
 10
-0.941544
 20
-0.336884
 11
-0.95694
 21
-0.290283
  0
LINE
  8
0
 10
-0.95694
 20
-0.290283
 11
-0.970016
 21
-0.242966
  0
LINE
  8
0
 10
-0.970016
 20
-0.242966
 11
-0.980774
 21
-0.195084
  0
LINE
  8
0
 10
-0.980774
 20
-0.195084
 11
-0.989166
 21
-0.146729
  0
LINE
  8
0
 10
-0.989166
 20
-0.146729
 11
-0.995178
 21
-0.0980072
  0
LINE
  8
0
 10
-0.995178
 20
-0.0980072
 11
-0.998795
 21
-0.049057
  0
LINE
  8
0
 10
-0.998795
 20
-0.049057
 11
-1
 21
0
  0
LINE
  8
0
 10
-1
 20
0
 11
-0.998795
 21
0.049057
  0
LINE
  8
0
 10
-0.998795
 20
0.049057
 11
-0.995178
 21
0.0980072
  0
LINE
  8
0
 10
-0.995178
 20
0.0980072
 11
-0.989166
 21
0.146729
  0
LINE
  8
0
 10
-0.989166
 20
0.146729
 11
-0.980774
 21
0.195084
  0
LINE
  8
0
 10
-0.980774
 20
0.195084
 11
-0.970016
 21
0.242966
  0
LINE
  8
0
 10
-0.970016
 20
0.242966
 11
-0.95694
 21
0.290283
  0
LINE
  8
0
 10
-0.95694
 20
0.290283
 11
-0.941544
 21
0.336884
  0
LINE
  8
0
 10
-0.941544
 20
0.336884
 11
-0.923874
 21
0.382675
  0
LINE
  8
0
 10
-0.923874
 20
0.382675
 11
-0.903976
 21
0.427551
  0
LINE
  8
0
 10
-0.903976
 20
0.427551
 11
-0.881912
 21
0.47139
  0
LINE
  8
0
 10
-0.881912
 20
0.47139
 11
-0.857727
 21
0.514099
  0
LINE
  8
0
 10
-0.857727
 20
0.514099
 11
-0.831467
 21
0.555557
  0
LINE
  8
0
 10
-0.831467
 20
0.555557
 11
-0.803207
 21
0.595688
  0
LINE
  8
0
 10
-0.803207
 20
0.595688
 11
-0.77301
 21
0.634384
  0
LINE
  8
0
 10
-0.77301
 20
0.634384
 11
-0.740936
 21
0.671555
  0
LINE
  8
0
 10
-0.740936
 20
0.671555
 11
-0.707092
 21
0.707092
  0
LINE
  8
0
 10
-0.707092
 20
0.707092
 11
-0.671555
 21
0.740936
  0
LINE
  8
0
 10
-0.671555
 20
0.740936
 11
-0.634384
 21
0.77301
  0
LINE
  8
0
 10
-0.634384
 20
0.77301
 11
-0.595688
 21
0.803207
  0
LINE
  8
0
 10
-0.595688
 20
0.803207
 11
-0.555557
 21
0.831467
  0
LINE
  8
0
 10
-0.555557
 20
0.831467
 11
-0.514099
 21
0.857727
  0
LINE
  8
0
 10
-0.514099
 20
0.857727
 11
-0.47139
 21
0.881912
  0
LINE
  8
0
 10
-0.47139
 20
0.881912
 11
-0.427551
 21
0.903976
  0
LINE
  8
0
 10
-0.427551
 20
0.903976
 11
-0.382675
 21
0.923874
  0
LINE
  8
0
 10
-0.382675
 20
0.923874
 11
-0.336884
 21
0.941544
  0
LINE
  8
0
 10
-0.336884
 20
0.941544
 11
-0.290283
 21
0.95694
  0
LINE
  8
0
 10
-0.290283
 20
0.95694
 11
-0.242966
 21
0.970016
  0
LINE
  8
0
 10
-0.242966
 20
0.970016
 11
-0.195084
 21
0.980774
  0
LINE
  8
0
 10
-0.195084
 20
0.980774
 11
-0.146729
 21
0.989166
  0
LINE
  8
0
 10
-0.146729
 20
0.989166
 11
-0.0980072
 21
0.995178
  0
LINE
  8
0
 10
-0.0980072
 20
0.995178
 11
-0.049057
 21
0.998795
  0
LINE
  8
0
 10
-0.049057
 20
0.998795
 11
0
 21
1
  0
LINE
  8
0
 10
0
 20
1
 11
0.049057
 21
0.998795
  0
LINE
  8
0
 10
0.049057
 20
0.998795
 11
0.0980072
 21
0.995178
  0
LINE
  8
0
 10
0.0980072
 20
0.995178
 11
0.146729
 21
0.989166
  0
LINE
  8
0
 10
0.146729
 20
0.989166
 11
0.195084
 21
0.980774
  0
LINE
  8
0
 10
0.195084
 20
0.980774
 11
0.242966
 21
0.970016
  0
LINE
  8
0
 10
0.242966
 20
0.970016
 11
0.290283
 21
0.95694
  0
LINE
  8
0
 10
0.290283
 20
0.95694
 11
0.336884
 21
0.941544
  0
LINE
  8
0
 10
0.336884
 20
0.941544
 11
0.382675
 21
0.923874
  0
LINE
  8
0
 10
0.382675
 20
0.923874
 11
0.427551
 21
0.903976
  0
LINE
  8
0
 10
0.427551
 20
0.903976
 11
0.47139
 21
0.881912
  0
LINE
  8
0
 10
0.47139
 20
0.881912
 11
0.514099
 21
0.857727
  0
LINE
  8
0
 10
0.514099
 20
0.857727
 11
0.555557
 21
0.831467
  0
LINE
  8
0
 10
0.555557
 20
0.831467
 11
0.595688
 21
0.803207
  0
LINE
  8
0
 10
0.595688
 20
0.803207
 11
0.634384
 21
0.77301
  0
LINE
  8
0
 10
0.634384
 20
0.77301
 11
0.671555
 21
0.740936
  0
LINE
  8
0
 10
0.671555
 20
0.740936
 11
0.707092
 21
0.707092
  0
LINE
  8
0
 10
0.707092
 20
0.707092
 11
0.740936
 21
0.671555
  0
LINE
  8
0
 10
0.740936
 20
0.671555
 11
0.77301
 21
0.634384
  0
LINE
  8
0
 10
0.77301
 20
0.634384
 11
0.803207
 21
0.595688
  0
LINE
  8
0
 10
0.803207
 20
0.595688
 11
0.831467
 21
0.555557
  0
LINE
  8
0
 10
0.831467
 20
0.555557
 11
0.857727
 21
0.514099
  0
LINE
  8
0
 10
0.857727
 20
0.514099
 11
0.881912
 21
0.47139
  0
LINE
  8
0
 10
0.881912
 20
0.47139
 11
0.903976
 21
0.427551
  0
LINE
  8
0
 10
0.903976
 20
0.427551
 11
0.923874
 21
0.382675
  0
LINE
  8
0
 10
0.923874
 20
0.382675
 11
0.941544
 21
0.336884
  0
LINE
  8
0
 10
0.941544
 20
0.336884
 11
0.95694
 21
0.290283
  0
LINE
  8
0
 10
0.95694
 20
0.290283
 11
0.970016
 21
0.242966
  0
LINE
  8
0
 10
0.970016
 20
0.242966
 11
0.980774
 21
0.195084
  0
LINE
  8
0
 10
0.980774
 20
0.195084
 11
0.989166
 21
0.146729
  0
LINE
  8
0
 10
0.989166
 20
0.146729
 11
0.995178
 21
0.0980072
  0
LINE
  8
0
 10
0.995178
 20
0.0980072
 11
0.998795
 21
0.049057
  0
LINE
  8
0
 10
0.998795
 20
0.049057
 11
1
 21
0
  0
LINE
  8
0
 10
1
 20
0
 11
0.998795
 21
-0.049057
  0
LINE
  8
0
 10
0.998795
 20
-0.049057
 11
0.995178
 21
-0.0980072
  0
LINE
  8
0
 10
0.995178
 20
-0.0980072
 11
0.989166
 21
-0.146729
  0
LINE
  8
0
 10
0.989166
 20
-0.146729
 11
0.980774
 21
-0.195084
  0
LINE
  8
0
 10
0.980774
 20
-0.195084
 11
0.970016
 21
-0.242966
  0
LINE
  8
0
 10
0.970016
 20
-0.242966
 11
0.95694
 21
-0.290283
  0
LINE
  8
0
 10
0.95694
 20
-0.290283
 11
0.941544
 21
-0.336884
  0
LINE
  8
0
 10
0.941544
 20
-0.336884
 11
0.923874
 21
-0.382675
  0
LINE
  8
0
 10
0.923874
 20
-0.382675
 11
0.903976
 21
-0.427551
  0
LINE
  8
0
 10
0.903976
 20
-0.427551
 11
0.881912
 21
-0.47139
  0
LINE
  8
0
 10
0.881912
 20
-0.47139
 11
0.857727
 21
-0.514099
  0
LINE
  8
0
 10
0.857727
 20
-0.514099
 11
0.831467
 21
-0.555557
  0
LINE
  8
0
 10
0.831467
 20
-0.555557
 11
0.803207
 21
-0.595688
  0
LINE
  8
0
 10
0.803207
 20
-0.595688
 11
0.77301
 21
-0.634384
  0
LINE
  8
0
 10
0.77301
 20
-0.634384
 11
0.740936
 21
-0.671555
  0
LINE
  8
0
 10
0.740936
 20
-0.671555
 11
0.707092
 21
-0.707092
  0
LINE
  8
0
 10
0.707092
 20
-0.707092
 11
0.671555
 21
-0.740936
  0
LINE
  8
0
 10
0.671555
 20
-0.740936
 11
0.634384
 21
-0.77301
  0
LINE
  8
0
 10
0.634384
 20
-0.77301
 11
0.595688
 21
-0.803207
  0
LINE
  8
0
 10
0.595688
 20
-0.803207
 11
0.555557
 21
-0.831467
  0
LINE
  8
0
 10
0.555557
 20
-0.831467
 11
0.514099
 21
-0.857727
  0
LINE
  8
0
 10
0.514099
 20
-0.857727
 11
0.47139
 21
-0.881912
  0
LINE
  8
0
 10
0.47139
 20
-0.881912
 11
0.427551
 21
-0.903976
  0
LINE
  8
0
 10
0.427551
 20
-0.903976
 11
0.382675
 21
-0.923874
  0
LINE
  8
0
 10
0.382675
 20
-0.923874
 11
0.336884
 21
-0.941544
  0
LINE
  8
0
 10
0.336884
 20
-0.941544
 11
0.290283
 21
-0.95694
  0
LINE
  8
0
 10
0.290283
 20
-0.95694
 11
0.242966
 21
-0.970016
  0
LINE
  8
0
 10
0.242966
 20
-0.970016
 11
0.195084
 21
-0.980774
  0
LINE
  8
0
 10
0.195084
 20
-0.980774
 11
0.146729
 21
-0.989166
  0
LINE
  8
0
 10
0.146729
 20
-0.989166
 11
0.0980072
 21
-0.995178
  0
LINE
  8
0
 10
0.0980072
 20
-0.995178
 11
0.049057
 21
-0.998795
  0
LINE
  8
0
 10
0.049057
 20
-0.998795
 11
0
 21
-1
  0
LINE
  8
0
 10
0
 20
-1
 11
-0.049057
 21
-0.998795
  0
ENDSEC
  0
SECTION
  2
OBJECTS
  0
DICTIONARY
  0
ENDSEC
  0
EOF
