  0
SECTION
  2
BLOCKS
  0
ENDSEC
  0
SECTION
  2
ENTITIES
  0
LINE
  8
0
 10
2.52698
 20
-51.438
 11
5.04788
 21
-51.252
  0
LINE
  8
0
 10
5.04788
 20
-51.252
 11
7.55661
 21
-50.9426
  0
LINE
  8
0
 10
7.55661
 20
-50.9426
 11
10.0471
 21
-50.5104
  0
LINE
  8
0
 10
10.0471
 20
-50.5104
 11
12.5135
 21
-49.9566
  0
LINE
  8
0
 10
12.5135
 20
-49.9566
 11
14.9496
 21
-49.2824
  0
LINE
  8
0
 10
14.9496
 20
-49.2824
 11
17.3498
 21
-48.4895
  0
LINE
  8
0
 10
17.3498
 20
-48.4895
 11
19.7082
 21
-47.5798
  0
LINE
  8
0
 10
19.7082
 20
-47.5798
 11
22.0191
 21
-46.5554
  0
LINE
  8
0
 10
22.0191
 20
-46.5554
 11
24.2769
 21
-45.4189
  0
LINE
  8
0
 10
24.2769
 20
-45.4189
 11
26.4763
 21
-44.173
  0
LINE
  8
0
 10
26.4763
 20
-44.173
 11
28.6119
 21
-42.8207
  0
LINE
  8
0
 10
28.6119
 20
-42.8207
 11
30.6785
 21
-41.3652
  0
LINE
  8
0
 10
30.6785
 20
-41.3652
 11
32.6712
 21
-39.81
  0
LINE
  8
0
 10
32.6712
 20
-39.81
 11
34.5853
 21
-38.159
  0
LINE
  8
0
 10
34.5853
 20
-38.159
 11
36.416
 21
-36.416
  0
LINE
  8
0
 10
36.416
 20
-36.416
 11
38.159
 21
-34.5853
  0
LINE
  8
0
 10
38.159
 20
-34.5853
 11
39.81
 21
-32.6712
  0
LINE
  8
0
 10
39.81
 20
-32.6712
 11
41.3652
 21
-30.6785
  0
LINE
  8
0
 10
41.3652
 20
-30.6785
 11
42.8207
 21
-28.6119
  0
LINE
  8
0
 10
42.8207
 20
-28.6119
 11
44.173
 21
-26.4763
  0
LINE
  8
0
 10
44.173
 20
-26.4763
 11
45.4189
 21
-24.2769
  0
LINE
  8
0
 10
45.4189
 20
-24.2769
 11
46.5554
 21
-22.0191
  0
LINE
  8
0
 10
46.5554
 20
-22.0191
 11
47.5798
 21
-19.7082
  0
LINE
  8
0
 10
47.5798
 20
-19.7082
 11
48.4895
 21
-17.3498
  0
LINE
  8
0
 10
48.4895
 20
-17.3498
 11
49.2824
 21
-14.9496
  0
LINE
  8
0
 10
49.2824
 20
-14.9496
 11
49.9566
 21
-12.5135
  0
LINE
  8
0
 10
49.9566
 20
-12.5135
 11
50.5104
 21
-10.0471
  0
LINE
  8
0
 10
50.5104
 20
-10.0471
 11
50.9426
 21
-7.55661
  0
LINE
  8
0
 10
50.9426
 20
-7.55661
 11
51.252
 21
-5.04788
  0
LINE
  8
0
 10
51.252
 20
-5.04788
 11
51.438
 21
-2.52698
  0
LINE
  8
0
 10
51.438
 20
-2.52698
 11
51.5
 21
0
  0
LINE
  8
0
 10
51.5
 20
0
 11
51.438
 21
2.52698
  0
LINE
  8
0
 10
51.438
 20
2.52698
 11
51.252
 21
5.04788
  0
LINE
  8
0
 10
51.252
 20
5.04788
 11
50.9426
 21
7.55661
  0
LINE
  8
0
 10
50.9426
 20
7.55661
 11
50.5104
 21
10.0471
  0
LINE
  8
0
 10
50.5104
 20
10.0471
 11
49.9566
 21
12.5135
  0
LINE
  8
0
 10
49.9566
 20
12.5135
 11
49.2824
 21
14.9496
  0
LINE
  8
0
 10
49.2824
 20
14.9496
 11
48.4895
 21
17.3498
  0
LINE
  8
0
 10
48.4895
 20
17.3498
 11
47.5798
 21
19.7082
  0
LINE
  8
0
 10
47.5798
 20
19.7082
 11
46.5554
 21
22.0191
  0
LINE
  8
0
 10
46.5554
 20
22.0191
 11
45.4189
 21
24.2769
  0
LINE
  8
0
 10
45.4189
 20
24.2769
 11
44.173
 21
26.4763
  0
LINE
  8
0
 10
44.173
 20
26.4763
 11
42.8207
 21
28.6119
  0
LINE
  8
0
 10
42.8207
 20
28.6119
 11
41.3652
 21
30.6785
  0
LINE
  8
0
 10
41.3652
 20
30.6785
 11
39.81
 21
32.6712
  0
LINE
  8
0
 10
39.81
 20
32.6712
 11
38.159
 21
34.5853
  0
LINE
  8
0
 10
38.159
 20
34.5853
 11
36.416
 21
36.416
  0
LINE
  8
0
 10
36.416
 20
36.416
 11
34.5853
 21
38.159
  0
LINE
  8
0
 10
34.5853
 20
38.159
 11
32.6712
 21
39.81
  0
LINE
  8
0
 10
32.6712
 20
39.81
 11
30.6785
 21
41.3652
  0
LINE
  8
0
 10
30.6785
 20
41.3652
 11
28.6119
 21
42.8207
  0
LINE
  8
0
 10
28.6119
 20
42.8207
 11
26.4763
 21
44.173
  0
LINE
  8
0
 10
26.4763
 20
44.173
 11
24.2769
 21
45.4189
  0
LINE
  8
0
 10
24.2769
 20
45.4189
 11
22.0191
 21
46.5554
  0
LINE
  8
0
 10
22.0191
 20
46.5554
 11
19.7082
 21
47.5798
  0
LINE
  8
0
 10
19.7082
 20
47.5798
 11
17.3498
 21
48.4895
  0
LINE
  8
0
 10
17.3498
 20
48.4895
 11
14.9496
 21
49.2824
  0
LINE
  8
0
 10
14.9496
 20
49.2824
 11
12.5135
 21
49.9566
  0
LINE
  8
0
 10
12.5135
 20
49.9566
 11
10.0471
 21
50.5104
  0
LINE
  8
0
 10
10.0471
 20
50.5104
 11
7.55661
 21
50.9426
  0
LINE
  8
0
 10
7.55661
 20
50.9426
 11
5.04788
 21
51.252
  0
LINE
  8
0
 10
5.04788
 20
51.252
 11
2.52698
 21
51.438
  0
LINE
  8
0
 10
2.52698
 20
51.438
 11
0
 21
51.5
  0
LINE
  8
0
 10
0
 20
51.5
 11
-2.52698
 21
51.438
  0
LINE
  8
0
 10
-2.52698
 20
51.438
 11
-5.04788
 21
51.252
  0
LINE
  8
0
 10
-5.04788
 20
51.252
 11
-7.55661
 21
50.9426
  0
LINE
  8
0
 10
-7.55661
 20
50.9426
 11
-10.0471
 21
50.5104
  0
LINE
  8
0
 10
-10.0471
 20
50.5104
 11
-12.5135
 21
49.9566
  0
LINE
  8
0
 10
-12.5135
 20
49.9566
 11
-14.9496
 21
49.2824
  0
LINE
  8
0
 10
-14.9496
 20
49.2824
 11
-17.3498
 21
48.4895
  0
LINE
  8
0
 10
-17.3498
 20
48.4895
 11
-19.7082
 21
47.5798
  0
LINE
  8
0
 10
-19.7082
 20
47.5798
 11
-22.0191
 21
46.5554
  0
LINE
  8
0
 10
-22.0191
 20
46.5554
 11
-24.2769
 21
45.4189
  0
LINE
  8
0
 10
-24.2769
 20
45.4189
 11
-26.4763
 21
44.173
  0
LINE
  8
0
 10
-26.4763
 20
44.173
 11
-28.6119
 21
42.8207
  0
LINE
  8
0
 10
-28.6119
 20
42.8207
 11
-30.6785
 21
41.3652
  0
LINE
  8
0
 10
-30.6785
 20
41.3652
 11
-32.6712
 21
39.81
  0
LINE
  8
0
 10
-32.6712
 20
39.81
 11
-34.5853
 21
38.159
  0
LINE
  8
0
 10
-34.5853
 20
38.159
 11
-36.416
 21
36.416
  0
LINE
  8
0
 10
-36.416
 20
36.416
 11
-38.159
 21
34.5853
  0
LINE
  8
0
 10
-38.159
 20
34.5853
 11
-39.81
 21
32.6712
  0
LINE
  8
0
 10
-39.81
 20
32.6712
 11
-41.3652
 21
30.6785
  0
LINE
  8
0
 10
-41.3652
 20
30.6785
 11
-42.8207
 21
28.6119
  0
LINE
  8
0
 10
-42.8207
 20
28.6119
 11
-44.173
 21
26.4763
  0
LINE
  8
0
 10
-44.173
 20
26.4763
 11
-45.4189
 21
24.2769
  0
LINE
  8
0
 10
-45.4189
 20
24.2769
 11
-46.5554
 21
22.0191
  0
LINE
  8
0
 10
-46.5554
 20
22.0191
 11
-47.5798
 21
19.7082
  0
LINE
  8
0
 10
-47.5798
 20
19.7082
 11
-48.4895
 21
17.3498
  0
LINE
  8
0
 10
-48.4895
 20
17.3498
 11
-49.2824
 21
14.9496
  0
LINE
  8
0
 10
-49.2824
 20
14.9496
 11
-49.9566
 21
12.5135
  0
LINE
  8
0
 10
-49.9566
 20
12.5135
 11
-50.5104
 21
10.0471
  0
LINE
  8
0
 10
-50.5104
 20
10.0471
 11
-50.9426
 21
7.55661
  0
LINE
  8
0
 10
-50.9426
 20
7.55661
 11
-51.252
 21
5.04788
  0
LINE
  8
0
 10
-51.252
 20
5.04788
 11
-51.438
 21
2.52698
  0
LINE
  8
0
 10
-51.438
 20
2.52698
 11
-51.5
 21
0
  0
LINE
  8
0
 10
-51.5
 20
0
 11
-51.438
 21
-2.52698
  0
LINE
  8
0
 10
-51.438
 20
-2.52698
 11
-51.252
 21
-5.04788
  0
LINE
  8
0
 10
-51.252
 20
-5.04788
 11
-50.9426
 21
-7.55661
  0
LINE
  8
0
 10
-50.9426
 20
-7.55661
 11
-50.5104
 21
-10.0471
  0
LINE
  8
0
 10
-50.5104
 20
-10.0471
 11
-49.9566
 21
-12.5135
  0
LINE
  8
0
 10
-49.9566
 20
-12.5135
 11
-49.2824
 21
-14.9496
  0
LINE
  8
0
 10
-49.2824
 20
-14.9496
 11
-48.4895
 21
-17.3498
  0
LINE
  8
0
 10
-48.4895
 20
-17.3498
 11
-47.5798
 21
-19.7082
  0
LINE
  8
0
 10
-47.5798
 20
-19.7082
 11
-46.5554
 21
-22.0191
  0
LINE
  8
0
 10
-46.5554
 20
-22.0191
 11
-45.4189
 21
-24.2769
  0
LINE
  8
0
 10
-45.4189
 20
-24.2769
 11
-44.173
 21
-26.4763
  0
LINE
  8
0
 10
-44.173
 20
-26.4763
 11
-42.8207
 21
-28.6119
  0
LINE
  8
0
 10
-42.8207
 20
-28.6119
 11
-41.3652
 21
-30.6785
  0
LINE
  8
0
 10
-41.3652
 20
-30.6785
 11
-39.81
 21
-32.6712
  0
LINE
  8
0
 10
-39.81
 20
-32.6712
 11
-38.159
 21
-34.5853
  0
LINE
  8
0
 10
-38.159
 20
-34.5853
 11
-36.416
 21
-36.416
  0
LINE
  8
0
 10
-36.416
 20
-36.416
 11
-34.5853
 21
-38.159
  0
LINE
  8
0
 10
-34.5853
 20
-38.159
 11
-32.6712
 21
-39.81
  0
LINE
  8
0
 10
-32.6712
 20
-39.81
 11
-30.6785
 21
-41.3652
  0
LINE
  8
0
 10
-30.6785
 20
-41.3652
 11
-28.6119
 21
-42.8207
  0
LINE
  8
0
 10
-28.6119
 20
-42.8207
 11
-26.4763
 21
-44.173
  0
LINE
  8
0
 10
-26.4763
 20
-44.173
 11
-24.2769
 21
-45.4189
  0
LINE
  8
0
 10
-24.2769
 20
-45.4189
 11
-22.0191
 21
-46.5554
  0
LINE
  8
0
 10
-22.0191
 20
-46.5554
 11
-19.7082
 21
-47.5798
  0
LINE
  8
0
 10
-19.7082
 20
-47.5798
 11
-17.3498
 21
-48.4895
  0
LINE
  8
0
 10
-17.3498
 20
-48.4895
 11
-14.9496
 21
-49.2824
  0
LINE
  8
0
 10
-14.9496
 20
-49.2824
 11
-12.5135
 21
-49.9566
  0
LINE
  8
0
 10
-12.5135
 20
-49.9566
 11
-10.0471
 21
-50.5104
  0
LINE
  8
0
 10
-10.0471
 20
-50.5104
 11
-7.55661
 21
-50.9426
  0
LINE
  8
0
 10
-7.55661
 20
-50.9426
 11
-5.04788
 21
-51.252
  0
LINE
  8
0
 10
-5.04788
 20
-51.252
 11
-2.52698
 21
-51.438
  0
LINE
  8
0
 10
-2.52698
 20
-51.438
 11
0
 21
-51.5
  0
LINE
  8
0
 10
0
 20
-51.5
 11
2.52698
 21
-51.438
  0
LINE
  8
0
 10
-0.147202
 20
-2.99638
 11
-0.294037
 21
-2.98555
  0
LINE
  8
0
 10
-0.294037
 20
-2.98555
 11
-0.440186
 21
-2.96753
  0
LINE
  8
0
 10
-0.440186
 20
-2.96753
 11
-0.585266
 21
-2.94235
  0
LINE
  8
0
 10
-0.585266
 20
-2.94235
 11
-0.728928
 21
-2.91008
  0
LINE
  8
0
 10
-0.728928
 20
-2.91008
 11
-0.87085
 21
-2.87082
  0
LINE
  8
0
 10
-0.87085
 20
-2.87082
 11
-1.01067
 21
-2.82463
  0
LINE
  8
0
 10
-1.01067
 20
-2.82463
 11
-1.14804
 21
-2.77164
  0
LINE
  8
0
 10
-1.14804
 20
-2.77164
 11
-1.28265
 21
-2.71196
  0
LINE
  8
0
 10
-1.28265
 20
-2.71196
 11
-1.41418
 21
-2.64575
  0
LINE
  8
0
 10
-1.41418
 20
-2.64575
 11
-1.5423
 21
-2.57318
  0
LINE
  8
0
 10
-1.5423
 20
-2.57318
 11
-1.6667
 21
-2.4944
  0
LINE
  8
0
 10
-1.6667
 20
-2.4944
 11
-1.78709
 21
-2.40962
  0
LINE
  8
0
 10
-1.78709
 20
-2.40962
 11
-1.90317
 21
-2.31903
  0
LINE
  8
0
 10
-1.90317
 20
-2.31903
 11
-2.01466
 21
-2.22284
  0
LINE
  8
0
 10
-2.01466
 20
-2.22284
 11
-2.12131
 21
-2.12131
  0
LINE
  8
0
 10
-2.12131
 20
-2.12131
 11
-2.22284
 21
-2.01466
  0
LINE
  8
0
 10
-2.22284
 20
-2.01466
 11
-2.31903
 21
-1.90317
  0
LINE
  8
0
 10
-2.31903
 20
-1.90317
 11
-2.40962
 21
-1.78709
  0
LINE
  8
0
 10
-2.40962
 20
-1.78709
 11
-2.4944
 21
-1.6667
  0
LINE
  8
0
 10
-2.4944
 20
-1.6667
 11
-2.57318
 21
-1.5423
  0
LINE
  8
0
 10
-2.57318
 20
-1.5423
 11
-2.64575
 21
-1.41418
  0
LINE
  8
0
 10
-2.64575
 20
-1.41418
 11
-2.71196
 21
-1.28265
  0
LINE
  8
0
 10
-2.71196
 20
-1.28265
 11
-2.77164
 21
-1.14804
  0
LINE
  8
0
 10
-2.77164
 20
-1.14804
 11
-2.82463
 21
-1.01067
  0
LINE
  8
0
 10
-2.82463
 20
-1.01067
 11
-2.87082
 21
-0.87085
  0
LINE
  8
0
 10
-2.87082
 20
-0.87085
 11
-2.91008
 21
-0.728928
  0
LINE
  8
0
 10
-2.91008
 20
-0.728928
 11
-2.94235
 21
-0.585266
  0
LINE
  8
0
 10
-2.94235
 20
-0.585266
 11
-2.96753
 21
-0.440186
  0
LINE
  8
0
 10
-2.96753
 20
-0.440186
 11
-2.98555
 21
-0.294037
  0
LINE
  8
0
 10
-2.98555
 20
-0.294037
 11
-2.99638
 21
-0.147202
  0
LINE
  8
0
 10
-2.99638
 20
-0.147202
 11
-3
 21
0
  0
LINE
  8
0
 10
-3
 20
0
 11
-2.99638
 21
0.147202
  0
LINE
  8
0
 10
-2.99638
 20
0.147202
 11
-2.98555
 21
0.294037
  0
LINE
  8
0
 10
-2.98555
 20
0.294037
 11
-2.96753
 21
0.440186
  0
LINE
  8
0
 10
-2.96753
 20
0.440186
 11
-2.94235
 21
0.585266
  0
LINE
  8
0
 10
-2.94235
 20
0.585266
 11
-2.91008
 21
0.728928
  0
LINE
  8
0
 10
-2.91008
 20
0.728928
 11
-2.87082
 21
0.87085
  0
LINE
  8
0
 10
-2.87082
 20
0.87085
 11
-2.82463
 21
1.01067
  0
LINE
  8
0
 10
-2.82463
 20
1.01067
 11
-2.77164
 21
1.14804
  0
LINE
  8
0
 10
-2.77164
 20
1.14804
 11
-2.71196
 21
1.28265
  0
LINE
  8
0
 10
-2.71196
 20
1.28265
 11
-2.64575
 21
1.41418
  0
LINE
  8
0
 10
-2.64575
 20
1.41418
 11
-2.57318
 21
1.5423
  0
LINE
  8
0
 10
-2.57318
 20
1.5423
 11
-2.4944
 21
1.6667
  0
LINE
  8
0
 10
-2.4944
 20
1.6667
 11
-2.40962
 21
1.78709
  0
LINE
  8
0
 10
-2.40962
 20
1.78709
 11
-2.31903
 21
1.90317
  0
LINE
  8
0
 10
-2.31903
 20
1.90317
 11
-2.22284
 21
2.01466
  0
LINE
  8
0
 10
-2.22284
 20
2.01466
 11
-2.12131
 21
2.12131
  0
LINE
  8
0
 10
-2.12131
 20
2.12131
 11
-2.01466
 21
2.22284
  0
LINE
  8
0
 10
-2.01466
 20
2.22284
 11
-1.90317
 21
2.31903
  0
LINE
  8
0
 10
-1.90317
 20
2.31903
 11
-1.78709
 21
2.40962
  0
LINE
  8
0
 10
-1.78709
 20
2.40962
 11
-1.6667
 21
2.4944
  0
LINE
  8
0
 10
-1.6667
 20
2.4944
 11
-1.5423
 21
2.57318
  0
LINE
  8
0
 10
-1.5423
 20
2.57318
 11
-1.41418
 21
2.64575
  0
LINE
  8
0
 10
-1.41418
 20
2.64575
 11
-1.28265
 21
2.71196
  0
LINE
  8
0
 10
-1.28265
 20
2.71196
 11
-1.14804
 21
2.77164
  0
LINE
  8
0
 10
-1.14804
 20
2.77164
 11
-1.01067
 21
2.82463
  0
LINE
  8
0
 10
-1.01067
 20
2.82463
 11
-0.87085
 21
2.87082
  0
LINE
  8
0
 10
-0.87085
 20
2.87082
 11
-0.728928
 21
2.91008
  0
LINE
  8
0
 10
-0.728928
 20
2.91008
 11
-0.585266
 21
2.94235
  0
LINE
  8
0
 10
-0.585266
 20
2.94235
 11
-0.440186
 21
2.96753
  0
LINE
  8
0
 10
-0.440186
 20
2.96753
 11
-0.294037
 21
2.98555
  0
LINE
  8
0
 10
-0.294037
 20
2.98555
 11
-0.147202
 21
2.99638
  0
LINE
  8
0
 10
-0.147202
 20
2.99638
 11
0
 21
3
  0
LINE
  8
0
 10
0
 20
3
 11
0.147202
 21
2.99638
  0
LINE
  8
0
 10
0.147202
 20
2.99638
 11
0.294037
 21
2.98555
  0
LINE
  8
0
 10
0.294037
 20
2.98555
 11
0.440186
 21
2.96753
  0
LINE
  8
0
 10
0.440186
 20
2.96753
 11
0.585266
 21
2.94235
  0
LINE
  8
0
 10
0.585266
 20
2.94235
 11
0.728928
 21
2.91008
  0
LINE
  8
0
 10
0.728928
 20
2.91008
 11
0.87085
 21
2.87082
  0
LINE
  8
0
 10
0.87085
 20
2.87082
 11
1.01067
 21
2.82463
  0
LINE
  8
0
 10
1.01067
 20
2.82463
 11
1.14804
 21
2.77164
  0
LINE
  8
0
 10
1.14804
 20
2.77164
 11
1.28265
 21
2.71196
  0
LINE
  8
0
 10
1.28265
 20
2.71196
 11
1.41418
 21
2.64575
  0
LINE
  8
0
 10
1.41418
 20
2.64575
 11
1.5423
 21
2.57318
  0
LINE
  8
0
 10
1.5423
 20
2.57318
 11
1.6667
 21
2.4944
  0
LINE
  8
0
 10
1.6667
 20
2.4944
 11
1.78709
 21
2.40962
  0
LINE
  8
0
 10
1.78709
 20
2.40962
 11
1.90317
 21
2.31903
  0
LINE
  8
0
 10
1.90317
 20
2.31903
 11
2.01466
 21
2.22284
  0
LINE
  8
0
 10
2.01466
 20
2.22284
 11
2.12131
 21
2.12131
  0
LINE
  8
0
 10
2.12131
 20
2.12131
 11
2.22284
 21
2.01466
  0
LINE
  8
0
 10
2.22284
 20
2.01466
 11
2.31903
 21
1.90317
  0
LINE
  8
0
 10
2.31903
 20
1.90317
 11
2.40962
 21
1.78709
  0
LINE
  8
0
 10
2.40962
 20
1.78709
 11
2.4944
 21
1.6667
  0
LINE
  8
0
 10
2.4944
 20
1.6667
 11
2.57318
 21
1.5423
  0
LINE
  8
0
 10
2.57318
 20
1.5423
 11
2.64575
 21
1.41418
  0
LINE
  8
0
 10
2.64575
 20
1.41418
 11
2.71196
 21
1.28265
  0
LINE
  8
0
 10
2.71196
 20
1.28265
 11
2.77164
 21
1.14804
  0
LINE
  8
0
 10
2.77164
 20
1.14804
 11
2.82463
 21
1.01067
  0
LINE
  8
0
 10
2.82463
 20
1.01067
 11
2.87082
 21
0.87085
  0
LINE
  8
0
 10
2.87082
 20
0.87085
 11
2.91008
 21
0.728928
  0
LINE
  8
0
 10
2.91008
 20
0.728928
 11
2.94235
 21
0.585266
  0
LINE
  8
0
 10
2.94235
 20
0.585266
 11
2.96753
 21
0.440186
  0
LINE
  8
0
 10
2.96753
 20
0.440186
 11
2.98555
 21
0.294037
  0
LINE
  8
0
 10
2.98555
 20
0.294037
 11
2.99638
 21
0.147202
  0
LINE
  8
0
 10
2.99638
 20
0.147202
 11
3
 21
0
  0
LINE
  8
0
 10
3
 20
0
 11
2.99638
 21
-0.147202
  0
LINE
  8
0
 10
2.99638
 20
-0.147202
 11
2.98555
 21
-0.294037
  0
LINE
  8
0
 10
2.98555
 20
-0.294037
 11
2.96753
 21
-0.440186
  0
LINE
  8
0
 10
2.96753
 20
-0.440186
 11
2.94235
 21
-0.585266
  0
LINE
  8
0
 10
2.94235
 20
-0.585266
 11
2.91008
 21
-0.728928
  0
LINE
  8
0
 10
2.91008
 20
-0.728928
 11
2.87082
 21
-0.87085
  0
LINE
  8
0
 10
2.87082
 20
-0.87085
 11
2.82463
 21
-1.01067
  0
LINE
  8
0
 10
2.82463
 20
-1.01067
 11
2.77164
 21
-1.14804
  0
LINE
  8
0
 10
2.77164
 20
-1.14804
 11
2.71196
 21
-1.28265
  0
LINE
  8
0
 10
2.71196
 20
-1.28265
 11
2.64575
 21
-1.41418
  0
LINE
  8
0
 10
2.64575
 20
-1.41418
 11
2.57318
 21
-1.5423
  0
LINE
  8
0
 10
2.57318
 20
-1.5423
 11
2.4944
 21
-1.6667
  0
LINE
  8
0
 10
2.4944
 20
-1.6667
 11
2.40962
 21
-1.78709
  0
LINE
  8
0
 10
2.40962
 20
-1.78709
 11
2.31903
 21
-1.90317
  0
LINE
  8
0
 10
2.31903
 20
-1.90317
 11
2.22284
 21
-2.01466
  0
LINE
  8
0
 10
2.22284
 20
-2.01466
 11
2.12131
 21
-2.12131
  0
LINE
  8
0
 10
2.12131
 20
-2.12131
 11
2.01466
 21
-2.22284
  0
LINE
  8
0
 10
2.01466
 20
-2.22284
 11
1.90317
 21
-2.31903
  0
LINE
  8
0
 10
1.90317
 20
-2.31903
 11
1.78709
 21
-2.40962
  0
LINE
  8
0
 10
1.78709
 20
-2.40962
 11
1.6667
 21
-2.4944
  0
LINE
  8
0
 10
1.6667
 20
-2.4944
 11
1.5423
 21
-2.57318
  0
LINE
  8
0
 10
1.5423
 20
-2.57318
 11
1.41418
 21
-2.64575
  0
LINE
  8
0
 10
1.41418
 20
-2.64575
 11
1.28265
 21
-2.71196
  0
LINE
  8
0
 10
1.28265
 20
-2.71196
 11
1.14804
 21
-2.77164
  0
LINE
  8
0
 10
1.14804
 20
-2.77164
 11
1.01067
 21
-2.82463
  0
LINE
  8
0
 10
1.01067
 20
-2.82463
 11
0.87085
 21
-2.87082
  0
LINE
  8
0
 10
0.87085
 20
-2.87082
 11
0.728928
 21
-2.91008
  0
LINE
  8
0
 10
0.728928
 20
-2.91008
 11
0.585266
 21
-2.94235
  0
LINE
  8
0
 10
0.585266
 20
-2.94235
 11
0.440186
 21
-2.96753
  0
LINE
  8
0
 10
0.440186
 20
-2.96753
 11
0.294037
 21
-2.98555
  0
LINE
  8
0
 10
0.294037
 20
-2.98555
 11
0.147202
 21
-2.99638
  0
LINE
  8
0
 10
0.147202
 20
-2.99638
 11
0
 21
-3
  0
LINE
  8
0
 10
0
 20
-3
 11
-0.147202
 21
-2.99638
  0
ENDSEC
  0
SECTION
  2
OBJECTS
  0
DICTIONARY
  0
ENDSEC
  0
EOF
